999
"DXF R12 Output" (www.mydxf.blogspot.com)
 0 
SECTION
 2 
HEADER
 9 
$ACADVER
 1 
AC1009
 9 
$EXTMIN
 10 
 0 
 20 
 0 
 9 
$EXTMAX
 10 
 8.5 
 20 
 11 
 0 
ENDSEC
 0 
SECTION
 2 
ENTITIES
0
LINE
8
Layer 1
10
15.822100
20
59.580700
11
15.571956
21
58.323084
0
LINE
8
Layer 1
10
15.571956
20
58.323084
11
14.859577
21
57.256927
0
LINE
8
Layer 1
10
14.859577
20
57.256927
11
13.793420
21
56.544547
0
LINE
8
Layer 1
10
13.793420
20
56.544547
11
12.535800
21
56.294400
0
LINE
8
Layer 1
10
12.535800
20
56.294400
11
11.256642
21
56.552669
0
LINE
8
Layer 1
10
11.256642
20
56.552669
11
10.212074
21
57.256955
0
LINE
8
Layer 1
10
10.212074
20
57.256955
11
9.507815
21
58.301539
0
LINE
8
Layer 1
10
9.507815
20
58.301539
11
9.249580
21
59.580700
0
LINE
8
Layer 1
10
9.249580
20
59.580700
11
9.507844
21
60.859829
0
LINE
8
Layer 1
10
9.507844
20
60.859829
11
10.212110
21
61.904380
0
LINE
8
Layer 1
10
10.212110
20
61.904380
11
11.256666
21
62.608641
0
LINE
8
Layer 1
10
11.256666
20
62.608641
11
12.535800
21
62.866900
0
LINE
8
Layer 1
10
12.535800
20
62.866900
11
13.814960
21
62.608664
0
LINE
8
Layer 1
10
13.814960
20
62.608664
11
14.859542
21
61.904409
0
LINE
8
Layer 1
10
14.859542
20
61.904409
11
15.563828
21
60.859849
0
LINE
8
Layer 1
10
15.563828
20
60.859849
11
15.822100
21
59.580700
0
LINE
8
Layer 1
10
15.822100
20
59.580700
11
15.822100
21
59.580700
0
LINE
8
Layer 1
10
24.608100
20
59.580700
11
24.349867
21
58.301543
0
LINE
8
Layer 1
10
24.349867
20
58.301543
11
23.645613
21
57.256962
0
LINE
8
Layer 1
10
23.645613
20
57.256962
11
22.601052
21
56.552675
0
LINE
8
Layer 1
10
22.601052
20
56.552675
11
21.321900
21
56.294400
0
LINE
8
Layer 1
10
21.321900
20
56.294400
11
20.064280
21
56.544547
0
LINE
8
Layer 1
10
20.064280
20
56.544547
11
18.998123
21
57.256927
0
LINE
8
Layer 1
10
18.998123
20
57.256927
11
18.285744
21
58.323084
0
LINE
8
Layer 1
10
18.285744
20
58.323084
11
18.035600
21
59.580700
0
LINE
8
Layer 1
10
18.035600
20
59.580700
11
18.293872
21
60.859849
0
LINE
8
Layer 1
10
18.293872
20
60.859849
11
18.998158
21
61.904409
0
LINE
8
Layer 1
10
18.998158
20
61.904409
11
20.042740
21
62.608664
0
LINE
8
Layer 1
10
20.042740
20
62.608664
11
21.321900
21
62.866900
0
LINE
8
Layer 1
10
21.321900
20
62.866900
11
22.601028
21
62.608635
0
LINE
8
Layer 1
10
22.601028
20
62.608635
11
23.645577
21
61.904373
0
LINE
8
Layer 1
10
23.645577
20
61.904373
11
24.349838
21
60.859824
0
LINE
8
Layer 1
10
24.349838
20
60.859824
11
24.608100
21
59.580700
0
LINE
8
Layer 1
10
24.608100
20
59.580700
11
24.608100
21
59.580700
0
LINE
8
Layer 1
10
15.822100
20
50.565900
11
15.571956
21
49.308284
0
LINE
8
Layer 1
10
15.571956
20
49.308284
11
14.859577
21
48.242127
0
LINE
8
Layer 1
10
14.859577
20
48.242127
11
13.793420
21
47.529747
0
LINE
8
Layer 1
10
13.793420
20
47.529747
11
12.535800
21
47.279600
0
LINE
8
Layer 1
10
12.535800
20
47.279600
11
11.256642
21
47.537869
0
LINE
8
Layer 1
10
11.256642
20
47.537869
11
10.212074
21
48.242155
0
LINE
8
Layer 1
10
10.212074
20
48.242155
11
9.507815
21
49.286739
0
LINE
8
Layer 1
10
9.507815
20
49.286739
11
9.249580
21
50.565900
0
LINE
8
Layer 1
10
9.249580
20
50.565900
11
9.507844
21
51.845029
0
LINE
8
Layer 1
10
9.507844
20
51.845029
11
10.212110
21
52.889580
0
LINE
8
Layer 1
10
10.212110
20
52.889580
11
11.256666
21
53.593841
0
LINE
8
Layer 1
10
11.256666
20
53.593841
11
12.535800
21
53.852100
0
LINE
8
Layer 1
10
12.535800
20
53.852100
11
13.814960
21
53.593864
0
LINE
8
Layer 1
10
13.814960
20
53.593864
11
14.859542
21
52.889609
0
LINE
8
Layer 1
10
14.859542
20
52.889609
11
15.563828
21
51.845049
0
LINE
8
Layer 1
10
15.563828
20
51.845049
11
15.822100
21
50.565900
0
LINE
8
Layer 1
10
15.822100
20
50.565900
11
15.822100
21
50.565900
0
LINE
8
Layer 1
10
24.608100
20
50.565900
11
24.349867
21
49.286743
0
LINE
8
Layer 1
10
24.349867
20
49.286743
11
23.645613
21
48.242162
0
LINE
8
Layer 1
10
23.645613
20
48.242162
11
22.601052
21
47.537875
0
LINE
8
Layer 1
10
22.601052
20
47.537875
11
21.321900
21
47.279600
0
LINE
8
Layer 1
10
21.321900
20
47.279600
11
20.064280
21
47.529747
0
LINE
8
Layer 1
10
20.064280
20
47.529747
11
18.998123
21
48.242127
0
LINE
8
Layer 1
10
18.998123
20
48.242127
11
18.285744
21
49.308284
0
LINE
8
Layer 1
10
18.285744
20
49.308284
11
18.035600
21
50.565900
0
LINE
8
Layer 1
10
18.035600
20
50.565900
11
18.293872
21
51.845049
0
LINE
8
Layer 1
10
18.293872
20
51.845049
11
18.998158
21
52.889609
0
LINE
8
Layer 1
10
18.998158
20
52.889609
11
20.042740
21
53.593864
0
LINE
8
Layer 1
10
20.042740
20
53.593864
11
21.321900
21
53.852100
0
LINE
8
Layer 1
10
21.321900
20
53.852100
11
22.601028
21
53.593835
0
LINE
8
Layer 1
10
22.601028
20
53.593835
11
23.645577
21
52.889573
0
LINE
8
Layer 1
10
23.645577
20
52.889573
11
24.349838
21
51.845024
0
LINE
8
Layer 1
10
24.349838
20
51.845024
11
24.608100
21
50.565900
0
LINE
8
Layer 1
10
24.608100
20
50.565900
11
24.608100
21
50.565900
0
LINE
8
Layer 1
10
33.394100
20
59.580700
11
33.135867
21
58.301543
0
LINE
8
Layer 1
10
33.135867
20
58.301543
11
32.431613
21
57.256962
0
LINE
8
Layer 1
10
32.431613
20
57.256962
11
31.387052
21
56.552675
0
LINE
8
Layer 1
10
31.387052
20
56.552675
11
30.107900
21
56.294400
0
LINE
8
Layer 1
10
30.107900
20
56.294400
11
28.850280
21
56.544547
0
LINE
8
Layer 1
10
28.850280
20
56.544547
11
27.784123
21
57.256927
0
LINE
8
Layer 1
10
27.784123
20
57.256927
11
27.071744
21
58.323084
0
LINE
8
Layer 1
10
27.071744
20
58.323084
11
26.821600
21
59.580700
0
LINE
8
Layer 1
10
26.821600
20
59.580700
11
27.079872
21
60.859849
0
LINE
8
Layer 1
10
27.079872
20
60.859849
11
27.784158
21
61.904409
0
LINE
8
Layer 1
10
27.784158
20
61.904409
11
28.828740
21
62.608664
0
LINE
8
Layer 1
10
28.828740
20
62.608664
11
30.107900
21
62.866900
0
LINE
8
Layer 1
10
30.107900
20
62.866900
11
31.387028
21
62.608635
0
LINE
8
Layer 1
10
31.387028
20
62.608635
11
32.431577
21
61.904373
0
LINE
8
Layer 1
10
32.431577
20
61.904373
11
33.135838
21
60.859824
0
LINE
8
Layer 1
10
33.135838
20
60.859824
11
33.394100
21
59.580700
0
LINE
8
Layer 1
10
33.394100
20
59.580700
11
33.394100
21
59.580700
0
LINE
8
Layer 1
10
42.180200
20
59.580700
11
41.930056
21
58.323084
0
LINE
8
Layer 1
10
41.930056
20
58.323084
11
41.217677
21
57.256927
0
LINE
8
Layer 1
10
41.217677
20
57.256927
11
40.151520
21
56.544547
0
LINE
8
Layer 1
10
40.151520
20
56.544547
11
38.893900
21
56.294400
0
LINE
8
Layer 1
10
38.893900
20
56.294400
11
37.636280
21
56.544547
0
LINE
8
Layer 1
10
37.636280
20
56.544547
11
36.570123
21
57.256927
0
LINE
8
Layer 1
10
36.570123
20
57.256927
11
35.857744
21
58.323084
0
LINE
8
Layer 1
10
35.857744
20
58.323084
11
35.607600
21
59.580700
0
LINE
8
Layer 1
10
35.607600
20
59.580700
11
35.865872
21
60.859849
0
LINE
8
Layer 1
10
35.865872
20
60.859849
11
36.570158
21
61.904409
0
LINE
8
Layer 1
10
36.570158
20
61.904409
11
37.614740
21
62.608664
0
LINE
8
Layer 1
10
37.614740
20
62.608664
11
38.893900
21
62.866900
0
LINE
8
Layer 1
10
38.893900
20
62.866900
11
40.173060
21
62.608664
0
LINE
8
Layer 1
10
40.173060
20
62.608664
11
41.217642
21
61.904409
0
LINE
8
Layer 1
10
41.217642
20
61.904409
11
41.921928
21
60.859849
0
LINE
8
Layer 1
10
41.921928
20
60.859849
11
42.180200
21
59.580700
0
LINE
8
Layer 1
10
42.180200
20
59.580700
11
42.180200
21
59.580700
0
LINE
8
Layer 1
10
33.394100
20
50.565900
11
33.143948
21
49.308303
0
LINE
8
Layer 1
10
33.143948
20
49.308303
11
32.431574
21
48.242163
0
LINE
8
Layer 1
10
32.431574
20
48.242163
11
31.365431
21
47.529792
0
LINE
8
Layer 1
10
31.365431
20
47.529792
11
30.107830
21
47.279640
0
LINE
8
Layer 1
10
30.107830
20
47.279640
11
28.828669
21
47.537893
0
LINE
8
Layer 1
10
28.828669
20
47.537893
11
27.784093
21
48.242167
0
LINE
8
Layer 1
10
27.784093
20
48.242167
11
27.079820
21
49.286742
0
LINE
8
Layer 1
10
27.079820
20
49.286742
11
26.821570
21
50.565900
0
LINE
8
Layer 1
10
26.821570
20
50.565900
11
27.071719
21
51.823498
0
LINE
8
Layer 1
10
27.071719
20
51.823498
11
27.784089
21
52.889640
0
LINE
8
Layer 1
10
27.784089
20
52.889640
11
28.850230
21
53.602015
0
LINE
8
Layer 1
10
28.850230
20
53.602015
11
30.107830
21
53.852170
0
LINE
8
Layer 1
10
30.107830
20
53.852170
11
31.365433
21
53.602017
0
LINE
8
Layer 1
10
31.365433
20
53.602017
11
32.431577
21
52.889643
0
LINE
8
Layer 1
10
32.431577
20
52.889643
11
33.143950
21
51.823500
0
LINE
8
Layer 1
10
33.143950
20
51.823500
11
33.394100
21
50.565900
0
LINE
8
Layer 1
10
33.394100
20
50.565900
11
33.394100
21
50.565900
0
LINE
8
Layer 1
10
42.180200
20
50.565900
11
41.930048
21
49.308303
0
LINE
8
Layer 1
10
41.930048
20
49.308303
11
41.217674
21
48.242163
0
LINE
8
Layer 1
10
41.217674
20
48.242163
11
40.151531
21
47.529792
0
LINE
8
Layer 1
10
40.151531
20
47.529792
11
38.893930
21
47.279640
0
LINE
8
Layer 1
10
38.893930
20
47.279640
11
37.636329
21
47.529792
0
LINE
8
Layer 1
10
37.636329
20
47.529792
11
36.570186
21
48.242163
0
LINE
8
Layer 1
10
36.570186
20
48.242163
11
35.857812
21
49.308303
0
LINE
8
Layer 1
10
35.857812
20
49.308303
11
35.607660
21
50.565900
0
LINE
8
Layer 1
10
35.607660
20
50.565900
11
35.857810
21
51.823500
0
LINE
8
Layer 1
10
35.857810
20
51.823500
11
36.570183
21
52.889643
0
LINE
8
Layer 1
10
36.570183
20
52.889643
11
37.636327
21
53.602017
0
LINE
8
Layer 1
10
37.636327
20
53.602017
11
38.893930
21
53.852170
0
LINE
8
Layer 1
10
38.893930
20
53.852170
11
40.151533
21
53.602017
0
LINE
8
Layer 1
10
40.151533
20
53.602017
11
41.217677
21
52.889643
0
LINE
8
Layer 1
10
41.217677
20
52.889643
11
41.930050
21
51.823500
0
LINE
8
Layer 1
10
41.930050
20
51.823500
11
42.180200
21
50.565900
0
LINE
8
Layer 1
10
42.180200
20
50.565900
11
42.180200
21
50.565900
0
LINE
8
Layer 1
10
50.966200
20
59.580700
11
50.716056
21
58.323084
0
LINE
8
Layer 1
10
50.716056
20
58.323084
11
50.003677
21
57.256927
0
LINE
8
Layer 1
10
50.003677
20
57.256927
11
48.937520
21
56.544547
0
LINE
8
Layer 1
10
48.937520
20
56.544547
11
47.679900
21
56.294400
0
LINE
8
Layer 1
10
47.679900
20
56.294400
11
46.422280
21
56.544547
0
LINE
8
Layer 1
10
46.422280
20
56.544547
11
45.356123
21
57.256927
0
LINE
8
Layer 1
10
45.356123
20
57.256927
11
44.643744
21
58.323084
0
LINE
8
Layer 1
10
44.643744
20
58.323084
11
44.393600
21
59.580700
0
LINE
8
Layer 1
10
44.393600
20
59.580700
11
44.651872
21
60.859849
0
LINE
8
Layer 1
10
44.651872
20
60.859849
11
45.356158
21
61.904409
0
LINE
8
Layer 1
10
45.356158
20
61.904409
11
46.400740
21
62.608664
0
LINE
8
Layer 1
10
46.400740
20
62.608664
11
47.679900
21
62.866900
0
LINE
8
Layer 1
10
47.679900
20
62.866900
11
48.959060
21
62.608664
0
LINE
8
Layer 1
10
48.959060
20
62.608664
11
50.003642
21
61.904409
0
LINE
8
Layer 1
10
50.003642
20
61.904409
11
50.707928
21
60.859849
0
LINE
8
Layer 1
10
50.707928
20
60.859849
11
50.966200
21
59.580700
0
LINE
8
Layer 1
10
50.966200
20
59.580700
11
50.966200
21
59.580700
0
LINE
8
Layer 1
10
50.966200
20
50.565900
11
50.716048
21
49.308303
0
LINE
8
Layer 1
10
50.716048
20
49.308303
11
50.003674
21
48.242163
0
LINE
8
Layer 1
10
50.003674
20
48.242163
11
48.937531
21
47.529792
0
LINE
8
Layer 1
10
48.937531
20
47.529792
11
47.679930
21
47.279640
0
LINE
8
Layer 1
10
47.679930
20
47.279640
11
46.400765
21
47.537891
0
LINE
8
Layer 1
10
46.400765
20
47.537891
11
45.356186
21
48.242163
0
LINE
8
Layer 1
10
45.356186
20
48.242163
11
44.651911
21
49.286739
0
LINE
8
Layer 1
10
44.651911
20
49.286739
11
44.393660
21
50.565900
0
LINE
8
Layer 1
10
44.393660
20
50.565900
11
44.643810
21
51.823500
0
LINE
8
Layer 1
10
44.643810
20
51.823500
11
45.356183
21
52.889643
0
LINE
8
Layer 1
10
45.356183
20
52.889643
11
46.422327
21
53.602017
0
LINE
8
Layer 1
10
46.422327
20
53.602017
11
47.679930
21
53.852170
0
LINE
8
Layer 1
10
47.679930
20
53.852170
11
48.937533
21
53.602017
0
LINE
8
Layer 1
10
48.937533
20
53.602017
11
50.003677
21
52.889643
0
LINE
8
Layer 1
10
50.003677
20
52.889643
11
50.716050
21
51.823500
0
LINE
8
Layer 1
10
50.716050
20
51.823500
11
50.966200
21
50.565900
0
LINE
8
Layer 1
10
50.966200
20
50.565900
11
50.966200
21
50.565900
0
LINE
8
Layer 1
10
15.822100
20
42.031400
11
15.571956
21
40.773784
0
LINE
8
Layer 1
10
15.571956
20
40.773784
11
14.859577
21
39.707627
0
LINE
8
Layer 1
10
14.859577
20
39.707627
11
13.793420
21
38.995247
0
LINE
8
Layer 1
10
13.793420
20
38.995247
11
12.535800
21
38.745100
0
LINE
8
Layer 1
10
12.535800
20
38.745100
11
11.256642
21
39.003369
0
LINE
8
Layer 1
10
11.256642
20
39.003369
11
10.212074
21
39.707655
0
LINE
8
Layer 1
10
10.212074
20
39.707655
11
9.507815
21
40.752239
0
LINE
8
Layer 1
10
9.507815
20
40.752239
11
9.249580
21
42.031400
0
LINE
8
Layer 1
10
9.249580
20
42.031400
11
9.507815
21
43.310561
0
LINE
8
Layer 1
10
9.507815
20
43.310561
11
10.212074
21
44.355145
0
LINE
8
Layer 1
10
10.212074
20
44.355145
11
11.256642
21
45.059431
0
LINE
8
Layer 1
10
11.256642
20
45.059431
11
12.535800
21
45.317700
0
LINE
8
Layer 1
10
12.535800
20
45.317700
11
13.793420
21
45.067553
0
LINE
8
Layer 1
10
13.793420
20
45.067553
11
14.859577
21
44.355173
0
LINE
8
Layer 1
10
14.859577
20
44.355173
11
15.571956
21
43.289016
0
LINE
8
Layer 1
10
15.571956
20
43.289016
11
15.822100
21
42.031400
0
LINE
8
Layer 1
10
15.822100
20
42.031400
11
15.822100
21
42.031400
0
LINE
8
Layer 1
10
24.608100
20
42.031400
11
24.349867
21
40.752243
0
LINE
8
Layer 1
10
24.349867
20
40.752243
11
23.645613
21
39.707662
0
LINE
8
Layer 1
10
23.645613
20
39.707662
11
22.601052
21
39.003375
0
LINE
8
Layer 1
10
22.601052
20
39.003375
11
21.321900
21
38.745100
0
LINE
8
Layer 1
10
21.321900
20
38.745100
11
20.064280
21
38.995247
0
LINE
8
Layer 1
10
20.064280
20
38.995247
11
18.998123
21
39.707627
0
LINE
8
Layer 1
10
18.998123
20
39.707627
11
18.285744
21
40.773784
0
LINE
8
Layer 1
10
18.285744
20
40.773784
11
18.035600
21
42.031400
0
LINE
8
Layer 1
10
18.035600
20
42.031400
11
18.285744
21
43.289016
0
LINE
8
Layer 1
10
18.285744
20
43.289016
11
18.998123
21
44.355173
0
LINE
8
Layer 1
10
18.998123
20
44.355173
11
20.064280
21
45.067553
0
LINE
8
Layer 1
10
20.064280
20
45.067553
11
21.321900
21
45.317700
0
LINE
8
Layer 1
10
21.321900
20
45.317700
11
22.601052
21
45.059425
0
LINE
8
Layer 1
10
22.601052
20
45.059425
11
23.645613
21
44.355138
0
LINE
8
Layer 1
10
23.645613
20
44.355138
11
24.349867
21
43.310557
0
LINE
8
Layer 1
10
24.349867
20
43.310557
11
24.608100
21
42.031400
0
LINE
8
Layer 1
10
24.608100
20
42.031400
11
24.608100
21
42.031400
0
LINE
8
Layer 1
10
15.822100
20
33.123300
11
15.571956
21
31.865684
0
LINE
8
Layer 1
10
15.571956
20
31.865684
11
14.859577
21
30.799527
0
LINE
8
Layer 1
10
14.859577
20
30.799527
11
13.793420
21
30.087147
0
LINE
8
Layer 1
10
13.793420
20
30.087147
11
12.535800
21
29.837000
0
LINE
8
Layer 1
10
12.535800
20
29.837000
11
11.256642
21
30.095269
0
LINE
8
Layer 1
10
11.256642
20
30.095269
11
10.212074
21
30.799555
0
LINE
8
Layer 1
10
10.212074
20
30.799555
11
9.507815
21
31.844139
0
LINE
8
Layer 1
10
9.507815
20
31.844139
11
9.249580
21
33.123300
0
LINE
8
Layer 1
10
9.249580
20
33.123300
11
9.507844
21
34.402429
0
LINE
8
Layer 1
10
9.507844
20
34.402429
11
10.212110
21
35.446980
0
LINE
8
Layer 1
10
10.212110
20
35.446980
11
11.256666
21
36.151241
0
LINE
8
Layer 1
10
11.256666
20
36.151241
11
12.535800
21
36.409500
0
LINE
8
Layer 1
10
12.535800
20
36.409500
11
13.814960
21
36.151264
0
LINE
8
Layer 1
10
13.814960
20
36.151264
11
14.859542
21
35.447009
0
LINE
8
Layer 1
10
14.859542
20
35.447009
11
15.563828
21
34.402449
0
LINE
8
Layer 1
10
15.563828
20
34.402449
11
15.822100
21
33.123300
0
LINE
8
Layer 1
10
15.822100
20
33.123300
11
15.822100
21
33.123300
0
LINE
8
Layer 1
10
24.608100
20
33.123300
11
24.349867
21
31.844143
0
LINE
8
Layer 1
10
24.349867
20
31.844143
11
23.645613
21
30.799562
0
LINE
8
Layer 1
10
23.645613
20
30.799562
11
22.601052
21
30.095275
0
LINE
8
Layer 1
10
22.601052
20
30.095275
11
21.321900
21
29.837000
0
LINE
8
Layer 1
10
21.321900
20
29.837000
11
20.064280
21
30.087147
0
LINE
8
Layer 1
10
20.064280
20
30.087147
11
18.998123
21
30.799527
0
LINE
8
Layer 1
10
18.998123
20
30.799527
11
18.285744
21
31.865684
0
LINE
8
Layer 1
10
18.285744
20
31.865684
11
18.035600
21
33.123300
0
LINE
8
Layer 1
10
18.035600
20
33.123300
11
18.293872
21
34.402449
0
LINE
8
Layer 1
10
18.293872
20
34.402449
11
18.998158
21
35.447009
0
LINE
8
Layer 1
10
18.998158
20
35.447009
11
20.042740
21
36.151264
0
LINE
8
Layer 1
10
20.042740
20
36.151264
11
21.321900
21
36.409500
0
LINE
8
Layer 1
10
21.321900
20
36.409500
11
22.601028
21
36.151235
0
LINE
8
Layer 1
10
22.601028
20
36.151235
11
23.645577
21
35.446973
0
LINE
8
Layer 1
10
23.645577
20
35.446973
11
24.349838
21
34.402424
0
LINE
8
Layer 1
10
24.349838
20
34.402424
11
24.608100
21
33.123300
0
LINE
8
Layer 1
10
24.608100
20
33.123300
11
24.608100
21
33.123300
0
LINE
8
Layer 1
10
33.394100
20
42.031400
11
33.143948
21
40.773803
0
LINE
8
Layer 1
10
33.143948
20
40.773803
11
32.431574
21
39.707663
0
LINE
8
Layer 1
10
32.431574
20
39.707663
11
31.365431
21
38.995292
0
LINE
8
Layer 1
10
31.365431
20
38.995292
11
30.107830
21
38.745140
0
LINE
8
Layer 1
10
30.107830
20
38.745140
11
28.828669
21
39.003393
0
LINE
8
Layer 1
10
28.828669
20
39.003393
11
27.784093
21
39.707667
0
LINE
8
Layer 1
10
27.784093
20
39.707667
11
27.079820
21
40.752242
0
LINE
8
Layer 1
10
27.079820
20
40.752242
11
26.821570
21
42.031400
0
LINE
8
Layer 1
10
26.821570
20
42.031400
11
27.071719
21
43.288998
0
LINE
8
Layer 1
10
27.071719
20
43.288998
11
27.784089
21
44.355140
0
LINE
8
Layer 1
10
27.784089
20
44.355140
11
28.850230
21
45.067515
0
LINE
8
Layer 1
10
28.850230
20
45.067515
11
30.107830
21
45.317670
0
LINE
8
Layer 1
10
30.107830
20
45.317670
11
31.365433
21
45.067517
0
LINE
8
Layer 1
10
31.365433
20
45.067517
11
32.431577
21
44.355143
0
LINE
8
Layer 1
10
32.431577
20
44.355143
11
33.143950
21
43.289000
0
LINE
8
Layer 1
10
33.143950
20
43.289000
11
33.394100
21
42.031400
0
LINE
8
Layer 1
10
33.394100
20
42.031400
11
33.394100
21
42.031400
0
LINE
8
Layer 1
10
42.180200
20
42.031400
11
41.930048
21
40.773803
0
LINE
8
Layer 1
10
41.930048
20
40.773803
11
41.217674
21
39.707663
0
LINE
8
Layer 1
10
41.217674
20
39.707663
11
40.151531
21
38.995292
0
LINE
8
Layer 1
10
40.151531
20
38.995292
11
38.893930
21
38.745140
0
LINE
8
Layer 1
10
38.893930
20
38.745140
11
37.636329
21
38.995292
0
LINE
8
Layer 1
10
37.636329
20
38.995292
11
36.570186
21
39.707663
0
LINE
8
Layer 1
10
36.570186
20
39.707663
11
35.857812
21
40.773803
0
LINE
8
Layer 1
10
35.857812
20
40.773803
11
35.607660
21
42.031400
0
LINE
8
Layer 1
10
35.607660
20
42.031400
11
35.857810
21
43.289000
0
LINE
8
Layer 1
10
35.857810
20
43.289000
11
36.570183
21
44.355143
0
LINE
8
Layer 1
10
36.570183
20
44.355143
11
37.636327
21
45.067517
0
LINE
8
Layer 1
10
37.636327
20
45.067517
11
38.893930
21
45.317670
0
LINE
8
Layer 1
10
38.893930
20
45.317670
11
40.151533
21
45.067517
0
LINE
8
Layer 1
10
40.151533
20
45.067517
11
41.217677
21
44.355143
0
LINE
8
Layer 1
10
41.217677
20
44.355143
11
41.930050
21
43.289000
0
LINE
8
Layer 1
10
41.930050
20
43.289000
11
42.180200
21
42.031400
0
LINE
8
Layer 1
10
42.180200
20
42.031400
11
42.180200
21
42.031400
0
LINE
8
Layer 1
10
33.394100
20
33.123300
11
33.143948
21
31.865703
0
LINE
8
Layer 1
10
33.143948
20
31.865703
11
32.431574
21
30.799563
0
LINE
8
Layer 1
10
32.431574
20
30.799563
11
31.365431
21
30.087192
0
LINE
8
Layer 1
10
31.365431
20
30.087192
11
30.107830
21
29.837040
0
LINE
8
Layer 1
10
30.107830
20
29.837040
11
28.828669
21
30.095293
0
LINE
8
Layer 1
10
28.828669
20
30.095293
11
27.784093
21
30.799567
0
LINE
8
Layer 1
10
27.784093
20
30.799567
11
27.079820
21
31.844142
0
LINE
8
Layer 1
10
27.079820
20
31.844142
11
26.821570
21
33.123300
0
LINE
8
Layer 1
10
26.821570
20
33.123300
11
27.071719
21
34.380898
0
LINE
8
Layer 1
10
27.071719
20
34.380898
11
27.784089
21
35.447040
0
LINE
8
Layer 1
10
27.784089
20
35.447040
11
28.850230
21
36.159415
0
LINE
8
Layer 1
10
28.850230
20
36.159415
11
30.107830
21
36.409570
0
LINE
8
Layer 1
10
30.107830
20
36.409570
11
31.365433
21
36.159417
0
LINE
8
Layer 1
10
31.365433
20
36.159417
11
32.431577
21
35.447043
0
LINE
8
Layer 1
10
32.431577
20
35.447043
11
33.143950
21
34.380900
0
LINE
8
Layer 1
10
33.143950
20
34.380900
11
33.394100
21
33.123300
0
LINE
8
Layer 1
10
33.394100
20
33.123300
11
33.394100
21
33.123300
0
LINE
8
Layer 1
10
42.180200
20
33.123300
11
41.930048
21
31.865703
0
LINE
8
Layer 1
10
41.930048
20
31.865703
11
41.217674
21
30.799563
0
LINE
8
Layer 1
10
41.217674
20
30.799563
11
40.151531
21
30.087192
0
LINE
8
Layer 1
10
40.151531
20
30.087192
11
38.893930
21
29.837040
0
LINE
8
Layer 1
10
38.893930
20
29.837040
11
37.636329
21
30.087192
0
LINE
8
Layer 1
10
37.636329
20
30.087192
11
36.570186
21
30.799563
0
LINE
8
Layer 1
10
36.570186
20
30.799563
11
35.857812
21
31.865703
0
LINE
8
Layer 1
10
35.857812
20
31.865703
11
35.607660
21
33.123300
0
LINE
8
Layer 1
10
35.607660
20
33.123300
11
35.857810
21
34.380900
0
LINE
8
Layer 1
10
35.857810
20
34.380900
11
36.570183
21
35.447043
0
LINE
8
Layer 1
10
36.570183
20
35.447043
11
37.636327
21
36.159417
0
LINE
8
Layer 1
10
37.636327
20
36.159417
11
38.893930
21
36.409570
0
LINE
8
Layer 1
10
38.893930
20
36.409570
11
40.151533
21
36.159417
0
LINE
8
Layer 1
10
40.151533
20
36.159417
11
41.217677
21
35.447043
0
LINE
8
Layer 1
10
41.217677
20
35.447043
11
41.930050
21
34.380900
0
LINE
8
Layer 1
10
41.930050
20
34.380900
11
42.180200
21
33.123300
0
LINE
8
Layer 1
10
42.180200
20
33.123300
11
42.180200
21
33.123300
0
LINE
8
Layer 1
10
50.966200
20
42.031400
11
50.716048
21
40.773803
0
LINE
8
Layer 1
10
50.716048
20
40.773803
11
50.003674
21
39.707663
0
LINE
8
Layer 1
10
50.003674
20
39.707663
11
48.937531
21
38.995292
0
LINE
8
Layer 1
10
48.937531
20
38.995292
11
47.679930
21
38.745140
0
LINE
8
Layer 1
10
47.679930
20
38.745140
11
46.400765
21
39.003391
0
LINE
8
Layer 1
10
46.400765
20
39.003391
11
45.356186
21
39.707663
0
LINE
8
Layer 1
10
45.356186
20
39.707663
11
44.651911
21
40.752239
0
LINE
8
Layer 1
10
44.651911
20
40.752239
11
44.393660
21
42.031400
0
LINE
8
Layer 1
10
44.393660
20
42.031400
11
44.643810
21
43.289000
0
LINE
8
Layer 1
10
44.643810
20
43.289000
11
45.356183
21
44.355143
0
LINE
8
Layer 1
10
45.356183
20
44.355143
11
46.422327
21
45.067517
0
LINE
8
Layer 1
10
46.422327
20
45.067517
11
47.679930
21
45.317670
0
LINE
8
Layer 1
10
47.679930
20
45.317670
11
48.937533
21
45.067517
0
LINE
8
Layer 1
10
48.937533
20
45.067517
11
50.003677
21
44.355143
0
LINE
8
Layer 1
10
50.003677
20
44.355143
11
50.716050
21
43.289000
0
LINE
8
Layer 1
10
50.716050
20
43.289000
11
50.966200
21
42.031400
0
LINE
8
Layer 1
10
50.966200
20
42.031400
11
50.966200
21
42.031400
0
LINE
8
Layer 1
10
50.966200
20
33.123300
11
50.716048
21
31.865703
0
LINE
8
Layer 1
10
50.716048
20
31.865703
11
50.003674
21
30.799563
0
LINE
8
Layer 1
10
50.003674
20
30.799563
11
48.937531
21
30.087192
0
LINE
8
Layer 1
10
48.937531
20
30.087192
11
47.679930
21
29.837040
0
LINE
8
Layer 1
10
47.679930
20
29.837040
11
46.400765
21
30.095291
0
LINE
8
Layer 1
10
46.400765
20
30.095291
11
45.356186
21
30.799563
0
LINE
8
Layer 1
10
45.356186
20
30.799563
11
44.651911
21
31.844139
0
LINE
8
Layer 1
10
44.651911
20
31.844139
11
44.393660
21
33.123300
0
LINE
8
Layer 1
10
44.393660
20
33.123300
11
44.643810
21
34.380900
0
LINE
8
Layer 1
10
44.643810
20
34.380900
11
45.356183
21
35.447043
0
LINE
8
Layer 1
10
45.356183
20
35.447043
11
46.422327
21
36.159417
0
LINE
8
Layer 1
10
46.422327
20
36.159417
11
47.679930
21
36.409570
0
LINE
8
Layer 1
10
47.679930
20
36.409570
11
48.937533
21
36.159417
0
LINE
8
Layer 1
10
48.937533
20
36.159417
11
50.003677
21
35.447043
0
LINE
8
Layer 1
10
50.003677
20
35.447043
11
50.716050
21
34.380900
0
LINE
8
Layer 1
10
50.716050
20
34.380900
11
50.966200
21
33.123300
0
LINE
8
Layer 1
10
50.966200
20
33.123300
11
50.966200
21
33.123300
0
LINE
8
Layer 1
10
15.822100
20
24.162100
11
15.563828
21
22.882951
0
LINE
8
Layer 1
10
15.563828
20
22.882951
11
14.859542
21
21.838391
0
LINE
8
Layer 1
10
14.859542
20
21.838391
11
13.814960
21
21.134136
0
LINE
8
Layer 1
10
13.814960
20
21.134136
11
12.535800
21
20.875900
0
LINE
8
Layer 1
10
12.535800
20
20.875900
11
11.256666
21
21.134159
0
LINE
8
Layer 1
10
11.256666
20
21.134159
11
10.212110
21
21.838420
0
LINE
8
Layer 1
10
10.212110
20
21.838420
11
9.507844
21
22.882971
0
LINE
8
Layer 1
10
9.507844
20
22.882971
11
9.249580
21
24.162100
0
LINE
8
Layer 1
10
9.249580
20
24.162100
11
9.507815
21
25.441261
0
LINE
8
Layer 1
10
9.507815
20
25.441261
11
10.212074
21
26.485845
0
LINE
8
Layer 1
10
10.212074
20
26.485845
11
11.256642
21
27.190131
0
LINE
8
Layer 1
10
11.256642
20
27.190131
11
12.535800
21
27.448400
0
LINE
8
Layer 1
10
12.535800
20
27.448400
11
13.793420
21
27.198253
0
LINE
8
Layer 1
10
13.793420
20
27.198253
11
14.859577
21
26.485873
0
LINE
8
Layer 1
10
14.859577
20
26.485873
11
15.571956
21
25.419716
0
LINE
8
Layer 1
10
15.571956
20
25.419716
11
15.822100
21
24.162100
0
LINE
8
Layer 1
10
15.822100
20
24.162100
11
15.822100
21
24.162100
0
LINE
8
Layer 1
10
24.608100
20
24.162100
11
24.349838
21
22.882976
0
LINE
8
Layer 1
10
24.349838
20
22.882976
11
23.645577
21
21.838427
0
LINE
8
Layer 1
10
23.645577
20
21.838427
11
22.601028
21
21.134165
0
LINE
8
Layer 1
10
22.601028
20
21.134165
11
21.321900
21
20.875900
0
LINE
8
Layer 1
10
21.321900
20
20.875900
11
20.042740
21
21.134136
0
LINE
8
Layer 1
10
20.042740
20
21.134136
11
18.998158
21
21.838391
0
LINE
8
Layer 1
10
18.998158
20
21.838391
11
18.293872
21
22.882951
0
LINE
8
Layer 1
10
18.293872
20
22.882951
11
18.035600
21
24.162100
0
LINE
8
Layer 1
10
18.035600
20
24.162100
11
18.285744
21
25.419716
0
LINE
8
Layer 1
10
18.285744
20
25.419716
11
18.998123
21
26.485873
0
LINE
8
Layer 1
10
18.998123
20
26.485873
11
20.064280
21
27.198253
0
LINE
8
Layer 1
10
20.064280
20
27.198253
11
21.321900
21
27.448400
0
LINE
8
Layer 1
10
21.321900
20
27.448400
11
22.601052
21
27.190125
0
LINE
8
Layer 1
10
22.601052
20
27.190125
11
23.645613
21
26.485838
0
LINE
8
Layer 1
10
23.645613
20
26.485838
11
24.349867
21
25.441257
0
LINE
8
Layer 1
10
24.349867
20
25.441257
11
24.608100
21
24.162100
0
LINE
8
Layer 1
10
24.608100
20
24.162100
11
24.608100
21
24.162100
0
LINE
8
Layer 1
10
33.394100
20
24.162100
11
33.143948
21
22.904503
0
LINE
8
Layer 1
10
33.143948
20
22.904503
11
32.431574
21
21.838363
0
LINE
8
Layer 1
10
32.431574
20
21.838363
11
31.365431
21
21.125992
0
LINE
8
Layer 1
10
31.365431
20
21.125992
11
30.107830
21
20.875840
0
LINE
8
Layer 1
10
30.107830
20
20.875840
11
28.828669
21
21.134093
0
LINE
8
Layer 1
10
28.828669
20
21.134093
11
27.784093
21
21.838367
0
LINE
8
Layer 1
10
27.784093
20
21.838367
11
27.079820
21
22.882942
0
LINE
8
Layer 1
10
27.079820
20
22.882942
11
26.821570
21
24.162100
0
LINE
8
Layer 1
10
26.821570
20
24.162100
11
27.071719
21
25.419698
0
LINE
8
Layer 1
10
27.071719
20
25.419698
11
27.784089
21
26.485840
0
LINE
8
Layer 1
10
27.784089
20
26.485840
11
28.850230
21
27.198215
0
LINE
8
Layer 1
10
28.850230
20
27.198215
11
30.107830
21
27.448370
0
LINE
8
Layer 1
10
30.107830
20
27.448370
11
31.365433
21
27.198217
0
LINE
8
Layer 1
10
31.365433
20
27.198217
11
32.431577
21
26.485843
0
LINE
8
Layer 1
10
32.431577
20
26.485843
11
33.143950
21
25.419700
0
LINE
8
Layer 1
10
33.143950
20
25.419700
11
33.394100
21
24.162100
0
LINE
8
Layer 1
10
33.394100
20
24.162100
11
33.394100
21
24.162100
0
LINE
8
Layer 1
10
42.180200
20
24.162100
11
41.930048
21
22.904503
0
LINE
8
Layer 1
10
41.930048
20
22.904503
11
41.217674
21
21.838363
0
LINE
8
Layer 1
10
41.217674
20
21.838363
11
40.151531
21
21.125992
0
LINE
8
Layer 1
10
40.151531
20
21.125992
11
38.893930
21
20.875840
0
LINE
8
Layer 1
10
38.893930
20
20.875840
11
37.636329
21
21.125992
0
LINE
8
Layer 1
10
37.636329
20
21.125992
11
36.570186
21
21.838363
0
LINE
8
Layer 1
10
36.570186
20
21.838363
11
35.857812
21
22.904503
0
LINE
8
Layer 1
10
35.857812
20
22.904503
11
35.607660
21
24.162100
0
LINE
8
Layer 1
10
35.607660
20
24.162100
11
35.857810
21
25.419700
0
LINE
8
Layer 1
10
35.857810
20
25.419700
11
36.570183
21
26.485843
0
LINE
8
Layer 1
10
36.570183
20
26.485843
11
37.636327
21
27.198217
0
LINE
8
Layer 1
10
37.636327
20
27.198217
11
38.893930
21
27.448370
0
LINE
8
Layer 1
10
38.893930
20
27.448370
11
40.151533
21
27.198217
0
LINE
8
Layer 1
10
40.151533
20
27.198217
11
41.217677
21
26.485843
0
LINE
8
Layer 1
10
41.217677
20
26.485843
11
41.930050
21
25.419700
0
LINE
8
Layer 1
10
41.930050
20
25.419700
11
42.180200
21
24.162100
0
LINE
8
Layer 1
10
42.180200
20
24.162100
11
42.180200
21
24.162100
0
LINE
8
Layer 1
10
50.966200
20
24.162100
11
50.716048
21
22.904503
0
LINE
8
Layer 1
10
50.716048
20
22.904503
11
50.003674
21
21.838363
0
LINE
8
Layer 1
10
50.003674
20
21.838363
11
48.937531
21
21.125992
0
LINE
8
Layer 1
10
48.937531
20
21.125992
11
47.679930
21
20.875840
0
LINE
8
Layer 1
10
47.679930
20
20.875840
11
46.400765
21
21.134091
0
LINE
8
Layer 1
10
46.400765
20
21.134091
11
45.356186
21
21.838363
0
LINE
8
Layer 1
10
45.356186
20
21.838363
11
44.651911
21
22.882939
0
LINE
8
Layer 1
10
44.651911
20
22.882939
11
44.393660
21
24.162100
0
LINE
8
Layer 1
10
44.393660
20
24.162100
11
44.643810
21
25.419700
0
LINE
8
Layer 1
10
44.643810
20
25.419700
11
45.356183
21
26.485843
0
LINE
8
Layer 1
10
45.356183
20
26.485843
11
46.422327
21
27.198217
0
LINE
8
Layer 1
10
46.422327
20
27.198217
11
47.679930
21
27.448370
0
LINE
8
Layer 1
10
47.679930
20
27.448370
11
48.937533
21
27.198217
0
LINE
8
Layer 1
10
48.937533
20
27.198217
11
50.003677
21
26.485843
0
LINE
8
Layer 1
10
50.003677
20
26.485843
11
50.716050
21
25.419700
0
LINE
8
Layer 1
10
50.716050
20
25.419700
11
50.966200
21
24.162100
0
LINE
8
Layer 1
10
50.966200
20
24.162100
11
50.966200
21
24.162100
0
LINE
8
Layer 1
10
4.379640
20
69.946400
11
55.836100
21
69.946400
0
LINE
8
Layer 1
10
55.836100
20
69.946400
11
56.751281
21
69.762542
0
LINE
8
Layer 1
10
56.751281
20
69.762542
11
57.497054
21
69.260544
0
LINE
8
Layer 1
10
57.497054
20
69.260544
11
57.999052
21
68.514771
0
LINE
8
Layer 1
10
57.999052
20
68.514771
11
58.182910
21
67.599590
0
LINE
8
Layer 1
10
58.182910
20
67.599590
11
58.182900
21
16.143200
0
LINE
8
Layer 1
10
58.182900
20
16.143200
11
57.999042
21
15.228019
0
LINE
8
Layer 1
10
57.999042
20
15.228019
11
57.497044
21
14.482246
0
LINE
8
Layer 1
10
57.497044
20
14.482246
11
56.751271
21
13.980248
0
LINE
8
Layer 1
10
56.751271
20
13.980248
11
55.836090
21
13.796390
0
LINE
8
Layer 1
10
55.836090
20
13.796390
11
4.379640
21
13.796300
0
LINE
8
Layer 1
10
4.379640
20
13.796300
11
3.464459
21
13.980158
0
LINE
8
Layer 1
10
3.464459
20
13.980158
11
2.718686
21
14.482156
0
LINE
8
Layer 1
10
2.718686
20
14.482156
11
2.216688
21
15.227929
0
LINE
8
Layer 1
10
2.216688
20
15.227929
11
2.032830
21
16.143110
0
LINE
8
Layer 1
10
2.032830
20
16.143110
11
2.032830
21
67.599600
0
LINE
8
Layer 1
10
2.032830
20
67.599600
11
2.216688
21
68.514781
0
LINE
8
Layer 1
10
2.216688
20
68.514781
11
2.718686
21
69.260554
0
LINE
8
Layer 1
10
2.718686
20
69.260554
11
3.464459
21
69.762552
0
LINE
8
Layer 1
10
3.464459
20
69.762552
11
4.379640
21
69.946410
0
LINE
8
Layer 1
10
4.379640
20
69.946410
11
4.379640
21
69.946400
0
LINE
8
Layer 1
10
5.382460
20
67.072300
11
5.196326
21
66.622934
0
LINE
8
Layer 1
10
5.196326
20
66.622934
11
4.746960
21
66.436800
0
LINE
8
Layer 1
10
4.746960
20
66.436800
11
4.297594
21
66.622934
0
LINE
8
Layer 1
10
4.297594
20
66.622934
11
4.111460
21
67.072300
0
LINE
8
Layer 1
10
4.111460
20
67.072300
11
4.297594
21
67.521666
0
LINE
8
Layer 1
10
4.297594
20
67.521666
11
4.746960
21
67.707800
0
LINE
8
Layer 1
10
4.746960
20
67.707800
11
5.196326
21
67.521666
0
LINE
8
Layer 1
10
5.196326
20
67.521666
11
5.382460
21
67.072300
0
LINE
8
Layer 1
10
5.382460
20
67.072300
11
5.382460
21
67.072300
0
LINE
8
Layer 1
10
56.265600
20
67.072300
11
56.079466
21
66.622933
0
LINE
8
Layer 1
10
56.079466
20
66.622933
11
55.630098
21
66.436800
0
LINE
8
Layer 1
10
55.630098
20
66.436800
11
55.180732
21
66.622934
0
LINE
8
Layer 1
10
55.180732
20
66.622934
11
54.994599
21
67.072300
0
LINE
8
Layer 1
10
54.994599
20
67.072300
11
55.180732
21
67.521666
0
LINE
8
Layer 1
10
55.180732
20
67.521666
11
55.630098
21
67.707800
0
LINE
8
Layer 1
10
55.630098
20
67.707800
11
56.079466
21
67.521667
0
LINE
8
Layer 1
10
56.079466
20
67.521667
11
56.265600
21
67.072300
0
LINE
8
Layer 1
10
56.265600
20
67.072300
11
56.265600
21
67.072300
0
LINE
8
Layer 1
10
56.265600
20
16.082500
11
56.079465
21
15.633134
0
LINE
8
Layer 1
10
56.079465
20
15.633134
11
55.630098
21
15.447001
0
LINE
8
Layer 1
10
55.630098
20
15.447001
11
55.180733
21
15.633135
0
LINE
8
Layer 1
10
55.180733
20
15.633135
11
54.994599
21
16.082500
0
LINE
8
Layer 1
10
54.994599
20
16.082500
11
55.180732
21
16.531867
0
LINE
8
Layer 1
10
55.180732
20
16.531867
11
55.630098
21
16.718002
0
LINE
8
Layer 1
10
55.630098
20
16.718002
11
56.079466
21
16.531868
0
LINE
8
Layer 1
10
56.079466
20
16.531868
11
56.265600
21
16.082500
0
LINE
8
Layer 1
10
56.265600
20
16.082500
11
56.265600
21
16.082500
0
LINE
8
Layer 1
10
5.382460
20
16.082500
11
5.196326
21
15.633134
0
LINE
8
Layer 1
10
5.196326
20
15.633134
11
4.746960
21
15.447001
0
LINE
8
Layer 1
10
4.746960
20
15.447001
11
4.297594
21
15.633134
0
LINE
8
Layer 1
10
4.297594
20
15.633134
11
4.111460
21
16.082500
0
LINE
8
Layer 1
10
4.111460
20
16.082500
11
4.297593
21
16.531868
0
LINE
8
Layer 1
10
4.297593
20
16.531868
11
4.746960
21
16.718002
0
LINE
8
Layer 1
10
4.746960
20
16.718002
11
5.196327
21
16.531868
0
LINE
8
Layer 1
10
5.196327
20
16.531868
11
5.382460
21
16.082500
0
LINE
8
Layer 1
10
5.382460
20
16.082500
11
5.382460
21
16.082500
 0 
ENDSEC
 0 
EOF