<?xml version="1.0" encoding="UTF-8" standalone="no"?>
<!-- Created with Inkscape (http://www.inkscape.org/) -->

<svg
   xmlns:dc="http://purl.org/dc/elements/1.1/"
   xmlns:cc="http://creativecommons.org/ns#"
   xmlns:rdf="http://www.w3.org/1999/02/22-rdf-syntax-ns#"
   xmlns:svg="http://www.w3.org/2000/svg"
   xmlns="http://www.w3.org/2000/svg"
   xmlns:sodipodi="http://sodipodi.sourceforge.net/DTD/sodipodi-0.dtd"
   xmlns:inkscape="http://www.inkscape.org/namespaces/inkscape"
   width="210mm"
   height="297mm"
   viewBox="0 0 210 297"
   version="1.1"
   id="svg8"
   inkscape:version="0.92.4 (5da689c313, 2019-01-14)"
   sodipodi:docname="inkscape_mold_base.svg">
  <defs
     id="defs2">
    <inkscape:path-effect
       effect="simplify"
       id="path-effect4617"
       is_visible="true"
       steps="1"
       threshold="0.00224175"
       smooth_angles="360"
       helper_size="0"
       simplify_individual_paths="false"
       simplify_just_coalesce="false"
       simplifyindividualpaths="false"
       simplifyJustCoalesce="false" />
  </defs>
  <sodipodi:namedview
     id="base"
     pagecolor="#ffffff"
     bordercolor="#666666"
     borderopacity="1.0"
     inkscape:pageopacity="0.0"
     inkscape:pageshadow="2"
     inkscape:zoom="0.175"
     inkscape:cx="-311.51545"
     inkscape:cy="-718.52806"
     inkscape:document-units="mm"
     inkscape:current-layer="layer1"
     showgrid="false"
     inkscape:window-width="960"
     inkscape:window-height="1017"
     inkscape:window-x="-8"
     inkscape:window-y="-8"
     inkscape:window-maximized="0" />
  <metadata
     id="metadata5">
    <rdf:RDF>
      <cc:Work
         rdf:about="">
        <dc:format>image/svg+xml</dc:format>
        <dc:type
           rdf:resource="http://purl.org/dc/dcmitype/StillImage" />
        <dc:title></dc:title>
      </cc:Work>
    </rdf:RDF>
  </metadata>
  <g
     inkscape:label="Capa 1"
     inkscape:groupmode="layer"
     id="layer1">
    <rect
       style="opacity:1;vector-effect:none;fill:#ffffff;fill-opacity:1;stroke:#000000;stroke-width:1.391;stroke-linecap:butt;stroke-linejoin:miter;stroke-miterlimit:4;stroke-dasharray:none;stroke-dashoffset:0;stroke-opacity:1"
       id="rect815"
       width="298.60883"
       height="238.60883"
       x="-133.99875"
       y="-16.631233"
       ry="0" />
    <rect
       style="opacity:1;vector-effect:none;fill:#ffffff;fill-opacity:1;stroke:#000000;stroke-width:1.444507;stroke-linecap:butt;stroke-linejoin:miter;stroke-miterlimit:4;stroke-dasharray:none;stroke-dashoffset:0;stroke-opacity:1"
       id="rect819"
       width="73.055496"
       height="174.5555"
       x="-351.28592"
       y="-62.090996" />
    <g
       aria-label="Mold base for 
Machinable Wax 
6x6&quot; - 150x150mm"
       style="font-style:normal;font-weight:normal;font-size:8.47370625px;line-height:1.25;font-family:sans-serif;letter-spacing:0px;word-spacing:0px;fill:#000000;fill-opacity:1;stroke:none;stroke-width:0.52960664"
       id="text823">
      <path
         d="m 104.16236,188.12897 h -0.25839 l -1.16099,-2.75263 q -0.24116,-0.56844 -0.48232,-1.23679 h -0.0276 q 0.0482,0.96118 0.0482,1.76044 v 2.22898 h -0.56155 v -4.60954 h 0.8096 l 1.08521,2.60794 q 0.18603,0.44786 0.40996,1.07831 h 0.0172 q 0.24804,-0.69935 0.40996,-1.07831 l 1.08521,-2.60794 h 0.8096 v 4.60954 H 105.785 v -2.22898 q 0,-0.78204 0.0482,-1.76044 h -0.0276 q -0.25494,0.70624 -0.48232,1.23679 z"
         style="font-style:normal;font-variant:normal;font-weight:normal;font-stretch:normal;font-size:7.05555534px;font-family:Corbel;-inkscape-font-specification:Corbel;stroke-width:0.52960664"
         id="path4709" />
      <path
         d="m 109.81231,186.49599 q 0,-0.30317 -0.0758,-0.53743 -0.0724,-0.23771 -0.20671,-0.39963 -0.13091,-0.16537 -0.3135,-0.24805 -0.18259,-0.0861 -0.39963,-0.0861 -0.21704,0 -0.39963,0.0861 -0.18259,0.0827 -0.31695,0.24805 -0.13091,0.16192 -0.20671,0.39963 -0.0723,0.23426 -0.0723,0.53743 0,0.29973 0.0723,0.53744 0.0758,0.23426 0.21016,0.39618 0.13435,0.16192 0.31694,0.24805 0.18259,0.0827 0.39964,0.0827 0.21704,0 0.39618,-0.0827 0.18259,-0.0861 0.3135,-0.24805 0.13436,-0.16192 0.20671,-0.39618 0.0758,-0.23771 0.0758,-0.53744 z m 0.55811,0 q 0,0.38585 -0.11024,0.7028 -0.11025,0.31695 -0.31351,0.54433 -0.19981,0.22393 -0.48576,0.34795 -0.28594,0.12402 -0.64078,0.12402 -0.36518,0 -0.65457,-0.12402 -0.28595,-0.12402 -0.48921,-0.34795 -0.19981,-0.22738 -0.30661,-0.54433 -0.1068,-0.31695 -0.1068,-0.7028 0,-0.38929 0.11025,-0.70624 0.11024,-0.31695 0.31005,-0.54433 0.20326,-0.22737 0.48921,-0.3514 0.28939,-0.12402 0.64423,-0.12402 0.36174,0 0.65112,0.12402 0.28939,0.12403 0.48921,0.3514 0.19981,0.22738 0.30661,0.54433 0.1068,0.31695 0.1068,0.70624 z"
         style="font-style:normal;font-variant:normal;font-weight:normal;font-stretch:normal;font-size:7.05555534px;font-family:Corbel;-inkscape-font-specification:Corbel;stroke-width:0.52960664"
         id="path4711" />
      <path
         d="m 111.24892,188.12897 v -4.9885 h 0.53399 v 4.9885 z"
         style="font-style:normal;font-variant:normal;font-weight:normal;font-stretch:normal;font-size:7.05555534px;font-family:Corbel;-inkscape-font-specification:Corbel;stroke-width:0.52960664"
         id="path4713" />
      <path
         d="m 113.22296,186.527 q 0,0.2825 0.062,0.51332 0.0655,0.22737 0.18603,0.38929 0.12058,0.15848 0.29628,0.2446 0.1757,0.0861 0.40308,0.0861 0.16881,0 0.30661,-0.0448 0.13781,-0.0448 0.2446,-0.11369 0.11025,-0.0689 0.18604,-0.1447 0.0792,-0.0792 0.12402,-0.14469 v -1.71221 q -0.16536,-0.16881 -0.3824,-0.26872 -0.21704,-0.10335 -0.46854,-0.10335 -0.15158,0 -0.32039,0.0586 -0.16537,0.0551 -0.31006,0.20326 -0.14125,0.14814 -0.23427,0.39964 -0.093,0.24804 -0.093,0.63734 z m -0.55811,0.007 q 0,-0.34107 0.0655,-0.60289 0.0689,-0.26528 0.17914,-0.46165 0.11025,-0.19637 0.25839,-0.32728 0.14813,-0.13436 0.30661,-0.21704 0.15847,-0.0827 0.32039,-0.11713 0.16537,-0.0379 0.31006,-0.0379 0.29972,0 0.52021,0.0999 0.22049,0.0999 0.39619,0.29283 h 0.0103 v -2.02227 h 0.53399 v 4.9885 h -0.40307 l -0.11025,-0.36518 h -0.0138 q -0.062,0.0792 -0.14469,0.16192 -0.0827,0.0792 -0.19637,0.14469 -0.11025,0.0655 -0.25838,0.10335 -0.1447,0.0413 -0.33762,0.0413 -0.26872,0 -0.5271,-0.0896 -0.25839,-0.093 -0.46165,-0.29283 -0.19981,-0.20326 -0.32384,-0.52021 -0.12402,-0.32039 -0.12402,-0.77859 z"
         style="font-style:normal;font-variant:normal;font-weight:normal;font-stretch:normal;font-size:7.05555534px;font-family:Corbel;-inkscape-font-specification:Corbel;stroke-width:0.52960664"
         id="path4715" />
      <path
         d="m 120.42665,186.47877 q 0,-0.3893 -0.093,-0.63046 -0.0896,-0.2446 -0.23426,-0.37896 -0.14125,-0.1378 -0.30317,-0.18948 -0.16192,-0.0517 -0.32384,-0.0517 -0.24805,0 -0.46853,0.10335 -0.21704,0.10335 -0.38585,0.26872 v 1.71221 q 0.0482,0.0655 0.12402,0.14469 0.0792,0.0758 0.18604,0.1447 0.10679,0.0654 0.23771,0.11369 0.13436,0.0448 0.29283,0.0448 0.23771,0 0.41686,-0.093 0.18259,-0.093 0.30317,-0.26182 0.12402,-0.17226 0.18603,-0.40652 0.062,-0.23772 0.062,-0.52021 z m 0.55811,-0.0413 q 0,0.45819 -0.12403,0.79237 -0.12402,0.33417 -0.32728,0.55466 -0.20326,0.21704 -0.46509,0.32384 -0.26182,0.10679 -0.54088,0.10679 -0.21015,0 -0.37207,-0.0551 -0.15847,-0.0517 -0.27216,-0.12402 -0.11024,-0.0758 -0.17915,-0.15158 -0.0654,-0.0758 -0.093,-0.12058 h -0.0103 l -0.11369,0.36518 h -0.40307 v -4.9885 h 0.53399 v 2.02227 h 0.0103 q 0.1757,-0.18603 0.40997,-0.28939 0.23427,-0.10335 0.53399,-0.10335 0.1378,0 0.29628,0.031 0.16192,0.031 0.31695,0.10679 0.15847,0.0758 0.30316,0.19982 0.1447,0.12402 0.25494,0.31006 0.11024,0.18259 0.1757,0.43752 0.0655,0.2515 0.0655,0.58223 z"
         style="font-style:normal;font-variant:normal;font-weight:normal;font-stretch:normal;font-size:7.05555534px;font-family:Corbel;-inkscape-font-specification:Corbel;stroke-width:0.52960664"
         id="path4717" />
      <path
         d="m 123.74083,187.76723 h -0.0138 q -0.0654,0.0827 -0.16536,0.16537 -0.0999,0.0792 -0.23082,0.14469 -0.13092,0.062 -0.28595,0.0999 -0.15503,0.0379 -0.33073,0.0379 -0.23771,0 -0.43752,-0.0723 -0.19637,-0.0689 -0.34107,-0.20326 -0.14125,-0.13781 -0.22048,-0.33418 -0.0792,-0.19637 -0.0792,-0.44441 0,-0.24461 0.0861,-0.43753 0.0896,-0.19293 0.24804,-0.32729 0.15848,-0.13435 0.37896,-0.2067 0.22394,-0.0724 0.49265,-0.0724 0.25494,0.003 0.47198,0.0448 0.21704,0.0413 0.38585,0.10335 h 0.0138 v -0.22738 q 0,-0.13435 -0.0172,-0.23771 -0.0172,-0.10335 -0.0586,-0.18259 -0.0896,-0.16536 -0.28594,-0.27216 -0.19637,-0.11024 -0.53055,-0.11024 -0.24804,0 -0.46853,0.0482 -0.21704,0.0448 -0.43408,0.12747 v -0.44787 q 0.0827,-0.0413 0.19292,-0.0758 0.11369,-0.0379 0.23771,-0.062 0.12403,-0.0276 0.26183,-0.0413 0.13781,-0.0138 0.27561,-0.0138 0.49609,0 0.8096,0.1757 0.31695,0.1757 0.45475,0.46509 0.0517,0.11024 0.0724,0.2446 0.0241,0.13091 0.0241,0.28939 v 2.18419 h -0.44786 z m -0.0276,-1.07487 q -0.14814,-0.0413 -0.3514,-0.0792 -0.20326,-0.0379 -0.44786,-0.0414 -0.34106,0 -0.53399,0.1447 -0.19293,0.14469 -0.19293,0.44442 0,0.15158 0.0482,0.26527 0.0482,0.11369 0.13091,0.18948 0.0861,0.0724 0.19982,0.11024 0.11713,0.0345 0.24804,0.0345 0.17226,0 0.3204,-0.0482 0.14814,-0.0517 0.26182,-0.12058 0.11714,-0.0689 0.19637,-0.1378 0.0827,-0.0689 0.12058,-0.1068 z"
         style="font-style:normal;font-variant:normal;font-weight:normal;font-stretch:normal;font-size:7.05555534px;font-family:Corbel;-inkscape-font-specification:Corbel;stroke-width:0.52960664"
         id="path4719" />
      <path
         d="m 125.62875,185.72774 q 0,0.13435 0.0586,0.22048 0.0586,0.0861 0.15503,0.14125 0.0999,0.0517 0.22738,0.0861 0.13091,0.0344 0.26871,0.062 0.18949,0.0413 0.35829,0.093 0.16881,0.0482 0.31006,0.14814 0.1447,0.0999 0.23082,0.27216 0.0896,0.16881 0.0896,0.44097 0,0.24805 -0.0965,0.44097 -0.0965,0.18948 -0.27216,0.3204 -0.1757,0.12747 -0.4203,0.19292 -0.2446,0.0689 -0.53743,0.0689 -0.17915,0 -0.32729,-0.0207 -0.14469,-0.0172 -0.25838,-0.0482 -0.11024,-0.0276 -0.18948,-0.0586 -0.0792,-0.031 -0.13091,-0.0586 v -0.44786 q 0.2067,0.0827 0.40996,0.13091 0.20326,0.0482 0.44786,0.0482 0.19293,0 0.34796,-0.0345 0.15503,-0.0344 0.26527,-0.0999 0.11369,-0.0689 0.17226,-0.16881 0.062,-0.10335 0.062,-0.23771 0,-0.1378 -0.0551,-0.22737 -0.0551,-0.0896 -0.14814,-0.14814 -0.093,-0.0586 -0.21704,-0.0965 -0.12058,-0.0379 -0.25494,-0.0689 -0.1757,-0.0379 -0.35829,-0.0896 -0.17915,-0.0517 -0.32729,-0.14469 -0.14813,-0.093 -0.24115,-0.2515 -0.0896,-0.16192 -0.0896,-0.41341 0,-0.25838 0.093,-0.44786 0.093,-0.18948 0.2515,-0.3135 0.15847,-0.12403 0.36862,-0.18604 0.21015,-0.062 0.44442,-0.062 0.27216,0 0.50298,0.0517 0.23427,0.0517 0.42375,0.13091 v 0.45475 q -0.20671,-0.0792 -0.4203,-0.12747 -0.21015,-0.0517 -0.43409,-0.0551 -0.18948,0 -0.32383,0.0379 -0.13436,0.0379 -0.22049,0.1068 -0.0861,0.0654 -0.12747,0.15847 -0.0379,0.0896 -0.0379,0.19982 z"
         style="font-style:normal;font-variant:normal;font-weight:normal;font-stretch:normal;font-size:7.05555534px;font-family:Corbel;-inkscape-font-specification:Corbel;stroke-width:0.52960664"
         id="path4721" />
      <path
         d="m 129.41835,185.2282 q -0.18259,0 -0.34106,0.0723 -0.15503,0.0724 -0.27217,0.19637 -0.11713,0.12403 -0.18948,0.29284 -0.0723,0.16536 -0.0896,0.35484 h 1.65365 q 0,-0.19292 -0.0517,-0.35829 -0.0482,-0.16881 -0.14469,-0.29283 -0.0965,-0.12402 -0.23772,-0.19293 -0.14124,-0.0723 -0.32728,-0.0723 z m 0.29283,2.52181 q 0.26528,0 0.48232,-0.0413 0.22048,-0.0448 0.43752,-0.12403 v 0.44442 q -0.1757,0.0861 -0.43408,0.13436 -0.25838,0.0517 -0.55466,0.0517 -0.3514,0 -0.66146,-0.0896 -0.30661,-0.0896 -0.53743,-0.28939 -0.23082,-0.19981 -0.36518,-0.52021 -0.13092,-0.32383 -0.13092,-0.77859 0,-0.44786 0.12403,-0.77514 0.12402,-0.33073 0.33073,-0.55122 0.2067,-0.22048 0.47542,-0.33073 0.26872,-0.11024 0.56155,-0.11024 0.27561,0 0.51332,0.093 0.24116,0.0896 0.41686,0.28594 0.1757,0.19637 0.2756,0.50643 0.10336,0.31006 0.10336,0.74414 0,0.0413 0,0.0724 0,0.0276 -0.003,0.13091 h -2.2462 q 0,0.3135 0.093,0.53399 0.0965,0.21704 0.25838,0.35484 0.16536,0.13436 0.38585,0.19638 0.22049,0.062 0.47542,0.062 z"
         style="font-style:normal;font-variant:normal;font-weight:normal;font-stretch:normal;font-size:7.05555534px;font-family:Corbel;-inkscape-font-specification:Corbel;stroke-width:0.52960664"
         id="path4723" />
      <path
         d="m 134.9684,183.56077 q -0.10335,-0.0207 -0.22738,-0.031 -0.12402,-0.0103 -0.21359,-0.0103 -0.17915,0 -0.32384,0.0448 -0.14125,0.0448 -0.23771,0.14469 -0.0965,0.0965 -0.14814,0.25838 -0.0517,0.15848 -0.0517,0.38585 v 0.50299 h 0.97496 v 0.45819 h -0.97496 v 2.81465 h -0.53399 v -2.81465 h -0.57533 v -0.45819 h 0.57533 v -0.49954 q 0,-0.35485 0.093,-0.596 0.0965,-0.24461 0.26183,-0.39963 0.16536,-0.15848 0.38929,-0.23083 0.22393,-0.0758 0.48231,-0.0758 0.16537,0 0.30317,0.0172 0.14125,0.0172 0.20671,0.0379 z"
         style="font-style:normal;font-variant:normal;font-weight:normal;font-stretch:normal;font-size:7.05555534px;font-family:Corbel;-inkscape-font-specification:Corbel;stroke-width:0.52960664"
         id="path4725" />
      <path
         d="m 137.67625,186.49599 q 0,-0.30317 -0.0758,-0.53743 -0.0723,-0.23771 -0.2067,-0.39963 -0.13092,-0.16537 -0.31351,-0.24805 -0.18259,-0.0861 -0.39963,-0.0861 -0.21704,0 -0.39963,0.0861 -0.18259,0.0827 -0.31695,0.24805 -0.13091,0.16192 -0.2067,0.39963 -0.0724,0.23426 -0.0724,0.53743 0,0.29973 0.0724,0.53744 0.0758,0.23426 0.21015,0.39618 0.13436,0.16192 0.31695,0.24805 0.18259,0.0827 0.39963,0.0827 0.21704,0 0.39618,-0.0827 0.18259,-0.0861 0.31351,-0.24805 0.13436,-0.16192 0.2067,-0.39618 0.0758,-0.23771 0.0758,-0.53744 z m 0.5581,0 q 0,0.38585 -0.11024,0.7028 -0.11024,0.31695 -0.31351,0.54433 -0.19981,0.22393 -0.48575,0.34795 -0.28595,0.12402 -0.64079,0.12402 -0.36518,0 -0.65457,-0.12402 -0.28594,-0.12402 -0.4892,-0.34795 -0.19982,-0.22738 -0.30662,-0.54433 -0.10679,-0.31695 -0.10679,-0.7028 0,-0.38929 0.11024,-0.70624 0.11024,-0.31695 0.31006,-0.54433 0.20326,-0.22737 0.4892,-0.3514 0.28939,-0.12402 0.64423,-0.12402 0.36174,0 0.65113,0.12402 0.28938,0.12403 0.4892,0.3514 0.19982,0.22738 0.30661,0.54433 0.1068,0.31695 0.1068,0.70624 z"
         style="font-style:normal;font-variant:normal;font-weight:normal;font-stretch:normal;font-size:7.05555534px;font-family:Corbel;-inkscape-font-specification:Corbel;stroke-width:0.52960664"
         id="path4727" />
      <path
         d="m 140.87329,185.29021 h -0.0413 q -0.18948,0 -0.37207,0.0344 -0.18259,0.0344 -0.34451,0.1068 -0.15847,0.0689 -0.28939,0.17225 -0.12746,0.10336 -0.21359,0.2446 v 2.28066 h -0.53399 v -3.27284 h 0.41341 l 0.10335,0.52021 h 0.0103 q 0.0792,-0.12747 0.19292,-0.23772 0.11714,-0.11024 0.26183,-0.19292 0.14469,-0.0827 0.31695,-0.12747 0.17225,-0.0482 0.36173,-0.0482 0.0345,0 0.0689,0.003 0.0379,0 0.0654,0.003 z"
         style="font-style:normal;font-variant:normal;font-weight:normal;font-stretch:normal;font-size:7.05555534px;font-family:Corbel;-inkscape-font-specification:Corbel;stroke-width:0.52960664"
         id="path4729" />
      <path
         d="m 104.16236,198.7211 h -0.25839 l -1.16099,-2.75263 q -0.24116,-0.56844 -0.48232,-1.23679 h -0.0276 q 0.0482,0.96118 0.0482,1.76044 v 2.22898 h -0.56155 v -4.60954 h 0.8096 l 1.08521,2.60794 q 0.18603,0.44786 0.40996,1.07831 h 0.0172 q 0.24804,-0.69935 0.40996,-1.07831 l 1.08521,-2.60794 h 0.8096 v 4.60954 H 105.785 v -2.22898 q 0,-0.78203 0.0482,-1.76044 h -0.0276 q -0.25494,0.70624 -0.48232,1.23679 z"
         style="font-style:normal;font-variant:normal;font-weight:normal;font-stretch:normal;font-size:7.05555534px;font-family:Corbel;-inkscape-font-specification:Corbel;stroke-width:0.52960664"
         id="path4731" />
      <path
         d="m 109.3679,198.35937 h -0.0138 q -0.0655,0.0827 -0.16536,0.16536 -0.0999,0.0792 -0.23082,0.14469 -0.13091,0.062 -0.28594,0.0999 -0.15503,0.0379 -0.33073,0.0379 -0.23771,0 -0.43753,-0.0724 -0.19637,-0.0689 -0.34106,-0.20326 -0.14125,-0.1378 -0.22049,-0.33417 -0.0792,-0.19637 -0.0792,-0.44442 0,-0.2446 0.0861,-0.43753 0.0896,-0.19292 0.24805,-0.32728 0.15847,-0.13436 0.37896,-0.20671 0.22393,-0.0724 0.49265,-0.0724 0.25493,0.003 0.47197,0.0448 0.21704,0.0413 0.38585,0.10335 h 0.0138 v -0.22737 q 0,-0.13436 -0.0172,-0.23771 -0.0172,-0.10336 -0.0586,-0.18259 -0.0896,-0.16537 -0.28594,-0.27217 -0.19637,-0.11024 -0.53055,-0.11024 -0.24804,0 -0.46853,0.0482 -0.21704,0.0448 -0.43408,0.12747 v -0.44786 q 0.0827,-0.0413 0.19293,-0.0758 0.11368,-0.0379 0.23771,-0.062 0.12402,-0.0276 0.26182,-0.0413 0.13781,-0.0138 0.27561,-0.0138 0.4961,0 0.8096,0.1757 0.31695,0.1757 0.45475,0.46509 0.0517,0.11024 0.0724,0.2446 0.0241,0.13092 0.0241,0.28939 v 2.18419 h -0.44786 z m -0.0276,-1.07487 q -0.14813,-0.0413 -0.3514,-0.0792 -0.20326,-0.0379 -0.44786,-0.0413 -0.34106,0 -0.53399,0.14469 -0.19292,0.14469 -0.19292,0.44442 0,0.15158 0.0482,0.26527 0.0482,0.11369 0.13091,0.18948 0.0861,0.0724 0.19982,0.11024 0.11713,0.0345 0.24804,0.0345 0.17226,0 0.3204,-0.0482 0.14814,-0.0517 0.26183,-0.12057 0.11713,-0.0689 0.19637,-0.13781 0.0827,-0.0689 0.12057,-0.1068 z"
         style="font-style:normal;font-variant:normal;font-weight:normal;font-stretch:normal;font-size:7.05555534px;font-family:Corbel;-inkscape-font-specification:Corbel;stroke-width:0.52960664"
         id="path4733" />
      <path
         d="m 112.3169,195.36213 q 0.23771,0 0.45475,0.0517 0.21704,0.0482 0.37207,0.1378 v 0.44442 q -0.21704,-0.0827 -0.39963,-0.12402 -0.18259,-0.0413 -0.37207,-0.0413 -0.19982,0 -0.39619,0.0654 -0.19637,0.0655 -0.3514,0.21704 -0.15503,0.14814 -0.25149,0.39619 -0.093,0.2446 -0.093,0.60978 0,0.26527 0.0689,0.4892 0.0724,0.22394 0.21016,0.3893 0.14124,0.16192 0.3514,0.25494 0.21015,0.0896 0.48575,0.0896 0.19982,0 0.40308,-0.0413 0.20326,-0.0448 0.39619,-0.12402 v 0.44441 q -0.0586,0.0344 -0.15503,0.0689 -0.093,0.0345 -0.20671,0.0586 -0.11369,0.0276 -0.24116,0.0413 -0.12746,0.0172 -0.25493,0.0172 -0.33073,0 -0.62701,-0.0999 -0.29283,-0.0999 -0.51332,-0.30661 -0.22049,-0.20671 -0.34795,-0.52366 -0.12747,-0.31695 -0.12747,-0.75103 0,-0.32384 0.0655,-0.58222 0.0689,-0.25838 0.18604,-0.45475 0.11713,-0.19637 0.27216,-0.33418 0.15848,-0.1378 0.33418,-0.22393 0.17914,-0.0896 0.36862,-0.12747 0.18948,-0.0413 0.36863,-0.0413 z"
         style="font-style:normal;font-variant:normal;font-weight:normal;font-stretch:normal;font-size:7.05555534px;font-family:Corbel;-inkscape-font-specification:Corbel;stroke-width:0.52960664"
         id="path4735" />
      <path
         d="m 114.58032,195.89612 h 0.0103 q 0.0896,-0.11369 0.19981,-0.21015 0.11025,-0.0999 0.24461,-0.16881 0.13436,-0.0724 0.28938,-0.11369 0.15503,-0.0413 0.33418,-0.0413 0.18603,0 0.37207,0.0517 0.18603,0.0482 0.34451,0.1757 0.15847,0.12747 0.25838,0.35484 0.0999,0.22738 0.0999,0.58567 v 2.19108 h -0.53399 v -2.10495 q 0,-0.39619 -0.15159,-0.596 -0.14813,-0.19982 -0.4892,-0.19982 -0.2825,0 -0.53743,0.15503 -0.25494,0.15158 -0.44098,0.4203 v 2.32544 h -0.53399 v -4.9885 h 0.53399 z"
         style="font-style:normal;font-variant:normal;font-weight:normal;font-stretch:normal;font-size:7.05555534px;font-family:Corbel;-inkscape-font-specification:Corbel;stroke-width:0.52960664"
         id="path4737" />
      <path
         d="m 117.80838,198.7211 v -3.27284 h 0.53399 v 3.27284 z m -0.0138,-4.03421 v -0.596 h 0.56155 v 0.596 z"
         style="font-style:normal;font-variant:normal;font-weight:normal;font-stretch:normal;font-size:7.05555534px;font-family:Corbel;-inkscape-font-specification:Corbel;stroke-width:0.52960664"
         id="path4739" />
      <path
         d="m 119.93056,195.90301 h 0.0103 q 0.0896,-0.11369 0.19637,-0.21015 0.11025,-0.0999 0.24461,-0.17225 0.13435,-0.0758 0.29283,-0.11714 0.16192,-0.0413 0.3514,-0.0413 0.22393,0 0.4203,0.062 0.19637,0.062 0.34106,0.19982 0.1447,0.1378 0.22738,0.36173 0.0861,0.22049 0.0861,0.54433 v 2.19108 h -0.53399 v -2.10495 q 0,-0.42375 -0.16537,-0.60979 -0.16192,-0.18603 -0.47542,-0.18603 -0.27561,0 -0.53399,0.15503 -0.25838,0.15158 -0.44442,0.4203 v 2.32544 h -0.53399 v -3.27284 h 0.41342 z"
         style="font-style:normal;font-variant:normal;font-weight:normal;font-stretch:normal;font-size:7.05555534px;font-family:Corbel;-inkscape-font-specification:Corbel;stroke-width:0.52960664"
         id="path4741" />
      <path
         d="m 125.04997,198.35937 h -0.0138 q -0.0655,0.0827 -0.16536,0.16536 -0.0999,0.0792 -0.23083,0.14469 -0.13091,0.062 -0.28594,0.0999 -0.15503,0.0379 -0.33073,0.0379 -0.23771,0 -0.43753,-0.0724 -0.19637,-0.0689 -0.34106,-0.20326 -0.14125,-0.1378 -0.22049,-0.33417 -0.0792,-0.19637 -0.0792,-0.44442 0,-0.2446 0.0861,-0.43753 0.0896,-0.19292 0.24805,-0.32728 0.15848,-0.13436 0.37896,-0.20671 0.22393,-0.0724 0.49265,-0.0724 0.25494,0.003 0.47198,0.0448 0.21704,0.0413 0.38585,0.10335 h 0.0138 v -0.22737 q 0,-0.13436 -0.0172,-0.23771 -0.0172,-0.10336 -0.0586,-0.18259 -0.0896,-0.16537 -0.28595,-0.27217 -0.19637,-0.11024 -0.53054,-0.11024 -0.24805,0 -0.46853,0.0482 -0.21704,0.0448 -0.43409,0.12747 v -0.44786 q 0.0827,-0.0413 0.19293,-0.0758 0.11369,-0.0379 0.23771,-0.062 0.12403,-0.0276 0.26183,-0.0413 0.1378,-0.0138 0.27561,-0.0138 0.49609,0 0.80959,0.1757 0.31695,0.1757 0.45476,0.46509 0.0517,0.11024 0.0723,0.2446 0.0241,0.13092 0.0241,0.28939 v 2.18419 h -0.44786 z m -0.0276,-1.07487 q -0.14814,-0.0413 -0.3514,-0.0792 -0.20326,-0.0379 -0.44786,-0.0413 -0.34107,0 -0.53399,0.14469 -0.19293,0.14469 -0.19293,0.44442 0,0.15158 0.0482,0.26527 0.0482,0.11369 0.13092,0.18948 0.0861,0.0724 0.19981,0.11024 0.11714,0.0345 0.24805,0.0345 0.17225,0 0.32039,-0.0482 0.14814,-0.0517 0.26183,-0.12057 0.11713,-0.0689 0.19637,-0.13781 0.0827,-0.0689 0.12058,-0.1068 z"
         style="font-style:normal;font-variant:normal;font-weight:normal;font-stretch:normal;font-size:7.05555534px;font-family:Corbel;-inkscape-font-specification:Corbel;stroke-width:0.52960664"
         id="path4743" />
      <path
         d="m 128.97049,197.0709 q 0,-0.3893 -0.093,-0.63045 -0.0896,-0.2446 -0.23427,-0.37896 -0.14124,-0.13781 -0.30316,-0.18948 -0.16192,-0.0517 -0.32384,-0.0517 -0.24805,0 -0.46854,0.10335 -0.21704,0.10336 -0.38585,0.26872 v 1.71221 q 0.0482,0.0655 0.12403,0.1447 0.0792,0.0758 0.18603,0.14469 0.1068,0.0655 0.23771,0.11369 0.13436,0.0448 0.29284,0.0448 0.23771,0 0.41685,-0.093 0.18259,-0.093 0.30317,-0.26183 0.12403,-0.17225 0.18604,-0.40652 0.062,-0.23771 0.062,-0.52021 z m 0.5581,-0.0413 q 0,0.4582 -0.12402,0.79237 -0.12402,0.33417 -0.32728,0.55466 -0.20326,0.21704 -0.46509,0.32384 -0.26183,0.1068 -0.54088,0.1068 -0.21015,0 -0.37207,-0.0551 -0.15848,-0.0517 -0.27216,-0.12403 -0.11025,-0.0758 -0.17915,-0.15158 -0.0655,-0.0758 -0.093,-0.12058 h -0.0103 l -0.11369,0.36518 h -0.40308 v -4.9885 h 0.53399 v 2.02227 h 0.0103 q 0.1757,-0.18603 0.40997,-0.28939 0.23426,-0.10335 0.53399,-0.10335 0.1378,0 0.29627,0.031 0.16192,0.031 0.31695,0.1068 0.15848,0.0758 0.30317,0.19981 0.14469,0.12402 0.25494,0.31006 0.11024,0.18259 0.1757,0.43753 0.0654,0.25149 0.0654,0.58222 z"
         style="font-style:normal;font-variant:normal;font-weight:normal;font-stretch:normal;font-size:7.05555534px;font-family:Corbel;-inkscape-font-specification:Corbel;stroke-width:0.52960664"
         id="path4745" />
      <path
         d="m 130.40365,198.7211 v -4.9885 h 0.53399 v 4.9885 z"
         style="font-style:normal;font-variant:normal;font-weight:normal;font-stretch:normal;font-size:7.05555534px;font-family:Corbel;-inkscape-font-specification:Corbel;stroke-width:0.52960664"
         id="path4747" />
      <path
         d="m 133.29064,195.82033 q -0.18259,0 -0.34107,0.0724 -0.15503,0.0723 -0.27216,0.19637 -0.11713,0.12402 -0.18948,0.29283 -0.0724,0.16536 -0.0896,0.35485 h 1.65364 q 0,-0.19293 -0.0517,-0.35829 -0.0482,-0.16881 -0.1447,-0.29284 -0.0965,-0.12402 -0.23771,-0.19292 -0.14125,-0.0724 -0.32728,-0.0724 z m 0.29283,2.52181 q 0.26527,0 0.48231,-0.0413 0.22049,-0.0448 0.43753,-0.12402 v 0.44441 q -0.1757,0.0861 -0.43408,0.13436 -0.25838,0.0517 -0.55466,0.0517 -0.3514,0 -0.66146,-0.0896 -0.30661,-0.0896 -0.53743,-0.28938 -0.23083,-0.19982 -0.36518,-0.52021 -0.13092,-0.32384 -0.13092,-0.77859 0,-0.44787 0.12403,-0.77515 0.12402,-0.33073 0.33072,-0.55122 0.20671,-0.22048 0.47543,-0.33072 0.26872,-0.11025 0.56155,-0.11025 0.27561,0 0.51332,0.093 0.24115,0.0896 0.41685,0.28594 0.1757,0.19637 0.27561,0.50643 0.10335,0.31006 0.10335,0.74414 0,0.0413 0,0.0724 0,0.0276 -0.003,0.13091 h -2.2462 q 0,0.31351 0.093,0.53399 0.0965,0.21704 0.25838,0.35485 0.16536,0.13436 0.38585,0.19637 0.22048,0.062 0.47542,0.062 z"
         style="font-style:normal;font-variant:normal;font-weight:normal;font-stretch:normal;font-size:7.05555534px;font-family:Corbel;-inkscape-font-specification:Corbel;stroke-width:0.52960664"
         id="path4749" />
      <path
         d="m 139.15764,194.87293 q -0.0551,0.31695 -0.25839,1.10932 l -0.71658,2.73885 h -0.57188 l -1.41938,-4.60954 h 0.58911 l 0.77859,2.7044 q 0.18604,0.65113 0.31695,1.17133 h 0.0138 q 0.0689,-0.32039 0.14814,-0.62356 0.0827,-0.30317 0.14469,-0.54088 l 0.7028,-2.71129 h 0.55811 l 0.7028,2.71129 q 0.25838,0.97841 0.29283,1.16444 h 0.0138 q 0.11713,-0.48231 0.31695,-1.17133 l 0.77859,-2.7044 h 0.58911 l -1.41938,4.60954 h -0.57188 l -0.71658,-2.73885 q -0.19637,-0.76481 -0.25838,-1.10932 z"
         style="font-style:normal;font-variant:normal;font-weight:normal;font-stretch:normal;font-size:7.05555534px;font-family:Corbel;-inkscape-font-specification:Corbel;stroke-width:0.52960664"
         id="path4751" />
      <path
         d="m 144.71457,198.35937 h -0.0138 q -0.0654,0.0827 -0.16536,0.16536 -0.0999,0.0792 -0.23082,0.14469 -0.13092,0.062 -0.28594,0.0999 -0.15503,0.0379 -0.33073,0.0379 -0.23772,0 -0.43753,-0.0724 -0.19637,-0.0689 -0.34107,-0.20326 -0.14124,-0.1378 -0.22048,-0.33417 -0.0792,-0.19637 -0.0792,-0.44442 0,-0.2446 0.0861,-0.43753 0.0896,-0.19292 0.24805,-0.32728 0.15847,-0.13436 0.37896,-0.20671 0.22393,-0.0724 0.49264,-0.0724 0.25494,0.003 0.47198,0.0448 0.21704,0.0413 0.38585,0.10335 h 0.0138 v -0.22737 q 0,-0.13436 -0.0172,-0.23771 -0.0172,-0.10336 -0.0586,-0.18259 -0.0896,-0.16537 -0.28594,-0.27217 -0.19637,-0.11024 -0.53055,-0.11024 -0.24804,0 -0.46853,0.0482 -0.21704,0.0448 -0.43408,0.12747 v -0.44786 q 0.0827,-0.0413 0.19292,-0.0758 0.11369,-0.0379 0.23772,-0.062 0.12402,-0.0276 0.26182,-0.0413 0.13781,-0.0138 0.27561,-0.0138 0.49609,0 0.8096,0.1757 0.31695,0.1757 0.45475,0.46509 0.0517,0.11024 0.0724,0.2446 0.0241,0.13092 0.0241,0.28939 v 2.18419 h -0.44786 z m -0.0276,-1.07487 q -0.14814,-0.0413 -0.3514,-0.0792 -0.20326,-0.0379 -0.44786,-0.0413 -0.34106,0 -0.53399,0.14469 -0.19292,0.14469 -0.19292,0.44442 0,0.15158 0.0482,0.26527 0.0482,0.11369 0.13091,0.18948 0.0861,0.0724 0.19982,0.11024 0.11713,0.0345 0.24804,0.0345 0.17226,0 0.3204,-0.0482 0.14814,-0.0517 0.26182,-0.12057 0.11714,-0.0689 0.19638,-0.13781 0.0827,-0.0689 0.12057,-0.1068 z"
         style="font-style:normal;font-variant:normal;font-weight:normal;font-stretch:normal;font-size:7.05555534px;font-family:Corbel;-inkscape-font-specification:Corbel;stroke-width:0.52960664"
         id="path4753" />
      <path
         d="m 147.36041,196.70916 0.88883,-1.2609 h 0.58911 l -1.19545,1.61919 1.24024,1.65365 h -0.57878 l -0.95773,-1.30914 h -0.0138 l -0.94396,1.30914 h -0.57878 l 1.24024,-1.66743 -1.19545,-1.60541 h 0.58911 l 0.90262,1.2609 z"
         style="font-style:normal;font-variant:normal;font-weight:normal;font-stretch:normal;font-size:7.05555534px;font-family:Corbel;-inkscape-font-specification:Corbel;stroke-width:0.52960664"
         id="path4755" />
      <path
         d="m 103.07715,206.53649 q 0.30661,0 0.565,0.0896 0.26182,0.0861 0.44786,0.25838 0.18948,0.17226 0.29283,0.42719 0.1068,0.25149 0.1068,0.58222 0,0.33073 -0.0999,0.60979 -0.0965,0.2756 -0.2825,0.47542 -0.18603,0.19637 -0.45475,0.31006 -0.26872,0.11024 -0.60978,0.11024 -0.36174,0 -0.64768,-0.14469 -0.2825,-0.1447 -0.47887,-0.41342 -0.19637,-0.26871 -0.29972,-0.65112 -0.10335,-0.3824 -0.10335,-0.85783 0,-0.36518 0.0551,-0.70624 0.0586,-0.34451 0.16881,-0.64423 0.11369,-0.30317 0.27561,-0.55122 0.16536,-0.25149 0.3824,-0.43064 0.21704,-0.18259 0.48576,-0.28249 0.26872,-0.0999 0.58567,-0.0999 0.26182,0.003 0.4513,0.0517 0.18948,0.0482 0.31695,0.11025 v 0.44786 q -0.1378,-0.0551 -0.33073,-0.0999 -0.19292,-0.0448 -0.39963,-0.0448 -0.24804,0 -0.48231,0.10335 -0.23082,0.0999 -0.4203,0.3135 -0.18948,0.21015 -0.32384,0.53744 -0.13091,0.32384 -0.18259,0.7717 h 0.0138 q 0.21704,-0.12402 0.47198,-0.19637 0.25493,-0.0758 0.49609,-0.0758 z m -0.0138,2.40812 q 0.18259,0 0.34106,-0.0655 0.15848,-0.0655 0.27561,-0.19292 0.11714,-0.12747 0.18259,-0.31351 0.0689,-0.18948 0.0689,-0.43064 0,-0.25838 -0.0723,-0.43408 -0.0689,-0.17914 -0.19293,-0.28939 -0.12058,-0.11024 -0.28594,-0.15847 -0.16192,-0.0482 -0.34796,-0.0482 -0.2446,0 -0.49953,0.0861 -0.25494,0.0861 -0.46165,0.21015 -0.003,0.41341 0.0689,0.72347 0.0758,0.30661 0.20671,0.50987 0.13091,0.20326 0.3135,0.30317 0.18604,0.0999 0.40308,0.0999 z"
         style="font-style:normal;font-variant:normal;font-weight:normal;font-stretch:normal;font-size:7.05555534px;font-family:Corbel;-inkscape-font-specification:Corbel;stroke-width:0.52960664"
         id="path4757" />
      <path
         d="m 106.46023,207.3013 0.88884,-1.26091 h 0.58911 l -1.19545,1.6192 1.24024,1.65364 h -0.57878 l -0.95774,-1.30913 h -0.0138 l -0.94395,1.30913 h -0.57878 l 1.24024,-1.66742 -1.19545,-1.60542 h 0.58911 l 0.90261,1.26091 z"
         style="font-style:normal;font-variant:normal;font-weight:normal;font-stretch:normal;font-size:7.05555534px;font-family:Corbel;-inkscape-font-specification:Corbel;stroke-width:0.52960664"
         id="path4759" />
      <path
         d="m 109.9949,206.53649 q 0.30662,0 0.565,0.0896 0.26183,0.0861 0.44786,0.25838 0.18948,0.17226 0.29283,0.42719 0.1068,0.25149 0.1068,0.58222 0,0.33073 -0.0999,0.60979 -0.0965,0.2756 -0.28249,0.47542 -0.18604,0.19637 -0.45476,0.31006 -0.26871,0.11024 -0.60978,0.11024 -0.36173,0 -0.64768,-0.14469 -0.28249,-0.1447 -0.47886,-0.41342 -0.19638,-0.26871 -0.29973,-0.65112 -0.10335,-0.3824 -0.10335,-0.85783 0,-0.36518 0.0551,-0.70624 0.0586,-0.34451 0.16881,-0.64423 0.11369,-0.30317 0.27561,-0.55122 0.16536,-0.25149 0.3824,-0.43064 0.21704,-0.18259 0.48576,-0.28249 0.26872,-0.0999 0.58567,-0.0999 0.26183,0.003 0.45131,0.0517 0.18948,0.0482 0.31694,0.11025 v 0.44786 q -0.1378,-0.0551 -0.33072,-0.0999 -0.19293,-0.0448 -0.39964,-0.0448 -0.24804,0 -0.48231,0.10335 -0.23082,0.0999 -0.4203,0.3135 -0.18948,0.21015 -0.32384,0.53744 -0.13091,0.32384 -0.18259,0.7717 h 0.0138 q 0.21704,-0.12402 0.47198,-0.19637 0.25494,-0.0758 0.49609,-0.0758 z m -0.0138,2.40812 q 0.18259,0 0.34107,-0.0655 0.15847,-0.0655 0.2756,-0.19292 0.11714,-0.12747 0.18259,-0.31351 0.0689,-0.18948 0.0689,-0.43064 0,-0.25838 -0.0724,-0.43408 -0.0689,-0.17914 -0.19293,-0.28939 -0.12057,-0.11024 -0.28594,-0.15847 -0.16192,-0.0482 -0.34795,-0.0482 -0.24461,0 -0.49954,0.0861 -0.25494,0.0861 -0.46165,0.21015 -0.003,0.41341 0.0689,0.72347 0.0758,0.30661 0.2067,0.50987 0.13092,0.20326 0.31351,0.30317 0.18603,0.0999 0.40307,0.0999 z"
         style="font-style:normal;font-variant:normal;font-weight:normal;font-stretch:normal;font-size:7.05555534px;font-family:Corbel;-inkscape-font-specification:Corbel;stroke-width:0.52960664"
         id="path4761" />
      <path
         d="m 112.18254,204.7037 h 0.53399 v 1.70187 h -0.53399 z m 1.17478,0 h 0.53399 v 1.70187 h -0.53399 z"
         style="font-style:normal;font-variant:normal;font-weight:normal;font-stretch:normal;font-size:7.05555534px;font-family:Corbel;-inkscape-font-specification:Corbel;stroke-width:0.52960664"
         id="path4763" />
      <path
         d="m 116.15473,207.34608 h 1.51929 v 0.49954 h -1.51929 z"
         style="font-style:normal;font-variant:normal;font-weight:normal;font-stretch:normal;font-size:7.05555534px;font-family:Corbel;-inkscape-font-specification:Corbel;stroke-width:0.52960664"
         id="path4765" />
      <path
         d="m 121.0571,208.82058 v -2.21175 l -1.24368,0.3893 v -0.49609 l 1.31603,-0.46165 h 0.46164 v 2.78019 h 0.90262 v 0.49265 h -2.53559 v -0.49265 z"
         style="font-style:normal;font-variant:normal;font-weight:normal;font-stretch:normal;font-size:7.05555534px;font-family:Corbel;-inkscape-font-specification:Corbel;stroke-width:0.52960664"
         id="path4767" />
      <path
         d="m 125.69765,209.26845 q 0,0.31695 -0.11714,0.58566 -0.11368,0.26872 -0.33417,0.46509 -0.21704,0.19637 -0.53054,0.30661 -0.31351,0.11025 -0.71314,0.11025 -0.26183,0 -0.49954,-0.0517 -0.23771,-0.0482 -0.42719,-0.15158 v -0.45476 q 0.25494,0.11369 0.48231,0.15159 0.22738,0.0413 0.4203,0.0413 0.29284,0 0.50988,-0.0792 0.21704,-0.0758 0.36173,-0.21015 0.1447,-0.13436 0.21704,-0.3135 0.0724,-0.1757 0.0724,-0.37207 0,-0.23771 -0.0758,-0.40997 -0.0724,-0.1757 -0.23082,-0.28939 -0.15848,-0.11713 -0.40652,-0.17225 -0.24805,-0.0586 -0.59945,-0.0586 -0.24805,0 -0.59945,0.0345 l 0.32729,-2.35989 h 2.1394 v 0.49265 h -1.66742 l -0.19293,1.3677 q 0.12058,-0.007 0.19293,-0.007 0.40307,0 0.71313,0.093 0.3135,0.093 0.52366,0.26872 0.21359,0.1757 0.32383,0.43064 0.11025,0.25493 0.11025,0.58222 z"
         style="font-style:normal;font-variant:normal;font-weight:normal;font-stretch:normal;font-size:7.05555534px;font-family:Corbel;-inkscape-font-specification:Corbel;stroke-width:0.52960664"
         id="path4769" />
      <path
         d="m 128.6811,207.68026 q 0,-0.29628 -0.0689,-0.53055 -0.0655,-0.23771 -0.18948,-0.39963 -0.12058,-0.16536 -0.29628,-0.25149 -0.17225,-0.0896 -0.3893,-0.0896 -0.21704,0 -0.39274,0.0896 -0.17225,0.0861 -0.29627,0.25149 -0.12403,0.16192 -0.18949,0.39963 -0.0654,0.23427 -0.0654,0.53055 0,0.29283 0.0654,0.53054 0.0689,0.23427 0.18949,0.39619 0.12402,0.16192 0.29972,0.25149 0.1757,0.0861 0.39274,0.0861 0.21704,0 0.3893,-0.0861 0.17569,-0.0896 0.29627,-0.25149 0.12403,-0.16192 0.18948,-0.39619 0.0655,-0.23771 0.0655,-0.53054 z m 0.55811,0 q 0,0.36518 -0.10336,0.68213 -0.0999,0.3135 -0.29283,0.54432 -0.19293,0.23082 -0.47198,0.36174 -0.27561,0.13091 -0.63045,0.13091 -0.36518,0 -0.64768,-0.13091 -0.27905,-0.13092 -0.47198,-0.36174 -0.18948,-0.23082 -0.28938,-0.54432 -0.0965,-0.31695 -0.0965,-0.68213 0,-0.36863 0.0999,-0.68213 0.10335,-0.31695 0.29628,-0.54777 0.19292,-0.23427 0.47198,-0.36518 0.27905,-0.13092 0.63389,-0.13092 0.36174,0 0.64079,0.13092 0.2825,0.13091 0.47198,0.36518 0.19293,0.23082 0.28939,0.54777 0.0999,0.3135 0.0999,0.68213 z"
         style="font-style:normal;font-variant:normal;font-weight:normal;font-stretch:normal;font-size:7.05555534px;font-family:Corbel;-inkscape-font-specification:Corbel;stroke-width:0.52960664"
         id="path4771" />
      <path
         d="m 131.16846,207.3013 0.88883,-1.26091 h 0.58911 l -1.19544,1.6192 1.24023,1.65364 h -0.57878 l -0.95773,-1.30913 h -0.0138 l -0.94396,1.30913 h -0.57878 l 1.24024,-1.66742 -1.19545,-1.60542 h 0.58911 l 0.90262,1.26091 z"
         style="font-style:normal;font-variant:normal;font-weight:normal;font-stretch:normal;font-size:7.05555534px;font-family:Corbel;-inkscape-font-specification:Corbel;stroke-width:0.52960664"
         id="path4773" />
      <path
         d="m 134.31383,208.82058 v -2.21175 l -1.24368,0.3893 v -0.49609 l 1.31603,-0.46165 h 0.46164 v 2.78019 h 0.90261 v 0.49265 h -2.53559 v -0.49265 z"
         style="font-style:normal;font-variant:normal;font-weight:normal;font-stretch:normal;font-size:7.05555534px;font-family:Corbel;-inkscape-font-specification:Corbel;stroke-width:0.52960664"
         id="path4775" />
      <path
         d="m 138.95437,209.26845 q 0,0.31695 -0.11713,0.58566 -0.11369,0.26872 -0.33417,0.46509 -0.21704,0.19637 -0.53055,0.30661 -0.3135,0.11025 -0.71313,0.11025 -0.26183,0 -0.49954,-0.0517 -0.23771,-0.0482 -0.42719,-0.15158 v -0.45476 q 0.25493,0.11369 0.48231,0.15159 0.22738,0.0413 0.4203,0.0413 0.29283,0 0.50988,-0.0792 0.21704,-0.0758 0.36173,-0.21015 0.14469,-0.13436 0.21704,-0.3135 0.0724,-0.1757 0.0724,-0.37207 0,-0.23771 -0.0758,-0.40997 -0.0724,-0.1757 -0.23082,-0.28939 -0.15848,-0.11713 -0.40653,-0.17225 -0.24804,-0.0586 -0.59944,-0.0586 -0.24805,0 -0.59945,0.0345 l 0.32729,-2.35989 h 2.1394 v 0.49265 h -1.66743 l -0.19292,1.3677 q 0.12058,-0.007 0.19292,-0.007 0.40308,0 0.71314,0.093 0.3135,0.093 0.52365,0.26872 0.2136,0.1757 0.32384,0.43064 0.11024,0.25493 0.11024,0.58222 z"
         style="font-style:normal;font-variant:normal;font-weight:normal;font-stretch:normal;font-size:7.05555534px;font-family:Corbel;-inkscape-font-specification:Corbel;stroke-width:0.52960664"
         id="path4777" />
      <path
         d="m 141.93783,207.68026 q 0,-0.29628 -0.0689,-0.53055 -0.0655,-0.23771 -0.18948,-0.39963 -0.12058,-0.16536 -0.29628,-0.25149 -0.17226,-0.0896 -0.3893,-0.0896 -0.21704,0 -0.39274,0.0896 -0.17225,0.0861 -0.29628,0.25149 -0.12402,0.16192 -0.18948,0.39963 -0.0655,0.23427 -0.0655,0.53055 0,0.29283 0.0655,0.53054 0.0689,0.23427 0.18948,0.39619 0.12403,0.16192 0.29973,0.25149 0.1757,0.0861 0.39274,0.0861 0.21704,0 0.38929,-0.0861 0.1757,-0.0896 0.29628,-0.25149 0.12402,-0.16192 0.18948,-0.39619 0.0655,-0.23771 0.0655,-0.53054 z m 0.5581,0 q 0,0.36518 -0.10335,0.68213 -0.0999,0.3135 -0.29283,0.54432 -0.19293,0.23082 -0.47198,0.36174 -0.27561,0.13091 -0.63045,0.13091 -0.36518,0 -0.64768,-0.13091 -0.27905,-0.13092 -0.47198,-0.36174 -0.18948,-0.23082 -0.28939,-0.54432 -0.0965,-0.31695 -0.0965,-0.68213 0,-0.36863 0.0999,-0.68213 0.10335,-0.31695 0.29628,-0.54777 0.19292,-0.23427 0.47197,-0.36518 0.27906,-0.13092 0.6339,-0.13092 0.36174,0 0.64079,0.13092 0.2825,0.13091 0.47198,0.36518 0.19292,0.23082 0.28939,0.54777 0.0999,0.3135 0.0999,0.68213 z"
         style="font-style:normal;font-variant:normal;font-weight:normal;font-stretch:normal;font-size:7.05555534px;font-family:Corbel;-inkscape-font-specification:Corbel;stroke-width:0.52960664"
         id="path4779" />
      <path
         d="m 145.99615,209.31323 h -0.53399 v -2.10495 q 0,-0.2136 -0.0482,-0.36174 -0.0448,-0.15158 -0.13436,-0.24804 -0.0861,-0.0965 -0.21015,-0.14125 -0.12058,-0.0448 -0.27216,-0.0448 -0.28595,0 -0.52021,0.15503 -0.23427,0.15159 -0.4203,0.4203 v 2.32544 h -0.53399 v -3.27284 h 0.41341 l 0.10335,0.45475 h 0.0103 q 0.0896,-0.11368 0.19292,-0.21015 0.1068,-0.0999 0.23427,-0.17225 0.13091,-0.0758 0.28594,-0.11713 0.15503,-0.0413 0.33762,-0.0413 0.36518,0 0.60634,0.1757 0.24115,0.1757 0.37207,0.47887 h 0.0138 q 0.21704,-0.30661 0.49609,-0.47887 0.27905,-0.1757 0.65112,-0.1757 0.17226,0 0.36518,0.0482 0.19293,0.0482 0.35485,0.17914 0.16192,0.12747 0.26872,0.35485 0.10679,0.22737 0.10679,0.58566 v 2.19108 h -0.53054 v -2.10495 q 0,-0.2136 -0.0482,-0.36174 -0.0448,-0.15158 -0.13436,-0.24804 -0.0861,-0.0965 -0.21015,-0.14125 -0.12058,-0.0448 -0.27216,-0.0448 -0.28595,0 -0.52366,0.15503 -0.23426,0.15159 -0.4203,0.4203 z"
         style="font-style:normal;font-variant:normal;font-weight:normal;font-stretch:normal;font-size:7.05555534px;font-family:Corbel;-inkscape-font-specification:Corbel;stroke-width:0.52960664"
         id="path4781" />
      <path
         d="m 151.83903,209.31323 h -0.53399 v -2.10495 q 0,-0.2136 -0.0482,-0.36174 -0.0448,-0.15158 -0.13436,-0.24804 -0.0861,-0.0965 -0.21015,-0.14125 -0.12058,-0.0448 -0.27216,-0.0448 -0.28595,0 -0.52021,0.15503 -0.23427,0.15159 -0.4203,0.4203 v 2.32544 h -0.53399 v -3.27284 h 0.41341 l 0.10335,0.45475 h 0.0103 q 0.0896,-0.11368 0.19292,-0.21015 0.1068,-0.0999 0.23427,-0.17225 0.13091,-0.0758 0.28594,-0.11713 0.15503,-0.0413 0.33762,-0.0413 0.36518,0 0.60634,0.1757 0.24115,0.1757 0.37207,0.47887 h 0.0138 q 0.21704,-0.30661 0.49609,-0.47887 0.27905,-0.1757 0.65112,-0.1757 0.17226,0 0.36518,0.0482 0.19293,0.0482 0.35485,0.17914 0.16192,0.12747 0.26872,0.35485 0.10679,0.22737 0.10679,0.58566 v 2.19108 h -0.53054 v -2.10495 q 0,-0.2136 -0.0482,-0.36174 -0.0448,-0.15158 -0.13436,-0.24804 -0.0861,-0.0965 -0.21015,-0.14125 -0.12058,-0.0448 -0.27216,-0.0448 -0.28595,0 -0.52366,0.15503 -0.23426,0.15159 -0.4203,0.4203 z"
         style="font-style:normal;font-variant:normal;font-weight:normal;font-stretch:normal;font-size:7.05555534px;font-family:Corbel;-inkscape-font-specification:Corbel;stroke-width:0.52960664"
         id="path4783" />
    </g>
    <rect
       style="opacity:1;vector-effect:none;fill:#ffffff;fill-opacity:1;stroke:#000000;stroke-width:0.40554824;stroke-linecap:butt;stroke-linejoin:miter;stroke-miterlimit:4;stroke-dasharray:none;stroke-dashoffset:0;stroke-opacity:1"
       id="rect899"
       width="149.09445"
       height="149.09445"
       x="-55.747143"
       y="31.575092" />
    <path
       style="fill:none;stroke:#000000;stroke-width:0.40770808px;stroke-linecap:butt;stroke-linejoin:miter;stroke-opacity:1"
       d="m 93.347305,31.575092 v -3.79615 H 23.551159"
       id="path4621"
       inkscape:connector-curvature="0" />
    <path
       id="path4621-6"
       style="fill:none;stroke:#000000;stroke-width:0.408;stroke-linecap:butt;stroke-linejoin:miter;stroke-opacity:1;stroke-miterlimit:4;stroke-dasharray:none"
       d="m -55.736861,27.71444 -3.79615,3.9162 v 69.79615 M 22.557159,23.83451 H 93.20375 M 4.179358,27.71444 22.557159,23.83451 m -78.29402,3.87993 H 4.179358" />
    <path
       id="path4635-2"
       style="fill:none;stroke:#000000;stroke-width:0.4;stroke-linecap:butt;stroke-linejoin:miter;stroke-opacity:1;stroke-miterlimit:4;stroke-dasharray:none"
       d="M -63.533011,102.36522 V 31.71863 m 3.87993,89.02439 -3.87993,-18.3778 m 7.783095,78.3071 h -3.91622 v -59.91623" />
  </g>
</svg>
