<?xml version="1.0" encoding="UTF-8" standalone="no"?>
<svg
   xmlns:dc="http://purl.org/dc/elements/1.1/"
   xmlns:cc="http://creativecommons.org/ns#"
   xmlns:rdf="http://www.w3.org/1999/02/22-rdf-syntax-ns#"
   xmlns:svg="http://www.w3.org/2000/svg"
   xmlns="http://www.w3.org/2000/svg"
   xmlns:sodipodi="http://sodipodi.sourceforge.net/DTD/sodipodi-0.dtd"
   xmlns:inkscape="http://www.inkscape.org/namespaces/inkscape"
   viewBox="0 0 793.7007874015749 1122.5196850393702"
   width="793.7007874015749"
   height="1122.5196850393702"
   version="1.1"
   id="svg296"
   sodipodi:docname="LASER_PATTERN_14_2.svg"
   inkscape:version="1.0.1 (3bc2e813f5, 2020-09-07)">
  <metadata
     id="metadata300">
    <rdf:RDF>
      <cc:Work
         rdf:about="">
        <dc:format>image/svg+xml</dc:format>
        <dc:type
           rdf:resource="http://purl.org/dc/dcmitype/StillImage" />
        <dc:title></dc:title>
      </cc:Work>
    </rdf:RDF>
  </metadata>
  <sodipodi:namedview
     pagecolor="#ffffff"
     bordercolor="#666666"
     borderopacity="1"
     objecttolerance="10"
     gridtolerance="10"
     guidetolerance="10"
     inkscape:pageopacity="0"
     inkscape:pageshadow="2"
     inkscape:window-width="1920"
     inkscape:window-height="1005"
     id="namedview298"
     showgrid="false"
     inkscape:zoom="0.83562011"
     inkscape:cx="528.58353"
     inkscape:cy="256.94542"
     inkscape:window-x="0"
     inkscape:window-y="0"
     inkscape:window-maximized="1"
     inkscape:current-layer="g292" />
  <defs
     id="defs22">
    <marker
       id="DistanceX"
       orient="auto"
       refX="0.0"
       refY="0.0"
       style="overflow:visible">
      <path
         d="M 3,-3 L -3,3 M 0,-5 L  0,5"
         style="stroke:#000000; stroke-width:0.5"
         id="path10" />
    </marker>
    <pattern
       id="Hatch"
       patternUnits="userSpaceOnUse"
       width="8"
       height="8"
       x="0"
       y="0">
      <path
         d="M8 4 l-4,4"
         stroke="#000000"
         stroke-width="0.25"
         linecap="square"
         id="path13" />
      <path
         d="M6 2 l-4,4"
         stroke="#000000"
         stroke-width="0.25"
         linecap="square"
         id="path15" />
      <path
         d="M4 0 l-4,4"
         stroke="#000000"
         stroke-width="0.25"
         linecap="square"
         id="path17" />
    </pattern>
    <symbol
       id="*MODEL_SPACE" />
    <symbol
       id="*PAPER_SPACE" />
  </defs>
  <g
     inkscape:groupmode="layer"
     inkscape:label="0"
     id="g24" />
  <g
     inkscape:groupmode="layer"
     inkscape:label="Layer_1"
     id="g292">
    <g
       id="g607"
       transform="translate(245.59968)">
      <g
         aria-label="100"
         id="text304"
         style="font-style:normal;font-variant:normal;font-weight:normal;font-stretch:normal;font-size:16.5807px;line-height:1.25;font-family:Technicality;-inkscape-font-specification:Technicality;fill:#000000;fill-opacity:1;stroke:none;stroke-width:0.414517">
        <path
           d="m 32.082626,49.652312 h 1.619209 v 1.619209 h -1.619209 z m -1.619209,1.619209 h 1.619209 v 1.619209 h -1.619209 z m 1.619209,0 h 1.619209 v 1.619209 h -1.619209 z m 0,1.619209 h 1.619209 v 1.619209 h -1.619209 z m 0,1.619209 h 1.619209 v 1.619209 h -1.619209 z m 0,1.619209 h 1.619209 v 1.619208 h -1.619209 z m 0,1.619208 h 1.619209 v 1.619209 h -1.619209 z m -1.619209,1.619209 h 1.619209 v 1.619209 h -1.619209 z m 1.619209,0 h 1.619209 v 1.619209 h -1.619209 z m 1.619209,0 h 1.619209 v 1.619209 h -1.619209 z"
           style="stroke-width:0.414517"
           id="path454" />
        <path
           d="m 48.663326,49.652312 h 1.619209 v 1.619209 h -1.619209 z m 1.619209,0 h 1.619209 v 1.619209 h -1.619209 z m 1.619209,0 h 1.619209 v 1.619209 h -1.619209 z m -4.857627,1.619209 h 1.619209 v 1.619209 h -1.619209 z m 6.476836,0 h 1.619209 v 1.619209 h -1.619209 z m -6.476836,1.619209 h 1.619209 v 1.619209 h -1.619209 z m 6.476836,0 h 1.619209 v 1.619209 h -1.619209 z m -6.476836,1.619209 h 1.619209 v 1.619209 h -1.619209 z m 6.476836,0 h 1.619209 v 1.619209 h -1.619209 z m -6.476836,1.619209 h 1.619209 v 1.619208 h -1.619209 z m 6.476836,0 h 1.619209 v 1.619208 h -1.619209 z m -6.476836,1.619208 h 1.619209 v 1.619209 h -1.619209 z m 6.476836,0 h 1.619209 v 1.619209 h -1.619209 z m -4.857627,1.619209 h 1.619209 v 1.619209 h -1.619209 z m 1.619209,0 h 1.619209 v 1.619209 h -1.619209 z m 1.619209,0 h 1.619209 v 1.619209 h -1.619209 z"
           style="stroke-width:0.414517"
           id="path456" />
        <path
           d="m 65.244026,49.652312 h 1.619209 v 1.619209 h -1.619209 z m 1.619209,0 h 1.619209 v 1.619209 h -1.619209 z m 1.619209,0 h 1.619209 v 1.619209 h -1.619209 z m -4.857627,1.619209 h 1.619209 v 1.619209 h -1.619209 z m 6.476836,0 h 1.619209 v 1.619209 h -1.619209 z m -6.476836,1.619209 h 1.619209 v 1.619209 h -1.619209 z m 6.476836,0 h 1.619209 v 1.619209 h -1.619209 z m -6.476836,1.619209 h 1.619209 v 1.619209 h -1.619209 z m 6.476836,0 h 1.619209 v 1.619209 h -1.619209 z m -6.476836,1.619209 h 1.619209 v 1.619208 h -1.619209 z m 6.476836,0 h 1.619209 v 1.619208 h -1.619209 z m -6.476836,1.619208 h 1.619209 v 1.619209 h -1.619209 z m 6.476836,0 h 1.619209 v 1.619209 h -1.619209 z m -4.857627,1.619209 h 1.619209 v 1.619209 h -1.619209 z m 1.619209,0 h 1.619209 v 1.619209 h -1.619209 z m 1.619209,0 h 1.619209 v 1.619209 h -1.619209 z"
           style="stroke-width:0.414517"
           id="path458" />
      </g>
      <path
         d="m 31.278818,149.60923 h 37.015994 v 37.01599 H 31.278818 Z"
         style="fill:none;stroke:#000000"
         id="path26" />
      <path
         d="m 66.050914,224.72439 -5.172862,11.65853 6.671452,10.87069 -12.686434,-1.317 -8.27704,9.70416 -2.667787,-12.47249 -11.786945,-4.87319 11.037649,-6.39142 0.992312,-12.71595 9.48943,8.52237 z"
         style="fill:none;stroke:#000000"
         id="path28" />
      <path
         d="m 61.331119,288.25522 7.738598,22.55047 -19.055418,14.32833 -19.515496,-13.69509 6.994178,-22.79235 z"
         style="fill:none;stroke:#000000"
         id="path30" />
      <path
         d="m 49.786813,80.297881 c -2.437183,0.281231 -4.874363,0.56246 -7.123462,1.425219 -2.209049,0.847397 -4.236655,2.255797 -5.932764,3.964145 -1.72686,1.739321 -3.110093,3.789563 -4.042763,6.035817 -0.932669,2.246252 -1.414774,4.688515 -1.409301,7.126628 0.0054,2.3947 0.481119,4.78539 1.392023,6.99817 0.927419,2.2529 2.305919,4.32138 4.029266,6.04483 1.723349,1.72346 3.791545,3.10189 6.044832,4.02927 2.213162,0.91087 4.604881,1.38662 6.998174,1.39203 2.436683,0.005 4.874997,-0.47653 7.126629,-1.4093 2.251631,-0.93278 4.31658,-2.31628 6.035814,-4.04277 1.68862,-1.69574 3.043728,-3.72237 3.964146,-5.93276 0.937104,-2.25047 1.423612,-4.69142 1.425219,-7.123467 0.0011,-1.621963 -0.213529,-3.239967 -0.634088,-4.803206 -0.417078,-1.550304 -1.036722,-3.046746 -1.838714,-4.439045 -0.808683,-1.403916 -1.802769,-2.701944 -2.94801,-3.844746 -1.145242,-1.142803 -2.441639,-2.13038 -3.844749,-2.948013 -1.391499,-0.810867 -2.887954,-1.454591 -4.439045,-1.838715 -1.564033,-0.387329 -3.183619,-0.510708 -4.803207,-0.634087"
         style="fill:none;stroke:#000000"
         id="path32" />
      <path
         d="M 70.81957,357.76652 49.62271,394.10591 28.750303,357.5792 Z"
         style="fill:none;stroke:#000000"
         id="path34" />
      <path
         d="m 107.65337,146.12152 h 35.16397 v 35.16397 h -35.16397 z"
         style="fill:none;stroke:#000000"
         id="path36" />
      <path
         d="m 140.68572,217.47844 -4.91405,11.07523 6.33766,10.32679 -12.0517,-1.2511 -7.86291,9.21862 -2.53431,-11.84845 -11.19721,-4.62937 10.4854,-6.07164 0.94267,-12.07973 9.01464,8.09597 z"
         style="fill:none;stroke:#000000"
         id="path38" />
      <path
         d="m 136.20207,277.83063 7.35141,21.42221 -18.10202,13.61144 -18.53908,-13.00988 6.64424,-21.65198 z"
         style="fill:none;stroke:#000000"
         id="path40" />
      <path
         d="m 125.23536,80.278027 c -2.31524,0.267156 -4.63049,0.534315 -6.76706,1.35391 -2.09852,0.804999 -4.02468,2.142934 -5.63593,3.765808 -1.64046,1.652298 -2.95448,3.59996 -3.84049,5.733826 -0.886,2.133864 -1.34399,4.453933 -1.33879,6.77006 0.005,2.274879 0.45705,4.545969 1.32238,6.648039 0.88102,2.14018 2.19055,4.10516 3.82767,5.74239 1.63712,1.63722 3.60184,2.94668 5.74239,3.82767 2.10243,0.86529 4.37448,1.31724 6.64803,1.32237 2.31477,0.005 4.63109,-0.45269 6.77007,-1.33879 2.13897,-0.8861 4.1006,-2.20038 5.73382,-3.84049 1.60413,-1.6109 2.89144,-3.53613 3.76581,-5.63593 0.89022,-2.13786 1.35238,-4.45669 1.35391,-6.76705 0.001,-1.540813 -0.20285,-3.077863 -0.60236,-4.56289 -0.39622,-1.472737 -0.98486,-2.894308 -1.74672,-4.216946 -0.76822,-1.333675 -1.71257,-2.566759 -2.80051,-3.652384 -1.08795,-1.085626 -2.31948,-2.023792 -3.65239,-2.800516 -1.32188,-0.770295 -2.74346,-1.38181 -4.21694,-1.746714 -1.48578,-0.36795 -3.02434,-0.485156 -4.56289,-0.602363"
         style="fill:none;stroke:#000000"
         id="path42" />
      <path
         d="m 145.21578,343.86407 -20.13631,34.52123 -19.8281,-34.69917 z"
         style="fill:none;stroke:#000000"
         id="path44" />
      <path
         d="m 184.0281,142.63906 h 33.3144 v 33.31439 h -33.3144 z"
         style="fill:none;stroke:#000000"
         id="path46" />
      <path
         d="m 215.32299,210.2427 -4.65558,10.49268 6.00431,9.78362 -11.41779,-1.1853 -7.44934,8.73374 -2.401,-11.22524 -10.60826,-4.38587 9.93389,-5.75228 0.89308,-11.44435 8.54048,7.67013 z"
         style="fill:none;stroke:#000000"
         id="path48" />
      <path
         d="m 211.07517,267.42045 6.96474,20.29542 -17.14988,12.8955 -17.56394,-12.32558 6.29476,-20.51312 z"
         style="fill:none;stroke:#000000"
         id="path50" />
      <path
         d="m 200.6853,80.258846 c -2.19347,0.253107 -4.38693,0.506212 -6.41112,1.282695 -1.98814,0.762657 -3.81299,2.030219 -5.33949,3.567733 -1.55417,1.565389 -2.79908,3.410607 -3.63848,5.432234 -0.8394,2.021628 -1.2733,4.219665 -1.26837,6.413968 0.005,2.155227 0.433,4.306854 1.25282,6.298354 0.83467,2.02761 2.07532,3.88924 3.62634,5.44035 1.55101,1.55111 3.41239,2.79169 5.44034,3.62634 1.99185,0.81978 4.1444,1.24795 6.29836,1.25282 2.19302,0.005 4.3875,-0.42888 6.41397,-1.26837 2.02647,-0.8395 3.88492,-2.08465 5.43223,-3.63849 1.51976,-1.52617 2.73936,-3.35013 3.56773,-5.33949 0.8434,-2.02541 1.28125,-4.22227 1.2827,-6.411113 9.6e-4,-1.459767 -0.19218,-2.91597 -0.57068,-4.322886 -0.37537,-1.395273 -0.93305,-2.742071 -1.65484,-3.995141 -0.72782,-1.263525 -1.6225,-2.43175 -2.65321,-3.460272 -1.03072,-1.028522 -2.19748,-1.917341 -3.46028,-2.653211 -1.25235,-0.729779 -2.59915,-1.30913 -3.99514,-1.654842 -1.40763,-0.348596 -2.86526,-0.459636 -4.32288,-0.570679"
         style="fill:none;stroke:#000000"
         id="path52" />
      <path
         d="m 219.61478,329.98062 -19.07717,32.70545 -18.78517,-32.87404 z"
         style="fill:none;stroke:#000000"
         id="path54" />
      <path
         d="m 260.40293,139.15379 h 31.4636 v 31.46359 h -31.4636 z"
         style="fill:none;stroke:#000000"
         id="path56" />
      <path
         d="m 289.95921,203.00167 -4.39693,9.90976 5.67074,9.24008 -10.78347,-1.11945 -7.03549,8.24853 -2.26762,-10.60162 -10.0189,-4.1422 9.382,-5.43272 0.84347,-10.80855 8.06601,7.24401 z"
         style="fill:none;stroke:#000000"
         id="path58" />
      <path
         d="m 285.94739,257.00287 6.57781,19.16791 -16.19711,12.17908 -16.58817,-11.64083 5.94505,-19.37349 z"
         style="fill:none;stroke:#000000"
         id="path60" />
      <path
         d="m 276.13473,80.23914 c -2.07161,0.239043 -4.14321,0.478088 -6.05494,1.211434 -1.8777,0.720288 -3.60116,1.91743 -5.04285,3.369526 -1.46784,1.478423 -2.64358,3.221127 -3.43635,5.130442 -0.79277,1.909314 -1.20256,3.985239 -1.19791,6.057636 0.005,2.035492 0.40895,4.067582 1.18322,5.948442 0.78831,1.91497 1.96003,3.67317 3.42488,5.13811 1.46484,1.46493 3.22281,2.6366 5.1381,3.42488 1.88119,0.77424 3.91415,1.17862 5.94845,1.18322 2.07118,0.005 4.14375,-0.40505 6.05764,-1.19791 1.91388,-0.79285 3.66909,-1.96883 5.13044,-3.43635 1.43533,-1.44138 2.58717,-3.16401 3.36952,-5.04285 0.79654,-1.91289 1.21007,-3.9877 1.21144,-6.05494 9.1e-4,-1.378669 -0.1815,-2.753971 -0.53897,-4.082725 -0.35452,-1.317758 -0.88122,-2.589736 -1.56291,-3.77319 -0.68738,-1.193329 -1.53236,-2.296651 -2.50581,-3.268033 -0.97346,-0.971382 -2.0754,-1.810823 -3.26804,-2.505812 -1.18277,-0.689236 -2.45476,-1.2364 -3.77319,-1.562905 -1.32942,-0.329229 -2.70607,-0.434101 -4.08272,-0.538975"
         style="fill:none;stroke:#000000"
         id="path62" />
      <path
         d="m 294.01257,316.08748 -18.01733,30.88849 -17.74155,-31.04771 z"
         style="fill:none;stroke:#000000"
         id="path64" />
      <path
         d="m 336.77738,135.66889 h 29.6128 v 29.61279 h -29.6128 z"
         style="fill:none;stroke:#000000"
         id="path66" />
      <path
         d="m 364.59506,195.76101 -4.13829,9.32684 5.33716,8.69654 -10.14914,-1.05359 -6.62163,7.76332 -2.13424,-9.978 -9.42955,-3.89854 8.83012,-5.11314 0.79385,-10.17276 7.59154,6.81789 z"
         style="fill:none;stroke:#000000"
         id="path68" />
      <path
         d="m 360.81923,246.58568 6.19087,18.04038 -15.24433,11.46266 -15.6124,-10.95607 5.59534,-18.23388 z"
         style="fill:none;stroke:#000000"
         id="path70" />
      <path
         d="m 351.58378,80.219811 c -1.94974,0.224984 -3.89949,0.449966 -5.69877,1.140174 -1.76724,0.677917 -3.38933,1.804639 -4.74621,3.171318 -1.38149,1.391457 -2.48807,3.03165 -3.23421,4.828652 -0.74613,1.797002 -1.13182,3.750811 -1.12744,5.701302 0.004,1.915758 0.38489,3.828314 1.11362,5.598543 0.74193,1.80232 1.84473,3.4571 3.22341,4.83586 1.37868,1.37876 3.03324,2.48151 4.83587,3.22342 1.77052,0.72869 3.6839,1.10929 5.59853,1.11361 1.94935,0.004 3.9,-0.38122 5.70131,-1.12744 1.8013,-0.74621 3.45326,-1.85302 4.82865,-3.23421 1.3509,-1.35659 2.43498,-2.9779 3.17132,-4.74621 0.74968,-1.800369 1.13889,-3.75313 1.14017,-5.698768 8.6e-4,-1.297571 -0.17082,-2.591974 -0.50727,-3.842566 -0.33366,-1.240242 -0.82938,-2.437396 -1.47097,-3.551235 -0.64695,-1.123134 -1.44221,-2.161558 -2.35841,-3.075801 -0.91619,-0.914241 -1.95331,-1.704302 -3.0758,-2.358407 -1.1132,-0.648693 -2.31036,-1.163672 -3.55124,-1.470972 -1.25122,-0.309863 -2.54689,-0.408568 -3.84256,-0.50727"
         style="fill:none;stroke:#000000"
         id="path72" />
      <path
         d="M 368.40999,302.19472 351.4525,331.26624 334.75457,302.04486 Z"
         style="fill:none;stroke:#000000"
         id="path74" />
      <path
         d="m 413.15108,132.18362 h 27.762 v 27.76199 h -27.762 z"
         style="fill:none;stroke:#000000"
         id="path76" />
      <path
         d="m 439.23015,188.51998 -3.87964,8.74391 5.00359,8.15301 -9.51483,-0.98775 -6.20778,7.27812 -2.00084,-9.35437 -8.84021,-3.65489 8.27824,-4.79357 0.74423,-9.53696 7.11707,6.39178 z"
         style="fill:none;stroke:#000000"
         id="path78" />
      <path
         d="m 435.69031,236.16811 5.80395,16.91285 -14.29157,10.74625 -14.63662,-10.27132 5.24564,-17.09426 z"
         style="fill:none;stroke:#000000"
         id="path80" />
      <path
         d="m 427.03208,80.200105 c -1.82789,0.21092 -3.65578,0.421842 -5.3426,1.068912 -1.65679,0.635548 -3.17749,1.691848 -4.44957,2.973109 -1.29515,1.304491 -2.33257,2.842173 -3.03208,4.526863 -0.6995,1.684689 -1.06108,3.516387 -1.05697,5.344973 0.004,1.796023 0.36084,3.589043 1.04402,5.248629 0.69556,1.689679 1.72944,3.241029 3.02195,4.533619 1.29251,1.29259 2.84366,2.32642 4.53362,3.02196 1.65987,0.68315 3.45366,1.03996 5.24863,1.04401 1.82751,0.004 3.65625,-0.3574 5.34498,-1.05697 1.68872,-0.69958 3.23743,-1.73721 4.52686,-3.03207 1.26646,-1.27181 2.28279,-2.79179 2.97311,-4.449579 0.70282,-1.687849 1.0677,-3.518561 1.06891,-5.342597 8e-4,-1.216473 -0.16015,-2.429977 -0.47557,-3.602406 -0.31281,-1.162728 -0.77754,-2.285059 -1.37903,-3.329283 -0.60652,-1.052937 -1.35208,-2.026459 -2.21101,-2.88356 -0.85893,-0.857102 -1.83123,-1.597785 -2.88356,-2.211009 -1.04363,-0.60815 -2.16597,-1.090942 -3.32929,-1.379035 -1.17302,-0.290497 -2.38771,-0.383032 -3.6024,-0.475566"
         style="fill:none;stroke:#000000"
         id="path82" />
      <path
         d="M 442.80664,288.30158 426.909,315.55613 411.2547,288.16109 Z"
         style="fill:none;stroke:#000000"
         id="path84" />
      <path
         d="m 489.52856,128.69872 h 25.91119 v 25.9112 h -25.91119 z"
         style="fill:none;stroke:#000000"
         id="path86" />
      <path
         d="m 513.86903,181.27933 -3.62101,8.16097 4.67002,7.60949 -8.8805,-0.9219 -5.79393,6.7929 -1.86746,-8.73074 -8.25086,-3.41123 7.72636,-4.47399 0.69462,-8.90117 6.6426,5.96566 z"
         style="fill:none;stroke:#000000"
         id="path88" />
      <path
         d="m 510.56517,225.75091 5.41702,15.78533 -13.3388,10.02983 -13.66084,-9.58656 4.89592,-15.95464 z"
         style="fill:none;stroke:#000000"
         id="path90" />
      <path
         d="m 502.48416,80.180776 c -1.70603,0.196861 -3.41206,0.39372 -4.98643,0.997653 -1.54633,0.593177 -2.96566,1.579058 -4.15293,2.774901 -1.20881,1.217525 -2.17707,2.652694 -2.82994,4.225071 -0.65287,1.572376 -0.99034,3.281959 -0.98651,4.988638 0.004,1.676289 0.33678,3.349776 0.97442,4.898724 0.64919,1.577031 1.61414,3.024967 2.82049,4.231387 1.20634,1.20641 2.65408,2.17131 4.23138,2.82048 1.54921,0.63761 3.22341,0.97063 4.89872,0.97442 1.70568,0.004 3.4125,-0.33358 4.98864,-0.98651 1.57614,-0.65294 3.0216,-1.62139 4.22507,-2.82994 1.18203,-1.18702 2.13061,-2.605657 2.7749,-4.15293 0.65597,-1.575326 0.99653,-3.283991 0.99765,-4.986425 7.6e-4,-1.135375 -0.14946,-2.267977 -0.44386,-3.362245 -0.29195,-1.085213 -0.7257,-2.132723 -1.2871,-3.107332 -0.56608,-0.982742 -1.26194,-1.891361 -2.06361,-2.691323 -0.80167,-0.799962 -1.70914,-1.491267 -2.69132,-2.06361 -0.97405,-0.567607 -2.02157,-1.018213 -3.10733,-1.287099 -1.09482,-0.27113 -2.22853,-0.357494 -3.36224,-0.44386"
         style="fill:none;stroke:#000000"
         id="path92" />
      <path
         d="M 517.20709,274.40882 502.36928,299.8464 487.7586,274.2777 Z"
         style="fill:none;stroke:#000000"
         id="path94" />
      <path
         d="m 565.90225,125.21382 h 24.0604 v 24.0604 h -24.0604 z"
         style="fill:none;stroke:#000000"
         id="path96" />
      <path
         d="m 588.50412,174.03868 -3.36236,7.57804 4.33644,7.06595 -8.24618,-0.85605 -5.38008,6.3077 -1.73406,-8.10712 -7.66151,-3.16757 7.17447,-4.15442 0.645,-8.26537 6.16813,5.53954 z"
         style="fill:none;stroke:#000000"
         id="path98" />
      <path
         d="m 585.43625,215.33371 5.03009,14.65781 -12.38602,9.31341 -12.68507,-8.9018 4.54621,-14.81503 z"
         style="fill:none;stroke:#000000"
         id="path100" />
      <path
         d="m 577.93245,80.161448 c -1.58417,0.182796 -3.16834,0.365596 -4.63025,0.92639 -1.43588,0.550808 -2.75382,1.466269 -3.85629,2.576695 -1.12246,1.130559 -2.02157,2.463217 -2.6278,3.923282 -0.60624,1.460064 -0.91961,3.047534 -0.91605,4.632307 0.004,1.556554 0.31273,3.110505 0.90482,4.548813 0.60282,1.464385 1.49885,2.808895 2.61902,3.929145 1.12018,1.12024 2.46451,2.01622 3.92914,2.61902 1.43856,0.59207 2.99317,0.9013 4.54882,0.90481 1.58384,0.004 3.16874,-0.30974 4.6323,-0.91604 1.46356,-0.6063 2.80578,-1.50558 3.92328,-2.6278 1.09761,-1.102232 1.97843,-2.41954 2.5767,-3.856294 0.60912,-1.462802 0.92535,-3.04942 0.92639,-4.630251 7e-4,-1.054277 -0.13879,-2.105979 -0.41216,-3.122086 -0.2711,-1.007697 -0.67387,-1.980384 -1.19516,-2.885379 -0.52564,-0.912545 -1.1718,-1.756263 -1.91621,-2.499085 -0.74441,-0.742822 -1.58706,-1.384748 -2.49908,-1.91621 -0.90448,-0.527063 -1.87717,-0.945482 -2.88538,-1.195161 -1.01663,-0.251763 -2.06936,-0.331959 -3.12209,-0.412156"
         style="fill:none;stroke:#000000"
         id="path102" />
      <path
         d="m 591.60375,260.51606 -13.77797,23.6206 -13.56706,-23.74236 z"
         style="fill:none;stroke:#000000"
         id="path104" />
      <path
         d="m 642.27595,121.72855 h 22.2096 v 22.20959 h -22.2096 z"
         style="fill:none;stroke:#000000"
         id="path106" />
      <path
         d="m 663.13921,166.79764 -3.10372,6.99512 4.00287,6.52241 -7.61186,-0.79019 -4.96622,5.82249 -1.60067,-7.48349 -7.07217,-2.92392 6.62259,-3.83485 0.59539,-7.62957 5.69365,5.11342 z"
         style="fill:none;stroke:#000000"
         id="path108" />
      <path
         d="m 660.30733,204.91614 4.64316,13.53029 -11.43325,8.59699 -11.7093,-8.21705 4.19651,-13.67541 z"
         style="fill:none;stroke:#000000"
         id="path110" />
      <path
         d="m 653.38075,80.141741 c -1.46231,0.168737 -2.92462,0.337474 -4.27408,0.85513 -1.32543,0.508437 -2.54199,1.353477 -3.55966,2.378486 -1.03611,1.043593 -1.86605,2.273739 -2.42566,3.621491 -0.5596,1.347751 -0.84886,2.813109 -0.84558,4.275977 0.003,1.436818 0.28868,2.871235 0.83522,4.198904 0.55645,1.351741 1.38355,2.592828 2.41756,3.6269 1.03401,1.034071 2.27493,1.861131 3.6269,2.417561 1.3279,0.54652 2.76293,0.83197 4.1989,0.83521 1.46201,0.003 2.925,-0.28592 4.27598,-0.84558 1.35098,-0.55966 2.58995,-1.38976 3.62149,-2.425655 1.01317,-1.017448 1.82624,-2.233425 2.37849,-3.55966 0.56226,-1.350279 0.85416,-2.814849 0.85513,-4.274077 6.4e-4,-0.973178 -0.12812,-1.94398 -0.38046,-2.881924 -0.25024,-0.930183 -0.62203,-1.828049 -1.10322,-2.663428 -0.48521,-0.842351 -1.08167,-1.621167 -1.76881,-2.306849 -0.68715,-0.685681 -1.46498,-1.278228 -2.30685,-1.768807 -0.8349,-0.48652 -1.73277,-0.872754 -2.66343,-1.103228 -0.93842,-0.232397 -1.91017,-0.306425 -2.88192,-0.380451"
         style="fill:none;stroke:#000000"
         id="path112" />
      <path
         d="m 666.0004,246.62292 -12.71811,21.80364 -12.52345,-21.91603 z"
         style="fill:none;stroke:#000000"
         id="path114" />
      <path
         d="m 718.64965,118.24365 h 20.3588 v 20.3588 h -20.3588 z"
         style="fill:none;stroke:#000000"
         id="path116" />
      <path
         d="m 737.7743,159.55699 -2.84507,6.41219 3.6693,5.97888 -6.97754,-0.72435 -4.55237,5.33729 -1.46729,-6.85987 -6.48282,-2.68025 6.07071,-3.51529 0.54577,-6.99377 5.21919,4.68731 z"
         style="fill:none;stroke:#000000"
         id="path118" />
      <path
         d="m 735.17842,194.49894 4.25622,12.40277 -10.48047,7.88057 -10.73353,-7.53229 3.8468,-12.53579 z"
         style="fill:none;stroke:#000000"
         id="path120" />
      <path
         d="m 740.39706,232.73016 -11.65827,19.98667 -11.47982,-20.08969 z"
         style="fill:none;stroke:#000000"
         id="path122" />
      <path
         d="m 728.82905,80.122413 c -1.34045,0.154673 -2.6809,0.30935 -3.91791,0.783868 -1.21498,0.466069 -2.33016,1.24069 -3.26302,2.180283 -0.94977,0.956626 -1.71055,2.084259 -2.22352,3.319698 -0.51297,1.235438 -0.77812,2.578683 -0.77511,3.919646 0.003,1.317083 0.26461,2.631964 0.76561,3.848993 0.51008,1.239095 1.26825,2.376758 2.2161,3.324658 0.94784,0.947898 2.08535,1.706035 3.32465,2.216096 1.21724,0.500975 2.53269,0.762635 3.849,0.765615 1.34017,0.003 2.68125,-0.26209 3.91965,-0.775117 1.23839,-0.513024 2.37412,-1.273951 3.31969,-2.223521 0.92875,-0.93266 1.67406,-2.047304 2.18028,-3.263018 0.51541,-1.237756 0.78299,-2.580279 0.78387,-3.917906 5.9e-4,-0.89208 -0.11744,-1.781983 -0.34874,-2.641764 -0.2294,-0.852667 -0.5702,-1.67571 -1.0113,-2.441474 -0.44477,-0.772154 -0.99152,-1.486071 -1.6214,-2.114612 -0.62989,-0.628542 -1.3429,-1.17171 -2.11462,-1.621407 -0.76532,-0.445977 -1.58837,-0.800024 -2.44147,-1.011292 -0.86022,-0.21303 -1.75099,-0.280889 -2.64176,-0.348746"
         style="fill:none;stroke:#000000"
         id="path124" />
      <g
         aria-label="95"
         id="text304-1"
         style="font-style:normal;font-variant:normal;font-weight:normal;font-stretch:normal;font-size:16.5807px;line-height:1.25;font-family:Technicality;-inkscape-font-specification:Technicality;fill:#000000;fill-opacity:1;stroke:none;stroke-width:0.414517">
        <path
           d="m 116.27017,49.652312 h 1.61921 v 1.619209 h -1.61921 z m 1.61921,0 h 1.61921 v 1.619209 h -1.61921 z m 1.61921,0 h 1.61921 v 1.619209 h -1.61921 z m -4.85763,1.619209 h 1.61921 v 1.619209 h -1.61921 z m 6.47684,0 h 1.61921 v 1.619209 h -1.61921 z m -6.47684,1.619209 h 1.61921 v 1.619209 h -1.61921 z m 6.47684,0 h 1.61921 v 1.619209 h -1.61921 z m -4.85763,1.619209 h 1.61921 v 1.619209 h -1.61921 z m 1.61921,0 h 1.61921 v 1.619209 h -1.61921 z m 1.61921,0 h 1.61921 v 1.619209 h -1.61921 z m 1.61921,0 h 1.61921 v 1.619209 h -1.61921 z m 0,1.619209 h 1.61921 v 1.619208 h -1.61921 z m -1.61921,1.619208 h 1.61921 v 1.619209 h -1.61921 z m -3.23842,1.619209 h 1.61921 v 1.619209 h -1.61921 z m 1.61921,0 h 1.61921 v 1.619209 h -1.61921 z"
           style="stroke-width:0.414517"
           id="path461" />
        <path
           d="m 131.23166,49.652312 h 1.61921 v 1.619209 h -1.61921 z m 1.61921,0 h 1.61921 v 1.619209 h -1.61921 z m 1.61921,0 h 1.61921 v 1.619209 h -1.61921 z m 1.61921,0 h 1.61921 v 1.619209 h -1.61921 z m -4.85763,1.619209 h 1.61921 v 1.619209 h -1.61921 z m 0,1.619209 h 1.61921 v 1.619209 h -1.61921 z m 0,1.619209 h 1.61921 v 1.619209 h -1.61921 z m 1.61921,0 h 1.61921 v 1.619209 h -1.61921 z m 1.61921,0 h 1.61921 v 1.619209 h -1.61921 z m 1.61921,1.619209 h 1.61921 v 1.619208 h -1.61921 z m 0,1.619208 h 1.61921 v 1.619209 h -1.61921 z m -4.85763,1.619209 h 1.61921 v 1.619209 h -1.61921 z m 1.61921,0 h 1.61921 v 1.619209 h -1.61921 z m 1.61921,0 h 1.61921 v 1.619209 h -1.61921 z"
           style="stroke-width:0.414517"
           id="path463" />
      </g>
      <g
         aria-label="90"
         id="text304-9"
         style="font-style:normal;font-variant:normal;font-weight:normal;font-stretch:normal;font-size:16.5807px;line-height:1.25;font-family:Technicality;-inkscape-font-specification:Technicality;fill:#000000;fill-opacity:1;stroke:none;stroke-width:0.414517">
        <path
           d="m 190.54813,49.652312 h 1.61921 v 1.619209 h -1.61921 z m 1.61921,0 h 1.61921 v 1.619209 h -1.61921 z m 1.61921,0 h 1.61921 v 1.619209 h -1.61921 z m -4.85763,1.619209 h 1.61921 v 1.619209 h -1.61921 z m 6.47684,0 h 1.61921 v 1.619209 h -1.61921 z m -6.47684,1.619209 h 1.61921 v 1.619209 h -1.61921 z m 6.47684,0 h 1.61921 v 1.619209 h -1.61921 z m -4.85763,1.619209 h 1.61921 v 1.619209 h -1.61921 z m 1.61921,0 h 1.61921 v 1.619209 h -1.61921 z m 1.61921,0 h 1.61921 v 1.619209 h -1.61921 z m 1.61921,0 h 1.61921 v 1.619209 h -1.61921 z m 0,1.619209 h 1.61921 v 1.619208 h -1.61921 z m -1.61921,1.619208 h 1.61921 v 1.619209 h -1.61921 z m -3.23842,1.619209 h 1.61921 v 1.619209 h -1.61921 z m 1.61921,0 h 1.61921 v 1.619209 h -1.61921 z"
           style="stroke-width:0.414517"
           id="path466" />
        <path
           d="m 207.12883,49.652312 h 1.61921 v 1.619209 h -1.61921 z m 1.61921,0 h 1.61921 v 1.619209 h -1.61921 z m 1.61921,0 h 1.61921 v 1.619209 h -1.61921 z m -4.85763,1.619209 h 1.61921 v 1.619209 h -1.61921 z m 6.47684,0 h 1.61921 v 1.619209 h -1.61921 z m -6.47684,1.619209 h 1.61921 v 1.619209 h -1.61921 z m 6.47684,0 h 1.61921 v 1.619209 h -1.61921 z m -6.47684,1.619209 h 1.61921 v 1.619209 h -1.61921 z m 6.47684,0 h 1.61921 v 1.619209 h -1.61921 z m -6.47684,1.619209 h 1.61921 v 1.619208 h -1.61921 z m 6.47684,0 h 1.61921 v 1.619208 h -1.61921 z m -6.47684,1.619208 h 1.61921 v 1.619209 h -1.61921 z m 6.47684,0 h 1.61921 v 1.619209 h -1.61921 z m -4.85763,1.619209 h 1.61921 v 1.619209 h -1.61921 z m 1.61921,0 h 1.61921 v 1.619209 h -1.61921 z m 1.61921,0 h 1.61921 v 1.619209 h -1.61921 z"
           style="stroke-width:0.414517"
           id="path468" />
      </g>
      <g
         aria-label="85"
         id="text304-90"
         style="font-style:normal;font-variant:normal;font-weight:normal;font-stretch:normal;font-size:16.5807px;line-height:1.25;font-family:Technicality;-inkscape-font-specification:Technicality;fill:#000000;fill-opacity:1;stroke:none;stroke-width:0.414517">
        <path
           d="m 266.44532,49.652312 h 1.61921 v 1.619209 h -1.61921 z m 1.61921,0 h 1.61921 v 1.619209 h -1.61921 z m 1.61921,0 h 1.61921 v 1.619209 h -1.61921 z m -4.85763,1.619209 h 1.61921 v 1.619209 h -1.61921 z m 6.47684,0 h 1.61921 v 1.619209 h -1.61921 z m -6.47684,1.619209 h 1.61921 v 1.619209 h -1.61921 z m 6.47684,0 h 1.61921 v 1.619209 h -1.61921 z m -4.85763,1.619209 h 1.61921 v 1.619209 h -1.61921 z m 1.61921,0 h 1.61921 v 1.619209 h -1.61921 z m 1.61921,0 h 1.61921 v 1.619209 h -1.61921 z m -4.85763,1.619209 h 1.61921 v 1.619208 h -1.61921 z m 6.47684,0 h 1.61921 v 1.619208 h -1.61921 z m -6.47684,1.619208 h 1.61921 v 1.619209 h -1.61921 z m 6.47684,0 h 1.61921 v 1.619209 h -1.61921 z m -4.85763,1.619209 h 1.61921 v 1.619209 h -1.61921 z m 1.61921,0 h 1.61921 v 1.619209 h -1.61921 z m 1.61921,0 h 1.61921 v 1.619209 h -1.61921 z"
           style="stroke-width:0.414517"
           id="path471" />
        <path
           d="m 281.40681,49.652312 h 1.61921 v 1.619209 h -1.61921 z m 1.61921,0 h 1.61921 v 1.619209 h -1.61921 z m 1.61921,0 h 1.61921 v 1.619209 h -1.61921 z m 1.61921,0 h 1.61921 v 1.619209 h -1.61921 z m -4.85763,1.619209 h 1.61921 v 1.619209 h -1.61921 z m 0,1.619209 h 1.61921 v 1.619209 h -1.61921 z m 0,1.619209 h 1.61921 v 1.619209 h -1.61921 z m 1.61921,0 h 1.61921 v 1.619209 h -1.61921 z m 1.61921,0 h 1.61921 v 1.619209 h -1.61921 z m 1.61921,1.619209 h 1.61921 v 1.619208 h -1.61921 z m 0,1.619208 h 1.61921 v 1.619209 h -1.61921 z m -4.85763,1.619209 h 1.61921 v 1.619209 h -1.61921 z m 1.61921,0 h 1.61921 v 1.619209 h -1.61921 z m 1.61921,0 h 1.61921 v 1.619209 h -1.61921 z"
           style="stroke-width:0.414517"
           id="path473" />
      </g>
      <g
         aria-label="80"
         id="text304-8"
         style="font-style:normal;font-variant:normal;font-weight:normal;font-stretch:normal;font-size:16.5807px;line-height:1.25;font-family:Technicality;-inkscape-font-specification:Technicality;fill:#000000;fill-opacity:1;stroke:none;stroke-width:0.414517">
        <path
           d="m 340.72327,49.652312 h 1.61921 v 1.619209 h -1.61921 z m 1.61921,0 h 1.61921 v 1.619209 h -1.61921 z m 1.61921,0 h 1.61921 v 1.619209 h -1.61921 z m -4.85763,1.619209 h 1.61921 v 1.619209 h -1.61921 z m 6.47684,0 h 1.61921 v 1.619209 h -1.61921 z m -6.47684,1.619209 h 1.61921 v 1.619209 h -1.61921 z m 6.47684,0 h 1.61921 v 1.619209 h -1.61921 z m -4.85763,1.619209 h 1.61921 v 1.619209 h -1.61921 z m 1.61921,0 h 1.61921 v 1.619209 h -1.61921 z m 1.61921,0 h 1.61921 v 1.619209 h -1.61921 z m -4.85763,1.619209 h 1.61921 v 1.619208 h -1.61921 z m 6.47684,0 h 1.61921 v 1.619208 h -1.61921 z m -6.47684,1.619208 h 1.61921 v 1.619209 h -1.61921 z m 6.47684,0 h 1.61921 v 1.619209 h -1.61921 z m -4.85763,1.619209 h 1.61921 v 1.619209 h -1.61921 z m 1.61921,0 h 1.61921 v 1.619209 h -1.61921 z m 1.61921,0 h 1.61921 v 1.619209 h -1.61921 z"
           style="stroke-width:0.414517"
           id="path476" />
        <path
           d="m 357.30397,49.652312 h 1.61921 v 1.619209 h -1.61921 z m 1.61921,0 h 1.61921 v 1.619209 h -1.61921 z m 1.61921,0 h 1.61921 v 1.619209 h -1.61921 z m -4.85763,1.619209 h 1.61921 v 1.619209 h -1.61921 z m 6.47684,0 h 1.61921 v 1.619209 h -1.61921 z m -6.47684,1.619209 h 1.61921 v 1.619209 h -1.61921 z m 6.47684,0 h 1.61921 v 1.619209 h -1.61921 z m -6.47684,1.619209 h 1.61921 v 1.619209 h -1.61921 z m 6.47684,0 h 1.61921 v 1.619209 h -1.61921 z m -6.47684,1.619209 h 1.61921 v 1.619208 h -1.61921 z m 6.47684,0 h 1.61921 v 1.619208 h -1.61921 z m -6.47684,1.619208 h 1.61921 v 1.619209 h -1.61921 z m 6.47684,0 h 1.61921 v 1.619209 h -1.61921 z m -4.85763,1.619209 h 1.61921 v 1.619209 h -1.61921 z m 1.61921,0 h 1.61921 v 1.619209 h -1.61921 z m 1.61921,0 h 1.61921 v 1.619209 h -1.61921 z"
           style="stroke-width:0.414517"
           id="path478" />
      </g>
      <g
         aria-label="75"
         id="text304-0"
         style="font-style:normal;font-variant:normal;font-weight:normal;font-stretch:normal;font-size:16.5807px;line-height:1.25;font-family:Technicality;-inkscape-font-specification:Technicality;fill:#000000;fill-opacity:1;stroke:none;stroke-width:0.414517">
        <path
           d="m 415.00125,49.652312 h 1.61921 v 1.619209 h -1.61921 z m 1.61921,0 h 1.61921 v 1.619209 h -1.61921 z m 1.61921,0 h 1.61921 v 1.619209 h -1.61921 z m 1.61921,0 h 1.61921 v 1.619209 h -1.61921 z m 1.61921,0 h 1.61921 v 1.619209 h -1.61921 z m 0,1.619209 h 1.61921 v 1.619209 h -1.61921 z m -1.61921,1.619209 h 1.61921 v 1.619209 h -1.61921 z m -1.61921,1.619209 h 1.61921 v 1.619209 h -1.61921 z m 0,1.619209 h 1.61921 v 1.619208 h -1.61921 z m -1.61921,1.619208 h 1.61921 v 1.619209 h -1.61921 z m 0,1.619209 h 1.61921 v 1.619209 h -1.61921 z"
           style="stroke-width:0.414517"
           id="path481" />
        <path
           d="m 431.58195,49.652312 h 1.61921 v 1.619209 h -1.61921 z m 1.61921,0 h 1.61921 v 1.619209 h -1.61921 z m 1.61921,0 h 1.61921 v 1.619209 h -1.61921 z m 1.61921,0 h 1.61921 v 1.619209 h -1.61921 z m -4.85763,1.619209 h 1.61921 v 1.619209 h -1.61921 z m 0,1.619209 h 1.61921 v 1.619209 h -1.61921 z m 0,1.619209 h 1.61921 v 1.619209 h -1.61921 z m 1.61921,0 h 1.61921 v 1.619209 h -1.61921 z m 1.61921,0 h 1.61921 v 1.619209 h -1.61921 z m 1.61921,1.619209 h 1.61921 v 1.619208 h -1.61921 z m 0,1.619208 h 1.61921 v 1.619209 h -1.61921 z m -4.85763,1.619209 h 1.61921 v 1.619209 h -1.61921 z m 1.61921,0 h 1.61921 v 1.619209 h -1.61921 z m 1.61921,0 h 1.61921 v 1.619209 h -1.61921 z"
           style="stroke-width:0.414517"
           id="path483" />
      </g>
      <g
         aria-label="70"
         id="text304-6"
         style="font-style:normal;font-variant:normal;font-weight:normal;font-stretch:normal;font-size:16.5807px;line-height:1.25;font-family:Technicality;-inkscape-font-specification:Technicality;fill:#000000;fill-opacity:1;stroke:none;stroke-width:0.414517">
        <path
           d="m 489.27921,49.652312 h 1.6192 v 1.619209 h -1.6192 z m 1.6192,0 h 1.61921 v 1.619209 h -1.61921 z m 1.61921,0 h 1.61921 v 1.619209 h -1.61921 z m 1.61921,0 h 1.61921 v 1.619209 h -1.61921 z m 1.61921,0 h 1.61921 v 1.619209 h -1.61921 z m 0,1.619209 h 1.61921 v 1.619209 h -1.61921 z m -1.61921,1.619209 h 1.61921 v 1.619209 h -1.61921 z m -1.61921,1.619209 h 1.61921 v 1.619209 h -1.61921 z m 0,1.619209 h 1.61921 v 1.619208 h -1.61921 z m -1.61921,1.619208 h 1.61921 v 1.619209 h -1.61921 z m 0,1.619209 h 1.61921 v 1.619209 h -1.61921 z"
           style="stroke-width:0.414517"
           id="path486" />
        <path
           d="m 507.47911,49.652312 h 1.61921 v 1.619209 h -1.61921 z m 1.61921,0 h 1.61921 v 1.619209 h -1.61921 z m 1.61921,0 h 1.61921 v 1.619209 h -1.61921 z m -4.85762,1.619209 h 1.6192 v 1.619209 h -1.6192 z m 6.47683,0 h 1.61921 v 1.619209 h -1.61921 z m -6.47683,1.619209 h 1.6192 v 1.619209 h -1.6192 z m 6.47683,0 h 1.61921 v 1.619209 h -1.61921 z m -6.47683,1.619209 h 1.6192 v 1.619209 h -1.6192 z m 6.47683,0 h 1.61921 v 1.619209 h -1.61921 z m -6.47683,1.619209 h 1.6192 v 1.619208 h -1.6192 z m 6.47683,0 h 1.61921 v 1.619208 h -1.61921 z m -6.47683,1.619208 h 1.6192 v 1.619209 h -1.6192 z m 6.47683,0 h 1.61921 v 1.619209 h -1.61921 z m -4.85763,1.619209 h 1.61921 v 1.619209 h -1.61921 z m 1.61921,0 h 1.61921 v 1.619209 h -1.61921 z m 1.61921,0 h 1.61921 v 1.619209 h -1.61921 z"
           style="stroke-width:0.414517"
           id="path488" />
      </g>
      <g
         aria-label="65"
         id="text304-5"
         style="font-style:normal;font-variant:normal;font-weight:normal;font-stretch:normal;font-size:16.5807px;line-height:1.25;font-family:Technicality;-inkscape-font-specification:Technicality;fill:#000000;fill-opacity:1;stroke:none;stroke-width:0.414517">
        <path
           d="m 566.79566,49.652312 h 1.61921 v 1.619209 h -1.61921 z m 1.61921,0 h 1.61921 v 1.619209 h -1.61921 z m 1.61921,0 h 1.61921 v 1.619209 h -1.61921 z m -4.85763,1.619209 h 1.61921 v 1.619209 h -1.61921 z m 6.47684,0 h 1.61921 v 1.619209 h -1.61921 z m -6.47684,1.619209 h 1.61921 v 1.619209 h -1.61921 z m 0,1.619209 h 1.61921 v 1.619209 h -1.61921 z m 1.61921,0 h 1.61921 v 1.619209 h -1.61921 z m 1.61921,0 h 1.61921 v 1.619209 h -1.61921 z m 1.61921,0 h 1.61921 v 1.619209 h -1.61921 z m -4.85763,1.619209 h 1.61921 v 1.619208 h -1.61921 z m 6.47684,0 h 1.61921 v 1.619208 h -1.61921 z m -6.47684,1.619208 h 1.61921 v 1.619209 h -1.61921 z m 6.47684,0 h 1.61921 v 1.619209 h -1.61921 z m -4.85763,1.619209 h 1.61921 v 1.619209 h -1.61921 z m 1.61921,0 h 1.61921 v 1.619209 h -1.61921 z m 1.61921,0 h 1.61921 v 1.619209 h -1.61921 z"
           style="stroke-width:0.414517"
           id="path491" />
        <path
           d="m 581.75715,49.652312 h 1.61921 v 1.619209 h -1.61921 z m 1.61921,0 h 1.61921 v 1.619209 h -1.61921 z m 1.61921,0 h 1.61921 v 1.619209 h -1.61921 z m 1.61921,0 h 1.61921 v 1.619209 h -1.61921 z m -4.85763,1.619209 h 1.61921 v 1.619209 h -1.61921 z m 0,1.619209 h 1.61921 v 1.619209 h -1.61921 z m 0,1.619209 h 1.61921 v 1.619209 h -1.61921 z m 1.61921,0 h 1.61921 v 1.619209 h -1.61921 z m 1.61921,0 h 1.61921 v 1.619209 h -1.61921 z m 1.61921,1.619209 h 1.61921 v 1.619208 h -1.61921 z m 0,1.619208 h 1.61921 v 1.619209 h -1.61921 z m -4.85763,1.619209 h 1.61921 v 1.619209 h -1.61921 z m 1.61921,0 h 1.61921 v 1.619209 h -1.61921 z m 1.61921,0 h 1.61921 v 1.619209 h -1.61921 z"
           style="stroke-width:0.414517"
           id="path493" />
      </g>
      <g
         aria-label="60"
         id="text304-11"
         style="font-style:normal;font-variant:normal;font-weight:normal;font-stretch:normal;font-size:16.5807px;line-height:1.25;font-family:Technicality;-inkscape-font-specification:Technicality;fill:#000000;fill-opacity:1;stroke:none;stroke-width:0.414517">
        <path
           d="m 641.07362,49.652312 h 1.6192 v 1.619209 h -1.6192 z m 1.6192,0 h 1.61921 v 1.619209 h -1.61921 z m 1.61921,0 h 1.61921 v 1.619209 h -1.61921 z m -4.85762,1.619209 h 1.61921 v 1.619209 h -1.61921 z m 6.47683,0 h 1.61921 v 1.619209 h -1.61921 z m -6.47683,1.619209 h 1.61921 v 1.619209 h -1.61921 z m 0,1.619209 h 1.61921 v 1.619209 h -1.61921 z m 1.61921,0 h 1.6192 v 1.619209 h -1.6192 z m 1.6192,0 h 1.61921 v 1.619209 h -1.61921 z m 1.61921,0 h 1.61921 v 1.619209 h -1.61921 z m -4.85762,1.619209 h 1.61921 v 1.619208 h -1.61921 z m 6.47683,0 h 1.61921 v 1.619208 h -1.61921 z m -6.47683,1.619208 h 1.61921 v 1.619209 h -1.61921 z m 6.47683,0 h 1.61921 v 1.619209 h -1.61921 z m -4.85762,1.619209 h 1.6192 v 1.619209 h -1.6192 z m 1.6192,0 h 1.61921 v 1.619209 h -1.61921 z m 1.61921,0 h 1.61921 v 1.619209 h -1.61921 z"
           style="stroke-width:0.414517"
           id="path496" />
        <path
           d="m 657.65432,49.652312 h 1.6192 v 1.619209 h -1.6192 z m 1.6192,0 h 1.61921 v 1.619209 h -1.61921 z m 1.61921,0 h 1.61921 v 1.619209 h -1.61921 z m -4.85762,1.619209 h 1.61921 v 1.619209 h -1.61921 z m 6.47683,0 h 1.61921 v 1.619209 h -1.61921 z m -6.47683,1.619209 h 1.61921 v 1.619209 h -1.61921 z m 6.47683,0 h 1.61921 v 1.619209 h -1.61921 z m -6.47683,1.619209 h 1.61921 v 1.619209 h -1.61921 z m 6.47683,0 h 1.61921 v 1.619209 h -1.61921 z m -6.47683,1.619209 h 1.61921 v 1.619208 h -1.61921 z m 6.47683,0 h 1.61921 v 1.619208 h -1.61921 z m -6.47683,1.619208 h 1.61921 v 1.619209 h -1.61921 z m 6.47683,0 h 1.61921 v 1.619209 h -1.61921 z m -4.85762,1.619209 h 1.6192 v 1.619209 h -1.6192 z m 1.6192,0 h 1.61921 v 1.619209 h -1.61921 z m 1.61921,0 h 1.61921 v 1.619209 h -1.61921 z"
           style="stroke-width:0.414517"
           id="path498" />
      </g>
      <g
         aria-label="55"
         id="text304-84"
         style="font-style:normal;font-variant:normal;font-weight:normal;font-stretch:normal;font-size:16.5807px;line-height:1.25;font-family:Technicality;-inkscape-font-specification:Technicality;fill:#000000;fill-opacity:1;stroke:none;stroke-width:0.414517">
        <path
           d="m 715.35162,49.652312 h 1.61921 v 1.619209 h -1.61921 z m 1.61921,0 h 1.61921 v 1.619209 h -1.61921 z m 1.61921,0 h 1.61921 v 1.619209 h -1.61921 z m 1.61921,0 h 1.61921 v 1.619209 h -1.61921 z m -4.85763,1.619209 h 1.61921 v 1.619209 h -1.61921 z m 0,1.619209 h 1.61921 v 1.619209 h -1.61921 z m 0,1.619209 h 1.61921 v 1.619209 h -1.61921 z m 1.61921,0 h 1.61921 v 1.619209 h -1.61921 z m 1.61921,0 h 1.61921 v 1.619209 h -1.61921 z m 1.61921,1.619209 h 1.61921 v 1.619208 h -1.61921 z m 0,1.619208 h 1.61921 v 1.619209 h -1.61921 z m -4.85763,1.619209 h 1.61921 v 1.619209 h -1.61921 z m 1.61921,0 h 1.61921 v 1.619209 h -1.61921 z m 1.61921,0 h 1.61921 v 1.619209 h -1.61921 z"
           style="stroke-width:0.414517"
           id="path501" />
        <path
           d="m 731.93232,49.652312 h 1.61921 v 1.619209 h -1.61921 z m 1.61921,0 h 1.61921 v 1.619209 h -1.61921 z m 1.61921,0 h 1.61921 v 1.619209 h -1.61921 z m 1.61921,0 h 1.61921 v 1.619209 h -1.61921 z m -4.85763,1.619209 h 1.61921 v 1.619209 h -1.61921 z m 0,1.619209 h 1.61921 v 1.619209 h -1.61921 z m 0,1.619209 h 1.61921 v 1.619209 h -1.61921 z m 1.61921,0 h 1.61921 v 1.619209 h -1.61921 z m 1.61921,0 h 1.61921 v 1.619209 h -1.61921 z m 1.61921,1.619209 h 1.61921 v 1.619208 h -1.61921 z m 0,1.619208 h 1.61921 v 1.619209 h -1.61921 z m -4.85763,1.619209 h 1.61921 v 1.619209 h -1.61921 z m 1.61921,0 h 1.61921 v 1.619209 h -1.61921 z m 1.61921,0 h 1.61921 v 1.619209 h -1.61921 z"
           style="stroke-width:0.414517"
           id="path503" />
      </g>
    </g>
    <rect
       style="fill:none;stroke:#000000;stroke-width:0.986103"
       id="rect524"
       width="879.01392"
       height="459.01389"
       x="190.66862"
       y="-11.585834"
       ry="28.174767" />
    <g
       aria-label="Antonio ANAYA
AGRILAB
FAB ACADEMY"
       id="text611"
       style="font-size:26.0092px;line-height:1.25;font-family:Technicality;-inkscape-font-specification:Technicality;text-align:end;text-anchor:end;stroke-width:0.650231"
       transform="translate(236.42627,-13.163877)">
      <path
         d="m 477.34422,353.21197 h 2.53996 v 2.53996 h -2.53996 z m 2.53996,0 h 2.53996 v 2.53996 h -2.53996 z m 2.53996,0 h 2.53996 v 2.53996 h -2.53996 z m 2.53996,0 h 2.53996 v 2.53996 h -2.53996 z m 2.53996,0 h 2.53996 v 2.53996 h -2.53996 z m -10.15984,2.53996 h 2.53996 v 2.53996 h -2.53996 z m 10.15984,0 h 2.53996 v 2.53996 h -2.53996 z m -10.15984,2.53996 h 2.53996 v 2.53997 h -2.53996 z m 10.15984,0 h 2.53996 v 2.53997 h -2.53996 z m -10.15984,2.53997 h 2.53996 v 2.53996 h -2.53996 z m 10.15984,0 h 2.53996 v 2.53996 h -2.53996 z m -10.15984,2.53996 h 2.53996 v 2.53996 h -2.53996 z m 2.53996,0 h 2.53996 v 2.53996 h -2.53996 z m 2.53996,0 h 2.53996 v 2.53996 h -2.53996 z m 2.53996,0 h 2.53996 v 2.53996 h -2.53996 z m 2.53996,0 h 2.53996 v 2.53996 h -2.53996 z m -10.15984,2.53996 h 2.53996 v 2.53996 h -2.53996 z m 10.15984,0 h 2.53996 v 2.53996 h -2.53996 z m -10.15984,2.53996 h 2.53996 v 2.53996 h -2.53996 z m 10.15984,0 h 2.53996 v 2.53996 h -2.53996 z"
         style="text-align:end;text-anchor:end;stroke-width:0.650231"
         id="path617" />
      <path
         d="m 503.35342,358.29189 h 2.53996 v 2.53997 h -2.53996 z m 2.53996,0 h 2.53996 v 2.53997 h -2.53996 z m 2.53996,0 h 2.53996 v 2.53997 h -2.53996 z m -5.07992,2.53997 h 2.53996 v 2.53996 h -2.53996 z m 7.61988,0 h 2.53996 v 2.53996 h -2.53996 z m -7.61988,2.53996 h 2.53996 v 2.53996 h -2.53996 z m 7.61988,0 h 2.53996 v 2.53996 h -2.53996 z m -7.61988,2.53996 h 2.53996 v 2.53996 h -2.53996 z m 7.61988,0 h 2.53996 v 2.53996 h -2.53996 z m -7.61988,2.53996 h 2.53996 v 2.53996 h -2.53996 z m 7.61988,0 h 2.53996 v 2.53996 h -2.53996 z"
         style="text-align:end;text-anchor:end;stroke-width:0.650231"
         id="path619" />
      <path
         d="m 531.90258,353.21197 h 2.53996 v 2.53996 h -2.53996 z m 0,2.53996 h 2.53996 v 2.53996 h -2.53996 z m -2.53996,2.53996 h 2.53996 v 2.53997 h -2.53996 z m 2.53996,0 h 2.53996 v 2.53997 h -2.53996 z m 2.53996,0 h 2.53996 v 2.53997 h -2.53996 z m 2.53996,0 h 2.53996 v 2.53997 h -2.53996 z m -5.07992,2.53997 h 2.53996 v 2.53996 h -2.53996 z m 0,2.53996 h 2.53996 v 2.53996 h -2.53996 z m 0,2.53996 h 2.53996 v 2.53996 h -2.53996 z m 2.53996,2.53996 h 2.53996 v 2.53996 h -2.53996 z m 2.53996,0 h 2.53996 v 2.53996 h -2.53996 z"
         style="text-align:end;text-anchor:end;stroke-width:0.650231"
         id="path621" />
      <path
         d="m 557.91177,358.29189 h 2.53996 v 2.53997 h -2.53996 z m 2.53996,0 h 2.53997 v 2.53997 h -2.53997 z m 2.53997,0 h 2.53996 v 2.53997 h -2.53996 z m -7.61989,2.53997 h 2.53996 v 2.53996 h -2.53996 z m 10.15985,0 h 2.53996 v 2.53996 h -2.53996 z m -10.15985,2.53996 h 2.53996 v 2.53996 h -2.53996 z m 10.15985,0 h 2.53996 v 2.53996 h -2.53996 z m -10.15985,2.53996 h 2.53996 v 2.53996 h -2.53996 z m 10.15985,0 h 2.53996 v 2.53996 h -2.53996 z m -7.61989,2.53996 h 2.53996 v 2.53996 h -2.53996 z m 2.53996,0 h 2.53997 v 2.53996 h -2.53997 z m 2.53997,0 h 2.53996 v 2.53996 h -2.53996 z"
         style="text-align:end;text-anchor:end;stroke-width:0.650231"
         id="path623" />
      <path
         d="m 581.38101,358.29189 h 2.53996 v 2.53997 h -2.53996 z m 2.53996,0 h 2.53997 v 2.53997 h -2.53997 z m 2.53997,0 h 2.53996 v 2.53997 h -2.53996 z m -5.07993,2.53997 h 2.53996 v 2.53996 h -2.53996 z m 7.61989,0 h 2.53996 v 2.53996 h -2.53996 z m -7.61989,2.53996 h 2.53996 v 2.53996 h -2.53996 z m 7.61989,0 h 2.53996 v 2.53996 h -2.53996 z m -7.61989,2.53996 h 2.53996 v 2.53996 h -2.53996 z m 7.61989,0 h 2.53996 v 2.53996 h -2.53996 z m -7.61989,2.53996 h 2.53996 v 2.53996 h -2.53996 z m 7.61989,0 h 2.53996 v 2.53996 h -2.53996 z"
         style="text-align:end;text-anchor:end;stroke-width:0.650231"
         id="path625" />
      <path
         d="m 609.93017,353.21197 h 2.53996 v 2.53996 h -2.53996 z m -2.53996,5.07992 h 2.53996 v 2.53997 h -2.53996 z m 2.53996,0 h 2.53996 v 2.53997 h -2.53996 z m 0,2.53997 h 2.53996 v 2.53996 h -2.53996 z m 0,2.53996 h 2.53996 v 2.53996 h -2.53996 z m 0,2.53996 h 2.53996 v 2.53996 h -2.53996 z m -2.53996,2.53996 h 2.53996 v 2.53996 h -2.53996 z m 2.53996,0 h 2.53996 v 2.53996 h -2.53996 z m 2.53996,0 h 2.53996 v 2.53996 h -2.53996 z"
         style="text-align:end;text-anchor:end;stroke-width:0.650231"
         id="path627" />
      <path
         d="m 635.93937,358.29189 h 2.53996 v 2.53997 h -2.53996 z m 2.53996,0 h 2.53996 v 2.53997 h -2.53996 z m 2.53996,0 h 2.53996 v 2.53997 h -2.53996 z m -7.61988,2.53997 h 2.53996 v 2.53996 h -2.53996 z m 10.15984,0 h 2.53996 v 2.53996 h -2.53996 z m -10.15984,2.53996 h 2.53996 v 2.53996 h -2.53996 z m 10.15984,0 h 2.53996 v 2.53996 h -2.53996 z m -10.15984,2.53996 h 2.53996 v 2.53996 h -2.53996 z m 10.15984,0 h 2.53996 v 2.53996 h -2.53996 z m -7.61988,2.53996 h 2.53996 v 2.53996 h -2.53996 z m 2.53996,0 h 2.53996 v 2.53996 h -2.53996 z m 2.53996,0 h 2.53996 v 2.53996 h -2.53996 z"
         style="text-align:end;text-anchor:end;stroke-width:0.650231"
         id="path629" />
      <path
         d="m 685.41781,353.21197 h 2.53996 v 2.53996 h -2.53996 z m 2.53996,0 h 2.53996 v 2.53996 h -2.53996 z m 2.53996,0 h 2.53996 v 2.53996 h -2.53996 z m 2.53996,0 h 2.53996 v 2.53996 h -2.53996 z m 2.53996,0 h 2.53996 v 2.53996 h -2.53996 z m -10.15984,2.53996 h 2.53996 v 2.53996 h -2.53996 z m 10.15984,0 h 2.53996 v 2.53996 h -2.53996 z m -10.15984,2.53996 h 2.53996 v 2.53997 h -2.53996 z m 10.15984,0 h 2.53996 v 2.53997 h -2.53996 z m -10.15984,2.53997 h 2.53996 v 2.53996 h -2.53996 z m 10.15984,0 h 2.53996 v 2.53996 h -2.53996 z m -10.15984,2.53996 h 2.53996 v 2.53996 h -2.53996 z m 2.53996,0 h 2.53996 v 2.53996 h -2.53996 z m 2.53996,0 h 2.53996 v 2.53996 h -2.53996 z m 2.53996,0 h 2.53996 v 2.53996 h -2.53996 z m 2.53996,0 h 2.53996 v 2.53996 h -2.53996 z m -10.15984,2.53996 h 2.53996 v 2.53996 h -2.53996 z m 10.15984,0 h 2.53996 v 2.53996 h -2.53996 z m -10.15984,2.53996 h 2.53996 v 2.53996 h -2.53996 z m 10.15984,0 h 2.53996 v 2.53996 h -2.53996 z"
         style="text-align:end;text-anchor:end;stroke-width:0.650231"
         id="path631" />
      <path
         d="m 711.42701,353.21197 h 2.53996 v 2.53996 h -2.53996 z m 2.53996,0 h 2.53996 v 2.53996 h -2.53996 z m 2.53996,0 h 2.53996 v 2.53996 h -2.53996 z m 5.07992,0 h 2.53997 v 2.53996 h -2.53997 z m -10.15984,2.53996 h 2.53996 v 2.53996 h -2.53996 z m 5.07992,0 h 2.53996 v 2.53996 h -2.53996 z m 5.07992,0 h 2.53997 v 2.53996 h -2.53997 z m -10.15984,2.53996 h 2.53996 v 2.53997 h -2.53996 z m 5.07992,0 h 2.53996 v 2.53997 h -2.53996 z m 5.07992,0 h 2.53997 v 2.53997 h -2.53997 z m -10.15984,2.53997 h 2.53996 v 2.53996 h -2.53996 z m 5.07992,0 h 2.53996 v 2.53996 h -2.53996 z m 5.07992,0 h 2.53997 v 2.53996 h -2.53997 z m -10.15984,2.53996 h 2.53996 v 2.53996 h -2.53996 z m 5.07992,0 h 2.53996 v 2.53996 h -2.53996 z m 5.07992,0 h 2.53997 v 2.53996 h -2.53997 z m -10.15984,2.53996 h 2.53996 v 2.53996 h -2.53996 z m 5.07992,0 h 2.53996 v 2.53996 h -2.53996 z m 5.07992,0 h 2.53997 v 2.53996 h -2.53997 z m -10.15984,2.53996 h 2.53996 v 2.53996 h -2.53996 z m 5.07992,0 h 2.53996 v 2.53996 h -2.53996 z m 2.53996,0 h 2.53996 v 2.53996 h -2.53996 z m 2.53996,0 h 2.53997 v 2.53996 h -2.53997 z"
         style="text-align:end;text-anchor:end;stroke-width:0.650231"
         id="path633" />
      <path
         d="m 737.4362,353.21197 h 2.53996 v 2.53996 h -2.53996 z m 2.53996,0 h 2.53996 v 2.53996 h -2.53996 z m 2.53996,0 h 2.53996 v 2.53996 h -2.53996 z m 2.53996,0 h 2.53996 v 2.53996 h -2.53996 z m 2.53996,0 h 2.53996 v 2.53996 h -2.53996 z m -10.15984,2.53996 h 2.53996 v 2.53996 h -2.53996 z m 10.15984,0 h 2.53996 v 2.53996 h -2.53996 z m -10.15984,2.53996 h 2.53996 v 2.53997 h -2.53996 z m 10.15984,0 h 2.53996 v 2.53997 h -2.53996 z m -10.15984,2.53997 h 2.53996 v 2.53996 h -2.53996 z m 10.15984,0 h 2.53996 v 2.53996 h -2.53996 z m -10.15984,2.53996 h 2.53996 v 2.53996 h -2.53996 z m 2.53996,0 h 2.53996 v 2.53996 h -2.53996 z m 2.53996,0 h 2.53996 v 2.53996 h -2.53996 z m 2.53996,0 h 2.53996 v 2.53996 h -2.53996 z m 2.53996,0 h 2.53996 v 2.53996 h -2.53996 z m -10.15984,2.53996 h 2.53996 v 2.53996 h -2.53996 z m 10.15984,0 h 2.53996 v 2.53996 h -2.53996 z m -10.15984,2.53996 h 2.53996 v 2.53996 h -2.53996 z m 10.15984,0 h 2.53996 v 2.53996 h -2.53996 z"
         style="text-align:end;text-anchor:end;stroke-width:0.650231"
         id="path635" />
      <path
         d="m 763.44541,353.21197 h 2.53996 v 2.53996 h -2.53996 z m 10.15985,0 h 2.53996 v 2.53996 h -2.53996 z m -10.15985,2.53996 h 2.53996 v 2.53996 h -2.53996 z m 5.07993,0 h 2.53996 v 2.53996 h -2.53996 z m 5.07992,0 h 2.53996 v 2.53996 h -2.53996 z m -10.15985,2.53996 h 2.53996 v 2.53997 h -2.53996 z m 5.07993,0 h 2.53996 v 2.53997 h -2.53996 z m 5.07992,0 h 2.53996 v 2.53997 h -2.53996 z m -10.15985,2.53997 h 2.53996 v 2.53996 h -2.53996 z m 5.07993,0 h 2.53996 v 2.53996 h -2.53996 z m 5.07992,0 h 2.53996 v 2.53996 h -2.53996 z m -7.61989,2.53996 h 2.53997 v 2.53996 h -2.53997 z m 2.53997,0 h 2.53996 v 2.53996 h -2.53996 z m 2.53996,0 h 2.53996 v 2.53996 h -2.53996 z m -2.53996,2.53996 h 2.53996 v 2.53996 h -2.53996 z m 0,2.53996 h 2.53996 v 2.53996 h -2.53996 z"
         style="text-align:end;text-anchor:end;stroke-width:0.650231"
         id="path637" />
      <path
         d="m 789.4546,353.21197 h 2.53996 v 2.53996 h -2.53996 z m 2.53996,0 h 2.53996 v 2.53996 h -2.53996 z m 2.53996,0 h 2.53996 v 2.53996 h -2.53996 z m 2.53996,0 h 2.53996 v 2.53996 h -2.53996 z m 2.53996,0 h 2.53996 v 2.53996 h -2.53996 z m -10.15984,2.53996 h 2.53996 v 2.53996 h -2.53996 z m 10.15984,0 h 2.53996 v 2.53996 h -2.53996 z m -10.15984,2.53996 h 2.53996 v 2.53997 h -2.53996 z m 10.15984,0 h 2.53996 v 2.53997 h -2.53996 z m -10.15984,2.53997 h 2.53996 v 2.53996 h -2.53996 z m 10.15984,0 h 2.53996 v 2.53996 h -2.53996 z m -10.15984,2.53996 h 2.53996 v 2.53996 h -2.53996 z m 2.53996,0 h 2.53996 v 2.53996 h -2.53996 z m 2.53996,0 h 2.53996 v 2.53996 h -2.53996 z m 2.53996,0 h 2.53996 v 2.53996 h -2.53996 z m 2.53996,0 h 2.53996 v 2.53996 h -2.53996 z m -10.15984,2.53996 h 2.53996 v 2.53996 h -2.53996 z m 10.15984,0 h 2.53996 v 2.53996 h -2.53996 z m -10.15984,2.53996 h 2.53996 v 2.53996 h -2.53996 z m 10.15984,0 h 2.53996 v 2.53996 h -2.53996 z"
         style="text-align:end;text-anchor:end;stroke-width:0.650231"
         id="path639" />
      <path
         d="m 633.39941,385.72347 h 2.53996 v 2.53996 h -2.53996 z m 2.53996,0 h 2.53996 v 2.53996 h -2.53996 z m 2.53996,0 h 2.53996 v 2.53996 h -2.53996 z m 2.53996,0 h 2.53997 v 2.53996 h -2.53997 z m 2.53997,0 h 2.53996 v 2.53996 h -2.53996 z m -10.15985,2.53996 h 2.53996 v 2.53996 h -2.53996 z m 10.15985,0 h 2.53996 v 2.53996 h -2.53996 z m -10.15985,2.53996 h 2.53996 v 2.53996 h -2.53996 z m 10.15985,0 h 2.53996 v 2.53996 h -2.53996 z m -10.15985,2.53996 h 2.53996 v 2.53997 h -2.53996 z m 10.15985,0 h 2.53996 v 2.53997 h -2.53996 z m -10.15985,2.53997 h 2.53996 v 2.53996 h -2.53996 z m 2.53996,0 h 2.53996 v 2.53996 h -2.53996 z m 2.53996,0 h 2.53996 v 2.53996 h -2.53996 z m 2.53996,0 h 2.53997 v 2.53996 h -2.53997 z m 2.53997,0 h 2.53996 v 2.53996 h -2.53996 z m -10.15985,2.53996 h 2.53996 v 2.53996 h -2.53996 z m 10.15985,0 h 2.53996 v 2.53996 h -2.53996 z m -10.15985,2.53996 h 2.53996 v 2.53996 h -2.53996 z m 10.15985,0 h 2.53996 v 2.53996 h -2.53996 z"
         style="text-align:end;text-anchor:end;stroke-width:0.650231"
         id="path641" />
      <path
         d="m 659.40861,385.72347 h 2.53996 v 2.53996 h -2.53996 z m 2.53996,0 h 2.53996 v 2.53996 h -2.53996 z m 2.53996,0 h 2.53996 v 2.53996 h -2.53996 z m 2.53996,0 h 2.53996 v 2.53996 h -2.53996 z m 2.53996,0 h 2.53997 v 2.53996 h -2.53997 z m -10.15984,2.53996 h 2.53996 v 2.53996 h -2.53996 z m 0,2.53996 h 2.53996 v 2.53996 h -2.53996 z m 0,2.53996 h 2.53996 v 2.53997 h -2.53996 z m 5.07992,0 h 2.53996 v 2.53997 h -2.53996 z m 2.53996,0 h 2.53996 v 2.53997 h -2.53996 z m 2.53996,0 h 2.53997 v 2.53997 h -2.53997 z m -10.15984,2.53997 h 2.53996 v 2.53996 h -2.53996 z m 10.15984,0 h 2.53997 v 2.53996 h -2.53997 z m -10.15984,2.53996 h 2.53996 v 2.53996 h -2.53996 z m 10.15984,0 h 2.53997 v 2.53996 h -2.53997 z m -10.15984,2.53996 h 2.53996 v 2.53996 h -2.53996 z m 2.53996,0 h 2.53996 v 2.53996 h -2.53996 z m 2.53996,0 h 2.53996 v 2.53996 h -2.53996 z m 2.53996,0 h 2.53996 v 2.53996 h -2.53996 z m 2.53996,0 h 2.53997 v 2.53996 h -2.53997 z"
         style="text-align:end;text-anchor:end;stroke-width:0.650231"
         id="path643" />
      <path
         d="m 685.41781,385.72347 h 2.53996 v 2.53996 h -2.53996 z m 2.53996,0 h 2.53996 v 2.53996 h -2.53996 z m 2.53996,0 h 2.53996 v 2.53996 h -2.53996 z m 2.53996,0 h 2.53996 v 2.53996 h -2.53996 z m -7.61988,2.53996 h 2.53996 v 2.53996 h -2.53996 z m 10.15984,0 h 2.53996 v 2.53996 h -2.53996 z m -10.15984,2.53996 h 2.53996 v 2.53996 h -2.53996 z m 10.15984,0 h 2.53996 v 2.53996 h -2.53996 z m -10.15984,2.53996 h 2.53996 v 2.53997 h -2.53996 z m 2.53996,0 h 2.53996 v 2.53997 h -2.53996 z m 2.53996,0 h 2.53996 v 2.53997 h -2.53996 z m 2.53996,0 h 2.53996 v 2.53997 h -2.53996 z m 2.53996,0 h 2.53996 v 2.53997 h -2.53996 z m -10.15984,2.53997 h 2.53996 v 2.53996 h -2.53996 z m 10.15984,0 h 2.53996 v 2.53996 h -2.53996 z m -10.15984,2.53996 h 2.53996 v 2.53996 h -2.53996 z m 10.15984,0 h 2.53996 v 2.53996 h -2.53996 z m -10.15984,2.53996 h 2.53996 v 2.53996 h -2.53996 z m 10.15984,0 h 2.53996 v 2.53996 h -2.53996 z"
         style="text-align:end;text-anchor:end;stroke-width:0.650231"
         id="path645" />
      <path
         d="m 711.42701,385.72347 h 2.53996 v 2.53996 h -2.53996 z m 2.53996,0 h 2.53996 v 2.53996 h -2.53996 z m 2.53996,0 h 2.53996 v 2.53996 h -2.53996 z m -2.53996,2.53996 h 2.53996 v 2.53996 h -2.53996 z m 0,2.53996 h 2.53996 v 2.53996 h -2.53996 z m 0,2.53996 h 2.53996 v 2.53997 h -2.53996 z m 0,2.53997 h 2.53996 v 2.53996 h -2.53996 z m 0,2.53996 h 2.53996 v 2.53996 h -2.53996 z m -2.53996,2.53996 h 2.53996 v 2.53996 h -2.53996 z m 2.53996,0 h 2.53996 v 2.53996 h -2.53996 z m 2.53996,0 h 2.53996 v 2.53996 h -2.53996 z"
         style="text-align:end;text-anchor:end;stroke-width:0.650231"
         id="path647" />
      <path
         d="m 737.43621,385.72347 h 2.53996 v 2.53996 h -2.53996 z m 0,2.53996 h 2.53996 v 2.53996 h -2.53996 z m 0,2.53996 h 2.53996 v 2.53996 h -2.53996 z m 0,2.53996 h 2.53996 v 2.53997 h -2.53996 z m 0,2.53997 h 2.53996 v 2.53996 h -2.53996 z m 0,2.53996 h 2.53996 v 2.53996 h -2.53996 z m 0,2.53996 h 2.53996 v 2.53996 h -2.53996 z m 2.53996,0 h 2.53996 v 2.53996 h -2.53996 z m 2.53996,0 h 2.53996 v 2.53996 h -2.53996 z"
         style="text-align:end;text-anchor:end;stroke-width:0.650231"
         id="path649" />
      <path
         d="m 763.4454,385.72347 h 2.53996 v 2.53996 h -2.53996 z m 2.53996,0 h 2.53996 v 2.53996 h -2.53996 z m 2.53996,0 h 2.53996 v 2.53996 h -2.53996 z m 2.53996,0 h 2.53997 v 2.53996 h -2.53997 z m 2.53997,0 h 2.53996 v 2.53996 h -2.53996 z m -10.15985,2.53996 h 2.53996 v 2.53996 h -2.53996 z m 10.15985,0 h 2.53996 v 2.53996 h -2.53996 z m -10.15985,2.53996 h 2.53996 v 2.53996 h -2.53996 z m 10.15985,0 h 2.53996 v 2.53996 h -2.53996 z m -10.15985,2.53996 h 2.53996 v 2.53997 h -2.53996 z m 10.15985,0 h 2.53996 v 2.53997 h -2.53996 z m -10.15985,2.53997 h 2.53996 v 2.53996 h -2.53996 z m 2.53996,0 h 2.53996 v 2.53996 h -2.53996 z m 2.53996,0 h 2.53996 v 2.53996 h -2.53996 z m 2.53996,0 h 2.53997 v 2.53996 h -2.53997 z m 2.53997,0 h 2.53996 v 2.53996 h -2.53996 z m -10.15985,2.53996 h 2.53996 v 2.53996 h -2.53996 z m 10.15985,0 h 2.53996 v 2.53996 h -2.53996 z m -10.15985,2.53996 h 2.53996 v 2.53996 h -2.53996 z m 10.15985,0 h 2.53996 v 2.53996 h -2.53996 z"
         style="text-align:end;text-anchor:end;stroke-width:0.650231"
         id="path651" />
      <path
         d="m 789.4546,385.72347 h 2.53996 v 2.53996 h -2.53996 z m 2.53996,0 h 2.53996 v 2.53996 h -2.53996 z m 2.53996,0 h 2.53997 v 2.53996 h -2.53997 z m 2.53997,0 h 2.53996 v 2.53996 h -2.53996 z m 2.53996,0 h 2.53996 v 2.53996 h -2.53996 z m -10.15985,2.53996 h 2.53996 v 2.53996 h -2.53996 z m 10.15985,0 h 2.53996 v 2.53996 h -2.53996 z m -10.15985,2.53996 h 2.53996 v 2.53996 h -2.53996 z m 10.15985,0 h 2.53996 v 2.53996 h -2.53996 z m -10.15985,2.53996 h 2.53996 v 2.53997 h -2.53996 z m 2.53996,0 h 2.53996 v 2.53997 h -2.53996 z m 2.53996,0 h 2.53997 v 2.53997 h -2.53997 z m 2.53997,0 h 2.53996 v 2.53997 h -2.53996 z m 2.53996,0 h 2.53996 v 2.53997 h -2.53996 z m -10.15985,2.53997 h 2.53996 v 2.53996 h -2.53996 z m 10.15985,0 h 2.53996 v 2.53996 h -2.53996 z m -10.15985,2.53996 h 2.53996 v 2.53996 h -2.53996 z m 10.15985,0 h 2.53996 v 2.53996 h -2.53996 z m -10.15985,2.53996 h 2.53996 v 2.53996 h -2.53996 z m 2.53996,0 h 2.53996 v 2.53996 h -2.53996 z m 2.53996,0 h 2.53997 v 2.53996 h -2.53997 z m 2.53997,0 h 2.53996 v 2.53996 h -2.53996 z m 2.53996,0 h 2.53996 v 2.53996 h -2.53996 z"
         style="text-align:end;text-anchor:end;stroke-width:0.650231"
         id="path653" />
      <path
         d="m 529.36262,418.23497 h 2.53996 v 2.53996 h -2.53996 z m 2.53996,0 h 2.53996 v 2.53996 h -2.53996 z m 2.53996,0 h 2.53996 v 2.53996 h -2.53996 z m 2.53996,0 h 2.53996 v 2.53996 h -2.53996 z m 2.53996,0 h 2.53996 v 2.53996 h -2.53996 z m -10.15984,2.53996 h 2.53996 v 2.53996 h -2.53996 z m 0,2.53996 h 2.53996 v 2.53996 h -2.53996 z m 0,2.53996 h 2.53996 v 2.53996 h -2.53996 z m 2.53996,0 h 2.53996 v 2.53996 h -2.53996 z m -2.53996,2.53996 h 2.53996 v 2.53997 h -2.53996 z m 0,2.53997 h 2.53996 v 2.53996 h -2.53996 z m 0,2.53996 h 2.53996 v 2.53996 h -2.53996 z"
         style="text-align:end;text-anchor:end;stroke-width:0.650231"
         id="path655" />
      <path
         d="m 555.37181,418.23497 h 2.53997 v 2.53996 h -2.53997 z m 2.53997,0 h 2.53996 v 2.53996 h -2.53996 z m 2.53996,0 h 2.53996 v 2.53996 h -2.53996 z m 2.53996,0 h 2.53996 v 2.53996 h -2.53996 z m 2.53996,0 h 2.53996 v 2.53996 h -2.53996 z m -10.15985,2.53996 h 2.53997 v 2.53996 h -2.53997 z m 10.15985,0 h 2.53996 v 2.53996 h -2.53996 z m -10.15985,2.53996 h 2.53997 v 2.53996 h -2.53997 z m 10.15985,0 h 2.53996 v 2.53996 h -2.53996 z m -10.15985,2.53996 h 2.53997 v 2.53996 h -2.53997 z m 10.15985,0 h 2.53996 v 2.53996 h -2.53996 z m -10.15985,2.53996 h 2.53997 v 2.53997 h -2.53997 z m 2.53997,0 h 2.53996 v 2.53997 h -2.53996 z m 2.53996,0 h 2.53996 v 2.53997 h -2.53996 z m 2.53996,0 h 2.53996 v 2.53997 h -2.53996 z m 2.53996,0 h 2.53996 v 2.53997 h -2.53996 z m -10.15985,2.53997 h 2.53997 v 2.53996 h -2.53997 z m 10.15985,0 h 2.53996 v 2.53996 h -2.53996 z m -10.15985,2.53996 h 2.53997 v 2.53996 h -2.53997 z m 10.15985,0 h 2.53996 v 2.53996 h -2.53996 z"
         style="text-align:end;text-anchor:end;stroke-width:0.650231"
         id="path657" />
      <path
         d="m 581.38101,418.23497 h 2.53996 v 2.53996 h -2.53996 z m 2.53996,0 h 2.53997 v 2.53996 h -2.53997 z m 2.53997,0 h 2.53996 v 2.53996 h -2.53996 z m 2.53996,0 h 2.53996 v 2.53996 h -2.53996 z m 2.53996,0 h 2.53996 v 2.53996 h -2.53996 z m -10.15985,2.53996 h 2.53996 v 2.53996 h -2.53996 z m 10.15985,0 h 2.53996 v 2.53996 h -2.53996 z m -10.15985,2.53996 h 2.53996 v 2.53996 h -2.53996 z m 10.15985,0 h 2.53996 v 2.53996 h -2.53996 z m -10.15985,2.53996 h 2.53996 v 2.53996 h -2.53996 z m 2.53996,0 h 2.53997 v 2.53996 h -2.53997 z m 2.53997,0 h 2.53996 v 2.53996 h -2.53996 z m 2.53996,0 h 2.53996 v 2.53996 h -2.53996 z m 2.53996,0 h 2.53996 v 2.53996 h -2.53996 z m -10.15985,2.53996 h 2.53996 v 2.53997 h -2.53996 z m 10.15985,0 h 2.53996 v 2.53997 h -2.53996 z m -10.15985,2.53997 h 2.53996 v 2.53996 h -2.53996 z m 10.15985,0 h 2.53996 v 2.53996 h -2.53996 z m -10.15985,2.53996 h 2.53996 v 2.53996 h -2.53996 z m 2.53996,0 h 2.53997 v 2.53996 h -2.53997 z m 2.53997,0 h 2.53996 v 2.53996 h -2.53996 z m 2.53996,0 h 2.53996 v 2.53996 h -2.53996 z m 2.53996,0 h 2.53996 v 2.53996 h -2.53996 z"
         style="text-align:end;text-anchor:end;stroke-width:0.650231"
         id="path659" />
      <path
         d="m 633.39941,418.23497 h 2.53996 v 2.53996 h -2.53996 z m 2.53996,0 h 2.53996 v 2.53996 h -2.53996 z m 2.53996,0 h 2.53996 v 2.53996 h -2.53996 z m 2.53996,0 h 2.53997 v 2.53996 h -2.53997 z m 2.53997,0 h 2.53996 v 2.53996 h -2.53996 z m -10.15985,2.53996 h 2.53996 v 2.53996 h -2.53996 z m 10.15985,0 h 2.53996 v 2.53996 h -2.53996 z m -10.15985,2.53996 h 2.53996 v 2.53996 h -2.53996 z m 10.15985,0 h 2.53996 v 2.53996 h -2.53996 z m -10.15985,2.53996 h 2.53996 v 2.53996 h -2.53996 z m 10.15985,0 h 2.53996 v 2.53996 h -2.53996 z m -10.15985,2.53996 h 2.53996 v 2.53997 h -2.53996 z m 2.53996,0 h 2.53996 v 2.53997 h -2.53996 z m 2.53996,0 h 2.53996 v 2.53997 h -2.53996 z m 2.53996,0 h 2.53997 v 2.53997 h -2.53997 z m 2.53997,0 h 2.53996 v 2.53997 h -2.53996 z m -10.15985,2.53997 h 2.53996 v 2.53996 h -2.53996 z m 10.15985,0 h 2.53996 v 2.53996 h -2.53996 z m -10.15985,2.53996 h 2.53996 v 2.53996 h -2.53996 z m 10.15985,0 h 2.53996 v 2.53996 h -2.53996 z"
         style="text-align:end;text-anchor:end;stroke-width:0.650231"
         id="path661" />
      <path
         d="m 659.40861,418.23497 h 2.53996 v 2.53996 h -2.53996 z m 2.53996,0 h 2.53996 v 2.53996 h -2.53996 z m 2.53996,0 h 2.53996 v 2.53996 h -2.53996 z m 2.53996,0 h 2.53996 v 2.53996 h -2.53996 z m -7.61988,2.53996 h 2.53996 v 2.53996 h -2.53996 z m 7.61988,0 h 2.53996 v 2.53996 h -2.53996 z m -7.61988,2.53996 h 2.53996 v 2.53996 h -2.53996 z m 7.61988,0 h 2.53996 v 2.53996 h -2.53996 z m -7.61988,2.53996 h 2.53996 v 2.53996 h -2.53996 z m 0,2.53996 h 2.53996 v 2.53997 h -2.53996 z m 7.61988,0 h 2.53996 v 2.53997 h -2.53996 z m -7.61988,2.53997 h 2.53996 v 2.53996 h -2.53996 z m 7.61988,0 h 2.53996 v 2.53996 h -2.53996 z m -7.61988,2.53996 h 2.53996 v 2.53996 h -2.53996 z m 2.53996,0 h 2.53996 v 2.53996 h -2.53996 z m 2.53996,0 h 2.53996 v 2.53996 h -2.53996 z m 2.53996,0 h 2.53996 v 2.53996 h -2.53996 z"
         style="text-align:end;text-anchor:end;stroke-width:0.650231"
         id="path663" />
      <path
         d="m 685.41781,418.23497 h 2.53996 v 2.53996 h -2.53996 z m 2.53996,0 h 2.53996 v 2.53996 h -2.53996 z m 2.53996,0 h 2.53996 v 2.53996 h -2.53996 z m 2.53996,0 h 2.53996 v 2.53996 h -2.53996 z m 2.53996,0 h 2.53996 v 2.53996 h -2.53996 z m -10.15984,2.53996 h 2.53996 v 2.53996 h -2.53996 z m 10.15984,0 h 2.53996 v 2.53996 h -2.53996 z m -10.15984,2.53996 h 2.53996 v 2.53996 h -2.53996 z m 10.15984,0 h 2.53996 v 2.53996 h -2.53996 z m -10.15984,2.53996 h 2.53996 v 2.53996 h -2.53996 z m 10.15984,0 h 2.53996 v 2.53996 h -2.53996 z m -10.15984,2.53996 h 2.53996 v 2.53997 h -2.53996 z m 2.53996,0 h 2.53996 v 2.53997 h -2.53996 z m 2.53996,0 h 2.53996 v 2.53997 h -2.53996 z m 2.53996,0 h 2.53996 v 2.53997 h -2.53996 z m 2.53996,0 h 2.53996 v 2.53997 h -2.53996 z m -10.15984,2.53997 h 2.53996 v 2.53996 h -2.53996 z m 10.15984,0 h 2.53996 v 2.53996 h -2.53996 z m -10.15984,2.53996 h 2.53996 v 2.53996 h -2.53996 z m 10.15984,0 h 2.53996 v 2.53996 h -2.53996 z"
         style="text-align:end;text-anchor:end;stroke-width:0.650231"
         id="path665" />
      <path
         d="m 711.42701,418.23497 h 2.53996 v 2.53996 h -2.53996 z m 2.53996,0 h 2.53996 v 2.53996 h -2.53996 z m 2.53996,0 h 2.53996 v 2.53996 h -2.53996 z m 2.53996,0 h 2.53996 v 2.53996 h -2.53996 z m -7.61988,2.53996 h 2.53996 v 2.53996 h -2.53996 z m 7.61988,0 h 2.53996 v 2.53996 h -2.53996 z m 2.53996,0 h 2.53996 v 2.53996 h -2.53996 z m -10.15984,2.53996 h 2.53996 v 2.53996 h -2.53996 z m 10.15984,0 h 2.53996 v 2.53996 h -2.53996 z m -10.15984,2.53996 h 2.53996 v 2.53996 h -2.53996 z m 10.15984,0 h 2.53996 v 2.53996 h -2.53996 z m -10.15984,2.53996 h 2.53996 v 2.53997 h -2.53996 z m 10.15984,0 h 2.53996 v 2.53997 h -2.53996 z m -10.15984,2.53997 h 2.53996 v 2.53996 h -2.53996 z m 7.61988,0 h 2.53996 v 2.53996 h -2.53996 z m 2.53996,0 h 2.53996 v 2.53996 h -2.53996 z m -10.15984,2.53996 h 2.53996 v 2.53996 h -2.53996 z m 2.53996,0 h 2.53996 v 2.53996 h -2.53996 z m 2.53996,0 h 2.53996 v 2.53996 h -2.53996 z m 2.53996,0 h 2.53996 v 2.53996 h -2.53996 z"
         style="text-align:end;text-anchor:end;stroke-width:0.650231"
         id="path667" />
      <path
         d="m 737.43621,418.23497 h 2.53996 v 2.53996 h -2.53996 z m 2.53996,0 h 2.53996 v 2.53996 h -2.53996 z m 2.53996,0 h 2.53996 v 2.53996 h -2.53996 z m 2.53996,0 h 2.53996 v 2.53996 h -2.53996 z m 2.53996,0 h 2.53996 v 2.53996 h -2.53996 z m -10.15984,2.53996 h 2.53996 v 2.53996 h -2.53996 z m 0,2.53996 h 2.53996 v 2.53996 h -2.53996 z m 0,2.53996 h 2.53996 v 2.53996 h -2.53996 z m 2.53996,0 h 2.53996 v 2.53996 h -2.53996 z m 2.53996,0 h 2.53996 v 2.53996 h -2.53996 z m -5.07992,2.53996 h 2.53996 v 2.53997 h -2.53996 z m 0,2.53997 h 2.53996 v 2.53996 h -2.53996 z m 0,2.53996 h 2.53996 v 2.53996 h -2.53996 z m 2.53996,0 h 2.53996 v 2.53996 h -2.53996 z m 2.53996,0 h 2.53996 v 2.53996 h -2.53996 z m 2.53996,0 h 2.53996 v 2.53996 h -2.53996 z m 2.53996,0 h 2.53996 v 2.53996 h -2.53996 z"
         style="text-align:end;text-anchor:end;stroke-width:0.650231"
         id="path669" />
      <path
         d="m 763.44541,418.23497 h 2.53996 v 2.53996 h -2.53996 z m 2.53996,0 h 2.53996 v 2.53996 h -2.53996 z m 5.07992,0 h 2.53996 v 2.53996 h -2.53996 z m 2.53996,0 h 2.53996 v 2.53996 h -2.53996 z m -10.15984,2.53996 h 2.53996 v 2.53996 h -2.53996 z m 5.07992,0 h 2.53996 v 2.53996 h -2.53996 z m 5.07992,0 h 2.53996 v 2.53996 h -2.53996 z m -10.15984,2.53996 h 2.53996 v 2.53996 h -2.53996 z m 5.07992,0 h 2.53996 v 2.53996 h -2.53996 z m 5.07992,0 h 2.53996 v 2.53996 h -2.53996 z m -10.15984,2.53996 h 2.53996 v 2.53996 h -2.53996 z m 5.07992,0 h 2.53996 v 2.53996 h -2.53996 z m 5.07992,0 h 2.53996 v 2.53996 h -2.53996 z m -10.15984,2.53996 h 2.53996 v 2.53997 h -2.53996 z m 5.07992,0 h 2.53996 v 2.53997 h -2.53996 z m 5.07992,0 h 2.53996 v 2.53997 h -2.53996 z m -10.15984,2.53997 h 2.53996 v 2.53996 h -2.53996 z m 10.15984,0 h 2.53996 v 2.53996 h -2.53996 z m -10.15984,2.53996 h 2.53996 v 2.53996 h -2.53996 z m 10.15984,0 h 2.53996 v 2.53996 h -2.53996 z"
         style="text-align:end;text-anchor:end;stroke-width:0.650231"
         id="path671" />
      <path
         d="m 789.4546,418.23497 h 2.53996 v 2.53996 h -2.53996 z m 10.15984,0 h 2.53996 v 2.53996 h -2.53996 z m -10.15984,2.53996 h 2.53996 v 2.53996 h -2.53996 z m 5.07992,0 h 2.53996 v 2.53996 h -2.53996 z m 5.07992,0 h 2.53996 v 2.53996 h -2.53996 z m -10.15984,2.53996 h 2.53996 v 2.53996 h -2.53996 z m 5.07992,0 h 2.53996 v 2.53996 h -2.53996 z m 5.07992,0 h 2.53996 v 2.53996 h -2.53996 z m -10.15984,2.53996 h 2.53996 v 2.53996 h -2.53996 z m 5.07992,0 h 2.53996 v 2.53996 h -2.53996 z m 5.07992,0 h 2.53996 v 2.53996 h -2.53996 z m -7.61988,2.53996 h 2.53996 v 2.53997 h -2.53996 z m 2.53996,0 h 2.53996 v 2.53997 h -2.53996 z m 2.53996,0 h 2.53996 v 2.53997 h -2.53996 z m -2.53996,2.53997 h 2.53996 v 2.53996 h -2.53996 z m 0,2.53996 h 2.53996 v 2.53996 h -2.53996 z"
         style="text-align:end;text-anchor:end;stroke-width:0.650231"
         id="path673" />
    </g>
  </g>
  <desc
     id="desc294">LASER_PATTERN.dxf - scale = 1.000000, origin = (0.000000, 0.000000), method = manual</desc>
</svg>
