<?xml version="1.0" standalone="no"?>
 <!DOCTYPE svg PUBLIC "-//W3C//DTD SVG 1.1//EN" 
 "http://www.w3.org/Graphics/SVG/1.1/DTD/svg11.dtd"> 
<svg
  xmlns:svg="http://www.w3.org/2000/svg"
  xmlns="http://www.w3.org/2000/svg"
  xmlns:xlink="http://www.w3.org/1999/xlink"
  version="1.1"
  width="5.097780cm" height="2.222500cm" viewBox="0 0 20070 8750">
<title>SVG Picture created as buttons_led-brd.svg date 2021/07/07 03:02:05 </title>
  <desc>Picture generated by PCBNEW </desc>
<g style="fill:#000000; fill-opacity:1;stroke:#000000; stroke-opacity:1;
stroke-linecap:round; stroke-linejoin:round;"
 transform="translate(0 0) scale(1 1)">
</g>
<g style="fill:#000000; fill-opacity:0.0; 
stroke:#000000; stroke-width:-0.000393701; stroke-opacity:1; 
stroke-linecap:round; stroke-linejoin:round;">
<g >
</g>
<g style="fill:#000000; fill-opacity:0.0; 
stroke:#000000; stroke-width:0; stroke-opacity:1; 
stroke-linecap:round; stroke-linejoin:round;">
</g>
<g style="fill:#000000; fill-opacity:1.0; 
stroke:#000000; stroke-width:0; stroke-opacity:1; 
stroke-linecap:round; stroke-linejoin:round;">
<path style="fill:#000000; fill-opacity:1.0; 
stroke:#000000; stroke-width:0; stroke-opacity:1; 
stroke-linecap:round; stroke-linejoin:round;fill-rule:evenodd;"
d="M 3110.24,1849.41
3110.24,2518.7
2322.84,2518.7
2322.84,1849.41
Z" /> 
<path style="fill:#000000; fill-opacity:1.0; 
stroke:#000000; stroke-width:0; stroke-opacity:1; 
stroke-linecap:round; stroke-linejoin:round;fill-rule:evenodd;"
d="M 4685.04,1849.41
4685.04,2518.7
3897.64,2518.7
3897.64,1849.41
Z" /> 
</g>
<g >
</g>
<g style="fill:#000000; fill-opacity:1.0; 
stroke:#000000; stroke-width:0; stroke-opacity:1; 
stroke-linecap:round; stroke-linejoin:round;">
<path style="fill:#000000; fill-opacity:1.0; 
stroke:#000000; stroke-width:0; stroke-opacity:1; 
stroke-linecap:round; stroke-linejoin:round;fill-rule:evenodd;"
d="M 10511.8,1928.15
10511.8,2597.44
9724.41,2597.44
9724.41,1928.15
Z" /> 
<path style="fill:#000000; fill-opacity:1.0; 
stroke:#000000; stroke-width:0; stroke-opacity:1; 
stroke-linecap:round; stroke-linejoin:round;fill-rule:evenodd;"
d="M 8937.01,1928.15
8937.01,2597.44
8149.61,2597.44
8149.61,1928.15
Z" /> 
</g>
<g >
</g>
<g style="fill:#000000; fill-opacity:1.0; 
stroke:#000000; stroke-width:0; stroke-opacity:1; 
stroke-linecap:round; stroke-linejoin:round;">
<path style="fill:#000000; fill-opacity:1.0; 
stroke:#000000; stroke-width:0; stroke-opacity:1; 
stroke-linecap:round; stroke-linejoin:round;fill-rule:evenodd;"
d="M 15787.4,2006.89
15787.4,2676.18
15000,2676.18
15000,2006.89
Z" /> 
<path style="fill:#000000; fill-opacity:1.0; 
stroke:#000000; stroke-width:0; stroke-opacity:1; 
stroke-linecap:round; stroke-linejoin:round;fill-rule:evenodd;"
d="M 17362.2,2006.89
17362.2,2676.18
16574.8,2676.18
16574.8,2006.89
Z" /> 
</g>
<g >
</g>
<g style="fill:#000000; fill-opacity:1.0; 
stroke:#000000; stroke-width:0; stroke-opacity:1; 
stroke-linecap:round; stroke-linejoin:round;">
<path style="fill:#000000; fill-opacity:1.0; 
stroke:#000000; stroke-width:0; stroke-opacity:1; 
stroke-linecap:round; stroke-linejoin:round;fill-rule:evenodd;"
d="M 3188.98,6810.04
3188.98,7479.33
2401.58,7479.33
2401.58,6810.04
Z" /> 
<path style="fill:#000000; fill-opacity:1.0; 
stroke:#000000; stroke-width:0; stroke-opacity:1; 
stroke-linecap:round; stroke-linejoin:round;fill-rule:evenodd;"
d="M 4763.78,6810.04
4763.78,7479.33
3976.38,7479.33
3976.38,6810.04
Z" /> 
</g>
<g >
</g>
<g style="fill:#000000; fill-opacity:1.0; 
stroke:#000000; stroke-width:0; stroke-opacity:1; 
stroke-linecap:round; stroke-linejoin:round;">
<path style="fill:#000000; fill-opacity:1.0; 
stroke:#000000; stroke-width:0; stroke-opacity:1; 
stroke-linecap:round; stroke-linejoin:round;fill-rule:evenodd;"
d="M 1043.31,3443.9
1712.6,3443.9
1712.6,4231.3
1043.31,4231.3
Z" /> 
<path style="fill:#000000; fill-opacity:1.0; 
stroke:#000000; stroke-width:0; stroke-opacity:1; 
stroke-linecap:round; stroke-linejoin:round;fill-rule:evenodd;"
d="M 1043.31,5018.7
1712.6,5018.7
1712.6,5806.1
1043.31,5806.1
Z" /> 
</g>
<g >
</g>
<g style="fill:#000000; fill-opacity:1.0; 
stroke:#000000; stroke-width:0; stroke-opacity:1; 
stroke-linecap:round; stroke-linejoin:round;">
<path style="fill:#000000; fill-opacity:1.0; 
stroke:#000000; stroke-width:0; stroke-opacity:1; 
stroke-linecap:round; stroke-linejoin:round;fill-rule:evenodd;"
d="M 9409.45,7243.11
9409.45,6573.82
10196.9,6573.82
10196.9,7243.11
Z" /> 
<path style="fill:#000000; fill-opacity:1.0; 
stroke:#000000; stroke-width:0; stroke-opacity:1; 
stroke-linecap:round; stroke-linejoin:round;fill-rule:evenodd;"
d="M 10984.3,7243.11
10984.3,6573.82
11771.7,6573.82
11771.7,7243.11
Z" /> 
</g>
<g >
</g>
<g style="fill:#000000; fill-opacity:1.0; 
stroke:#000000; stroke-width:0; stroke-opacity:1; 
stroke-linecap:round; stroke-linejoin:round;">
<path style="fill:#000000; fill-opacity:1.0; 
stroke:#000000; stroke-width:0; stroke-opacity:1; 
stroke-linecap:round; stroke-linejoin:round;fill-rule:evenodd;"
d="M 6948.82,5018.7
7618.11,5018.7
7618.11,5806.1
6948.82,5806.1
Z" /> 
<path style="fill:#000000; fill-opacity:1.0; 
stroke:#000000; stroke-width:0; stroke-opacity:1; 
stroke-linecap:round; stroke-linejoin:round;fill-rule:evenodd;"
d="M 6948.82,3443.9
7618.11,3443.9
7618.11,4231.3
6948.82,4231.3
Z" /> 
</g>
<g >
</g>
<g style="fill:#000000; fill-opacity:1.0; 
stroke:#000000; stroke-width:0; stroke-opacity:1; 
stroke-linecap:round; stroke-linejoin:round;">
<path style="fill:#000000; fill-opacity:1.0; 
stroke:#000000; stroke-width:0; stroke-opacity:1; 
stroke-linecap:round; stroke-linejoin:round;fill-rule:evenodd;"
d="M 15787.4,7479.33
15787.4,6810.04
16574.8,6810.04
16574.8,7479.33
Z" /> 
<path style="fill:#000000; fill-opacity:1.0; 
stroke:#000000; stroke-width:0; stroke-opacity:1; 
stroke-linecap:round; stroke-linejoin:round;fill-rule:evenodd;"
d="M 14212.6,7479.33
14212.6,6810.04
15000,6810.04
15000,7479.33
Z" /> 
</g>
<g >
</g>
<g style="fill:#000000; fill-opacity:1.0; 
stroke:#000000; stroke-width:0; stroke-opacity:1; 
stroke-linecap:round; stroke-linejoin:round;">
<path style="fill:#000000; fill-opacity:1.0; 
stroke:#000000; stroke-width:0; stroke-opacity:1; 
stroke-linecap:round; stroke-linejoin:round;fill-rule:evenodd;"
d="M 12854.3,3522.64
13523.6,3522.64
13523.6,4310.04
12854.3,4310.04
Z" /> 
<path style="fill:#000000; fill-opacity:1.0; 
stroke:#000000; stroke-width:0; stroke-opacity:1; 
stroke-linecap:round; stroke-linejoin:round;fill-rule:evenodd;"
d="M 12854.3,5097.44
13523.6,5097.44
13523.6,5884.84
12854.3,5884.84
Z" /> 
</g>
<g >
</g>
<g style="fill:#000000; fill-opacity:1.0; 
stroke:#000000; stroke-width:0; stroke-opacity:1; 
stroke-linecap:round; stroke-linejoin:round;">
<path style="fill:#000000; fill-opacity:1.0; 
stroke:#000000; stroke-width:0; stroke-opacity:1; 
stroke-linecap:round; stroke-linejoin:round;fill-rule:evenodd;"
d="M 18523.6,5097.44
19192.9,5097.44
19192.9,5884.84
18523.6,5884.84
Z" /> 
<path style="fill:#000000; fill-opacity:1.0; 
stroke:#000000; stroke-width:0; stroke-opacity:1; 
stroke-linecap:round; stroke-linejoin:round;fill-rule:evenodd;"
d="M 18523.6,3522.64
19192.9,3522.64
19192.9,4310.04
18523.6,4310.04
Z" /> 
</g>
<g >
</g>
<g style="fill:#000000; fill-opacity:1.0; 
stroke:#000000; stroke-width:0; stroke-opacity:1; 
stroke-linecap:round; stroke-linejoin:round;">
<path style="fill:#000000; fill-opacity:1.0; 
stroke:#000000; stroke-width:0; stroke-opacity:1; 
stroke-linecap:round; stroke-linejoin:round;fill-rule:evenodd;"
d="M 5019.69,5707.68
5019.69,5117.13
6003.94,5117.13
6003.94,5707.68
Z" /> 
<path style="fill:#000000; fill-opacity:1.0; 
stroke:#000000; stroke-width:0; stroke-opacity:1; 
stroke-linecap:round; stroke-linejoin:round;fill-rule:evenodd;"
d="M 2263.78,5707.68
2263.78,5117.13
3248.03,5117.13
3248.03,5707.68
Z" /> 
<path style="fill:#000000; fill-opacity:1.0; 
stroke:#000000; stroke-width:0; stroke-opacity:1; 
stroke-linecap:round; stroke-linejoin:round;fill-rule:evenodd;"
d="M 5019.69,4132.87
5019.69,3542.32
6003.94,3542.32
6003.94,4132.87
Z" /> 
<path style="fill:#000000; fill-opacity:1.0; 
stroke:#000000; stroke-width:0; stroke-opacity:1; 
stroke-linecap:round; stroke-linejoin:round;fill-rule:evenodd;"
d="M 2263.78,4132.87
2263.78,3542.32
3248.03,3542.32
3248.03,4132.87
Z" /> 
</g>
<g >
</g>
<g style="fill:#000000; fill-opacity:1.0; 
stroke:#000000; stroke-width:0; stroke-opacity:1; 
stroke-linecap:round; stroke-linejoin:round;">
<path style="fill:#000000; fill-opacity:1.0; 
stroke:#000000; stroke-width:0; stroke-opacity:1; 
stroke-linecap:round; stroke-linejoin:round;fill-rule:evenodd;"
d="M 8169.29,4211.61
8169.29,3621.06
9153.54,3621.06
9153.54,4211.61
Z" /> 
<path style="fill:#000000; fill-opacity:1.0; 
stroke:#000000; stroke-width:0; stroke-opacity:1; 
stroke-linecap:round; stroke-linejoin:round;fill-rule:evenodd;"
d="M 10925.2,4211.61
10925.2,3621.06
11909.4,3621.06
11909.4,4211.61
Z" /> 
<path style="fill:#000000; fill-opacity:1.0; 
stroke:#000000; stroke-width:0; stroke-opacity:1; 
stroke-linecap:round; stroke-linejoin:round;fill-rule:evenodd;"
d="M 8169.29,5786.42
8169.29,5195.87
9153.54,5195.87
9153.54,5786.42
Z" /> 
<path style="fill:#000000; fill-opacity:1.0; 
stroke:#000000; stroke-width:0; stroke-opacity:1; 
stroke-linecap:round; stroke-linejoin:round;fill-rule:evenodd;"
d="M 10925.2,5786.42
10925.2,5195.87
11909.4,5195.87
11909.4,5786.42
Z" /> 
</g>
<g >
</g>
<g style="fill:#000000; fill-opacity:1.0; 
stroke:#000000; stroke-width:0; stroke-opacity:1; 
stroke-linecap:round; stroke-linejoin:round;">
<path style="fill:#000000; fill-opacity:1.0; 
stroke:#000000; stroke-width:0; stroke-opacity:1; 
stroke-linecap:round; stroke-linejoin:round;fill-rule:evenodd;"
d="M 16830.7,5707.68
16830.7,5117.13
17815,5117.13
17815,5707.68
Z" /> 
<path style="fill:#000000; fill-opacity:1.0; 
stroke:#000000; stroke-width:0; stroke-opacity:1; 
stroke-linecap:round; stroke-linejoin:round;fill-rule:evenodd;"
d="M 14074.8,5707.68
14074.8,5117.13
15059.1,5117.13
15059.1,5707.68
Z" /> 
<path style="fill:#000000; fill-opacity:1.0; 
stroke:#000000; stroke-width:0; stroke-opacity:1; 
stroke-linecap:round; stroke-linejoin:round;fill-rule:evenodd;"
d="M 16830.7,4132.87
16830.7,3542.32
17815,3542.32
17815,4132.87
Z" /> 
<path style="fill:#000000; fill-opacity:1.0; 
stroke:#000000; stroke-width:0; stroke-opacity:1; 
stroke-linecap:round; stroke-linejoin:round;fill-rule:evenodd;"
d="M 14074.8,4132.87
14074.8,3542.32
15059.1,3542.32
15059.1,4132.87
Z" /> 
</g>
<g >
</g>
<g style="fill:#000000; fill-opacity:1.0; 
stroke:#000000; stroke-width:0; stroke-opacity:1; 
stroke-linecap:round; stroke-linejoin:round;">
<circle cx="13850.4" cy="2105.31" r="397.638" /> 
</g>
<g style="fill:#000000; fill-opacity:1.0; 
stroke:#000000; stroke-width:39.3701; stroke-opacity:1; 
stroke-linecap:round; stroke-linejoin:round;">
</g>
<g style="fill:#000000; fill-opacity:1.0; 
stroke:#000000; stroke-width:0; stroke-opacity:1; 
stroke-linecap:round; stroke-linejoin:round;">
<circle cx="12850.4" cy="2105.31" r="397.638" /> 
</g>
<g style="fill:#000000; fill-opacity:1.0; 
stroke:#000000; stroke-width:39.3701; stroke-opacity:1; 
stroke-linecap:round; stroke-linejoin:round;">
</g>
<g style="fill:#000000; fill-opacity:1.0; 
stroke:#000000; stroke-width:0; stroke-opacity:1; 
stroke-linecap:round; stroke-linejoin:round;">
<circle cx="11850.4" cy="2105.31" r="397.638" /> 
</g>
<g style="fill:#000000; fill-opacity:1.0; 
stroke:#000000; stroke-width:39.3701; stroke-opacity:1; 
stroke-linecap:round; stroke-linejoin:round;">
</g>
<g >
</g>
<g >
</g>
<g style="fill:#000000; fill-opacity:1.0; 
stroke:#000000; stroke-width:39.3701; stroke-opacity:1; 
stroke-linecap:round; stroke-linejoin:round;">
</g>
<g style="fill:#000000; fill-opacity:1.0; 
stroke:#000000; stroke-width:157.48; stroke-opacity:1; 
stroke-linecap:round; stroke-linejoin:round;">
</g>
<g style="fill:#000000; fill-opacity:0.0; 
stroke:#000000; stroke-width:157.48; stroke-opacity:1; 
stroke-linecap:round; stroke-linejoin:round;">
<path d="M1377 3522
L2716 2184
" />
<path d="M1377 3837
L1377 3522
" />
<path d="M8307 2262
L8543 2262
" />
<path d="M7283 3286
L8307 2262
" />
<path d="M7283 3837
L7283 3286
" />
<path d="M13188 3916
L14763 2341
" />
<path d="M14763 2341
L15393 2341
" />
<path d="M2755 5412
L5511 5412
" />
<path d="M2795 5451
L2755 5412
" />
<path d="M2795 7144
L2795 5451
" />
<path d="M8661 5491
L11417 5491
" />
<path d="M11377 5530
L11417 5491
" />
<path d="M11377 6908
L11377 5530
" />
<path d="M14566 5412
L17322 5412
" />
<path d="M17204 5530
L17322 5412
" />
<path d="M16181 6554
L17322 5412
" />
<path d="M16181 7144
L16181 6554
" />
<path d="M2755 3837
L5511 3837
" />
<path d="M2755 4034
L1377 5412
" />
<path d="M2755 3837
L2755 4034
" />
<path d="M8661 3916
L11417 3916
" />
<path d="M7283 5294
L8661 3916
" />
<path d="M7283 5412
L7283 5294
" />
<path d="M14566 3837
L17322 3837
" />
<path d="M13188 5215
L14566 3837
" />
<path d="M13188 5491
L13188 5215
" />
<path d="M9547 1691
L10118 2262
" />
<path d="M4783 1691
L9547 1691
" />
<path d="M4291 2184
L4783 1691
" />
<path d="M12854 2109
L12850 2105
" />
<path d="M10118 2262
L10118 2105
" />
<path d="M12799 2054
L12850 2105
" />
<path d="M12799 1471
L12799 2054
" />
<path d="M12799 1471
L16570 1471
" />
<path d="M18858 3916
L18858 3758
" />
<path d="M18543 3916
L16968 2341
" />
<path d="M18858 3916
L18543 3916
" />
<path d="M16968 1869
L16570 1471
" />
<path d="M16968 2341
L16968 1869
" />
<path d="M10543 2971
L12165 2971
" />
<path d="M10118 2546
L10543 2971
" />
<path d="M10118 2262
L10118 2546
" />
<path d="M12165 2790
L12850 2105
" />
<path d="M12165 2971
L12165 2790
" />
<path d="M9566 7144
L9803 6908
" />
<path d="M4370 7144
L9566 7144
" />
<path d="M10374 7479
L9803 6908
" />
<path d="M14271 7479
L14606 7144
" />
<path d="M10374 7479
L14271 7479
" />
<path d="M12618 6073
L12618 3337
" />
<path d="M13688 7144
L12618 6073
" />
<path d="M12618 3337
L13850 2105
" />
<path d="M14606 7144
L13688 7144
" />
<path d="M19429 3333
L19429 4920
" />
<path d="M18821 3286
L19381 3286
" />
<path d="M19429 4920
L18858 5491
" />
<path d="M17791 2256
L18821 3286
" />
<path d="M17791 1982
L17791 2256
" />
<path d="M16929 1121
L17791 1982
" />
<path d="M19381 3286
L19429 3333
" />
<path d="M12272 1121
L16929 1121
" />
<path d="M11850 1542
L12272 1121
" />
<path d="M11850 2105
L11850 1542
" />
</g>
<g >
</g>
</g>
<g style="fill:#FFFFFF; fill-opacity:0.0; 
stroke:#FFFFFF; stroke-width:157.48; stroke-opacity:1; 
stroke-linecap:round; stroke-linejoin:round;">
</g>
<g style="fill:#FFFFFF; fill-opacity:1.0; 
stroke:#FFFFFF; stroke-width:0; stroke-opacity:1; 
stroke-linecap:round; stroke-linejoin:round;">
<circle cx="13850.4" cy="2105.31" r="200.787" /> 
</g>
<g style="fill:#FFFFFF; fill-opacity:1.0; 
stroke:#FFFFFF; stroke-width:39.3701; stroke-opacity:1; 
stroke-linecap:round; stroke-linejoin:round;">
</g>
<g style="fill:#FFFFFF; fill-opacity:1.0; 
stroke:#FFFFFF; stroke-width:0; stroke-opacity:1; 
stroke-linecap:round; stroke-linejoin:round;">
<circle cx="12850.4" cy="2105.31" r="200.787" /> 
</g>
<g style="fill:#FFFFFF; fill-opacity:1.0; 
stroke:#FFFFFF; stroke-width:39.3701; stroke-opacity:1; 
stroke-linecap:round; stroke-linejoin:round;">
</g>
<g style="fill:#FFFFFF; fill-opacity:1.0; 
stroke:#FFFFFF; stroke-width:0; stroke-opacity:1; 
stroke-linecap:round; stroke-linejoin:round;">
<circle cx="11850.4" cy="2105.31" r="200.787" /> 
</g>
<g style="fill:#FFFFFF; fill-opacity:1.0; 
stroke:#FFFFFF; stroke-width:39.3701; stroke-opacity:1; 
stroke-linecap:round; stroke-linejoin:round;">
</g>
<g style="fill:#000000; fill-opacity:1.0; 
stroke:#000000; stroke-width:39.3701; stroke-opacity:1; 
stroke-linecap:round; stroke-linejoin:round;">
</g>
<g style="fill:#000000; fill-opacity:0.0; 
stroke:#000000; stroke-width:393.701; stroke-opacity:1; 
stroke-linecap:round; stroke-linejoin:round;">
<path d="M19881.9 1475.39 A787.402 787.402 0.0 0 0 19094.5 687.992" />
</g>
<g style="fill:#000000; fill-opacity:0.0; 
stroke:#000000; stroke-width:157.48; stroke-opacity:1; 
stroke-linecap:round; stroke-linejoin:round;">
<circle cx="1377.95" cy="7380.91" r="590.551" /> 
<circle cx="18700.8" cy="1869.09" r="590.551" /> 
</g>
<g style="fill:#000000; fill-opacity:0.0; 
stroke:#000000; stroke-width:393.701; stroke-opacity:1; 
stroke-linecap:round; stroke-linejoin:round;">
<path d="M19094 687
L4133 687
" />
<path d="M15944.9 8562.01 A3937.01 3937.01 0.0 0 0 19881.9 4625" />
<path d="M196.851 7774.61 A787.402 787.402 0.0 0 0 984.253 8562.01" />
<path d="M984 8562
L15944 8562
" />
<path d="M19881 4625
L19881 1475
" />
<path d="M4133.86 687.992 A3937.01 3937.01 0.0 0 0 196.851 4625" />
<path d="M196 4625
L196 7774
" />
<g >
</g>
<g >
</g>
<g >
</g>
<g >
</g>
<g >
</g>
<g >
</g>
<g >
</g>
<g >
</g>
<g >
</g>
<g >
</g>
<g >
</g>
<g >
</g>
<g >
</g>
<g >
</g>
<g >
</g>
</g> 
</svg>
