<?xml version="1.0" encoding="UTF-8" standalone="no"?>
<svg
   xmlns:dc="http://purl.org/dc/elements/1.1/"
   xmlns:cc="http://creativecommons.org/ns#"
   xmlns:rdf="http://www.w3.org/1999/02/22-rdf-syntax-ns#"
   xmlns:svg="http://www.w3.org/2000/svg"
   xmlns="http://www.w3.org/2000/svg"
   xmlns:sodipodi="http://sodipodi.sourceforge.net/DTD/sodipodi-0.dtd"
   xmlns:inkscape="http://www.inkscape.org/namespaces/inkscape"
   version="1.1"
   width="7.4650602cm"
   height="4.5999999cm"
   viewBox="0 0 29390 18110.235"
   id="svg2573"
   sodipodi:docname="board_txt.svg"
   inkscape:version="1.0.2 (e86c870879, 2021-01-15)">
  <metadata
     id="metadata2579">
    <rdf:RDF>
      <cc:Work
         rdf:about="">
        <dc:format>image/svg+xml</dc:format>
        <dc:type
           rdf:resource="http://purl.org/dc/dcmitype/StillImage" />
        <dc:title>SVG Picture created as noname-brd.svg date 2021/06/27 21:17:24 </dc:title>
      </cc:Work>
    </rdf:RDF>
  </metadata>
  <defs
     id="defs2577" />
  <sodipodi:namedview
     pagecolor="#ffffff"
     bordercolor="#666666"
     borderopacity="1"
     objecttolerance="10"
     gridtolerance="10"
     guidetolerance="10"
     inkscape:pageopacity="0"
     inkscape:pageshadow="2"
     inkscape:window-width="1920"
     inkscape:window-height="1000"
     id="namedview2575"
     showgrid="false"
     inkscape:zoom="2.8284271"
     inkscape:cx="137.63436"
     inkscape:cy="115.78526"
     inkscape:window-x="0"
     inkscape:window-y="0"
     inkscape:window-maximized="1"
     inkscape:current-layer="svg2573"
     showguides="false" />
  <title
     id="title833">SVG Picture created as noname-brd.svg date 2021/06/27 21:17:24 </title>
  <desc
     id="desc835">Picture generated by PCBNEW </desc>
  <text
     x="11834"
     y="14913.9"
     textLength="3306.71"
     font-size="1049.87px"
     lengthAdjust="spacingAndGlyphs"
     text-anchor="middle"
     opacity="0"
     id="text841"
     style="fill:#000000;fill-opacity:0;stroke:#000000;stroke-width:157.48;stroke-linecap:round;stroke-linejoin:round;stroke-opacity:1"
     transform="translate(-1130.1318,941.7765)">2021</text>
  <path
     d="m 9353.8682,15104.777 37,-37 75,-38 h 188 l 75,38 37,37 38,75 v 75 l -38,113 -450,450 h 488"
     id="path843"
     style="fill:#000000;fill-opacity:0;stroke:#000000;stroke-width:157.48;stroke-linecap:round;stroke-linejoin:round;stroke-opacity:1" />
  <path
     d="m 10290.868,15029.777 h 75 l 75,38 38,37 37,75 38,150 v 188 l -38,150 -37,75 -38,37 -75,38 h -75 l -75,-38 -37,-37 -38,-75 -37,-150 v -188 l 37,-150 38,-75 37,-37 75,-38"
     id="path845"
     style="fill:#000000;fill-opacity:0;stroke:#000000;stroke-width:157.48;stroke-linecap:round;stroke-linejoin:round;stroke-opacity:1" />
  <path
     d="m 10852.868,15104.777 38,-37 75,-38 h 187 l 75,38 38,37 37,75 v 75 l -37,113 -450,450 h 487"
     id="path847"
     style="fill:#000000;fill-opacity:0;stroke:#000000;stroke-width:157.48;stroke-linecap:round;stroke-linejoin:round;stroke-opacity:1" />
  <path
     d="m 12052.868,15817.777 h -450"
     id="path849"
     style="fill:#000000;fill-opacity:0;stroke:#000000;stroke-width:157.48;stroke-linecap:round;stroke-linejoin:round;stroke-opacity:1" />
  <path
     d="m 11827.868,15817.777 v -788 l -75,113 -75,75 -75,37"
     id="path851"
     style="fill:#000000;fill-opacity:0;stroke:#000000;stroke-width:157.48;stroke-linecap:round;stroke-linejoin:round;stroke-opacity:1" />
  <text
     x="7975.7202"
     y="12197.3"
     textLength="2941.8799"
     font-size="1049.87px"
     lengthAdjust="spacingAndGlyphs"
     text-anchor="start"
     opacity="0"
     id="text853"
     style="fill:#000000;fill-opacity:0;stroke:#000000;stroke-width:157.48;stroke-linecap:round;stroke-linejoin:round;stroke-opacity:1"
     transform="translate(-1130.1318,941.7765)">FAB</text>
  <path
     d="m 7397.8682,12688.777 h -263"
     id="path855"
     style="fill:#000000;fill-opacity:0;stroke:#000000;stroke-width:157.48;stroke-linecap:round;stroke-linejoin:round;stroke-opacity:1" />
  <path
     d="m 7134.8682,13100.777 v -787 h 375"
     id="path857"
     style="fill:#000000;fill-opacity:0;stroke:#000000;stroke-width:157.48;stroke-linecap:round;stroke-linejoin:round;stroke-opacity:1" />
  <path
     d="m 7771.8682,12875.777 h 375"
     id="path859"
     style="fill:#000000;fill-opacity:0;stroke:#000000;stroke-width:157.48;stroke-linecap:round;stroke-linejoin:round;stroke-opacity:1" />
  <path
     d="m 7696.8682,13100.777 263,-787 262,787"
     id="path861"
     style="fill:#000000;fill-opacity:0;stroke:#000000;stroke-width:157.48;stroke-linecap:round;stroke-linejoin:round;stroke-opacity:1" />
  <path
     d="m 8746.8682,12688.777 113,37 37,38 38,75 v 112 l -38,75 -37,38 -75,37 h -300 v -787 h 262 l 75,37 38,38 37,75 v 75 l -37,75 -38,37 -75,38 h -262"
     id="path863"
     style="fill:#000000;fill-opacity:0;stroke:#000000;stroke-width:157.48;stroke-linecap:round;stroke-linejoin:round;stroke-opacity:1" />
  <path
     d="m 7097.8682,14214.777 h 375"
     id="path867"
     style="fill:#000000;fill-opacity:0;stroke:#000000;stroke-width:157.48;stroke-linecap:round;stroke-linejoin:round;stroke-opacity:1" />
  <path
     d="m 7022.8682,14439.777 262,-787 263,787"
     id="path869"
     style="fill:#000000;fill-opacity:0;stroke:#000000;stroke-width:157.48;stroke-linecap:round;stroke-linejoin:round;stroke-opacity:1" />
  <path
     d="m 8259.8682,14364.777 -38,37 -112,38 h -75 l -113,-38 -75,-75 -37,-75 -38,-150 v -112 l 38,-150 37,-75 75,-75 113,-37 h 75 l 112,37 38,38"
     id="path871"
     style="fill:#000000;fill-opacity:0;stroke:#000000;stroke-width:157.48;stroke-linecap:round;stroke-linejoin:round;stroke-opacity:1" />
  <path
     d="m 8559.8682,14214.777 h 375"
     id="path873"
     style="fill:#000000;fill-opacity:0;stroke:#000000;stroke-width:157.48;stroke-linecap:round;stroke-linejoin:round;stroke-opacity:1" />
  <path
     d="m 8484.8682,14439.777 262,-787 263,787"
     id="path875"
     style="fill:#000000;fill-opacity:0;stroke:#000000;stroke-width:157.48;stroke-linecap:round;stroke-linejoin:round;stroke-opacity:1" />
  <path
     d="m 9271.8682,14439.777 v -787 h 188 l 112,37 75,75 38,75 37,150 v 112 l -37,150 -38,75 -75,75 -112,38 h -188"
     id="path877"
     style="fill:#000000;fill-opacity:0;stroke:#000000;stroke-width:157.48;stroke-linecap:round;stroke-linejoin:round;stroke-opacity:1" />
  <path
     d="m 10059.868,14026.777 h 262"
     id="path879"
     style="fill:#000000;fill-opacity:0;stroke:#000000;stroke-width:157.48;stroke-linecap:round;stroke-linejoin:round;stroke-opacity:1" />
  <path
     d="m 10434.868,14439.777 h -375 v -787 h 375"
     id="path881"
     style="fill:#000000;fill-opacity:0;stroke:#000000;stroke-width:157.48;stroke-linecap:round;stroke-linejoin:round;stroke-opacity:1" />
  <path
     d="m 10771.868,14439.777 v -787 l 263,562 262,-562 v 787"
     id="path883"
     style="fill:#000000;fill-opacity:0;stroke:#000000;stroke-width:157.48;stroke-linecap:round;stroke-linejoin:round;stroke-opacity:1" />
  <path
     d="m 11821.868,14064.777 v 375"
     id="path885"
     style="fill:#000000;fill-opacity:0;stroke:#000000;stroke-width:157.48;stroke-linecap:round;stroke-linejoin:round;stroke-opacity:1" />
  <path
     d="m 11559.868,13652.777 262,412 262,-412"
     id="path887"
     style="fill:#000000;fill-opacity:0;stroke:#000000;stroke-width:157.48;stroke-linecap:round;stroke-linejoin:round;stroke-opacity:1" />
  <path
     d="m 7159.8682,11467.777 v -1181 l 394,844 394,-844 v 1181"
     id="path893"
     style="fill:#000000;fill-opacity:0;stroke:#000000;stroke-width:236.22;stroke-linecap:round;stroke-linejoin:round;stroke-opacity:1" />
  <path
     d="m 8509.8682,11467.777 v -1181"
     id="path895"
     style="fill:#000000;fill-opacity:0;stroke:#000000;stroke-width:236.22;stroke-linecap:round;stroke-linejoin:round;stroke-opacity:1" />
  <path
     d="m 9634.8682,11467.777 h -563 v -1181"
     id="path897"
     style="fill:#000000;fill-opacity:0;stroke:#000000;stroke-width:236.22;stroke-linecap:round;stroke-linejoin:round;stroke-opacity:1" />
  <path
     d="m 10815.868,11580.777 -113,-56 -112,-113 -169,-169 -112,-56 h -113"
     id="path899"
     style="fill:#000000;fill-opacity:0;stroke:#000000;stroke-width:236.22;stroke-linecap:round;stroke-linejoin:round;stroke-opacity:1" />
  <path
     d="m 10253.868,11467.777 -113,-56 -112,-112 -56.9998,-225 v -394 l 56.9998,-225 112,-112 113,-57 h 225 l 112,57 112,112 57,225 v 394 l -57,225 -112,112 -112,56 h -225"
     id="path901"
     style="fill:#000000;fill-opacity:0;stroke:#000000;stroke-width:236.22;stroke-linecap:round;stroke-linejoin:round;stroke-opacity:1" />
  <path
     style="fill:#000000;fill-opacity:1;fill-rule:evenodd;stroke:#000000;stroke-width:3.93701;stroke-linecap:round;stroke-linejoin:round;stroke-opacity:1"
     d="m 22634.268,2258.5965 134.2,22.7 46.2,11.42 46.9,12.42 -0.3,390.14 -0.2,109.86 -0.4,87.84 -0.9,68.8 -1.5,52.74 -2.3,39.66 -3.2,29.56 -4.4,22.45 -5.7,18.3 -7.2,17.15 v 0.04 l -32.3,58.52 -40,43.78 -55.3,37.04 -15.1,8.07 -58.3,20.95 -74,13.05 -81.5,4.77 -81,-3.9 -72.2,-12.93 -14.2,-4.22 -68.8,-22.19 -3.7,-91.83 -2,-43.84 1,-26.82 8.3,-11.84 20,1.09 36.1,11.99 46.6,17.31 80.1,21.11 72.7,3.2 62.3,-13.75 48.9,-29.73 32.7,-44.74 11.5,-38.5 7.1,-44 -105.2,6.56 -95.4,0.44 -78.2,-12.84 -66,-27.64 -58.6,-43.93 -11.5,-11.02 -54,-70.78 -34.8,-82.03 -15.8,-88.42 1.7,-44.67 h 205.4 l 2.9,71.88 19.2,55.34 37.5,42.72 38.4,24.56 43.9,18.74 42.2,5.87 34.5,-1.79 39.6,-4.97 29.5,-5.89 9,-3.27 5.2,-15.55 4,-37.76 2.6,-57.18 1.1,-73.84 v -10.12 -186.53 l -32,-8.01 -45.4,-4.44 -55.9,3.78 -53.8,10.59 -30.7,11.11 -46,32.74 -29.3,46.75 -14.8,64.17 -1.7,21.1 h -205.4 l 1.6,-45.3 22.5,-86.69 41.6,-78.55 37,-44.12 73.7,-56.32 88.6,-36.54 103.8,-16.79 z"
     id="path2139" />
  <path
     style="fill:#000000;fill-opacity:1;fill-rule:evenodd;stroke:#000000;stroke-width:3.93701;stroke-linecap:round;stroke-linejoin:round;stroke-opacity:1"
     d="m 26930.268,3122.9265 -65.6,3.78 -65.6,3.77 v -1263.802 h 68.8 68.9 z"
     id="path2141" />
  <path
     style="fill:#000000;fill-opacity:1;fill-rule:evenodd;stroke:#000000;stroke-width:3.93701;stroke-linecap:round;stroke-linejoin:round;stroke-opacity:1"
     d="m 25117.868,2254.0665 68.3,15.63 53.1,28.55 41.6,43.15 15.4,23.71 34,57.82 v 573.93 l -43.7,9.76 -56.8,9.04 -69.9,5.76 -75.4,2.4 -73.4,-1.01 -64,-4.5 -46.9,-8.04 -1,-0.27 -62.1,-21 -43.6,-24.35 -31.6,-31.86 -12.3,-18.27 -27.3,-66.54 -4.4,-62.81 h 198.6 l 2.5,25.36 21,35.42 41.3,22.07 60.1,8.14 20.2,-0.31 68.7,-2.92 3.7,-90.63 3.7,-90.62 h -57.2 l -65.4,6.88 -51,19.27 -33.8,29.56 -13.8,37.78 h -198.6 l -0.4,-6.12 16.8,-66.01 38.1,-57.81 9.5,-9.64 34.4,-27.38 39.4,-19.73 49.9,-13.73 65.7,-9.41 55.9,-4.72 109.4,-7.64 v -34.96 l -8.2,-33.85 -19.6,-33.42 -0.8,-0.85 -40.5,-28.27 -57.5,-11.73 -72.7,4.8 -86.2,21.3 -45.9,16.21 -10.4,0.88 -5.5,-10.54 -1.5,-26.62 1.3,-41.71 3.7,-85.6 62.5,-24.11 53.9,-15.25 66.6,-7.91 54.5,-1.69 z"
     id="path2143" />
  <path
     style="fill:#000000;fill-opacity:1;fill-rule:evenodd;stroke:#000000;stroke-width:3.93701;stroke-linecap:round;stroke-linejoin:round;stroke-opacity:1"
     d="m 25711.768,1857.0595 5.2,10.873 3.5,22.187 2.1,36.826 1.1,54.791 0.4,76.08 v 10.2 l 0.1,77.72 0.8,56.02 1.6,37.63 2.9,22.54 4.6,10.75 6.5,2.26 5.3,-1.47 91.5,-23.5 92.7,-2.54 88.9,17.41 80.6,36.38 67.4,54.35 6.6,7.29 46.7,66.7 28.6,75.35 12,89.17 0.7,30.61 -10.4,103.57 -30.4,90.33 -49.8,75.7 -68.1,59.72 -73.7,38 -81.3,22.19 -94.6,10.98 -98.6,-0.53 -93.5,-12.34 -30.9,-7.45 -44.1,-11.97 -34.3,-8.88 -17.9,-4.04 -0.6,-0.07 -2,-12.22 -1.9,-34.61 -1.6,-54.35 -1.5,-71.49 -1.1,-86 -0.8,-97.89 -0.4,-107.15 v -48.03 -2.76 h 200 v 187.1 l 0.6,78.37 2,55.97 3.6,36.14 5.4,18.87 4,4.05 20.3,3.52 36.4,2.61 33.9,0.96 59.2,-3.66 47.2,-14.12 18.6,-9.41 50.4,-41.63 34.9,-56.49 17.7,-65.45 -0.9,-68.49 -21,-64.89 -37.9,-48.54 -53.4,-33.23 -63.1,-16.24 -67.3,2.45 -47.3,14 -43.3,18.11 h -200 v -508.26 l 40.6,-30.876 46.5,-31.781 44.9,-24.656 36.4,-13.883 12.2,-1.766 z"
     id="path2145" />
  <path
     style="fill:#000000;fill-opacity:1;fill-rule:evenodd;stroke:#000000;stroke-width:3.93701;stroke-linecap:round;stroke-linejoin:round;stroke-opacity:1"
     d="m 21603.068,2019.3765 126,3.55 72.8,187.5 31.4,80.67 34.4,88.45 33.7,86.55 29.3,74.93 5.1,13.15 47.2,120.76 38.7,99.2 30.8,79.34 23.7,61.16 17,44.7 11.1,29.92 5.9,16.84 1.4,5.19 -11.6,2.4 -31,1.18 -45,-0.18 -26.8,-0.67 -114.4,-3.59 -16.8,-50 -15.9,-45.73 -17.6,-48.86 -3.2,-8.54 -19.8,-53.12 h -421.1 l -26.3,71.87 -21.3,59.05 -15.6,39.84 -14,24.38 -16.7,12.63 -23.6,4.64 -34.6,0.37 -32.5,-0.28 -56.3,-1.56 -35.6,-4.5 -12.8,-7.17 v -0.27 l 4.3,-17.89 11.3,-33.54 14.7,-39.19 11.9,-30.36 19.5,-50.25 25.9,-66.7 30.9,-79.72 21.8,-56.35 h 212.9 294.5 l -44.2,-121.88 -22,-61 -22.1,-61.36 -18.5,-52.14 -6.8,-19.25 -14.4,-37.74 -12.1,-25.96 -6.3,-7.99 -6.6,11.2 -13.3,30.86 -18.6,46.64 -22.2,58.51 -17.2,46.54 -70.2,193.57 h -212.9 l 12.8,-32.95 36.9,-95.45 22.9,-59.1 36.3,-94.06 33.7,-86.94 29.7,-77.01 24.9,-64.24 18.9,-48.63 11.7,-30.19 3.4,-8.73 10.5,-7.67 26.1,-4.35 45,-1.34 z"
     id="path2147" />
  <path
     style="fill:#000000;fill-opacity:1;fill-rule:evenodd;stroke:#000000;stroke-width:3.93701;stroke-linecap:round;stroke-linejoin:round;stroke-opacity:1"
     d="m 23417.768,2262.5065 46.9,7.57 17.4,6.02 10.3,9.85 4.9,19.48 1.6,34.9 0.2,33.83 v 94.5 l -39.4,-8.63 -34.4,-4.74 -45.4,-2.62 -48.3,-0.51 -43.4,1.59 -30.5,3.69 -8.3,2.79 -4.6,15.36 -3.6,38.9 -2.6,61.02 -1.6,81.69 -0.4,85.22 v 274.26 h -187.5 v -699.28 l 90.6,-27.57 64.4,-14.99 73.4,-9.9 74,-4.28 z"
     id="path2149" />
  <path
     style="fill:#000000;fill-opacity:1;fill-rule:evenodd;stroke:#000000;stroke-width:3.93701;stroke-linecap:round;stroke-linejoin:round;stroke-opacity:1"
     d="m 23796.068,2287.1465 7,17.83 4.5,30.62 2.5,45.79 1.2,63.35 0.3,83.29 v 105.62 14.28 368.75 h -200 v -635.28 l 40.6,-34.26 36.9,-26.83 38.2,-21.72 5.7,-2.56 22.2,-9.48 17.5,-6.23 13.5,-0.59 z"
     id="path2151" />
  <path
     style="fill:#000000;fill-opacity:1;fill-rule:evenodd;stroke:#000000;stroke-width:3.93701;stroke-linecap:round;stroke-linejoin:round;stroke-opacity:1"
     d="m 24225.368,1997.0965 3.5,16.98 2.8,30.82 2.1,46.69 1.4,64.58 0.9,84.51 0.4,106.44 0.1,63.31 v 418.75 h 387.5 v 187.5 h -600 v -907.82 l 34.3,-32.86 30.7,-23.6 41,-24.52 42.5,-20.95 35.6,-12.92 12.7,-2.06 z"
     id="path2153" />
  <path
     style="fill:#000000;fill-opacity:1;fill-rule:evenodd;stroke:#000000;stroke-width:3.93701;stroke-linecap:round;stroke-linejoin:round;stroke-opacity:1"
     d="m 27205.268,2076.1665 v 859.26 l -65.6,3.78 -65.6,3.77 v -435.02 l -0.1,-435.03 z"
     id="path2155" />
  <path
     style="fill:#000000;fill-opacity:1;fill-rule:evenodd;stroke:#000000;stroke-width:3.93701;stroke-linecap:round;stroke-linejoin:round;stroke-opacity:1"
     d="m 26661.568,2791.6765 h -137.5 v -537.5 h 137.5 z"
     id="path2157" />
  <path
     style="fill:#000000;fill-opacity:1;fill-rule:evenodd;stroke:#000000;stroke-width:3.93701;stroke-linecap:round;stroke-linejoin:round;stroke-opacity:1"
     d="m 27486.568,2591.6765 h -137.5 v -912.502 h 137.5 z"
     id="path2159" />
  <path
     style="fill:#000000;fill-opacity:1;fill-rule:evenodd;stroke:#000000;stroke-width:3.93701;stroke-linecap:round;stroke-linejoin:round;stroke-opacity:1"
     d="m 23770.468,1939.0845 36,28.732 18.7,46.07 2.3,28.42 -10.4,51.35 -27.6,38.92 -39.7,23.44 -46.4,4.92 -48,-16.64 -1.6,-0.96 -38.8,-37.52 -17.5,-48.59 3.8,-49.37 22.9,-44.18 40.3,-26.298 53.9,-8.204 z"
     id="path2161" />
</svg>
