<?xml version="1.0" standalone="no"?>
 <!DOCTYPE svg PUBLIC "-//W3C//DTD SVG 1.1//EN" 
 "http://www.w3.org/Graphics/SVG/1.1/DTD/svg11.dtd"> 
<svg
  xmlns:svg="http://www.w3.org/2000/svg"
  xmlns="http://www.w3.org/2000/svg"
  xmlns:xlink="http://www.w3.org/1999/xlink"
  version="1.1"
  width="7.538720cm" height="4.236720cm" viewBox="0 0 29680 16680">
<title>SVG Picture created as noname-brd.svg date 2021/07/07 08:11:31 </title>
  <desc>Picture generated by PCBNEW </desc>
<g style="fill:#000000; fill-opacity:1;stroke:#000000; stroke-opacity:1;
stroke-linecap:round; stroke-linejoin:round;"
 transform="translate(0 0) scale(1 1)">
</g>
<g style="fill:#000000; fill-opacity:0.0; 
stroke:#000000; stroke-width:-0.000393701; stroke-opacity:1; 
stroke-linecap:round; stroke-linejoin:round;">
<g >
</g>
<g style="fill:#000000; fill-opacity:1.0; 
stroke:#000000; stroke-width:0; stroke-opacity:1; 
stroke-linecap:round; stroke-linejoin:round;">
<circle cx="12641.1" cy="3654.03" r="413.386" /> 
</g>
<g style="fill:#000000; fill-opacity:1.0; 
stroke:#000000; stroke-width:39.3701; stroke-opacity:1; 
stroke-linecap:round; stroke-linejoin:round;">
</g>
<g style="fill:#000000; fill-opacity:1.0; 
stroke:#000000; stroke-width:0; stroke-opacity:1; 
stroke-linecap:round; stroke-linejoin:round;">
<circle cx="12641.1" cy="4638.28" r="413.386" /> 
</g>
<g style="fill:#000000; fill-opacity:1.0; 
stroke:#000000; stroke-width:39.3701; stroke-opacity:1; 
stroke-linecap:round; stroke-linejoin:round;">
</g>
<g style="fill:#000000; fill-opacity:1.0; 
stroke:#000000; stroke-width:0; stroke-opacity:1; 
stroke-linecap:round; stroke-linejoin:round;">
<circle cx="12641.1" cy="5622.54" r="413.386" /> 
</g>
<g style="fill:#000000; fill-opacity:1.0; 
stroke:#000000; stroke-width:39.3701; stroke-opacity:1; 
stroke-linecap:round; stroke-linejoin:round;">
</g>
<g style="fill:#000000; fill-opacity:1.0; 
stroke:#000000; stroke-width:0; stroke-opacity:1; 
stroke-linecap:round; stroke-linejoin:round;">
<circle cx="12641.1" cy="6606.79" r="413.386" /> 
</g>
<g style="fill:#000000; fill-opacity:1.0; 
stroke:#000000; stroke-width:39.3701; stroke-opacity:1; 
stroke-linecap:round; stroke-linejoin:round;">
</g>
<g >
</g>
<g >
</g>
<g style="fill:#000000; fill-opacity:1.0; 
stroke:#000000; stroke-width:39.3701; stroke-opacity:1; 
stroke-linecap:round; stroke-linejoin:round;">
</g>
<g style="fill:#000000; fill-opacity:1.0; 
stroke:#000000; stroke-width:0; stroke-opacity:1; 
stroke-linecap:round; stroke-linejoin:round;">
<path style="fill:#000000; fill-opacity:1.0; 
stroke:#000000; stroke-width:0; stroke-opacity:1; 
stroke-linecap:round; stroke-linejoin:round;fill-rule:evenodd;"
d="M 5849.74,2551.67
6519.03,2551.67
6519.03,3339.07
5849.74,3339.07
Z" /> 
<path style="fill:#000000; fill-opacity:1.0; 
stroke:#000000; stroke-width:0; stroke-opacity:1; 
stroke-linecap:round; stroke-linejoin:round;fill-rule:evenodd;"
d="M 5849.74,976.867
6519.03,976.867
6519.03,1764.27
5849.74,1764.27
Z" /> 
</g>
<g >
</g>
<g style="fill:#000000; fill-opacity:1.0; 
stroke:#000000; stroke-width:0; stroke-opacity:1; 
stroke-linecap:round; stroke-linejoin:round;">
<circle cx="24963.9" cy="3811.51" r="413.386" /> 
</g>
<g style="fill:#000000; fill-opacity:1.0; 
stroke:#000000; stroke-width:39.3701; stroke-opacity:1; 
stroke-linecap:round; stroke-linejoin:round;">
</g>
<g style="fill:#000000; fill-opacity:1.0; 
stroke:#000000; stroke-width:0; stroke-opacity:1; 
stroke-linecap:round; stroke-linejoin:round;">
<circle cx="23979.7" cy="3811.51" r="413.386" /> 
</g>
<g style="fill:#000000; fill-opacity:1.0; 
stroke:#000000; stroke-width:39.3701; stroke-opacity:1; 
stroke-linecap:round; stroke-linejoin:round;">
</g>
<g style="fill:#000000; fill-opacity:1.0; 
stroke:#000000; stroke-width:0; stroke-opacity:1; 
stroke-linecap:round; stroke-linejoin:round;">
<circle cx="22995.4" cy="3811.51" r="413.386" /> 
</g>
<g style="fill:#000000; fill-opacity:1.0; 
stroke:#000000; stroke-width:39.3701; stroke-opacity:1; 
stroke-linecap:round; stroke-linejoin:round;">
</g>
<g style="fill:#000000; fill-opacity:1.0; 
stroke:#000000; stroke-width:0; stroke-opacity:1; 
stroke-linecap:round; stroke-linejoin:round;">
<circle cx="22011.2" cy="3811.51" r="413.386" /> 
</g>
<g style="fill:#000000; fill-opacity:1.0; 
stroke:#000000; stroke-width:39.3701; stroke-opacity:1; 
stroke-linecap:round; stroke-linejoin:round;">
</g>
<g >
</g>
<g style="fill:#000000; fill-opacity:1.0; 
stroke:#000000; stroke-width:39.3701; stroke-opacity:1; 
stroke-linecap:round; stroke-linejoin:round;">
</g>
<g style="fill:#000000; fill-opacity:1.0; 
stroke:#000000; stroke-width:0; stroke-opacity:1; 
stroke-linecap:round; stroke-linejoin:round;">
<path style="fill:#000000; fill-opacity:1.0; 
stroke:#000000; stroke-width:0; stroke-opacity:1; 
stroke-linecap:round; stroke-linejoin:round;fill-rule:evenodd;"
d="M 17837.9,2728.84
17837.9,2059.54
18625.3,2059.54
18625.3,2728.84
Z" /> 
<path style="fill:#000000; fill-opacity:1.0; 
stroke:#000000; stroke-width:0; stroke-opacity:1; 
stroke-linecap:round; stroke-linejoin:round;fill-rule:evenodd;"
d="M 19412.7,2728.84
19412.7,2059.54
20200.1,2059.54
20200.1,2728.84
Z" /> 
</g>
<g >
</g>
<g style="fill:#000000; fill-opacity:1.0; 
stroke:#000000; stroke-width:0; stroke-opacity:1; 
stroke-linecap:round; stroke-linejoin:round;">
<path style="fill:#000000; fill-opacity:1.0; 
stroke:#000000; stroke-width:0; stroke-opacity:1; 
stroke-linecap:round; stroke-linejoin:round;fill-rule:evenodd;"
d="M 8763.12,5228.84
9432.41,5228.84
9432.41,6016.24
8763.12,6016.24
Z" /> 
<path style="fill:#000000; fill-opacity:1.0; 
stroke:#000000; stroke-width:0; stroke-opacity:1; 
stroke-linecap:round; stroke-linejoin:round;fill-rule:evenodd;"
d="M 8763.12,6803.64
9432.41,6803.64
9432.41,7591.04
8763.12,7591.04
Z" /> 
</g>
<g >
</g>
<g style="fill:#000000; fill-opacity:1.0; 
stroke:#000000; stroke-width:0; stroke-opacity:1; 
stroke-linecap:round; stroke-linejoin:round;">
<path style="fill:#000000; fill-opacity:1.0; 
stroke:#000000; stroke-width:0; stroke-opacity:1; 
stroke-linecap:round; stroke-linejoin:round;fill-rule:evenodd;"
d="M 10967.8,5622.54
11637.1,5622.54
11637.1,6409.94
10967.8,6409.94
Z" /> 
<path style="fill:#000000; fill-opacity:1.0; 
stroke:#000000; stroke-width:0; stroke-opacity:1; 
stroke-linecap:round; stroke-linejoin:round;fill-rule:evenodd;"
d="M 10967.8,4047.73
11637.1,4047.73
11637.1,4835.13
10967.8,4835.13
Z" /> 
</g>
<g >
</g>
<g style="fill:#000000; fill-opacity:1.0; 
stroke:#000000; stroke-width:0; stroke-opacity:1; 
stroke-linecap:round; stroke-linejoin:round;">
<path style="fill:#000000; fill-opacity:1.0; 
stroke:#000000; stroke-width:0; stroke-opacity:1; 
stroke-linecap:round; stroke-linejoin:round;fill-rule:evenodd;"
d="M 14904.9,10504.4
15574.1,10504.4
15574.1,11291.8
14904.9,11291.8
Z" /> 
<path style="fill:#000000; fill-opacity:1.0; 
stroke:#000000; stroke-width:0; stroke-opacity:1; 
stroke-linecap:round; stroke-linejoin:round;fill-rule:evenodd;"
d="M 14904.9,8929.62
15574.1,8929.62
15574.1,9717.02
14904.9,9717.02
Z" /> 
</g>
<g >
</g>
<g style="fill:#000000; fill-opacity:1.0; 
stroke:#000000; stroke-width:0; stroke-opacity:1; 
stroke-linecap:round; stroke-linejoin:round;">
<path style="fill:#000000; fill-opacity:1.0; 
stroke:#000000; stroke-width:0; stroke-opacity:1; 
stroke-linecap:round; stroke-linejoin:round;fill-rule:evenodd;"
d="M 16263.1,2728.84
16263.1,2059.54
17050.5,2059.54
17050.5,2728.84
Z" /> 
<path style="fill:#000000; fill-opacity:1.0; 
stroke:#000000; stroke-width:0; stroke-opacity:1; 
stroke-linecap:round; stroke-linejoin:round;fill-rule:evenodd;"
d="M 14688.3,2728.84
14688.3,2059.54
15475.7,2059.54
15475.7,2728.84
Z" /> 
</g>
<g >
</g>
<g style="fill:#000000; fill-opacity:1.0; 
stroke:#000000; stroke-width:0; stroke-opacity:1; 
stroke-linecap:round; stroke-linejoin:round;">
<path style="fill:#000000; fill-opacity:1.0; 
stroke:#000000; stroke-width:0; stroke-opacity:1; 
stroke-linecap:round; stroke-linejoin:round;fill-rule:evenodd;"
d="M 20350.1,12869.1
20350.1,13809.1
20050.1,13809.1
20050.1,12869.1
Z" /> 
<path style="fill:#000000; fill-opacity:1.0; 
stroke:#000000; stroke-width:0; stroke-opacity:1; 
stroke-linecap:round; stroke-linejoin:round;fill-rule:evenodd;"
d="M 20350.1,11333.6
20350.1,12273.6
20050.1,12273.6
20050.1,11333.6
Z" /> 
<path style="fill:#000000; fill-opacity:1.0; 
stroke:#000000; stroke-width:0; stroke-opacity:1; 
stroke-linecap:round; stroke-linejoin:round;fill-rule:evenodd;"
d="M 20850.1,12869.1
20850.1,13809.1
20550.1,13809.1
20550.1,12869.1
Z" /> 
<path style="fill:#000000; fill-opacity:1.0; 
stroke:#000000; stroke-width:0; stroke-opacity:1; 
stroke-linecap:round; stroke-linejoin:round;fill-rule:evenodd;"
d="M 20850.1,11333.6
20850.1,12273.6
20550.1,12273.6
20550.1,11333.6
Z" /> 
<path style="fill:#000000; fill-opacity:1.0; 
stroke:#000000; stroke-width:0; stroke-opacity:1; 
stroke-linecap:round; stroke-linejoin:round;fill-rule:evenodd;"
d="M 21350.1,12869.1
21350.1,13809.1
21050.1,13809.1
21050.1,12869.1
Z" /> 
<path style="fill:#000000; fill-opacity:1.0; 
stroke:#000000; stroke-width:0; stroke-opacity:1; 
stroke-linecap:round; stroke-linejoin:round;fill-rule:evenodd;"
d="M 21350.1,11333.6
21350.1,12273.6
21050.1,12273.6
21050.1,11333.6
Z" /> 
<path style="fill:#000000; fill-opacity:1.0; 
stroke:#000000; stroke-width:0; stroke-opacity:1; 
stroke-linecap:round; stroke-linejoin:round;fill-rule:evenodd;"
d="M 21850.1,12869.1
21850.1,13809.1
21550.1,13809.1
21550.1,12869.1
Z" /> 
<path style="fill:#000000; fill-opacity:1.0; 
stroke:#000000; stroke-width:0; stroke-opacity:1; 
stroke-linecap:round; stroke-linejoin:round;fill-rule:evenodd;"
d="M 21850.1,11333.6
21850.1,12273.6
21550.1,12273.6
21550.1,11333.6
Z" /> 
<path style="fill:#000000; fill-opacity:1.0; 
stroke:#000000; stroke-width:0; stroke-opacity:1; 
stroke-linecap:round; stroke-linejoin:round;fill-rule:evenodd;"
d="M 22350.1,12869.1
22350.1,13809.1
22050.1,13809.1
22050.1,12869.1
Z" /> 
<path style="fill:#000000; fill-opacity:1.0; 
stroke:#000000; stroke-width:0; stroke-opacity:1; 
stroke-linecap:round; stroke-linejoin:round;fill-rule:evenodd;"
d="M 22350.1,11333.6
22350.1,12273.6
22050.1,12273.6
22050.1,11333.6
Z" /> 
</g>
<g >
</g>
<g style="fill:#000000; fill-opacity:1.0; 
stroke:#000000; stroke-width:0; stroke-opacity:1; 
stroke-linecap:round; stroke-linejoin:round;">
<circle cx="27365.5" cy="9874.5" r="413.386" /> 
</g>
<g style="fill:#000000; fill-opacity:1.0; 
stroke:#000000; stroke-width:39.3701; stroke-opacity:1; 
stroke-linecap:round; stroke-linejoin:round;">
</g>
<g style="fill:#000000; fill-opacity:1.0; 
stroke:#000000; stroke-width:0; stroke-opacity:1; 
stroke-linecap:round; stroke-linejoin:round;">
<circle cx="27365.5" cy="10858.8" r="413.386" /> 
</g>
<g style="fill:#000000; fill-opacity:1.0; 
stroke:#000000; stroke-width:39.3701; stroke-opacity:1; 
stroke-linecap:round; stroke-linejoin:round;">
</g>
<g >
</g>
<g style="fill:#000000; fill-opacity:1.0; 
stroke:#000000; stroke-width:39.3701; stroke-opacity:1; 
stroke-linecap:round; stroke-linejoin:round;">
</g>
<g style="fill:#000000; fill-opacity:1.0; 
stroke:#000000; stroke-width:0; stroke-opacity:1; 
stroke-linecap:round; stroke-linejoin:round;">
<circle cx="27365.5" cy="6291.83" r="413.386" /> 
</g>
<g style="fill:#000000; fill-opacity:1.0; 
stroke:#000000; stroke-width:39.3701; stroke-opacity:1; 
stroke-linecap:round; stroke-linejoin:round;">
</g>
<g style="fill:#000000; fill-opacity:1.0; 
stroke:#000000; stroke-width:0; stroke-opacity:1; 
stroke-linecap:round; stroke-linejoin:round;">
<circle cx="27365.5" cy="7276.08" r="413.386" /> 
</g>
<g style="fill:#000000; fill-opacity:1.0; 
stroke:#000000; stroke-width:39.3701; stroke-opacity:1; 
stroke-linecap:round; stroke-linejoin:round;">
</g>
<g >
</g>
<g style="fill:#000000; fill-opacity:1.0; 
stroke:#000000; stroke-width:39.3701; stroke-opacity:1; 
stroke-linecap:round; stroke-linejoin:round;">
</g>
<g style="fill:#000000; fill-opacity:1.0; 
stroke:#000000; stroke-width:0; stroke-opacity:1; 
stroke-linecap:round; stroke-linejoin:round;">
<circle cx="19176.5" cy="3811.51" r="413.386" /> 
</g>
<g style="fill:#000000; fill-opacity:1.0; 
stroke:#000000; stroke-width:39.3701; stroke-opacity:1; 
stroke-linecap:round; stroke-linejoin:round;">
</g>
<g style="fill:#000000; fill-opacity:1.0; 
stroke:#000000; stroke-width:0; stroke-opacity:1; 
stroke-linecap:round; stroke-linejoin:round;">
<circle cx="18192.3" cy="3811.51" r="413.386" /> 
</g>
<g style="fill:#000000; fill-opacity:1.0; 
stroke:#000000; stroke-width:39.3701; stroke-opacity:1; 
stroke-linecap:round; stroke-linejoin:round;">
</g>
<g style="fill:#000000; fill-opacity:1.0; 
stroke:#000000; stroke-width:0; stroke-opacity:1; 
stroke-linecap:round; stroke-linejoin:round;">
<circle cx="17208" cy="3811.51" r="413.386" /> 
</g>
<g style="fill:#000000; fill-opacity:1.0; 
stroke:#000000; stroke-width:39.3701; stroke-opacity:1; 
stroke-linecap:round; stroke-linejoin:round;">
</g>
<g style="fill:#000000; fill-opacity:1.0; 
stroke:#000000; stroke-width:0; stroke-opacity:1; 
stroke-linecap:round; stroke-linejoin:round;">
<circle cx="16223.8" cy="3811.51" r="413.386" /> 
</g>
<g style="fill:#000000; fill-opacity:1.0; 
stroke:#000000; stroke-width:39.3701; stroke-opacity:1; 
stroke-linecap:round; stroke-linejoin:round;">
</g>
<g style="fill:#000000; fill-opacity:1.0; 
stroke:#000000; stroke-width:0; stroke-opacity:1; 
stroke-linecap:round; stroke-linejoin:round;">
<circle cx="15239.5" cy="3811.51" r="413.386" /> 
</g>
<g style="fill:#000000; fill-opacity:1.0; 
stroke:#000000; stroke-width:39.3701; stroke-opacity:1; 
stroke-linecap:round; stroke-linejoin:round;">
</g>
<g >
</g>
<g style="fill:#000000; fill-opacity:1.0; 
stroke:#000000; stroke-width:39.3701; stroke-opacity:1; 
stroke-linecap:round; stroke-linejoin:round;">
</g>
<g style="fill:#000000; fill-opacity:1.0; 
stroke:#000000; stroke-width:0; stroke-opacity:1; 
stroke-linecap:round; stroke-linejoin:round;">
<path style="fill:#000000; fill-opacity:1.0; 
stroke:#000000; stroke-width:0; stroke-opacity:1; 
stroke-linecap:round; stroke-linejoin:round;fill-rule:evenodd;"
d="M 23920.6,13811.5
23251.3,13811.5
23251.3,13024.1
23920.6,13024.1
Z" /> 
<path style="fill:#000000; fill-opacity:1.0; 
stroke:#000000; stroke-width:0; stroke-opacity:1; 
stroke-linecap:round; stroke-linejoin:round;fill-rule:evenodd;"
d="M 23920.6,12236.7
23251.3,12236.7
23251.3,11449.3
23920.6,11449.3
Z" /> 
</g>
<g >
</g>
<g style="fill:#000000; fill-opacity:1.0; 
stroke:#000000; stroke-width:0; stroke-opacity:1; 
stroke-linecap:round; stroke-linejoin:round;">
<path style="fill:#000000; fill-opacity:1.0; 
stroke:#000000; stroke-width:0; stroke-opacity:1; 
stroke-linecap:round; stroke-linejoin:round;fill-rule:evenodd;"
d="M 17227.7,9717.02
16558.4,9717.02
16558.4,8929.62
17227.7,8929.62
Z" /> 
<path style="fill:#000000; fill-opacity:1.0; 
stroke:#000000; stroke-width:0; stroke-opacity:1; 
stroke-linecap:round; stroke-linejoin:round;fill-rule:evenodd;"
d="M 17227.7,11291.8
16558.4,11291.8
16558.4,10504.4
17227.7,10504.4
Z" /> 
</g>
<g >
</g>
<g style="fill:#000000; fill-opacity:1.0; 
stroke:#000000; stroke-width:0; stroke-opacity:1; 
stroke-linecap:round; stroke-linejoin:round;">
<path style="fill:#000000; fill-opacity:1.0; 
stroke:#000000; stroke-width:0; stroke-opacity:1; 
stroke-linecap:round; stroke-linejoin:round;fill-rule:evenodd;"
d="M 18467.8,12886.3
18467.8,12217
19255.2,12217
19255.2,12886.3
Z" /> 
<path style="fill:#000000; fill-opacity:1.0; 
stroke:#000000; stroke-width:0; stroke-opacity:1; 
stroke-linecap:round; stroke-linejoin:round;fill-rule:evenodd;"
d="M 16893,12886.3
16893,12217
17680.4,12217
17680.4,12886.3
Z" /> 
</g>
<g >
</g>
<g style="fill:#000000; fill-opacity:1.0; 
stroke:#000000; stroke-width:0; stroke-opacity:1; 
stroke-linecap:round; stroke-linejoin:round;">
<path style="fill:#000000; fill-opacity:1.0; 
stroke:#000000; stroke-width:0; stroke-opacity:1; 
stroke-linecap:round; stroke-linejoin:round;fill-rule:evenodd;"
d="M 16341.9,6508.36
16341.9,5839.07
17129.3,5839.07
17129.3,6508.36
Z" /> 
<path style="fill:#000000; fill-opacity:1.0; 
stroke:#000000; stroke-width:0; stroke-opacity:1; 
stroke-linecap:round; stroke-linejoin:round;fill-rule:evenodd;"
d="M 14767.1,6508.36
14767.1,5839.07
15554.5,5839.07
15554.5,6508.36
Z" /> 
</g>
<g >
</g>
<g style="fill:#000000; fill-opacity:1.0; 
stroke:#000000; stroke-width:0; stroke-opacity:1; 
stroke-linecap:round; stroke-linejoin:round;">
<path style="fill:#000000; fill-opacity:1.0; 
stroke:#000000; stroke-width:0; stroke-opacity:1; 
stroke-linecap:round; stroke-linejoin:round;fill-rule:evenodd;"
d="M 16341.9,8004.43
16341.9,7335.13
17129.3,7335.13
17129.3,8004.43
Z" /> 
<path style="fill:#000000; fill-opacity:1.0; 
stroke:#000000; stroke-width:0; stroke-opacity:1; 
stroke-linecap:round; stroke-linejoin:round;fill-rule:evenodd;"
d="M 14767.1,8004.43
14767.1,7335.13
15554.5,7335.13
15554.5,8004.43
Z" /> 
</g>
<g >
</g>
<g style="fill:#000000; fill-opacity:1.0; 
stroke:#000000; stroke-width:0; stroke-opacity:1; 
stroke-linecap:round; stroke-linejoin:round;">
<path style="fill:#000000; fill-opacity:1.0; 
stroke:#000000; stroke-width:0; stroke-opacity:1; 
stroke-linecap:round; stroke-linejoin:round;fill-rule:evenodd;"
d="M 20013.1,6839.07
20013.1,6602.85
20800.5,6602.85
20800.5,6839.07
Z" /> 
<path style="fill:#000000; fill-opacity:1.0; 
stroke:#000000; stroke-width:0; stroke-opacity:1; 
stroke-linecap:round; stroke-linejoin:round;fill-rule:evenodd;"
d="M 20013.1,7339.07
20013.1,7102.85
20800.5,7102.85
20800.5,7339.07
Z" /> 
<path style="fill:#000000; fill-opacity:1.0; 
stroke:#000000; stroke-width:0; stroke-opacity:1; 
stroke-linecap:round; stroke-linejoin:round;fill-rule:evenodd;"
d="M 20013.1,7839.07
20013.1,7602.85
20800.5,7602.85
20800.5,7839.07
Z" /> 
<path style="fill:#000000; fill-opacity:1.0; 
stroke:#000000; stroke-width:0; stroke-opacity:1; 
stroke-linecap:round; stroke-linejoin:round;fill-rule:evenodd;"
d="M 20013.1,8339.07
20013.1,8102.85
20800.5,8102.85
20800.5,8339.07
Z" /> 
<path style="fill:#000000; fill-opacity:1.0; 
stroke:#000000; stroke-width:0; stroke-opacity:1; 
stroke-linecap:round; stroke-linejoin:round;fill-rule:evenodd;"
d="M 20013.1,8839.07
20013.1,8602.85
20800.5,8602.85
20800.5,8839.07
Z" /> 
<path style="fill:#000000; fill-opacity:1.0; 
stroke:#000000; stroke-width:0; stroke-opacity:1; 
stroke-linecap:round; stroke-linejoin:round;fill-rule:evenodd;"
d="M 20013.1,9339.07
20013.1,9102.85
20800.5,9102.85
20800.5,9339.07
Z" /> 
<path style="fill:#000000; fill-opacity:1.0; 
stroke:#000000; stroke-width:0; stroke-opacity:1; 
stroke-linecap:round; stroke-linejoin:round;fill-rule:evenodd;"
d="M 20013.1,9839.07
20013.1,9602.85
20800.5,9602.85
20800.5,9839.07
Z" /> 
<path style="fill:#000000; fill-opacity:1.0; 
stroke:#000000; stroke-width:0; stroke-opacity:1; 
stroke-linecap:round; stroke-linejoin:round;fill-rule:evenodd;"
d="M 21961.9,9839.07
21961.9,9602.85
22749.3,9602.85
22749.3,9839.07
Z" /> 
<path style="fill:#000000; fill-opacity:1.0; 
stroke:#000000; stroke-width:0; stroke-opacity:1; 
stroke-linecap:round; stroke-linejoin:round;fill-rule:evenodd;"
d="M 21961.9,9339.07
21961.9,9102.85
22749.3,9102.85
22749.3,9339.07
Z" /> 
<path style="fill:#000000; fill-opacity:1.0; 
stroke:#000000; stroke-width:0; stroke-opacity:1; 
stroke-linecap:round; stroke-linejoin:round;fill-rule:evenodd;"
d="M 21961.9,8839.07
21961.9,8602.85
22749.3,8602.85
22749.3,8839.07
Z" /> 
<path style="fill:#000000; fill-opacity:1.0; 
stroke:#000000; stroke-width:0; stroke-opacity:1; 
stroke-linecap:round; stroke-linejoin:round;fill-rule:evenodd;"
d="M 21961.9,8339.07
21961.9,8102.85
22749.3,8102.85
22749.3,8339.07
Z" /> 
<path style="fill:#000000; fill-opacity:1.0; 
stroke:#000000; stroke-width:0; stroke-opacity:1; 
stroke-linecap:round; stroke-linejoin:round;fill-rule:evenodd;"
d="M 21961.9,7839.07
21961.9,7602.85
22749.3,7602.85
22749.3,7839.07
Z" /> 
<path style="fill:#000000; fill-opacity:1.0; 
stroke:#000000; stroke-width:0; stroke-opacity:1; 
stroke-linecap:round; stroke-linejoin:round;fill-rule:evenodd;"
d="M 21961.9,7339.07
21961.9,7102.85
22749.3,7102.85
22749.3,7339.07
Z" /> 
<path style="fill:#000000; fill-opacity:1.0; 
stroke:#000000; stroke-width:0; stroke-opacity:1; 
stroke-linecap:round; stroke-linejoin:round;fill-rule:evenodd;"
d="M 21961.9,6839.07
21961.9,6602.85
22749.3,6602.85
22749.3,6839.07
Z" /> 
</g>
<g >
</g>
<g style="fill:#000000; fill-opacity:1.0; 
stroke:#000000; stroke-width:0; stroke-opacity:1; 
stroke-linecap:round; stroke-linejoin:round;">
<path style="fill:#000000; fill-opacity:1.0; 
stroke:#000000; stroke-width:0; stroke-opacity:1; 
stroke-linecap:round; stroke-linejoin:round;fill-rule:evenodd;"
d="M 9668.27,2630.57
9668.27,3181.57
9275.27,3181.57
9275.27,2630.57
Z" /> 
<path style="fill:#000000; fill-opacity:1.0; 
stroke:#000000; stroke-width:0; stroke-opacity:1; 
stroke-linecap:round; stroke-linejoin:round;fill-rule:evenodd;"
d="M 8920.27,2630.57
8920.27,3181.57
8527.27,3181.57
8527.27,2630.57
Z" /> 
<path style="fill:#000000; fill-opacity:1.0; 
stroke:#000000; stroke-width:0; stroke-opacity:1; 
stroke-linecap:round; stroke-linejoin:round;fill-rule:evenodd;"
d="M 9294.27,3496.57
9294.27,4047.57
8901.27,4047.57
8901.27,3496.57
Z" /> 
</g>
<g >
</g>
<g style="fill:#000000; fill-opacity:1.0; 
stroke:#000000; stroke-width:0; stroke-opacity:1; 
stroke-linecap:round; stroke-linejoin:round;">
<path style="fill:#000000; fill-opacity:1.0; 
stroke:#000000; stroke-width:0; stroke-opacity:1; 
stroke-linecap:round; stroke-linejoin:round;fill-rule:evenodd;"
d="M 9865.49,6016.24
10534.8,6016.24
10534.8,6803.64
9865.49,6803.64
Z" /> 
<path style="fill:#000000; fill-opacity:1.0; 
stroke:#000000; stroke-width:0; stroke-opacity:1; 
stroke-linecap:round; stroke-linejoin:round;fill-rule:evenodd;"
d="M 9865.49,4441.43
10534.8,4441.43
10534.8,5228.84
9865.49,5228.84
Z" /> 
</g>
<g >
</g>
<g style="fill:#000000; fill-opacity:1.0; 
stroke:#000000; stroke-width:0; stroke-opacity:1; 
stroke-linecap:round; stroke-linejoin:round;">
<path style="fill:#000000; fill-opacity:1.0; 
stroke:#000000; stroke-width:0; stroke-opacity:1; 
stroke-linecap:round; stroke-linejoin:round;fill-rule:evenodd;"
d="M 25082,9894.19
25082,9224.9
25869.4,9224.9
25869.4,9894.19
Z" /> 
<path style="fill:#000000; fill-opacity:1.0; 
stroke:#000000; stroke-width:0; stroke-opacity:1; 
stroke-linecap:round; stroke-linejoin:round;fill-rule:evenodd;"
d="M 23507.2,9894.19
23507.2,9224.9
24294.6,9224.9
24294.6,9894.19
Z" /> 
</g>
<g >
</g>
<g style="fill:#000000; fill-opacity:1.0; 
stroke:#000000; stroke-width:0; stroke-opacity:1; 
stroke-linecap:round; stroke-linejoin:round;">
<path style="fill:#000000; fill-opacity:1.0; 
stroke:#000000; stroke-width:0; stroke-opacity:1; 
stroke-linecap:round; stroke-linejoin:round;fill-rule:evenodd;"
d="M 6499.34,10484.7
6499.34,11154
5711.94,11154
5711.94,10484.7
Z" /> 
<path style="fill:#000000; fill-opacity:1.0; 
stroke:#000000; stroke-width:0; stroke-opacity:1; 
stroke-linecap:round; stroke-linejoin:round;fill-rule:evenodd;"
d="M 4924.54,10484.7
4924.54,11154
4137.14,11154
4137.14,10484.7
Z" /> 
</g>
<g >
</g>
<g style="fill:#000000; fill-opacity:1.0; 
stroke:#000000; stroke-width:0; stroke-opacity:1; 
stroke-linecap:round; stroke-linejoin:round;">
<path style="fill:#000000; fill-opacity:1.0; 
stroke:#000000; stroke-width:0; stroke-opacity:1; 
stroke-linecap:round; stroke-linejoin:round;fill-rule:evenodd;"
d="M 4924.54,5524.11
4924.54,6193.4
4137.14,6193.4
4137.14,5524.11
Z" /> 
<path style="fill:#000000; fill-opacity:1.0; 
stroke:#000000; stroke-width:0; stroke-opacity:1; 
stroke-linecap:round; stroke-linejoin:round;fill-rule:evenodd;"
d="M 6499.34,5524.11
6499.34,6193.4
5711.94,6193.4
5711.94,5524.11
Z" /> 
</g>
<g >
</g>
<g style="fill:#000000; fill-opacity:1.0; 
stroke:#000000; stroke-width:0; stroke-opacity:1; 
stroke-linecap:round; stroke-linejoin:round;">
<circle cx="5318.24" cy="14756.4" r="413.386" /> 
</g>
<g style="fill:#000000; fill-opacity:1.0; 
stroke:#000000; stroke-width:39.3701; stroke-opacity:1; 
stroke-linecap:round; stroke-linejoin:round;">
</g>
<g style="fill:#000000; fill-opacity:1.0; 
stroke:#000000; stroke-width:0; stroke-opacity:1; 
stroke-linecap:round; stroke-linejoin:round;">
<circle cx="6302.49" cy="14756.4" r="413.386" /> 
</g>
<g style="fill:#000000; fill-opacity:1.0; 
stroke:#000000; stroke-width:39.3701; stroke-opacity:1; 
stroke-linecap:round; stroke-linejoin:round;">
</g>
<g >
</g>
<g style="fill:#000000; fill-opacity:1.0; 
stroke:#000000; stroke-width:39.3701; stroke-opacity:1; 
stroke-linecap:round; stroke-linejoin:round;">
</g>
<g style="fill:#000000; fill-opacity:1.0; 
stroke:#000000; stroke-width:0; stroke-opacity:1; 
stroke-linecap:round; stroke-linejoin:round;">
<path style="fill:#000000; fill-opacity:1.0; 
stroke:#000000; stroke-width:0; stroke-opacity:1; 
stroke-linecap:round; stroke-linejoin:round;fill-rule:evenodd;"
d="M 5820.8,12889.8
5470.8,12889.8
5470.8,12579.8
5820.8,12579.8
Z" /> 
<path style="fill:#000000; fill-opacity:1.0; 
stroke:#000000; stroke-width:0; stroke-opacity:1; 
stroke-linecap:round; stroke-linejoin:round;fill-rule:evenodd;"
d="M 5020.8,13269.8
4670.8,13269.8
4670.8,12959.8
5020.8,12959.8
Z" /> 
<path style="fill:#000000; fill-opacity:1.0; 
stroke:#000000; stroke-width:0; stroke-opacity:1; 
stroke-linecap:round; stroke-linejoin:round;fill-rule:evenodd;"
d="M 5020.8,12509.8
4670.8,12509.8
4670.8,12199.8
5020.8,12199.8
Z" /> 
</g>
<g >
</g>
<g style="fill:#000000; fill-opacity:1.0; 
stroke:#000000; stroke-width:0; stroke-opacity:1; 
stroke-linecap:round; stroke-linejoin:round;">
<path style="fill:#000000; fill-opacity:1.0; 
stroke:#000000; stroke-width:0; stroke-opacity:1; 
stroke-linecap:round; stroke-linejoin:round;fill-rule:evenodd;"
d="M 4924.54,3870.57
4924.54,4539.86
4137.14,4539.86
4137.14,3870.57
Z" /> 
<path style="fill:#000000; fill-opacity:1.0; 
stroke:#000000; stroke-width:0; stroke-opacity:1; 
stroke-linecap:round; stroke-linejoin:round;fill-rule:evenodd;"
d="M 6499.34,3870.57
6499.34,4539.86
5711.94,4539.86
5711.94,3870.57
Z" /> 
</g>
<g >
</g>
<g style="fill:#000000; fill-opacity:1.0; 
stroke:#000000; stroke-width:0; stroke-opacity:1; 
stroke-linecap:round; stroke-linejoin:round;">
<path style="fill:#000000; fill-opacity:1.0; 
stroke:#000000; stroke-width:0; stroke-opacity:1; 
stroke-linecap:round; stroke-linejoin:round;fill-rule:evenodd;"
d="M 4137.14,7650.09
4137.14,7059.54
4924.54,7059.54
4924.54,7650.09
Z" /> 
<path style="fill:#000000; fill-opacity:1.0; 
stroke:#000000; stroke-width:0; stroke-opacity:1; 
stroke-linecap:round; stroke-linejoin:round;fill-rule:evenodd;"
d="M 4137.14,9461.12
4137.14,8870.57
4924.54,8870.57
4924.54,9461.12
Z" /> 
<path style="fill:#000000; fill-opacity:1.0; 
stroke:#000000; stroke-width:0; stroke-opacity:1; 
stroke-linecap:round; stroke-linejoin:round;fill-rule:evenodd;"
d="M 4137.14,8555.61
4137.14,7965.06
4924.54,7965.06
4924.54,8555.61
Z" /> 
<path style="fill:#000000; fill-opacity:1.0; 
stroke:#000000; stroke-width:0; stroke-opacity:1; 
stroke-linecap:round; stroke-linejoin:round;fill-rule:evenodd;"
d="M 6617.45,9008.36
6617.45,7512.3
7404.86,7512.3
7404.86,9008.36
Z" /> 
</g>
<g >
</g>
<g >
</g>
<g >
</g>
</g>
<g style="fill:#000000; fill-opacity:1.0; 
stroke:#000000; stroke-width:0; stroke-opacity:1; 
stroke-linecap:round; stroke-linejoin:round;">
</g>
<g style="fill:#000000; fill-opacity:1.0; 
stroke:#000000; stroke-width:47.2441; stroke-opacity:1; 
stroke-linecap:round; stroke-linejoin:round;">
</g>
<g style="fill:#000000; fill-opacity:0.0; 
stroke:#000000; stroke-width:47.2441; stroke-opacity:1; 
stroke-linecap:round; stroke-linejoin:round;">
<path d="M6558 937
L5810 937
" />
<path d="M5810 937
L5810 2787
" />
<path d="M6558 937
L6558 2787
" />
<path d="M19412 2815
L18625 2815
" />
<path d="M18625 1972
L19412 1972
" />
<path d="M8676 6803
L8676 6016
" />
<path d="M9519 6016
L9519 6803
" />
<path d="M11723 4835
L11723 5622
" />
<path d="M10881 5622
L10881 4835
" />
<path d="M15660 9717
L15660 10504
" />
<path d="M14818 10504
L14818 9717
" />
<path d="M14648 2020
L14648 2768
" />
<path d="M14648 2768
L16499 2768
" />
<path d="M14648 2020
L16499 2020
" />
<path d="M24007 12236
L24007 13024
" />
<path d="M23164 13024
L23164 12236
" />
<path d="M16471 10504
L16471 9717
" />
<path d="M17314 9717
L17314 10504
" />
<path d="M17680 12130
L18467 12130
" />
<path d="M18467 12972
L17680 12972
" />
<path d="M15554 5752
L16341 5752
" />
<path d="M16341 6594
L15554 6594
" />
<path d="M15554 7248
L16341 7248
" />
<path d="M16341 8091
L15554 8091
" />
<path d="M21381 9967
L22148 9967
" />
<path d="M21381 9967
L20613 9967
" />
<path d="M21381 6474
L22148 6474
" />
<path d="M21381 6474
L20022 6474
" />
</g>
<g style="fill:#000000; fill-opacity:0.0; 
stroke:#000000; stroke-width:60; stroke-opacity:1; 
stroke-linecap:round; stroke-linejoin:round;">
<path d="M9657 3599
L8537 3599
" />
<path d="M9657 3079
L9657 3599
" />
<path d="M8537 3079
L9657 3079
" />
<path d="M8537 3599
L8537 3079
" />
</g>
<g style="fill:#000000; fill-opacity:0.0; 
stroke:#000000; stroke-width:26; stroke-opacity:1; 
stroke-linecap:round; stroke-linejoin:round;">
<path d="M9557 2830
L9557 3059
" />
<path d="M9557 3059
L9377 3059
" />
<path d="M9377 2830
L9377 3059
" />
<path d="M9557 2830
L9377 2830
" />
<path d="M8817 2830
L8817 3059
" />
<path d="M8817 3059
L8637 3059
" />
<path d="M8637 2830
L8637 3059
" />
<path d="M8817 2830
L8637 2830
" />
<path d="M9187 3619
L9187 3848
" />
<path d="M9187 3848
L9007 3848
" />
<path d="M9007 3619
L9007 3848
" />
<path d="M9187 3619
L9007 3619
" />
</g>
<g style="fill:#000000; fill-opacity:0.0; 
stroke:#000000; stroke-width:47.2441; stroke-opacity:1; 
stroke-linecap:round; stroke-linejoin:round;">
<path d="M10621 5228
L10621 6016
" />
<path d="M9778 6016
L9778 5228
" />
<path d="M24294 9138
L25082 9138
" />
<path d="M25082 9980
L24294 9980
" />
<path d="M4924 10398
L5711 10398
" />
<path d="M5711 11240
L4924 11240
" />
<path d="M5711 6280
L4924 6280
" />
<path d="M4924 5437
L5711 5437
" />
</g>
<g style="fill:#000000; fill-opacity:0.0; 
stroke:#000000; stroke-width:26; stroke-opacity:1; 
stroke-linecap:round; stroke-linejoin:round;">
<path d="M5615 12814
L5415 12814
" />
<path d="M5415 12814
L5415 12664
" />
<path d="M5615 12664
L5415 12664
" />
<path d="M5615 12814
L5615 12664
" />
<path d="M5075 13194
L4875 13194
" />
<path d="M4875 13194
L4875 13044
" />
<path d="M5075 13044
L4875 13044
" />
<path d="M5075 13194
L5075 13044
" />
<path d="M5075 12434
L4875 12434
" />
<path d="M4875 12434
L4875 12284
" />
<path d="M5075 12284
L4875 12284
" />
<path d="M5075 12434
L5075 12284
" />
</g>
<g style="fill:#000000; fill-opacity:0.0; 
stroke:#000000; stroke-width:47.2441; stroke-opacity:1; 
stroke-linecap:round; stroke-linejoin:round;">
<path d="M5711 4626
L4924 4626
" />
<path d="M4924 3783
L5711 3783
" />
<path d="M4156 6917
L6522 6917
" />
<path d="M5042 9602
L6522 9602
" />
<path d="M6522 6917
L6522 7413
" />
<path d="M6522 9602
L6522 9106
" />
</g>
<g style="fill:#000000; fill-opacity:0.0; 
stroke:#000000; stroke-width:59.0551; stroke-opacity:1; 
stroke-linecap:round; stroke-linejoin:round;">
<g transform="rotate(-90 6912.73 2157.97)">
<text x="6912.73" y="2354.82"
textLength="830.071" font-size="524.934" lengthAdjust="spacingAndGlyphs"
text-anchor="middle" opacity="0">D2</text>
</g>
<path d="M7090 2448
L6697 2448
L6697 2354
L6715 2298
L6753 2261
L6790 2242
L6865 2223
L6922 2223
L6997 2242
L7034 2261
L7072 2298
L7090 2354
L7090 2448
" />
<path d="M6734 2073
L6715 2054
L6697 2017
L6697 1923
L6715 1886
L6734 1867
L6772 1848
L6809 1848
L6865 1867
L7090 2092
L7090 1848
" />
<text x="19019" y="1862.69"
textLength="845.426" font-size="524.934" lengthAdjust="spacingAndGlyphs"
text-anchor="middle" opacity="0">R7</text>
<path d="M18953 1843
L18822 1656
" />
<path d="M18728 1843
L18728 1450
L18878 1450
L18915 1468
L18934 1487
L18953 1525
L18953 1581
L18934 1618
L18915 1637
L18878 1656
L18728 1656
" />
<path d="M19084 1450
L19347 1450
L19178 1843
" />
<text x="8152.89" y="7315.45"
textLength="845.426" font-size="524.934" lengthAdjust="spacingAndGlyphs"
text-anchor="middle" opacity="0">C3</text>
<path d="M8087 7259
L8068 7277
L8012 7296
L7974 7296
L7918 7277
L7881 7240
L7862 7202
L7843 7127
L7843 7071
L7862 6996
L7881 6959
L7918 6921
L7974 6903
L8012 6903
L8068 6921
L8087 6940
" />
<path d="M8218 6903
L8462 6903
L8330 7052
L8387 7052
L8424 7071
L8443 7090
L8462 7127
L8462 7221
L8443 7259
L8424 7277
L8387 7296
L8274 7296
L8237 7277
L8218 7259
" />
<text x="11302.5" y="7000.49"
textLength="845.426" font-size="524.934" lengthAdjust="spacingAndGlyphs"
text-anchor="middle" opacity="0">C6</text>
<path d="M11236 6944
L11218 6962
L11161 6981
L11124 6981
L11068 6962
L11030 6925
L11011 6888
L10993 6813
L10993 6756
L11011 6681
L11030 6644
L11068 6606
L11124 6588
L11161 6588
L11218 6606
L11236 6625
" />
<path d="M11574 6588
L11499 6588
L11461 6606
L11443 6625
L11405 6681
L11386 6756
L11386 6906
L11405 6944
L11424 6962
L11461 6981
L11536 6981
L11574 6962
L11593 6944
L11611 6906
L11611 6813
L11593 6775
L11574 6756
L11536 6738
L11461 6738
L11424 6756
L11405 6775
L11386 6813
" />
<g transform="rotate(-90 15967.8 11449.3)">
<text x="15967.8" y="11646.2"
textLength="845.426" font-size="524.934" lengthAdjust="spacingAndGlyphs"
text-anchor="middle" opacity="0">C7</text>
</g>
<path d="M16108 11514
L16127 11533
L16145 11589
L16145 11627
L16127 11683
L16089 11721
L16052 11739
L15977 11758
L15920 11758
L15845 11739
L15808 11721
L15770 11683
L15752 11627
L15752 11589
L15770 11533
L15789 11514
" />
<path d="M15752 11383
L15752 11121
L16145 11289
" />
<text x="15869.4" y="1862.69"
textLength="845.426" font-size="524.934" lengthAdjust="spacingAndGlyphs"
text-anchor="middle" opacity="0">D1</text>
<path d="M15578 1843
L15578 1450
L15672 1450
L15728 1468
L15766 1506
L15785 1543
L15803 1618
L15803 1675
L15785 1750
L15766 1787
L15728 1825
L15672 1843
L15578 1843
" />
<path d="M16178 1843
L15953 1843
" />
<path d="M16066 1843
L16066 1450
L16028 1506
L15991 1543
L15953 1562
" />
<text x="19727.7" y="14165.8"
textLength="751.687" font-size="524.934" lengthAdjust="spacingAndGlyphs"
text-anchor="middle" opacity="0">J1</text>
<path d="M19596 13753
L19596 14034
L19577 14090
L19540 14128
L19483 14147
L19446 14147
" />
<path d="M19990 14147
L19765 14147
" />
<path d="M19877 14147
L19877 13753
L19840 13809
L19802 13847
L19765 13865
" />
<g transform="rotate(-90 22798.6 12630.4)">
<text x="22798.6" y="12827.3"
textLength="845.426" font-size="524.934" lengthAdjust="spacingAndGlyphs"
text-anchor="middle" opacity="0">R1</text>
</g>
<path d="M22976 12696
L22789 12827
" />
<path d="M22976 12920
L22582 12920
L22582 12771
L22601 12733
L22620 12714
L22657 12696
L22714 12696
L22751 12714
L22770 12733
L22789 12771
L22789 12920
" />
<path d="M22976 12321
L22976 12546
" />
<path d="M22976 12433
L22582 12433
L22639 12471
L22676 12508
L22695 12546
" />
<g transform="rotate(-90 17601.7 11055.6)">
<text x="17601.7" y="11252.5"
textLength="845.426" font-size="524.934" lengthAdjust="spacingAndGlyphs"
text-anchor="middle" opacity="0">R2</text>
</g>
<path d="M17779 11121
L17592 11252
" />
<path d="M17779 11346
L17386 11346
L17386 11196
L17404 11158
L17423 11139
L17461 11121
L17517 11121
L17554 11139
L17573 11158
L17592 11196
L17592 11346
" />
<path d="M17423 10971
L17404 10952
L17386 10914
L17386 10821
L17404 10783
L17423 10765
L17461 10746
L17498 10746
L17554 10765
L17779 10989
L17779 10746
" />
<text x="18074.1" y="12020.2"
textLength="845.426" font-size="524.934" lengthAdjust="spacingAndGlyphs"
text-anchor="middle" opacity="0">R8</text>
<path d="M18008 12001
L17877 11813
" />
<path d="M17783 12001
L17783 11607
L17933 11607
L17971 11626
L17989 11645
L18008 11682
L18008 11738
L17989 11776
L17971 11795
L17933 11813
L17783 11813
" />
<path d="M18233 11776
L18196 11757
L18177 11738
L18158 11701
L18158 11682
L18177 11645
L18196 11626
L18233 11607
L18308 11607
L18345 11626
L18364 11645
L18383 11682
L18383 11701
L18364 11738
L18345 11757
L18308 11776
L18233 11776
L18196 11795
L18177 11813
L18158 11851
L18158 11926
L18177 11963
L18196 11982
L18233 12001
L18308 12001
L18345 11982
L18364 11963
L18383 11926
L18383 11851
L18364 11813
L18345 11795
L18308 11776
" />
<text x="15948.2" y="5642.22"
textLength="845.426" font-size="524.934" lengthAdjust="spacingAndGlyphs"
text-anchor="middle" opacity="0">R9</text>
<path d="M15882 5623
L15751 5435
" />
<path d="M15657 5623
L15657 5229
L15807 5229
L15845 5248
L15863 5267
L15882 5304
L15882 5361
L15863 5398
L15845 5417
L15807 5435
L15657 5435
" />
<path d="M16070 5623
L16145 5623
L16182 5604
L16201 5585
L16238 5529
L16257 5454
L16257 5304
L16238 5267
L16220 5248
L16182 5229
L16107 5229
L16070 5248
L16051 5267
L16032 5304
L16032 5398
L16051 5435
L16070 5454
L16107 5473
L16182 5473
L16220 5454
L16238 5435
L16257 5398
" />
<text x="14924.5" y="8575.29"
textLength="1220.38" font-size="524.934" lengthAdjust="spacingAndGlyphs"
text-anchor="middle" opacity="0">R10</text>
<path d="M14671 8556
L14540 8369
" />
<path d="M14446 8556
L14446 8162
L14596 8162
L14633 8181
L14652 8200
L14671 8237
L14671 8294
L14652 8331
L14633 8350
L14596 8369
L14446 8369
" />
<path d="M15046 8556
L14821 8556
" />
<path d="M14933 8556
L14933 8162
L14896 8219
L14858 8256
L14821 8275
" />
<path d="M15290 8162
L15327 8162
L15365 8181
L15383 8200
L15402 8237
L15421 8312
L15421 8406
L15402 8481
L15383 8519
L15365 8537
L15327 8556
L15290 8556
L15252 8537
L15233 8519
L15215 8481
L15196 8406
L15196 8312
L15215 8237
L15233 8200
L15252 8181
L15290 8162
" />
<text x="21381.2" y="6339.07"
textLength="864.173" font-size="524.934" lengthAdjust="spacingAndGlyphs"
text-anchor="middle" opacity="0">U5</text>
<path d="M21081 5926
L21081 6245
L21100 6282
L21118 6301
L21156 6320
L21231 6320
L21268 6301
L21287 6282
L21306 6245
L21306 5926
" />
<path d="M21681 5926
L21493 5926
L21474 6114
L21493 6095
L21531 6076
L21624 6076
L21662 6095
L21681 6114
L21699 6151
L21699 6245
L21681 6282
L21662 6301
L21624 6320
L21531 6320
L21493 6301
L21474 6282
" />
<text x="21381.2" y="8470.96"
textLength="7267.25" font-size="666.667" lengthAdjust="spacingAndGlyphs"
text-anchor="middle" opacity="0">ATSAMD11C14A-SS</text>
<path d="M17881 8304
L18119 8304
" />
<path d="M17833 8447
L18000 7947
L18166 8447
" />
<path d="M18262 7947
L18547 7947
" />
<path d="M18405 8447
L18405 7947
" />
<path d="M18690 8423
L18762 8447
L18881 8447
L18928 8423
L18952 8399
L18976 8351
L18976 8304
L18952 8256
L18928 8232
L18881 8209
L18785 8185
L18738 8161
L18714 8137
L18690 8090
L18690 8042
L18714 7994
L18738 7970
L18785 7947
L18905 7947
L18976 7970
" />
<path d="M19166 8304
L19405 8304
" />
<path d="M19119 8447
L19285 7947
L19452 8447
" />
<path d="M19619 8447
L19619 7947
L19785 8304
L19952 7947
L19952 8447
" />
<path d="M20190 8447
L20190 7947
L20309 7947
L20381 7970
L20428 8018
L20452 8066
L20476 8161
L20476 8232
L20452 8328
L20428 8375
L20381 8423
L20309 8447
L20190 8447
" />
<path d="M20952 8447
L20666 8447
" />
<path d="M20809 8447
L20809 7947
L20762 8018
L20714 8066
L20666 8090
" />
<path d="M21428 8447
L21143 8447
" />
<path d="M21285 8447
L21285 7947
L21238 8018
L21190 8066
L21143 8090
" />
<path d="M21928 8399
L21905 8423
L21833 8447
L21785 8447
L21714 8423
L21666 8375
L21643 8328
L21619 8232
L21619 8161
L21643 8066
L21666 8018
L21714 7970
L21785 7947
L21833 7947
L21905 7970
L21928 7994
" />
<path d="M22405 8447
L22119 8447
" />
<path d="M22262 8447
L22262 7947
L22214 8018
L22166 8066
L22119 8090
" />
<path d="M22833 8113
L22833 8447
" />
<path d="M22714 7923
L22595 8280
L22905 8280
" />
<path d="M23071 8304
L23309 8304
" />
<path d="M23024 8447
L23190 7947
L23357 8447
" />
<path d="M23524 8256
L23905 8256
" />
<path d="M24119 8423
L24190 8447
L24309 8447
L24357 8423
L24381 8399
L24405 8351
L24405 8304
L24381 8256
L24357 8232
L24309 8209
L24214 8185
L24166 8161
L24143 8137
L24119 8090
L24119 8042
L24143 7994
L24166 7970
L24214 7947
L24333 7947
L24405 7970
" />
<path d="M24595 8423
L24666 8447
L24785 8447
L24833 8423
L24857 8399
L24881 8351
L24881 8304
L24857 8256
L24833 8232
L24785 8209
L24690 8185
L24643 8161
L24619 8137
L24595 8090
L24595 8042
L24619 7994
L24643 7970
L24690 7947
L24809 7947
L24881 7970
" />
</g>
<g style="fill:#000000; fill-opacity:0.0; 
stroke:#000000; stroke-width:40; stroke-opacity:1; 
stroke-linecap:round; stroke-linejoin:round;">
<text x="8310.37" y="4376.47"
textLength="1076.77" font-size="666.667" lengthAdjust="spacingAndGlyphs"
text-anchor="middle" opacity="0">U1</text>
<path d="M7929 3852
L7929 4257
L7953 4305
L7977 4328
L8024 4352
L8119 4352
L8167 4328
L8191 4305
L8215 4257
L8215 3852
" />
<path d="M8715 4352
L8429 4352
" />
<path d="M8572 4352
L8572 3852
L8524 3924
L8477 3971
L8429 3995
" />
<text x="8347.77" y="2589.07"
textLength="14956.8" font-size="666.667" lengthAdjust="spacingAndGlyphs"
text-anchor="middle" opacity="0">Regulator_Linear_LM3480-3.3V-100mA</text>
<path d="M1300 2565
L1133 2327
" />
<path d="M1014 2565
L1014 2065
L1204 2065
L1252 2089
L1276 2112
L1300 2160
L1300 2231
L1276 2279
L1252 2303
L1204 2327
L1014 2327
" />
<path d="M1704 2541
L1657 2565
L1562 2565
L1514 2541
L1490 2493
L1490 2303
L1514 2255
L1562 2231
L1657 2231
L1704 2255
L1728 2303
L1728 2350
L1490 2398
" />
<path d="M2157 2231
L2157 2636
L2133 2684
L2109 2708
L2062 2731
L1990 2731
L1943 2708
" />
<path d="M2157 2541
L2109 2565
L2014 2565
L1966 2541
L1943 2517
L1919 2470
L1919 2327
L1943 2279
L1966 2255
L2014 2231
L2109 2231
L2157 2255
" />
<path d="M2609 2231
L2609 2565
" />
<path d="M2395 2231
L2395 2493
L2419 2541
L2466 2565
L2538 2565
L2585 2541
L2609 2517
" />
<path d="M2919 2565
L2871 2541
L2847 2493
L2847 2065
" />
<path d="M3323 2565
L3323 2303
L3300 2255
L3252 2231
L3157 2231
L3109 2255
" />
<path d="M3323 2541
L3276 2565
L3157 2565
L3109 2541
L3085 2493
L3085 2446
L3109 2398
L3157 2374
L3276 2374
L3323 2350
" />
<path d="M3490 2231
L3681 2231
" />
<path d="M3562 2065
L3562 2493
L3585 2541
L3633 2565
L3681 2565
" />
<path d="M3919 2565
L3871 2541
L3847 2517
L3823 2470
L3823 2327
L3847 2279
L3871 2255
L3919 2231
L3990 2231
L4038 2255
L4062 2279
L4085 2327
L4085 2470
L4062 2517
L4038 2541
L3990 2565
L3919 2565
" />
<path d="M4300 2565
L4300 2231
" />
<path d="M4300 2327
L4323 2279
L4347 2255
L4395 2231
L4443 2231
" />
<path d="M4490 2612
L4871 2612
" />
<path d="M5228 2565
L4990 2565
L4990 2065
" />
<path d="M5395 2565
L5395 2231
" />
<path d="M5395 2065
L5371 2089
L5395 2112
L5419 2089
L5395 2065
L5395 2112
" />
<path d="M5633 2231
L5633 2565
" />
<path d="M5633 2279
L5657 2255
L5704 2231
L5776 2231
L5823 2255
L5847 2303
L5847 2565
" />
<path d="M6276 2541
L6228 2565
L6133 2565
L6085 2541
L6062 2493
L6062 2303
L6085 2255
L6133 2231
L6228 2231
L6276 2255
L6300 2303
L6300 2350
L6062 2398
" />
<path d="M6728 2565
L6728 2303
L6704 2255
L6657 2231
L6562 2231
L6514 2255
" />
<path d="M6728 2541
L6681 2565
L6562 2565
L6514 2541
L6490 2493
L6490 2446
L6514 2398
L6562 2374
L6681 2374
L6728 2350
" />
<path d="M6966 2565
L6966 2231
" />
<path d="M6966 2327
L6990 2279
L7014 2255
L7062 2231
L7109 2231
" />
<path d="M7157 2612
L7538 2612
" />
<path d="M7895 2565
L7657 2565
L7657 2065
" />
<path d="M8062 2565
L8062 2065
L8228 2422
L8395 2065
L8395 2565
" />
<path d="M8585 2065
L8895 2065
L8728 2255
L8800 2255
L8847 2279
L8871 2303
L8895 2350
L8895 2470
L8871 2517
L8847 2541
L8800 2565
L8657 2565
L8609 2541
L8585 2517
" />
<path d="M9323 2231
L9323 2565
" />
<path d="M9204 2041
L9085 2398
L9395 2398
" />
<path d="M9657 2279
L9609 2255
L9585 2231
L9562 2184
L9562 2160
L9585 2112
L9609 2089
L9657 2065
L9752 2065
L9800 2089
L9823 2112
L9847 2160
L9847 2184
L9823 2231
L9800 2255
L9752 2279
L9657 2279
L9609 2303
L9585 2327
L9562 2374
L9562 2470
L9585 2517
L9609 2541
L9657 2565
L9752 2565
L9800 2541
L9823 2517
L9847 2470
L9847 2374
L9823 2327
L9800 2303
L9752 2279
" />
<path d="M10157 2065
L10204 2065
L10252 2089
L10276 2112
L10300 2160
L10323 2255
L10323 2374
L10300 2470
L10276 2517
L10252 2541
L10204 2565
L10157 2565
L10109 2541
L10085 2517
L10062 2470
L10038 2374
L10038 2255
L10062 2160
L10085 2112
L10109 2089
L10157 2065
" />
<path d="M10538 2374
L10919 2374
" />
<path d="M11109 2065
L11419 2065
L11252 2255
L11323 2255
L11371 2279
L11395 2303
L11419 2350
L11419 2470
L11395 2517
L11371 2541
L11323 2565
L11181 2565
L11133 2541
L11109 2517
" />
<path d="M11633 2517
L11657 2541
L11633 2565
L11609 2541
L11633 2517
L11633 2565
" />
<path d="M11823 2065
L12133 2065
L11966 2255
L12038 2255
L12085 2279
L12109 2303
L12133 2350
L12133 2470
L12109 2517
L12085 2541
L12038 2565
L11895 2565
L11847 2541
L11823 2517
" />
<path d="M12276 2065
L12443 2565
L12609 2065
" />
<path d="M12776 2374
L13157 2374
" />
<path d="M13657 2565
L13371 2565
" />
<path d="M13514 2565
L13514 2065
L13466 2136
L13419 2184
L13371 2208
" />
<path d="M13966 2065
L14014 2065
L14062 2089
L14085 2112
L14109 2160
L14133 2255
L14133 2374
L14109 2470
L14085 2517
L14062 2541
L14014 2565
L13966 2565
L13919 2541
L13895 2517
L13871 2470
L13847 2374
L13847 2255
L13871 2160
L13895 2112
L13919 2089
L13966 2065
" />
<path d="M14443 2065
L14490 2065
L14538 2089
L14562 2112
L14585 2160
L14609 2255
L14609 2374
L14585 2470
L14562 2517
L14538 2541
L14490 2565
L14443 2565
L14395 2541
L14371 2517
L14347 2470
L14323 2374
L14323 2255
L14347 2160
L14371 2112
L14395 2089
L14443 2065
" />
<path d="M14823 2565
L14823 2231
" />
<path d="M14823 2279
L14847 2255
L14895 2231
L14966 2231
L15014 2255
L15038 2303
L15038 2565
" />
<path d="M15038 2303
L15062 2255
L15109 2231
L15181 2231
L15228 2255
L15252 2303
L15252 2565
" />
<path d="M15466 2422
L15704 2422
" />
<path d="M15419 2565
L15585 2065
L15752 2565
" />
</g>
<g style="fill:#000000; fill-opacity:0.0; 
stroke:#000000; stroke-width:59.0551; stroke-opacity:1; 
stroke-linecap:round; stroke-linejoin:round;">
<text x="10278.9" y="7472.93"
textLength="1195.61" font-size="524.934" lengthAdjust="spacingAndGlyphs"
text-anchor="middle" opacity="0">R11</text>
<path d="M10025 7454
L9894 7266
" />
<path d="M9800 7454
L9800 7060
L9950 7060
L9988 7079
L10007 7097
L10025 7135
L10025 7191
L10007 7229
L9988 7247
L9950 7266
L9800 7266
" />
<path d="M10400 7454
L10175 7454
" />
<path d="M10288 7454
L10288 7060
L10250 7116
L10213 7154
L10175 7172
" />
<path d="M10775 7454
L10550 7454
" />
<path d="M10663 7454
L10663 7060
L10625 7116
L10588 7154
L10550 7172
" />
<text x="24688.3" y="9028.05"
textLength="845.426" font-size="524.934" lengthAdjust="spacingAndGlyphs"
text-anchor="middle" opacity="0">C9</text>
<path d="M24622 8971
L24603 8990
L24547 9009
L24510 9009
L24453 8990
L24416 8953
L24397 8915
L24378 8840
L24378 8784
L24397 8709
L24416 8671
L24453 8634
L24510 8615
L24547 8615
L24603 8634
L24622 8653
" />
<path d="M24810 9009
L24885 9009
L24922 8990
L24941 8971
L24978 8915
L24997 8840
L24997 8690
L24978 8653
L24960 8634
L24922 8615
L24847 8615
L24810 8634
L24791 8653
L24772 8690
L24772 8784
L24791 8821
L24810 8840
L24847 8859
L24922 8859
L24960 8840
L24978 8821
L24997 8784
" />
<text x="5318.24" y="11744.6"
textLength="845.426" font-size="524.934" lengthAdjust="spacingAndGlyphs"
text-anchor="middle" opacity="0">C1</text>
<path d="M5252 11688
L5233 11707
L5177 11725
L5140 11725
L5083 11707
L5046 11669
L5027 11632
L5008 11557
L5008 11500
L5027 11425
L5046 11388
L5083 11350
L5140 11332
L5177 11332
L5233 11350
L5252 11369
" />
<path d="M5627 11725
L5402 11725
" />
<path d="M5515 11725
L5515 11332
L5477 11388
L5440 11425
L5402 11444
" />
<text x="5318.24" y="6783.95"
textLength="845.426" font-size="524.934" lengthAdjust="spacingAndGlyphs"
text-anchor="middle" opacity="0">C2</text>
<path d="M5252 6727
L5233 6746
L5177 6765
L5140 6765
L5083 6746
L5046 6708
L5027 6671
L5008 6596
L5008 6540
L5027 6465
L5046 6427
L5083 6390
L5140 6371
L5177 6371
L5233 6390
L5252 6409
" />
<path d="M5402 6409
L5421 6390
L5458 6371
L5552 6371
L5590 6390
L5608 6409
L5627 6446
L5627 6483
L5608 6540
L5383 6765
L5627 6765
" />
</g>
<g style="fill:#000000; fill-opacity:0.0; 
stroke:#000000; stroke-width:50; stroke-opacity:1; 
stroke-linecap:round; stroke-linejoin:round;">
<g transform="rotate(-90 3695.8 12044.8)">
<text x="3695.8" y="12294.8"
textLength="1076.77" font-size="666.667" lengthAdjust="spacingAndGlyphs"
text-anchor="middle" opacity="0">Q1</text>
</g>
<path d="M3969 12092
L3945 12140
L3898 12187
L3826 12259
L3802 12306
L3802 12354
" />
<path d="M3921 12330
L3898 12378
L3850 12425
L3755 12449
L3588 12449
L3493 12425
L3445 12378
L3421 12330
L3421 12235
L3445 12187
L3493 12140
L3588 12116
L3755 12116
L3850 12140
L3898 12187
L3921 12235
L3921 12330
" />
<path d="M3921 11640
L3921 11925
" />
<path d="M3921 11782
L3421 11782
L3493 11830
L3541 11878
L3564 11925
" />
<g transform="rotate(-90 4295.8 11794.8)">
<text x="4295.8" y="12044.8"
textLength="9184.05" font-size="666.667" lengthAdjust="spacingAndGlyphs"
text-anchor="middle" opacity="0">MOSFET_P-CH_30V_1.1A</text>
</g>
<path d="M4521 16235
L4021 16235
L4379 16068
L4021 15901
L4521 15901
" />
<path d="M4021 15568
L4021 15473
L4045 15425
L4093 15378
L4188 15354
L4355 15354
L4450 15378
L4498 15425
L4521 15473
L4521 15568
L4498 15616
L4450 15663
L4355 15687
L4188 15687
L4093 15663
L4045 15616
L4021 15568
" />
<path d="M4498 15163
L4521 15092
L4521 14973
L4498 14925
L4474 14901
L4426 14878
L4379 14878
L4331 14901
L4307 14925
L4283 14973
L4260 15068
L4236 15116
L4212 15140
L4164 15163
L4117 15163
L4069 15140
L4045 15116
L4021 15068
L4021 14949
L4045 14878
" />
<path d="M4260 14497
L4260 14663
" />
<path d="M4521 14663
L4021 14663
L4021 14425
" />
<path d="M4260 14235
L4260 14068
" />
<path d="M4521 13997
L4521 14235
L4021 14235
L4021 13997
" />
<path d="M4021 13854
L4021 13568
" />
<path d="M4521 13711
L4021 13711
" />
<path d="M4569 13521
L4569 13140
" />
<path d="M4521 13021
L4021 13021
L4021 12830
L4045 12782
L4069 12759
L4117 12735
L4188 12735
L4236 12759
L4260 12782
L4283 12830
L4283 13021
" />
<path d="M4331 12521
L4331 12140
" />
<path d="M4474 11616
L4498 11640
L4521 11711
L4521 11759
L4498 11830
L4450 11878
L4402 11901
L4307 11925
L4236 11925
L4141 11901
L4093 11878
L4045 11830
L4021 11759
L4021 11711
L4045 11640
L4069 11616
" />
<path d="M4521 11401
L4021 11401
" />
<path d="M4260 11401
L4260 11116
" />
<path d="M4521 11116
L4021 11116
" />
<path d="M4569 10997
L4569 10616
" />
<path d="M4021 10544
L4021 10235
L4212 10401
L4212 10330
L4236 10282
L4260 10259
L4307 10235
L4426 10235
L4474 10259
L4498 10282
L4521 10330
L4521 10473
L4498 10521
L4474 10544
" />
<path d="M4021 9925
L4021 9878
L4045 9830
L4069 9806
L4117 9782
L4212 9759
L4331 9759
L4426 9782
L4474 9806
L4498 9830
L4521 9878
L4521 9925
L4498 9973
L4474 9997
L4426 10021
L4331 10044
L4212 10044
L4117 10021
L4069 9997
L4045 9973
L4021 9925
" />
<path d="M4021 9616
L4521 9449
L4021 9282
" />
<path d="M4569 9235
L4569 8854
" />
<path d="M4521 8473
L4521 8759
" />
<path d="M4521 8616
L4021 8616
L4093 8663
L4141 8711
L4164 8759
" />
<path d="M4474 8259
L4498 8235
L4521 8259
L4498 8282
L4474 8259
L4521 8259
" />
<path d="M4521 7759
L4521 8044
" />
<path d="M4521 7901
L4021 7901
L4093 7949
L4141 7997
L4164 8044
" />
<path d="M4379 7568
L4379 7330
" />
<path d="M4521 7616
L4021 7449
L4521 7282
" />
</g>
<g style="fill:#000000; fill-opacity:0.0; 
stroke:#000000; stroke-width:59.0551; stroke-opacity:1; 
stroke-linecap:round; stroke-linejoin:round;">
<text x="4452.1" y="5110.72"
textLength="833.654" font-size="524.934" lengthAdjust="spacingAndGlyphs"
text-anchor="middle" opacity="0">R3</text>
<path d="M4386 5091
L4255 4904
" />
<path d="M4161 5091
L4161 4698
L4311 4698
L4348 4717
L4367 4735
L4386 4773
L4386 4829
L4367 4867
L4348 4885
L4311 4904
L4161 4904
" />
<path d="M4517 4698
L4761 4698
L4630 4848
L4686 4848
L4723 4867
L4742 4885
L4761 4923
L4761 5016
L4742 5054
L4723 5073
L4686 5091
L4573 5091
L4536 5073
L4517 5054
" />
<text x="5869.42" y="7787.89"
textLength="864.173" font-size="524.934" lengthAdjust="spacingAndGlyphs"
text-anchor="middle" opacity="0">U2</text>
<path d="M5569 7375
L5569 7694
L5588 7731
L5606 7750
L5644 7769
L5719 7769
L5756 7750
L5775 7731
L5794 7694
L5794 7375
" />
<path d="M5963 7412
L5981 7394
L6019 7375
L6113 7375
L6150 7394
L6169 7412
L6188 7450
L6188 7487
L6169 7544
L5944 7769
L6188 7769
" />
<g >
</g>
</g>
<g style="fill:#000000; fill-opacity:0.0; 
stroke:#000000; stroke-width:59.0551; stroke-opacity:1; 
stroke-linecap:round; stroke-linejoin:round;">
</g>
<g style="fill:#000000; fill-opacity:0.0; 
stroke:#000000; stroke-width:39.3701; stroke-opacity:1; 
stroke-linecap:round; stroke-linejoin:round;">
<path d="M6184 2000
L6341 2236
" />
<path d="M6341 2236
L6026 2236
" />
<path d="M6026 2236
L6184 2000
" />
<path d="M6341 1980
L6026 1980
" />
<path d="M5869 1528
L6499 1528
" />
<path d="M5869 2787
L5869 1528
" />
<path d="M6499 2787
L5869 2787
" />
<path d="M6499 1528
L6499 2787
" />
<path d="M18389 2709
L18389 2079
" />
<path d="M19648 2709
L18389 2709
" />
<path d="M19648 2079
L19648 2709
" />
<path d="M18389 2079
L19648 2079
" />
<path d="M8782 5780
L9412 5780
" />
<path d="M8782 7039
L8782 5780
" />
<path d="M9412 7039
L8782 7039
" />
<path d="M9412 5780
L9412 7039
" />
<path d="M11617 4598
L11617 5858
" />
<path d="M11617 5858
L10987 5858
" />
<path d="M10987 5858
L10987 4598
" />
<path d="M10987 4598
L11617 4598
" />
<path d="M15554 9480
L15554 10740
" />
<path d="M15554 10740
L14924 10740
" />
<path d="M14924 10740
L14924 9480
" />
<path d="M14924 9480
L15554 9480
" />
<path d="M15711 2394
L15948 2236
" />
<path d="M15948 2236
L15948 2551
" />
<path d="M15948 2551
L15711 2394
" />
<path d="M15692 2236
L15692 2551
" />
<path d="M15239 2709
L15239 2079
" />
<path d="M16499 2709
L15239 2709
" />
<path d="M16499 2079
L16499 2709
" />
<path d="M15239 2079
L16499 2079
" />
<path d="M23900 13260
L23270 13260
" />
<path d="M23900 12000
L23900 13260
" />
<path d="M23270 12000
L23900 12000
" />
<path d="M23270 13260
L23270 12000
" />
<path d="M16578 10740
L16578 9480
" />
<path d="M16578 9480
L17208 9480
" />
<path d="M17208 9480
L17208 10740
" />
<path d="M17208 10740
L16578 10740
" />
<path d="M17444 12236
L18704 12236
" />
<path d="M18704 12236
L18704 12866
" />
<path d="M18704 12866
L17444 12866
" />
<path d="M17444 12866
L17444 12236
" />
<path d="M15318 5858
L16578 5858
" />
<path d="M16578 5858
L16578 6488
" />
<path d="M16578 6488
L15318 6488
" />
<path d="M15318 6488
L15318 5858
" />
<path d="M15318 7354
L16578 7354
" />
<path d="M16578 7354
L16578 7984
" />
<path d="M16578 7984
L15318 7984
" />
<path d="M15318 7984
L15318 7354
" />
<path d="M20997 6518
L22148 6518
" />
<path d="M22148 6518
L22148 9923
" />
<path d="M22148 9923
L20613 9923
" />
<path d="M20613 9923
L20613 6902
" />
<path d="M20613 6902
L20997 6518
" />
<path d="M10515 4992
L10515 6252
" />
<path d="M10515 6252
L9885 6252
" />
<path d="M9885 6252
L9885 4992
" />
<path d="M9885 4992
L10515 4992
" />
<path d="M24058 9244
L25318 9244
" />
<path d="M25318 9244
L25318 9874
" />
<path d="M25318 9874
L24058 9874
" />
<path d="M24058 9874
L24058 9244
" />
<path d="M5948 10504
L5948 11134
" />
<path d="M4688 10504
L5948 10504
" />
<path d="M4688 11134
L4688 10504
" />
<path d="M5948 11134
L4688 11134
" />
<path d="M5948 6173
L4688 6173
" />
<path d="M4688 6173
L4688 5543
" />
<path d="M4688 5543
L5948 5543
" />
<path d="M5948 5543
L5948 6173
" />
<path d="M5948 4520
L4688 4520
" />
<path d="M4688 4520
L4688 3890
" />
<path d="M4688 3890
L5948 3890
" />
<path d="M5948 3890
L5948 4520
" />
<path d="M6499 6941
L6499 9579
" />
<path d="M5042 9579
L6499 9579
" />
<path d="M5436 6941
L6499 6941
" />
<path d="M5042 7335
L5042 9579
" />
<path d="M5042 7335
L5436 6941
" />
<g >
</g>
<g >
</g>
<g >
</g>
<g >
</g>
<g >
</g>
<g >
</g>
<g >
</g>
<g >
</g>
<g >
</g>
<g >
</g>
<g >
</g>
<g >
</g>
<g >
</g>
<g >
</g>
<g >
</g>
<g >
</g>
<g >
</g>
<g >
</g>
<g >
</g>
<g >
</g>
<g >
</g>
<g >
</g>
<g >
</g>
<g >
</g>
<g >
</g>
<g >
</g>
<g >
</g>
<g >
</g>
</g>
<g style="fill:#000000; fill-opacity:0.0; 
stroke:#000000; stroke-width:39.3701; stroke-opacity:1; 
stroke-linecap:round; stroke-linejoin:round;">
</g>
<g style="fill:#000000; fill-opacity:0.0; 
stroke:#000000; stroke-width:59.0551; stroke-opacity:1; 
stroke-linecap:round; stroke-linejoin:round;">
<g transform="rotate(-90 5318.24 1370.57)">
<text x="5318.24" y="1567.42"
textLength="1145.39" font-size="524.934" lengthAdjust="spacingAndGlyphs"
text-anchor="middle" opacity="0">LED</text>
</g>
<path d="M5496 1623
L5496 1811
L5102 1811
" />
<path d="M5290 1492
L5290 1361
" />
<path d="M5496 1304
L5496 1492
L5102 1492
L5102 1304
" />
<path d="M5496 1136
L5102 1136
L5102 1042
L5121 986
L5158 948
L5196 929
L5271 911
L5327 911
L5402 929
L5440 948
L5477 986
L5496 1042
L5496 1136
" />
<text x="19019" y="3339.07"
textLength="1201.63" font-size="524.934" lengthAdjust="spacingAndGlyphs"
text-anchor="middle" opacity="0">100</text>
<path d="M18756 3320
L18531 3320
" />
<path d="M18644 3320
L18644 2926
L18606 2982
L18569 3020
L18531 3039
" />
<path d="M19000 2926
L19037 2926
L19075 2945
L19094 2964
L19112 3001
L19131 3076
L19131 3170
L19112 3245
L19094 3282
L19075 3301
L19037 3320
L19000 3320
L18962 3301
L18944 3282
L18925 3245
L18906 3170
L18906 3076
L18925 3001
L18944 2964
L18962 2945
L19000 2926
" />
<path d="M19375 2926
L19412 2926
L19450 2945
L19468 2964
L19487 3001
L19506 3076
L19506 3170
L19487 3245
L19468 3282
L19450 3301
L19412 3320
L19375 3320
L19337 3301
L19318 3282
L19300 3245
L19281 3170
L19281 3076
L19300 3001
L19318 2964
L19337 2945
L19375 2926
" />
</g>
<g style="fill:#000000; fill-opacity:0.0; 
stroke:#000000; stroke-width:41.3386; stroke-opacity:1; 
stroke-linecap:round; stroke-linejoin:round;">
<text x="19019" y="2531.98"
textLength="614.83" font-size="367.454" lengthAdjust="spacingAndGlyphs"
text-anchor="middle" opacity="0">R7</text>
<path d="M18973 2518
L18881 2387
" />
<path d="M18815 2518
L18815 2243
L18920 2243
L18946 2256
L18959 2269
L18973 2295
L18973 2335
L18959 2361
L18946 2374
L18920 2387
L18815 2387
" />
<path d="M19064 2243
L19248 2243
L19130 2518
" />
</g>
<g style="fill:#000000; fill-opacity:0.0; 
stroke:#000000; stroke-width:59.0551; stroke-opacity:1; 
stroke-linecap:round; stroke-linejoin:round;">
<text x="8152.89" y="5819.39"
textLength="1122.36" font-size="524.934" lengthAdjust="spacingAndGlyphs"
text-anchor="middle" opacity="0">1uF</text>
<path d="M7918 5800
L7693 5800
" />
<path d="M7806 5800
L7806 5406
L7768 5463
L7731 5500
L7693 5519
" />
<path d="M8255 5538
L8255 5800
" />
<path d="M8087 5538
L8087 5744
L8106 5781
L8143 5800
L8199 5800
L8237 5781
L8255 5763
" />
<path d="M8574 5594
L8443 5594
" />
<path d="M8443 5800
L8443 5406
L8630 5406
" />
</g>
<g style="fill:#000000; fill-opacity:0.0; 
stroke:#000000; stroke-width:41.3386; stroke-opacity:1; 
stroke-linecap:round; stroke-linejoin:round;">
<g transform="rotate(-90 9097.77 6409.94)">
<text x="9097.77" y="6547.73"
textLength="614.83" font-size="367.454" lengthAdjust="spacingAndGlyphs"
text-anchor="middle" opacity="0">C3</text>
</g>
<path d="M9196 6455
L9209 6468
L9222 6508
L9222 6534
L9209 6573
L9183 6600
L9156 6613
L9104 6626
L9064 6626
L9012 6613
L8986 6600
L8959 6573
L8946 6534
L8946 6508
L8959 6468
L8973 6455
" />
<path d="M8946 6364
L8946 6193
L9051 6285
L9051 6245
L9064 6219
L9078 6206
L9104 6193
L9169 6193
L9196 6206
L9209 6219
L9222 6245
L9222 6324
L9209 6350
L9196 6364
" />
</g>
<g style="fill:#000000; fill-opacity:0.0; 
stroke:#000000; stroke-width:59.0551; stroke-opacity:1; 
stroke-linecap:round; stroke-linejoin:round;">
<text x="11381.2" y="3378.44"
textLength="1684.79" font-size="524.934" lengthAdjust="spacingAndGlyphs"
text-anchor="middle" opacity="0">0.1uF</text>
<path d="M10734 2965
L10771 2965
L10809 2984
L10828 3003
L10846 3040
L10865 3115
L10865 3209
L10846 3284
L10828 3322
L10809 3340
L10771 3359
L10734 3359
L10696 3340
L10678 3322
L10659 3284
L10640 3209
L10640 3115
L10659 3040
L10678 3003
L10696 2984
L10734 2965
" />
<path d="M11034 3322
L11053 3340
L11034 3359
L11015 3340
L11034 3322
L11034 3359
" />
<path d="M11428 3359
L11203 3359
" />
<path d="M11315 3359
L11315 2965
L11278 3022
L11240 3059
L11203 3078
" />
<path d="M11765 3097
L11765 3359
" />
<path d="M11596 3097
L11596 3303
L11615 3340
L11653 3359
L11709 3359
L11746 3340
L11765 3322
" />
<path d="M12084 3153
L11953 3153
" />
<path d="M11953 3359
L11953 2965
L12140 2965
" />
</g>
<g style="fill:#000000; fill-opacity:0.0; 
stroke:#000000; stroke-width:41.3386; stroke-opacity:1; 
stroke-linecap:round; stroke-linejoin:round;">
<g transform="rotate(-90 11302.5 5228.84)">
<text x="11302.5" y="5366.63"
textLength="614.83" font-size="367.454" lengthAdjust="spacingAndGlyphs"
text-anchor="middle" opacity="0">C6</text>
</g>
<path d="M11400 5274
L11414 5287
L11427 5327
L11427 5353
L11414 5392
L11387 5419
L11361 5432
L11309 5445
L11269 5445
L11217 5432
L11190 5419
L11164 5392
L11151 5353
L11151 5327
L11164 5287
L11177 5274
" />
<path d="M11151 5038
L11151 5091
L11164 5117
L11177 5130
L11217 5156
L11269 5169
L11374 5169
L11400 5156
L11414 5143
L11427 5117
L11427 5064
L11414 5038
L11400 5025
L11374 5012
L11309 5012
L11282 5025
L11269 5038
L11256 5064
L11256 5117
L11269 5143
L11282 5156
L11309 5169
" />
</g>
<g style="fill:#000000; fill-opacity:0.0; 
stroke:#000000; stroke-width:59.0551; stroke-opacity:1; 
stroke-linecap:round; stroke-linejoin:round;">
<g transform="rotate(-90 14491.5 10110.7)">
<text x="14491.5" y="10307.6"
textLength="1684.79" font-size="524.934" lengthAdjust="spacingAndGlyphs"
text-anchor="middle" opacity="0">0.1uF</text>
</g>
<path d="M14275 10757
L14275 10720
L14294 10682
L14313 10663
L14350 10645
L14425 10626
L14519 10626
L14594 10645
L14632 10663
L14650 10682
L14669 10720
L14669 10757
L14650 10795
L14632 10813
L14594 10832
L14519 10851
L14425 10851
L14350 10832
L14313 10813
L14294 10795
L14275 10757
" />
<path d="M14632 10457
L14650 10438
L14669 10457
L14650 10476
L14632 10457
L14669 10457
" />
<path d="M14669 10063
L14669 10288
" />
<path d="M14669 10176
L14275 10176
L14332 10213
L14369 10251
L14388 10288
" />
<path d="M14407 9726
L14669 9726
" />
<path d="M14407 9895
L14613 9895
L14650 9876
L14669 9838
L14669 9782
L14650 9745
L14632 9726
" />
<path d="M14463 9407
L14463 9538
" />
<path d="M14669 9538
L14275 9538
L14275 9351
" />
</g>
<g style="fill:#000000; fill-opacity:0.0; 
stroke:#000000; stroke-width:41.3386; stroke-opacity:1; 
stroke-linecap:round; stroke-linejoin:round;">
<g transform="rotate(-90 15239.5 10110.7)">
<text x="15239.5" y="10248.5"
textLength="614.83" font-size="367.454" lengthAdjust="spacingAndGlyphs"
text-anchor="middle" opacity="0">C7</text>
</g>
<path d="M15337 10156
L15351 10169
L15364 10209
L15364 10235
L15351 10274
L15324 10301
L15298 10314
L15246 10327
L15206 10327
L15154 10314
L15127 10301
L15101 10274
L15088 10235
L15088 10209
L15101 10169
L15114 10156
" />
<path d="M15088 10064
L15088 9881
L15364 9999
" />
</g>
<g style="fill:#000000; fill-opacity:0.0; 
stroke:#000000; stroke-width:59.0551; stroke-opacity:1; 
stroke-linecap:round; stroke-linejoin:round;">
<text x="15869.4" y="3339.07"
textLength="1122.36" font-size="524.934" lengthAdjust="spacingAndGlyphs"
text-anchor="middle" opacity="0">LED</text>
<path d="M15616 3320
L15428 3320
L15428 2926
" />
<path d="M15747 3114
L15878 3114
" />
<path d="M15935 3320
L15747 3320
L15747 2926
L15935 2926
" />
<path d="M16103 3320
L16103 2926
L16197 2926
L16253 2945
L16291 2982
L16309 3020
L16328 3095
L16328 3151
L16309 3226
L16291 3264
L16253 3301
L16197 3320
L16103 3320
" />
<g transform="rotate(-90 24334 12630.4)">
<text x="24334" y="12827.3"
textLength="451.725" font-size="524.934" lengthAdjust="spacingAndGlyphs"
text-anchor="middle" opacity="0">0</text>
</g>
<path d="M24118 12649
L24118 12611
L24137 12574
L24155 12555
L24193 12536
L24268 12517
L24362 12517
L24437 12536
L24474 12555
L24493 12574
L24512 12611
L24512 12649
L24493 12686
L24474 12705
L24437 12724
L24362 12742
L24268 12742
L24193 12724
L24155 12705
L24137 12686
L24118 12649
" />
</g>
<g style="fill:#000000; fill-opacity:0.0; 
stroke:#000000; stroke-width:41.3386; stroke-opacity:1; 
stroke-linecap:round; stroke-linejoin:round;">
<g transform="rotate(-90 23586 12630.4)">
<text x="23586" y="12768.2"
textLength="614.83" font-size="367.454" lengthAdjust="spacingAndGlyphs"
text-anchor="middle" opacity="0">R1</text>
</g>
<path d="M23710 12676
L23579 12768
" />
<path d="M23710 12833
L23435 12833
L23435 12728
L23448 12702
L23461 12689
L23487 12676
L23526 12676
L23553 12689
L23566 12702
L23579 12728
L23579 12833
" />
<path d="M23710 12413
L23710 12571
" />
<path d="M23710 12492
L23435 12492
L23474 12518
L23500 12545
L23513 12571
" />
</g>
<g style="fill:#000000; fill-opacity:0.0; 
stroke:#000000; stroke-width:59.0551; stroke-opacity:1; 
stroke-linecap:round; stroke-linejoin:round;">
<g transform="rotate(-90 17601.7 9874.5)">
<text x="17601.7" y="10071.4"
textLength="1197.35" font-size="524.934" lengthAdjust="spacingAndGlyphs"
text-anchor="middle" opacity="0">10K</text>
</g>
<path d="M17779 10146
L17779 10371
" />
<path d="M17779 10258
L17386 10258
L17442 10296
L17479 10333
L17498 10371
" />
<path d="M17386 9902
L17386 9865
L17404 9827
L17423 9808
L17461 9790
L17536 9771
L17629 9771
L17704 9790
L17742 9808
L17761 9827
L17779 9865
L17779 9902
L17761 9940
L17742 9958
L17704 9977
L17629 9996
L17536 9996
L17461 9977
L17423 9958
L17404 9940
L17386 9902
" />
<path d="M17779 9602
L17386 9602
" />
<path d="M17779 9377
L17554 9546
" />
<path d="M17386 9377
L17611 9602
" />
</g>
<g style="fill:#000000; fill-opacity:0.0; 
stroke:#000000; stroke-width:41.3386; stroke-opacity:1; 
stroke-linecap:round; stroke-linejoin:round;">
<g transform="rotate(-90 16893 10110.7)">
<text x="16893" y="10248.5"
textLength="614.83" font-size="367.454" lengthAdjust="spacingAndGlyphs"
text-anchor="middle" opacity="0">R2</text>
</g>
<path d="M17017 10156
L16886 10248
" />
<path d="M17017 10314
L16742 10314
L16742 10209
L16755 10182
L16768 10169
L16794 10156
L16833 10156
L16860 10169
L16873 10182
L16886 10209
L16886 10314
" />
<path d="M16768 10051
L16755 10038
L16742 10012
L16742 9946
L16755 9920
L16768 9907
L16794 9894
L16820 9894
L16860 9907
L17017 10064
L17017 9894
" />
</g>
<g style="fill:#000000; fill-opacity:0.0; 
stroke:#000000; stroke-width:59.0551; stroke-opacity:1; 
stroke-linecap:round; stroke-linejoin:round;">
<text x="18074.1" y="13496.6"
textLength="1197.35" font-size="524.934" lengthAdjust="spacingAndGlyphs"
text-anchor="middle" opacity="0">10K</text>
<path d="M17802 13477
L17577 13477
" />
<path d="M17689 13477
L17689 13084
L17652 13140
L17614 13177
L17577 13196
" />
<path d="M18046 13084
L18083 13084
L18121 13102
L18139 13121
L18158 13159
L18177 13234
L18177 13327
L18158 13402
L18139 13440
L18121 13459
L18083 13477
L18046 13477
L18008 13459
L17989 13440
L17971 13402
L17952 13327
L17952 13234
L17971 13159
L17989 13121
L18008 13102
L18046 13084
" />
<path d="M18345 13477
L18345 13084
" />
<path d="M18570 13477
L18402 13252
" />
<path d="M18570 13084
L18345 13309
" />
</g>
<g style="fill:#000000; fill-opacity:0.0; 
stroke:#000000; stroke-width:41.3386; stroke-opacity:1; 
stroke-linecap:round; stroke-linejoin:round;">
<text x="18074.1" y="12689.5"
textLength="614.83" font-size="367.454" lengthAdjust="spacingAndGlyphs"
text-anchor="middle" opacity="0">R8</text>
<path d="M18028 12676
L17936 12545
" />
<path d="M17870 12676
L17870 12400
L17975 12400
L18001 12413
L18015 12426
L18028 12453
L18028 12492
L18015 12518
L18001 12531
L17975 12545
L17870 12545
" />
<path d="M18185 12518
L18159 12505
L18146 12492
L18133 12466
L18133 12453
L18146 12426
L18159 12413
L18185 12400
L18238 12400
L18264 12413
L18277 12426
L18290 12453
L18290 12466
L18277 12492
L18264 12505
L18238 12518
L18185 12518
L18159 12531
L18146 12545
L18133 12571
L18133 12623
L18146 12650
L18159 12663
L18185 12676
L18238 12676
L18264 12663
L18277 12650
L18290 12623
L18290 12571
L18277 12545
L18264 12531
L18238 12518
" />
</g>
<g style="fill:#000000; fill-opacity:0.0; 
stroke:#000000; stroke-width:59.0551; stroke-opacity:1; 
stroke-linecap:round; stroke-linejoin:round;">
<text x="16814.3" y="7079.23"
textLength="1122.36" font-size="524.934" lengthAdjust="spacingAndGlyphs"
text-anchor="middle" opacity="0">10k</text>
<path d="M16579 7060
L16354 7060
" />
<path d="M16467 7060
L16467 6666
L16429 6723
L16392 6760
L16354 6779
" />
<path d="M16823 6666
L16861 6666
L16898 6685
L16917 6704
L16936 6741
L16954 6816
L16954 6910
L16936 6985
L16917 7022
L16898 7041
L16861 7060
L16823 7060
L16786 7041
L16767 7022
L16748 6985
L16729 6910
L16729 6816
L16748 6741
L16767 6704
L16786 6685
L16823 6666
" />
<path d="M17123 7060
L17123 6666
" />
<path d="M17161 6910
L17273 7060
" />
<path d="M17273 6798
L17123 6947
" />
</g>
<g style="fill:#000000; fill-opacity:0.0; 
stroke:#000000; stroke-width:41.3386; stroke-opacity:1; 
stroke-linecap:round; stroke-linejoin:round;">
<text x="15948.2" y="6311.51"
textLength="614.83" font-size="367.454" lengthAdjust="spacingAndGlyphs"
text-anchor="middle" opacity="0">R9</text>
<path d="M15902 6298
L15810 6167
" />
<path d="M15744 6298
L15744 6022
L15849 6022
L15875 6035
L15889 6049
L15902 6075
L15902 6114
L15889 6140
L15875 6154
L15849 6167
L15744 6167
" />
<path d="M16033 6298
L16085 6298
L16112 6285
L16125 6272
L16151 6232
L16164 6180
L16164 6075
L16151 6049
L16138 6035
L16112 6022
L16059 6022
L16033 6035
L16020 6049
L16007 6075
L16007 6140
L16020 6167
L16033 6180
L16059 6193
L16112 6193
L16138 6180
L16151 6167
L16164 6140
" />
</g>
<g style="fill:#000000; fill-opacity:0.0; 
stroke:#000000; stroke-width:59.0551; stroke-opacity:1; 
stroke-linecap:round; stroke-linejoin:round;">
<text x="16341.9" y="8614.66"
textLength="1122.36" font-size="524.934" lengthAdjust="spacingAndGlyphs"
text-anchor="middle" opacity="0">10k</text>
<path d="M16107 8595
L15882 8595
" />
<path d="M15995 8595
L15995 8202
L15957 8258
L15920 8295
L15882 8314
" />
<path d="M16351 8202
L16388 8202
L16426 8220
L16444 8239
L16463 8277
L16482 8352
L16482 8445
L16463 8520
L16444 8558
L16426 8577
L16388 8595
L16351 8595
L16313 8577
L16294 8558
L16276 8520
L16257 8445
L16257 8352
L16276 8277
L16294 8239
L16313 8220
L16351 8202
" />
<path d="M16651 8595
L16651 8202
" />
<path d="M16688 8445
L16801 8595
" />
<path d="M16801 8333
L16651 8483
" />
</g>
<g style="fill:#000000; fill-opacity:0.0; 
stroke:#000000; stroke-width:41.3386; stroke-opacity:1; 
stroke-linecap:round; stroke-linejoin:round;">
<text x="15948.2" y="7807.58"
textLength="877.296" font-size="367.454" lengthAdjust="spacingAndGlyphs"
text-anchor="middle" opacity="0">R10</text>
<path d="M15770 7794
L15679 7663
" />
<path d="M15613 7794
L15613 7518
L15718 7518
L15744 7531
L15757 7545
L15770 7571
L15770 7610
L15757 7636
L15744 7650
L15718 7663
L15613 7663
" />
<path d="M16033 7794
L15875 7794
" />
<path d="M15954 7794
L15954 7518
L15928 7558
L15902 7584
L15875 7597
" />
<path d="M16204 7518
L16230 7518
L16256 7531
L16269 7545
L16282 7571
L16295 7623
L16295 7689
L16282 7741
L16269 7768
L16256 7781
L16230 7794
L16204 7794
L16177 7781
L16164 7768
L16151 7741
L16138 7689
L16138 7623
L16151 7571
L16164 7545
L16177 7531
L16204 7518
" />
</g>
<g style="fill:#000000; fill-opacity:0.0; 
stroke:#000000; stroke-width:59.0551; stroke-opacity:1; 
stroke-linecap:round; stroke-linejoin:round;">
<text x="9648.95" y="4874.5"
textLength="428.693" font-size="524.934" lengthAdjust="spacingAndGlyphs"
text-anchor="middle" opacity="0">0</text>
<path d="M9630 4462
L9667 4462
L9705 4480
L9723 4499
L9742 4537
L9761 4612
L9761 4705
L9742 4780
L9723 4818
L9705 4837
L9667 4855
L9630 4855
L9592 4837
L9573 4818
L9555 4780
L9536 4705
L9536 4612
L9555 4537
L9573 4499
L9592 4480
L9630 4462
" />
</g>
<g style="fill:#000000; fill-opacity:0.0; 
stroke:#000000; stroke-width:41.3386; stroke-opacity:1; 
stroke-linecap:round; stroke-linejoin:round;">
<g transform="rotate(-90 10200.1 5622.54)">
<text x="10200.1" y="5760.33"
textLength="877.296" font-size="367.454" lengthAdjust="spacingAndGlyphs"
text-anchor="middle" opacity="0">R11</text>
</g>
<path d="M10324 5799
L10193 5891
" />
<path d="M10324 5957
L10049 5957
L10049 5852
L10062 5825
L10075 5812
L10101 5799
L10141 5799
L10167 5812
L10180 5825
L10193 5852
L10193 5957
" />
<path d="M10324 5537
L10324 5694
" />
<path d="M10324 5615
L10049 5615
L10088 5642
L10114 5668
L10127 5694
" />
<path d="M10324 5274
L10324 5432
" />
<path d="M10324 5353
L10049 5353
L10088 5379
L10114 5406
L10127 5432
" />
</g>
<g style="fill:#000000; fill-opacity:0.0; 
stroke:#000000; stroke-width:59.0551; stroke-opacity:1; 
stroke-linecap:round; stroke-linejoin:round;">
<text x="24688.3" y="10504.4"
textLength="1684.79" font-size="524.934" lengthAdjust="spacingAndGlyphs"
text-anchor="middle" opacity="0">0.1uF</text>
<path d="M24041 10091
L24079 10091
L24116 10110
L24135 10129
L24154 10166
L24172 10241
L24172 10335
L24154 10410
L24135 10448
L24116 10466
L24079 10485
L24041 10485
L24004 10466
L23985 10448
L23966 10410
L23947 10335
L23947 10241
L23966 10166
L23985 10129
L24004 10110
L24041 10091
" />
<path d="M24341 10448
L24360 10466
L24341 10485
L24322 10466
L24341 10448
L24341 10485
" />
<path d="M24735 10485
L24510 10485
" />
<path d="M24622 10485
L24622 10091
L24585 10148
L24547 10185
L24510 10204
" />
<path d="M25072 10223
L25072 10485
" />
<path d="M24903 10223
L24903 10429
L24922 10466
L24960 10485
L25016 10485
L25053 10466
L25072 10448
" />
<path d="M25391 10279
L25260 10279
" />
<path d="M25260 10485
L25260 10091
L25447 10091
" />
</g>
<g style="fill:#000000; fill-opacity:0.0; 
stroke:#000000; stroke-width:41.3386; stroke-opacity:1; 
stroke-linecap:round; stroke-linejoin:round;">
<text x="24688.3" y="9697.34"
textLength="614.83" font-size="367.454" lengthAdjust="spacingAndGlyphs"
text-anchor="middle" opacity="0">C9</text>
<path d="M24642 9657
L24629 9671
L24589 9684
L24563 9684
L24524 9671
L24498 9644
L24484 9618
L24471 9566
L24471 9526
L24484 9474
L24498 9447
L24524 9421
L24563 9408
L24589 9408
L24629 9421
L24642 9434
" />
<path d="M24773 9684
L24826 9684
L24852 9671
L24865 9657
L24891 9618
L24904 9566
L24904 9461
L24891 9434
L24878 9421
L24852 9408
L24799 9408
L24773 9421
L24760 9434
L24747 9461
L24747 9526
L24760 9552
L24773 9566
L24799 9579
L24852 9579
L24878 9566
L24891 9552
L24904 9526
" />
</g>
<g style="fill:#000000; fill-opacity:0.0; 
stroke:#000000; stroke-width:59.0551; stroke-opacity:1; 
stroke-linecap:round; stroke-linejoin:round;">
<text x="5318.24" y="10268.2"
textLength="447.441" font-size="524.934" lengthAdjust="spacingAndGlyphs"
text-anchor="middle" opacity="0">C</text>
<path d="M5440 10211
L5421 10230
L5365 10249
L5327 10249
L5271 10230
L5233 10193
L5215 10155
L5196 10080
L5196 10024
L5215 9949
L5233 9911
L5271 9874
L5327 9855
L5365 9855
L5421 9874
L5440 9893
" />
</g>
<g style="fill:#000000; fill-opacity:0.0; 
stroke:#000000; stroke-width:41.3386; stroke-opacity:1; 
stroke-linecap:round; stroke-linejoin:round;">
<text x="5318.24" y="10957.2"
textLength="614.83" font-size="367.454" lengthAdjust="spacingAndGlyphs"
text-anchor="middle" opacity="0">C1</text>
<path d="M5272 10917
L5259 10930
L5219 10944
L5193 10944
L5154 10930
L5127 10904
L5114 10878
L5101 10825
L5101 10786
L5114 10734
L5127 10707
L5154 10681
L5193 10668
L5219 10668
L5259 10681
L5272 10694
" />
<path d="M5534 10944
L5377 10944
" />
<path d="M5456 10944
L5456 10668
L5429 10707
L5403 10734
L5377 10747
" />
</g>
<g style="fill:#000000; fill-opacity:0.0; 
stroke:#000000; stroke-width:59.0551; stroke-opacity:1; 
stroke-linecap:round; stroke-linejoin:round;">
<text x="6105.64" y="5268.21"
textLength="447.441" font-size="524.934" lengthAdjust="spacingAndGlyphs"
text-anchor="middle" opacity="0">C</text>
<path d="M6227 5211
L6208 5230
L6152 5249
L6115 5249
L6058 5230
L6021 5193
L6002 5155
L5983 5080
L5983 5024
L6002 4949
L6021 4911
L6058 4874
L6115 4855
L6152 4855
L6208 4874
L6227 4893
" />
</g>
<g style="fill:#000000; fill-opacity:0.0; 
stroke:#000000; stroke-width:41.3386; stroke-opacity:1; 
stroke-linecap:round; stroke-linejoin:round;">
<text x="5318.24" y="5996.55"
textLength="614.83" font-size="367.454" lengthAdjust="spacingAndGlyphs"
text-anchor="middle" opacity="0">C2</text>
<path d="M5272 5957
L5259 5970
L5219 5983
L5193 5983
L5154 5970
L5127 5944
L5114 5917
L5101 5865
L5101 5825
L5114 5773
L5127 5747
L5154 5720
L5193 5707
L5219 5707
L5259 5720
L5272 5734
" />
<path d="M5377 5734
L5390 5720
L5416 5707
L5482 5707
L5508 5720
L5521 5734
L5534 5760
L5534 5786
L5521 5825
L5364 5983
L5534 5983
" />
</g>
<g style="fill:#000000; fill-opacity:0.0; 
stroke:#000000; stroke-width:59.0551; stroke-opacity:1; 
stroke-linecap:round; stroke-linejoin:round;">
<text x="5082.02" y="3535.92"
textLength="1178.6" font-size="524.934" lengthAdjust="spacingAndGlyphs"
text-anchor="middle" opacity="0">150</text>
<path d="M4819 3517
L4594 3517
" />
<path d="M4707 3517
L4707 3123
L4669 3179
L4632 3217
L4594 3235
" />
<path d="M5175 3123
L4988 3123
L4969 3310
L4988 3292
L5025 3273
L5119 3273
L5157 3292
L5175 3310
L5194 3348
L5194 3442
L5175 3479
L5157 3498
L5119 3517
L5025 3517
L4988 3498
L4969 3479
" />
<path d="M5438 3123
L5475 3123
L5513 3142
L5531 3160
L5550 3198
L5569 3273
L5569 3367
L5550 3442
L5531 3479
L5513 3498
L5475 3517
L5438 3517
L5400 3498
L5381 3479
L5363 3442
L5344 3367
L5344 3273
L5363 3198
L5381 3160
L5400 3142
L5438 3123
" />
</g>
<g style="fill:#000000; fill-opacity:0.0; 
stroke:#000000; stroke-width:41.3386; stroke-opacity:1; 
stroke-linecap:round; stroke-linejoin:round;">
<text x="5318.24" y="4343.01"
textLength="614.83" font-size="367.454" lengthAdjust="spacingAndGlyphs"
text-anchor="middle" opacity="0">R3</text>
<path d="M5272 4329
L5180 4198
" />
<path d="M5114 4329
L5114 4054
L5219 4054
L5246 4067
L5259 4080
L5272 4106
L5272 4146
L5259 4172
L5246 4185
L5219 4198
L5114 4198
" />
<path d="M5364 4054
L5534 4054
L5442 4159
L5482 4159
L5508 4172
L5521 4185
L5534 4211
L5534 4277
L5521 4303
L5508 4316
L5482 4329
L5403 4329
L5377 4316
L5364 4303
" />
</g>
<g style="fill:#000000; fill-opacity:0.0; 
stroke:#000000; stroke-width:47.2441; stroke-opacity:1; 
stroke-linecap:round; stroke-linejoin:round;">
<g transform="rotate(-90 5534.78 8181.59)">
<text x="5534.78" y="8339.07"
textLength="683.661" font-size="419.947" lengthAdjust="spacingAndGlyphs"
text-anchor="middle" opacity="0">U2</text>
</g>
<path d="M5362 8421
L5617 8421
L5647 8406
L5662 8391
L5677 8361
L5677 8301
L5662 8271
L5647 8256
L5617 8241
L5362 8241
" />
<path d="M5392 8106
L5377 8091
L5362 8061
L5362 7986
L5377 7956
L5392 7941
L5422 7926
L5452 7926
L5497 7941
L5677 8121
L5677 7926
" />
<g >
</g>
</g>
<g style="fill:#000000; fill-opacity:0.0; 
stroke:#000000; stroke-width:47.2441; stroke-opacity:1; 
stroke-linecap:round; stroke-linejoin:round;">
</g>
<g style="fill:#000000; fill-opacity:0.0; 
stroke:#000000; stroke-width:78.7402; stroke-opacity:1; 
stroke-linecap:round; stroke-linejoin:round;">
<path d="M4726 1456
L4718 1537
" />
<path d="M4718 1537
L4712 1568
" />
<path d="M4712 1343
L4724 1424
" />
<path d="M4724 1424
L4726 1456
" />
</g>
<g style="fill:#000000; fill-opacity:1.0; 
stroke:#000000; stroke-width:0; stroke-opacity:1; 
stroke-linecap:round; stroke-linejoin:round;">
<circle cx="4726.88" cy="1456.26" r="39.3701" /> 
</g>
<g style="fill:#000000; fill-opacity:1.0; 
stroke:#000000; stroke-width:78.7402; stroke-opacity:1; 
stroke-linecap:round; stroke-linejoin:round;">
</g>
<g style="fill:#000000; fill-opacity:0.0; 
stroke:#000000; stroke-width:78.7402; stroke-opacity:1; 
stroke-linecap:round; stroke-linejoin:round;">
<path d="M4712 1568
L4684 1644
" />
<path d="M4684 1644
L4669 1672
" />
</g>
<g style="fill:#000000; fill-opacity:1.0; 
stroke:#000000; stroke-width:0; stroke-opacity:1; 
stroke-linecap:round; stroke-linejoin:round;">
<circle cx="28371.2" cy="14853.2" r="39.3701" /> 
</g>
<g style="fill:#000000; fill-opacity:1.0; 
stroke:#000000; stroke-width:393.701; stroke-opacity:1; 
stroke-linecap:round; stroke-linejoin:round;">
</g>
<g style="fill:#000000; fill-opacity:0.0; 
stroke:#000000; stroke-width:393.701; stroke-opacity:1; 
stroke-linecap:round; stroke-linejoin:round;">
<path d="M29491 860
L29491 15753
" />
</g>
<g style="fill:#000000; fill-opacity:0.0; 
stroke:#000000; stroke-width:78.7402; stroke-opacity:1; 
stroke-linecap:round; stroke-linejoin:round;">
<path d="M28149 15237
L28077 15271
" />
<path d="M28077 15271
L28042 15281
" />
<path d="M4600 1762
L4537 1814
" />
<path d="M4537 1814
L4510 1831
" />
<path d="M4669 1672
L4621 1738
" />
<path d="M4621 1738
L4600 1762
" />
<path d="M28042 14424
L28117 14451
" />
<path d="M28117 14451
L28149 14468
" />
<path d="M27613 14539
L27675 14488
" />
<path d="M27675 14488
L27705 14468
" />
<path d="M27483 14853
L27490 14773
" />
<path d="M27490 14773
L27498 14738
" />
</g>
<g style="fill:#000000; fill-opacity:0.0; 
stroke:#000000; stroke-width:393.701; stroke-opacity:1; 
stroke-linecap:round; stroke-linejoin:round;">
<path d="M29163 16326
L28827 16417
" />
</g>
<g style="fill:#000000; fill-opacity:0.0; 
stroke:#000000; stroke-width:78.7402; stroke-opacity:1; 
stroke-linecap:round; stroke-linejoin:round;">
<path d="M27812 15281
L27737 15254
" />
<path d="M27737 15254
L27705 15237
" />
<path d="M27927 15297
L27847 15289
" />
<path d="M27847 15289
L27812 15281
" />
<path d="M3919 1672
L3885 1598
" />
<path d="M3885 1598
L3876 1568
" />
<path d="M3988 1762
L3936 1699
" />
<path d="M3936 1699
L3919 1672
" />
<path d="M4078 1081
L4151 1047
" />
<path d="M4151 1047
L4181 1038
" />
<path d="M3988 1150
L4051 1098
" />
<path d="M4051 1098
L4078 1081
" />
<path d="M27705 14468
L27777 14435
" />
<path d="M27777 14435
L27812 14424
" />
<path d="M27613 15167
L27562 15105
" />
<path d="M27562 15105
L27542 15074
" />
<path d="M27705 15237
L27640 15191
" />
<path d="M27640 15191
L27613 15167
" />
</g>
<g style="fill:#000000; fill-opacity:0.0; 
stroke:#000000; stroke-width:393.701; stroke-opacity:1; 
stroke-linecap:round; stroke-linejoin:round;">
<path d="M3363 287
L3698 196
" />
</g>
<g style="fill:#000000; fill-opacity:0.0; 
stroke:#000000; stroke-width:78.7402; stroke-opacity:1; 
stroke-linecap:round; stroke-linejoin:round;">
<path d="M27812 14424
L27891 14410
" />
<path d="M27891 14410
L27927 14409
" />
<path d="M27542 15074
L27509 15002
" />
<path d="M27509 15002
L27498 14968
" />
<path d="M4510 1831
L4436 1864
" />
<path d="M4436 1864
L4406 1874
" />
</g>
<g style="fill:#000000; fill-opacity:0.0; 
stroke:#000000; stroke-width:393.701; stroke-opacity:1; 
stroke-linecap:round; stroke-linejoin:round;">
<path d="M3363 16326
L3125 16088
" />
</g>
<g style="fill:#000000; fill-opacity:0.0; 
stroke:#000000; stroke-width:78.7402; stroke-opacity:1; 
stroke-linecap:round; stroke-linejoin:round;">
<path d="M28311 15074
L28265 15140
" />
<path d="M28265 15140
L28241 15167
" />
<path d="M4669 1240
L4703 1313
" />
<path d="M4703 1313
L4712 1343
" />
<path d="M4600 1150
L4652 1213
" />
<path d="M4652 1213
L4669 1240
" />
<path d="M28149 14468
L28214 14514
" />
<path d="M28214 14514
L28241 14539
" />
</g>
<g style="fill:#000000; fill-opacity:0.0; 
stroke:#000000; stroke-width:393.701; stroke-opacity:1; 
stroke-linecap:round; stroke-linejoin:round;">
<path d="M3125 525
L3363 287
" />
</g>
<g style="fill:#000000; fill-opacity:0.0; 
stroke:#000000; stroke-width:78.7402; stroke-opacity:1; 
stroke-linecap:round; stroke-linejoin:round;">
<path d="M27498 14968
L27485 14889
" />
<path d="M27485 14889
L27483 14853
" />
<path d="M28371 14853
L28363 14932
" />
<path d="M28363 14932
L28355 14968
" />
<path d="M4078 1831
L4011 1783
" />
<path d="M4011 1783
L3988 1762
" />
<path d="M4181 1874
L4106 1845
" />
<path d="M4106 1845
L4078 1831
" />
<path d="M3861 1456
L3869 1375
" />
<path d="M3869 1375
L3876 1343
" />
<path d="M3876 1568
L3862 1488
" />
<path d="M3862 1488
L3861 1456
" />
<path d="M28355 14968
L28328 15042
" />
<path d="M28328 15042
L28311 15074
" />
<path d="M27498 14738
L27526 14663
" />
<path d="M27526 14663
L27542 14631
" />
</g>
<g style="fill:#000000; fill-opacity:1.0; 
stroke:#000000; stroke-width:0; stroke-opacity:1; 
stroke-linecap:round; stroke-linejoin:round;">
<circle cx="3698.89" cy="196.851" r="39.3701" /> 
</g>
<g style="fill:#000000; fill-opacity:1.0; 
stroke:#000000; stroke-width:393.701; stroke-opacity:1; 
stroke-linecap:round; stroke-linejoin:round;">
</g>
<g style="fill:#000000; fill-opacity:0.0; 
stroke:#000000; stroke-width:393.701; stroke-opacity:1; 
stroke-linecap:round; stroke-linejoin:round;">
<path d="M29163 287
L29401 525
" />
</g>
<g style="fill:#000000; fill-opacity:0.0; 
stroke:#000000; stroke-width:78.7402; stroke-opacity:1; 
stroke-linecap:round; stroke-linejoin:round;">
<path d="M4294 1023
L4375 1031
" />
<path d="M4375 1031
L4406 1038
" />
<path d="M4181 1038
L4262 1024
" />
<path d="M4262 1024
L4294 1023
" />
<path d="M3919 1240
L3966 1173
" />
<path d="M3966 1173
L3988 1150
" />
<path d="M3876 1343
L3904 1268
" />
<path d="M3904 1268
L3919 1240
" />
<path d="M4510 1081
L4576 1128
" />
<path d="M4576 1128
L4600 1150
" />
<path d="M4406 1038
L4482 1066
" />
<path d="M4482 1066
L4510 1081
" />
<path d="M28241 15167
L28179 15218
" />
<path d="M28179 15218
L28149 15237
" />
</g>
<g style="fill:#000000; fill-opacity:0.0; 
stroke:#000000; stroke-width:393.701; stroke-opacity:1; 
stroke-linecap:round; stroke-linejoin:round;">
<path d="M28827 196
L29163 287
" />
<path d="M3034 860
L3125 525
" />
<path d="M3034 15753
L3034 860
" />
</g>
<g style="fill:#000000; fill-opacity:0.0; 
stroke:#000000; stroke-width:78.7402; stroke-opacity:1; 
stroke-linecap:round; stroke-linejoin:round;">
<path d="M4294 1888
L4213 1881
" />
<path d="M4213 1881
L4181 1874
" />
<path d="M4406 1874
L4326 1887
" />
<path d="M4326 1887
L4294 1888
" />
</g>
<g style="fill:#000000; fill-opacity:0.0; 
stroke:#000000; stroke-width:393.701; stroke-opacity:1; 
stroke-linecap:round; stroke-linejoin:round;">
<path d="M29401 525
L29491 860
" />
</g>
<g style="fill:#000000; fill-opacity:0.0; 
stroke:#000000; stroke-width:78.7402; stroke-opacity:1; 
stroke-linecap:round; stroke-linejoin:round;">
<path d="M28241 14539
L28292 14600
" />
<path d="M28292 14600
L28311 14631
" />
</g>
<g style="fill:#000000; fill-opacity:0.0; 
stroke:#000000; stroke-width:393.701; stroke-opacity:1; 
stroke-linecap:round; stroke-linejoin:round;">
<path d="M3698 196
L28827 196
" />
<path d="M3125 16088
L3034 15753
" />
</g>
<g style="fill:#000000; fill-opacity:0.0; 
stroke:#000000; stroke-width:78.7402; stroke-opacity:1; 
stroke-linecap:round; stroke-linejoin:round;">
<path d="M28311 14631
L28345 14703
" />
<path d="M28345 14703
L28355 14738
" />
</g>
<g style="fill:#000000; fill-opacity:0.0; 
stroke:#000000; stroke-width:393.701; stroke-opacity:1; 
stroke-linecap:round; stroke-linejoin:round;">
<path d="M28827 16417
L3698 16417
" />
</g>
<g style="fill:#000000; fill-opacity:0.0; 
stroke:#000000; stroke-width:78.7402; stroke-opacity:1; 
stroke-linecap:round; stroke-linejoin:round;">
<path d="M27927 14409
L28007 14416
" />
<path d="M28007 14416
L28042 14424
" />
<path d="M27542 14631
L27588 14566
" />
<path d="M27588 14566
L27613 14539
" />
<path d="M28355 14738
L28368 14816
" />
<path d="M28368 14816
L28371 14853
" />
<path d="M28042 15281
L27963 15295
" />
<path d="M27963 15295
L27927 15297
" />
</g>
<g style="fill:#000000; fill-opacity:0.0; 
stroke:#000000; stroke-width:393.701; stroke-opacity:1; 
stroke-linecap:round; stroke-linejoin:round;">
<path d="M29401 16088
L29163 16326
" />
<path d="M29491 15753
L29401 16088
" />
<path d="M3698 16417
L3363 16326
" />
<g >
</g>
<g >
</g>
<g >
</g>
<g >
</g>
<g >
</g>
<g >
</g>
<g >
</g>
<g >
</g>
<g >
</g>
<g >
</g>
<g >
</g>
<g >
</g>
<g >
</g>
<g >
</g>
<g >
</g>
<g >
</g>
<g >
</g>
<g >
</g>
<g >
</g>
<g >
</g>
<g >
</g>
<g >
</g>
<g >
</g>
<g >
</g>
<g >
</g>
<g >
</g>
<g >
</g>
<g >
</g>
<g >
</g>
</g> 
</svg>
