<?xml version="1.0" standalone="no"?>
 <!DOCTYPE svg PUBLIC "-//W3C//DTD SVG 1.1//EN" 
 "http://www.w3.org/Graphics/SVG/1.1/DTD/svg11.dtd"> 
<svg
  xmlns:svg="http://www.w3.org/2000/svg"
  xmlns="http://www.w3.org/2000/svg"
  xmlns:xlink="http://www.w3.org/1999/xlink"
  version="1.1"
  width="5.097780cm" height="2.222500cm" viewBox="0 0 20070 8750">
<title>SVG Picture created as buttons_led-brd.svg date 2021/07/07 07:43:52 </title>
  <desc>Picture generated by PCBNEW </desc>
<g style="fill:#000000; fill-opacity:1;stroke:#000000; stroke-opacity:1;
stroke-linecap:round; stroke-linejoin:round;"
 transform="translate(0 0) scale(1 1)">
</g>
<g style="fill:#000000; fill-opacity:0.0; 
stroke:#000000; stroke-width:-0.000393701; stroke-opacity:1; 
stroke-linecap:round; stroke-linejoin:round;">
<g >
</g>
<g style="fill:#000000; fill-opacity:0.0; 
stroke:#000000; stroke-width:0; stroke-opacity:1; 
stroke-linecap:round; stroke-linejoin:round;">
</g>
<g style="fill:#000000; fill-opacity:1.0; 
stroke:#000000; stroke-width:0; stroke-opacity:1; 
stroke-linecap:round; stroke-linejoin:round;">
<path style="fill:#000000; fill-opacity:1.0; 
stroke:#000000; stroke-width:0; stroke-opacity:1; 
stroke-linecap:round; stroke-linejoin:round;fill-rule:evenodd;"
d="M 3110.24,1849.41
3110.24,2518.7
2322.84,2518.7
2322.84,1849.41
Z" /> 
<path style="fill:#000000; fill-opacity:1.0; 
stroke:#000000; stroke-width:0; stroke-opacity:1; 
stroke-linecap:round; stroke-linejoin:round;fill-rule:evenodd;"
d="M 4685.04,1849.41
4685.04,2518.7
3897.64,2518.7
3897.64,1849.41
Z" /> 
</g>
<g >
</g>
<g style="fill:#000000; fill-opacity:1.0; 
stroke:#000000; stroke-width:0; stroke-opacity:1; 
stroke-linecap:round; stroke-linejoin:round;">
<path style="fill:#000000; fill-opacity:1.0; 
stroke:#000000; stroke-width:0; stroke-opacity:1; 
stroke-linecap:round; stroke-linejoin:round;fill-rule:evenodd;"
d="M 10511.8,1928.15
10511.8,2597.44
9724.41,2597.44
9724.41,1928.15
Z" /> 
<path style="fill:#000000; fill-opacity:1.0; 
stroke:#000000; stroke-width:0; stroke-opacity:1; 
stroke-linecap:round; stroke-linejoin:round;fill-rule:evenodd;"
d="M 8937.01,1928.15
8937.01,2597.44
8149.61,2597.44
8149.61,1928.15
Z" /> 
</g>
<g >
</g>
<g style="fill:#000000; fill-opacity:1.0; 
stroke:#000000; stroke-width:0; stroke-opacity:1; 
stroke-linecap:round; stroke-linejoin:round;">
<path style="fill:#000000; fill-opacity:1.0; 
stroke:#000000; stroke-width:0; stroke-opacity:1; 
stroke-linecap:round; stroke-linejoin:round;fill-rule:evenodd;"
d="M 15787.4,2006.89
15787.4,2676.18
15000,2676.18
15000,2006.89
Z" /> 
<path style="fill:#000000; fill-opacity:1.0; 
stroke:#000000; stroke-width:0; stroke-opacity:1; 
stroke-linecap:round; stroke-linejoin:round;fill-rule:evenodd;"
d="M 17362.2,2006.89
17362.2,2676.18
16574.8,2676.18
16574.8,2006.89
Z" /> 
</g>
<g >
</g>
<g style="fill:#000000; fill-opacity:1.0; 
stroke:#000000; stroke-width:0; stroke-opacity:1; 
stroke-linecap:round; stroke-linejoin:round;">
<path style="fill:#000000; fill-opacity:1.0; 
stroke:#000000; stroke-width:0; stroke-opacity:1; 
stroke-linecap:round; stroke-linejoin:round;fill-rule:evenodd;"
d="M 3188.98,6810.04
3188.98,7479.33
2401.58,7479.33
2401.58,6810.04
Z" /> 
<path style="fill:#000000; fill-opacity:1.0; 
stroke:#000000; stroke-width:0; stroke-opacity:1; 
stroke-linecap:round; stroke-linejoin:round;fill-rule:evenodd;"
d="M 4763.78,6810.04
4763.78,7479.33
3976.38,7479.33
3976.38,6810.04
Z" /> 
</g>
<g >
</g>
<g style="fill:#000000; fill-opacity:1.0; 
stroke:#000000; stroke-width:0; stroke-opacity:1; 
stroke-linecap:round; stroke-linejoin:round;">
<path style="fill:#000000; fill-opacity:1.0; 
stroke:#000000; stroke-width:0; stroke-opacity:1; 
stroke-linecap:round; stroke-linejoin:round;fill-rule:evenodd;"
d="M 1043.31,3443.9
1712.6,3443.9
1712.6,4231.3
1043.31,4231.3
Z" /> 
<path style="fill:#000000; fill-opacity:1.0; 
stroke:#000000; stroke-width:0; stroke-opacity:1; 
stroke-linecap:round; stroke-linejoin:round;fill-rule:evenodd;"
d="M 1043.31,5018.7
1712.6,5018.7
1712.6,5806.1
1043.31,5806.1
Z" /> 
</g>
<g >
</g>
<g style="fill:#000000; fill-opacity:1.0; 
stroke:#000000; stroke-width:0; stroke-opacity:1; 
stroke-linecap:round; stroke-linejoin:round;">
<path style="fill:#000000; fill-opacity:1.0; 
stroke:#000000; stroke-width:0; stroke-opacity:1; 
stroke-linecap:round; stroke-linejoin:round;fill-rule:evenodd;"
d="M 9409.45,7243.11
9409.45,6573.82
10196.9,6573.82
10196.9,7243.11
Z" /> 
<path style="fill:#000000; fill-opacity:1.0; 
stroke:#000000; stroke-width:0; stroke-opacity:1; 
stroke-linecap:round; stroke-linejoin:round;fill-rule:evenodd;"
d="M 10984.3,7243.11
10984.3,6573.82
11771.7,6573.82
11771.7,7243.11
Z" /> 
</g>
<g >
</g>
<g style="fill:#000000; fill-opacity:1.0; 
stroke:#000000; stroke-width:0; stroke-opacity:1; 
stroke-linecap:round; stroke-linejoin:round;">
<path style="fill:#000000; fill-opacity:1.0; 
stroke:#000000; stroke-width:0; stroke-opacity:1; 
stroke-linecap:round; stroke-linejoin:round;fill-rule:evenodd;"
d="M 6948.82,5018.7
7618.11,5018.7
7618.11,5806.1
6948.82,5806.1
Z" /> 
<path style="fill:#000000; fill-opacity:1.0; 
stroke:#000000; stroke-width:0; stroke-opacity:1; 
stroke-linecap:round; stroke-linejoin:round;fill-rule:evenodd;"
d="M 6948.82,3443.9
7618.11,3443.9
7618.11,4231.3
6948.82,4231.3
Z" /> 
</g>
<g >
</g>
<g style="fill:#000000; fill-opacity:1.0; 
stroke:#000000; stroke-width:0; stroke-opacity:1; 
stroke-linecap:round; stroke-linejoin:round;">
<path style="fill:#000000; fill-opacity:1.0; 
stroke:#000000; stroke-width:0; stroke-opacity:1; 
stroke-linecap:round; stroke-linejoin:round;fill-rule:evenodd;"
d="M 15787.4,7479.33
15787.4,6810.04
16574.8,6810.04
16574.8,7479.33
Z" /> 
<path style="fill:#000000; fill-opacity:1.0; 
stroke:#000000; stroke-width:0; stroke-opacity:1; 
stroke-linecap:round; stroke-linejoin:round;fill-rule:evenodd;"
d="M 14212.6,7479.33
14212.6,6810.04
15000,6810.04
15000,7479.33
Z" /> 
</g>
<g >
</g>
<g style="fill:#000000; fill-opacity:1.0; 
stroke:#000000; stroke-width:0; stroke-opacity:1; 
stroke-linecap:round; stroke-linejoin:round;">
<path style="fill:#000000; fill-opacity:1.0; 
stroke:#000000; stroke-width:0; stroke-opacity:1; 
stroke-linecap:round; stroke-linejoin:round;fill-rule:evenodd;"
d="M 12854.3,3522.64
13523.6,3522.64
13523.6,4310.04
12854.3,4310.04
Z" /> 
<path style="fill:#000000; fill-opacity:1.0; 
stroke:#000000; stroke-width:0; stroke-opacity:1; 
stroke-linecap:round; stroke-linejoin:round;fill-rule:evenodd;"
d="M 12854.3,5097.44
13523.6,5097.44
13523.6,5884.84
12854.3,5884.84
Z" /> 
</g>
<g >
</g>
<g style="fill:#000000; fill-opacity:1.0; 
stroke:#000000; stroke-width:0; stroke-opacity:1; 
stroke-linecap:round; stroke-linejoin:round;">
<path style="fill:#000000; fill-opacity:1.0; 
stroke:#000000; stroke-width:0; stroke-opacity:1; 
stroke-linecap:round; stroke-linejoin:round;fill-rule:evenodd;"
d="M 18523.6,5097.44
19192.9,5097.44
19192.9,5884.84
18523.6,5884.84
Z" /> 
<path style="fill:#000000; fill-opacity:1.0; 
stroke:#000000; stroke-width:0; stroke-opacity:1; 
stroke-linecap:round; stroke-linejoin:round;fill-rule:evenodd;"
d="M 18523.6,3522.64
19192.9,3522.64
19192.9,4310.04
18523.6,4310.04
Z" /> 
</g>
<g >
</g>
<g style="fill:#000000; fill-opacity:1.0; 
stroke:#000000; stroke-width:0; stroke-opacity:1; 
stroke-linecap:round; stroke-linejoin:round;">
<path style="fill:#000000; fill-opacity:1.0; 
stroke:#000000; stroke-width:0; stroke-opacity:1; 
stroke-linecap:round; stroke-linejoin:round;fill-rule:evenodd;"
d="M 5019.69,5707.68
5019.69,5117.13
6003.94,5117.13
6003.94,5707.68
Z" /> 
<path style="fill:#000000; fill-opacity:1.0; 
stroke:#000000; stroke-width:0; stroke-opacity:1; 
stroke-linecap:round; stroke-linejoin:round;fill-rule:evenodd;"
d="M 2263.78,5707.68
2263.78,5117.13
3248.03,5117.13
3248.03,5707.68
Z" /> 
<path style="fill:#000000; fill-opacity:1.0; 
stroke:#000000; stroke-width:0; stroke-opacity:1; 
stroke-linecap:round; stroke-linejoin:round;fill-rule:evenodd;"
d="M 5019.69,4132.87
5019.69,3542.32
6003.94,3542.32
6003.94,4132.87
Z" /> 
<path style="fill:#000000; fill-opacity:1.0; 
stroke:#000000; stroke-width:0; stroke-opacity:1; 
stroke-linecap:round; stroke-linejoin:round;fill-rule:evenodd;"
d="M 2263.78,4132.87
2263.78,3542.32
3248.03,3542.32
3248.03,4132.87
Z" /> 
</g>
<g >
</g>
<g style="fill:#000000; fill-opacity:1.0; 
stroke:#000000; stroke-width:0; stroke-opacity:1; 
stroke-linecap:round; stroke-linejoin:round;">
<path style="fill:#000000; fill-opacity:1.0; 
stroke:#000000; stroke-width:0; stroke-opacity:1; 
stroke-linecap:round; stroke-linejoin:round;fill-rule:evenodd;"
d="M 8169.29,4211.61
8169.29,3621.06
9153.54,3621.06
9153.54,4211.61
Z" /> 
<path style="fill:#000000; fill-opacity:1.0; 
stroke:#000000; stroke-width:0; stroke-opacity:1; 
stroke-linecap:round; stroke-linejoin:round;fill-rule:evenodd;"
d="M 10925.2,4211.61
10925.2,3621.06
11909.4,3621.06
11909.4,4211.61
Z" /> 
<path style="fill:#000000; fill-opacity:1.0; 
stroke:#000000; stroke-width:0; stroke-opacity:1; 
stroke-linecap:round; stroke-linejoin:round;fill-rule:evenodd;"
d="M 8169.29,5786.42
8169.29,5195.87
9153.54,5195.87
9153.54,5786.42
Z" /> 
<path style="fill:#000000; fill-opacity:1.0; 
stroke:#000000; stroke-width:0; stroke-opacity:1; 
stroke-linecap:round; stroke-linejoin:round;fill-rule:evenodd;"
d="M 10925.2,5786.42
10925.2,5195.87
11909.4,5195.87
11909.4,5786.42
Z" /> 
</g>
<g >
</g>
<g style="fill:#000000; fill-opacity:1.0; 
stroke:#000000; stroke-width:0; stroke-opacity:1; 
stroke-linecap:round; stroke-linejoin:round;">
<path style="fill:#000000; fill-opacity:1.0; 
stroke:#000000; stroke-width:0; stroke-opacity:1; 
stroke-linecap:round; stroke-linejoin:round;fill-rule:evenodd;"
d="M 16830.7,5707.68
16830.7,5117.13
17815,5117.13
17815,5707.68
Z" /> 
<path style="fill:#000000; fill-opacity:1.0; 
stroke:#000000; stroke-width:0; stroke-opacity:1; 
stroke-linecap:round; stroke-linejoin:round;fill-rule:evenodd;"
d="M 14074.8,5707.68
14074.8,5117.13
15059.1,5117.13
15059.1,5707.68
Z" /> 
<path style="fill:#000000; fill-opacity:1.0; 
stroke:#000000; stroke-width:0; stroke-opacity:1; 
stroke-linecap:round; stroke-linejoin:round;fill-rule:evenodd;"
d="M 16830.7,4132.87
16830.7,3542.32
17815,3542.32
17815,4132.87
Z" /> 
<path style="fill:#000000; fill-opacity:1.0; 
stroke:#000000; stroke-width:0; stroke-opacity:1; 
stroke-linecap:round; stroke-linejoin:round;fill-rule:evenodd;"
d="M 14074.8,4132.87
14074.8,3542.32
15059.1,3542.32
15059.1,4132.87
Z" /> 
</g>
<g >
</g>
<g style="fill:#000000; fill-opacity:1.0; 
stroke:#000000; stroke-width:0; stroke-opacity:1; 
stroke-linecap:round; stroke-linejoin:round;">
<circle cx="13850.4" cy="2105.31" r="397.638" /> 
</g>
<g style="fill:#000000; fill-opacity:1.0; 
stroke:#000000; stroke-width:39.3701; stroke-opacity:1; 
stroke-linecap:round; stroke-linejoin:round;">
</g>
<g style="fill:#000000; fill-opacity:1.0; 
stroke:#000000; stroke-width:0; stroke-opacity:1; 
stroke-linecap:round; stroke-linejoin:round;">
<circle cx="12850.4" cy="2105.31" r="397.638" /> 
</g>
<g style="fill:#000000; fill-opacity:1.0; 
stroke:#000000; stroke-width:39.3701; stroke-opacity:1; 
stroke-linecap:round; stroke-linejoin:round;">
</g>
<g style="fill:#000000; fill-opacity:1.0; 
stroke:#000000; stroke-width:0; stroke-opacity:1; 
stroke-linecap:round; stroke-linejoin:round;">
<circle cx="11850.4" cy="2105.31" r="397.638" /> 
</g>
<g style="fill:#000000; fill-opacity:1.0; 
stroke:#000000; stroke-width:39.3701; stroke-opacity:1; 
stroke-linecap:round; stroke-linejoin:round;">
</g>
<g >
</g>
<g >
</g>
<g style="fill:#000000; fill-opacity:1.0; 
stroke:#000000; stroke-width:39.3701; stroke-opacity:1; 
stroke-linecap:round; stroke-linejoin:round;">
</g>
<g style="fill:#000000; fill-opacity:1.0; 
stroke:#000000; stroke-width:157.48; stroke-opacity:1; 
stroke-linecap:round; stroke-linejoin:round;">
</g>
<g style="fill:#000000; fill-opacity:0.0; 
stroke:#000000; stroke-width:157.48; stroke-opacity:1; 
stroke-linecap:round; stroke-linejoin:round;">
<path d="M1377 3522
L2716 2184
" />
<path d="M1377 3837
L1377 3522
" />
<path d="M8307 2262
L8543 2262
" />
<path d="M7283 3286
L8307 2262
" />
<path d="M7283 3837
L7283 3286
" />
<path d="M13188 3916
L14763 2341
" />
<path d="M14763 2341
L15393 2341
" />
<path d="M2755 5412
L5511 5412
" />
<path d="M2795 5451
L2755 5412
" />
<path d="M2795 7144
L2795 5451
" />
<path d="M8661 5491
L11417 5491
" />
<path d="M11377 5530
L11417 5491
" />
<path d="M11377 6908
L11377 5530
" />
<path d="M14566 5412
L17322 5412
" />
<path d="M17204 5530
L17322 5412
" />
<path d="M16181 6554
L17322 5412
" />
<path d="M16181 7144
L16181 6554
" />
<path d="M2755 3837
L5511 3837
" />
<path d="M2755 4034
L1377 5412
" />
<path d="M2755 3837
L2755 4034
" />
<path d="M8661 3916
L11417 3916
" />
<path d="M7283 5294
L8661 3916
" />
<path d="M7283 5412
L7283 5294
" />
<path d="M14566 3837
L17322 3837
" />
<path d="M13188 5215
L14566 3837
" />
<path d="M13188 5491
L13188 5215
" />
<path d="M9547 1691
L10118 2262
" />
<path d="M4783 1691
L9547 1691
" />
<path d="M4291 2184
L4783 1691
" />
<path d="M12854 2109
L12850 2105
" />
<path d="M10118 2262
L10118 2105
" />
<path d="M12799 2054
L12850 2105
" />
<path d="M12799 1471
L12799 2054
" />
<path d="M12799 1471
L16570 1471
" />
<path d="M18858 3916
L18858 3758
" />
<path d="M18543 3916
L16968 2341
" />
<path d="M18858 3916
L18543 3916
" />
<path d="M16968 1869
L16570 1471
" />
<path d="M16968 2341
L16968 1869
" />
<path d="M10543 2971
L12165 2971
" />
<path d="M10118 2546
L10543 2971
" />
<path d="M10118 2262
L10118 2546
" />
<path d="M12165 2790
L12850 2105
" />
<path d="M12165 2971
L12165 2790
" />
<path d="M9566 7144
L9803 6908
" />
<path d="M4370 7144
L9566 7144
" />
<path d="M10374 7479
L9803 6908
" />
<path d="M14271 7479
L14606 7144
" />
<path d="M10374 7479
L14271 7479
" />
<path d="M12618 6073
L12618 3337
" />
<path d="M13688 7144
L12618 6073
" />
<path d="M12618 3337
L13850 2105
" />
<path d="M14606 7144
L13688 7144
" />
<path d="M19429 3333
L19429 4920
" />
<path d="M18821 3286
L19381 3286
" />
<path d="M19429 4920
L18858 5491
" />
<path d="M17791 2256
L18821 3286
" />
<path d="M17791 1982
L17791 2256
" />
<path d="M16929 1121
L17791 1982
" />
<path d="M19381 3286
L19429 3333
" />
<path d="M12272 1121
L16929 1121
" />
<path d="M11850 1542
L12272 1121
" />
<path d="M11850 2105
L11850 1542
" />
</g>
<g >
</g>
</g>
<g style="fill:#FFFFFF; fill-opacity:0.0; 
stroke:#FFFFFF; stroke-width:157.48; stroke-opacity:1; 
stroke-linecap:round; stroke-linejoin:round;">
</g>
<g style="fill:#FFFFFF; fill-opacity:1.0; 
stroke:#FFFFFF; stroke-width:0; stroke-opacity:1; 
stroke-linecap:round; stroke-linejoin:round;">
<circle cx="13850.4" cy="2105.31" r="200.787" /> 
</g>
<g style="fill:#FFFFFF; fill-opacity:1.0; 
stroke:#FFFFFF; stroke-width:39.3701; stroke-opacity:1; 
stroke-linecap:round; stroke-linejoin:round;">
</g>
<g style="fill:#FFFFFF; fill-opacity:1.0; 
stroke:#FFFFFF; stroke-width:0; stroke-opacity:1; 
stroke-linecap:round; stroke-linejoin:round;">
<circle cx="12850.4" cy="2105.31" r="200.787" /> 
</g>
<g style="fill:#FFFFFF; fill-opacity:1.0; 
stroke:#FFFFFF; stroke-width:39.3701; stroke-opacity:1; 
stroke-linecap:round; stroke-linejoin:round;">
</g>
<g style="fill:#FFFFFF; fill-opacity:1.0; 
stroke:#FFFFFF; stroke-width:0; stroke-opacity:1; 
stroke-linecap:round; stroke-linejoin:round;">
<circle cx="11850.4" cy="2105.31" r="200.787" /> 
</g>
<g style="fill:#FFFFFF; fill-opacity:1.0; 
stroke:#FFFFFF; stroke-width:39.3701; stroke-opacity:1; 
stroke-linecap:round; stroke-linejoin:round;">
</g>
<g style="fill:#000000; fill-opacity:1.0; 
stroke:#000000; stroke-width:39.3701; stroke-opacity:1; 
stroke-linecap:round; stroke-linejoin:round;">
<g >
</g>
<g style="fill:#000000; fill-opacity:1.0; 
stroke:#000000; stroke-width:0; stroke-opacity:1; 
stroke-linecap:round; stroke-linejoin:round;">
<path style="fill:#000000; fill-opacity:1.0; 
stroke:#000000; stroke-width:0; stroke-opacity:1; 
stroke-linecap:round; stroke-linejoin:round;fill-rule:evenodd;"
d="M 3110.24,1849.41
3110.24,2518.7
2322.84,2518.7
2322.84,1849.41
Z" /> 
<path style="fill:#000000; fill-opacity:1.0; 
stroke:#000000; stroke-width:0; stroke-opacity:1; 
stroke-linecap:round; stroke-linejoin:round;fill-rule:evenodd;"
d="M 4685.04,1849.41
4685.04,2518.7
3897.64,2518.7
3897.64,1849.41
Z" /> 
</g>
<g >
</g>
<g style="fill:#000000; fill-opacity:1.0; 
stroke:#000000; stroke-width:0; stroke-opacity:1; 
stroke-linecap:round; stroke-linejoin:round;">
<path style="fill:#000000; fill-opacity:1.0; 
stroke:#000000; stroke-width:0; stroke-opacity:1; 
stroke-linecap:round; stroke-linejoin:round;fill-rule:evenodd;"
d="M 10511.8,1928.15
10511.8,2597.44
9724.41,2597.44
9724.41,1928.15
Z" /> 
<path style="fill:#000000; fill-opacity:1.0; 
stroke:#000000; stroke-width:0; stroke-opacity:1; 
stroke-linecap:round; stroke-linejoin:round;fill-rule:evenodd;"
d="M 8937.01,1928.15
8937.01,2597.44
8149.61,2597.44
8149.61,1928.15
Z" /> 
</g>
<g >
</g>
<g style="fill:#000000; fill-opacity:1.0; 
stroke:#000000; stroke-width:0; stroke-opacity:1; 
stroke-linecap:round; stroke-linejoin:round;">
<path style="fill:#000000; fill-opacity:1.0; 
stroke:#000000; stroke-width:0; stroke-opacity:1; 
stroke-linecap:round; stroke-linejoin:round;fill-rule:evenodd;"
d="M 15787.4,2006.89
15787.4,2676.18
15000,2676.18
15000,2006.89
Z" /> 
<path style="fill:#000000; fill-opacity:1.0; 
stroke:#000000; stroke-width:0; stroke-opacity:1; 
stroke-linecap:round; stroke-linejoin:round;fill-rule:evenodd;"
d="M 17362.2,2006.89
17362.2,2676.18
16574.8,2676.18
16574.8,2006.89
Z" /> 
</g>
<g >
</g>
<g style="fill:#000000; fill-opacity:1.0; 
stroke:#000000; stroke-width:0; stroke-opacity:1; 
stroke-linecap:round; stroke-linejoin:round;">
<path style="fill:#000000; fill-opacity:1.0; 
stroke:#000000; stroke-width:0; stroke-opacity:1; 
stroke-linecap:round; stroke-linejoin:round;fill-rule:evenodd;"
d="M 3188.98,6810.04
3188.98,7479.33
2401.58,7479.33
2401.58,6810.04
Z" /> 
<path style="fill:#000000; fill-opacity:1.0; 
stroke:#000000; stroke-width:0; stroke-opacity:1; 
stroke-linecap:round; stroke-linejoin:round;fill-rule:evenodd;"
d="M 4763.78,6810.04
4763.78,7479.33
3976.38,7479.33
3976.38,6810.04
Z" /> 
</g>
<g >
</g>
<g style="fill:#000000; fill-opacity:1.0; 
stroke:#000000; stroke-width:0; stroke-opacity:1; 
stroke-linecap:round; stroke-linejoin:round;">
<path style="fill:#000000; fill-opacity:1.0; 
stroke:#000000; stroke-width:0; stroke-opacity:1; 
stroke-linecap:round; stroke-linejoin:round;fill-rule:evenodd;"
d="M 1043.31,3443.9
1712.6,3443.9
1712.6,4231.3
1043.31,4231.3
Z" /> 
<path style="fill:#000000; fill-opacity:1.0; 
stroke:#000000; stroke-width:0; stroke-opacity:1; 
stroke-linecap:round; stroke-linejoin:round;fill-rule:evenodd;"
d="M 1043.31,5018.7
1712.6,5018.7
1712.6,5806.1
1043.31,5806.1
Z" /> 
</g>
<g >
</g>
<g style="fill:#000000; fill-opacity:1.0; 
stroke:#000000; stroke-width:0; stroke-opacity:1; 
stroke-linecap:round; stroke-linejoin:round;">
<path style="fill:#000000; fill-opacity:1.0; 
stroke:#000000; stroke-width:0; stroke-opacity:1; 
stroke-linecap:round; stroke-linejoin:round;fill-rule:evenodd;"
d="M 9409.45,7243.11
9409.45,6573.82
10196.9,6573.82
10196.9,7243.11
Z" /> 
<path style="fill:#000000; fill-opacity:1.0; 
stroke:#000000; stroke-width:0; stroke-opacity:1; 
stroke-linecap:round; stroke-linejoin:round;fill-rule:evenodd;"
d="M 10984.3,7243.11
10984.3,6573.82
11771.7,6573.82
11771.7,7243.11
Z" /> 
</g>
<g >
</g>
<g style="fill:#000000; fill-opacity:1.0; 
stroke:#000000; stroke-width:0; stroke-opacity:1; 
stroke-linecap:round; stroke-linejoin:round;">
<path style="fill:#000000; fill-opacity:1.0; 
stroke:#000000; stroke-width:0; stroke-opacity:1; 
stroke-linecap:round; stroke-linejoin:round;fill-rule:evenodd;"
d="M 6948.82,5018.7
7618.11,5018.7
7618.11,5806.1
6948.82,5806.1
Z" /> 
<path style="fill:#000000; fill-opacity:1.0; 
stroke:#000000; stroke-width:0; stroke-opacity:1; 
stroke-linecap:round; stroke-linejoin:round;fill-rule:evenodd;"
d="M 6948.82,3443.9
7618.11,3443.9
7618.11,4231.3
6948.82,4231.3
Z" /> 
</g>
<g >
</g>
<g style="fill:#000000; fill-opacity:1.0; 
stroke:#000000; stroke-width:0; stroke-opacity:1; 
stroke-linecap:round; stroke-linejoin:round;">
<path style="fill:#000000; fill-opacity:1.0; 
stroke:#000000; stroke-width:0; stroke-opacity:1; 
stroke-linecap:round; stroke-linejoin:round;fill-rule:evenodd;"
d="M 15787.4,7479.33
15787.4,6810.04
16574.8,6810.04
16574.8,7479.33
Z" /> 
<path style="fill:#000000; fill-opacity:1.0; 
stroke:#000000; stroke-width:0; stroke-opacity:1; 
stroke-linecap:round; stroke-linejoin:round;fill-rule:evenodd;"
d="M 14212.6,7479.33
14212.6,6810.04
15000,6810.04
15000,7479.33
Z" /> 
</g>
<g >
</g>
<g style="fill:#000000; fill-opacity:1.0; 
stroke:#000000; stroke-width:0; stroke-opacity:1; 
stroke-linecap:round; stroke-linejoin:round;">
<path style="fill:#000000; fill-opacity:1.0; 
stroke:#000000; stroke-width:0; stroke-opacity:1; 
stroke-linecap:round; stroke-linejoin:round;fill-rule:evenodd;"
d="M 12854.3,3522.64
13523.6,3522.64
13523.6,4310.04
12854.3,4310.04
Z" /> 
<path style="fill:#000000; fill-opacity:1.0; 
stroke:#000000; stroke-width:0; stroke-opacity:1; 
stroke-linecap:round; stroke-linejoin:round;fill-rule:evenodd;"
d="M 12854.3,5097.44
13523.6,5097.44
13523.6,5884.84
12854.3,5884.84
Z" /> 
</g>
<g >
</g>
<g style="fill:#000000; fill-opacity:1.0; 
stroke:#000000; stroke-width:0; stroke-opacity:1; 
stroke-linecap:round; stroke-linejoin:round;">
<path style="fill:#000000; fill-opacity:1.0; 
stroke:#000000; stroke-width:0; stroke-opacity:1; 
stroke-linecap:round; stroke-linejoin:round;fill-rule:evenodd;"
d="M 18523.6,5097.44
19192.9,5097.44
19192.9,5884.84
18523.6,5884.84
Z" /> 
<path style="fill:#000000; fill-opacity:1.0; 
stroke:#000000; stroke-width:0; stroke-opacity:1; 
stroke-linecap:round; stroke-linejoin:round;fill-rule:evenodd;"
d="M 18523.6,3522.64
19192.9,3522.64
19192.9,4310.04
18523.6,4310.04
Z" /> 
</g>
<g >
</g>
<g style="fill:#000000; fill-opacity:1.0; 
stroke:#000000; stroke-width:0; stroke-opacity:1; 
stroke-linecap:round; stroke-linejoin:round;">
<path style="fill:#000000; fill-opacity:1.0; 
stroke:#000000; stroke-width:0; stroke-opacity:1; 
stroke-linecap:round; stroke-linejoin:round;fill-rule:evenodd;"
d="M 5019.69,5707.68
5019.69,5117.13
6003.94,5117.13
6003.94,5707.68
Z" /> 
<path style="fill:#000000; fill-opacity:1.0; 
stroke:#000000; stroke-width:0; stroke-opacity:1; 
stroke-linecap:round; stroke-linejoin:round;fill-rule:evenodd;"
d="M 2263.78,5707.68
2263.78,5117.13
3248.03,5117.13
3248.03,5707.68
Z" /> 
<path style="fill:#000000; fill-opacity:1.0; 
stroke:#000000; stroke-width:0; stroke-opacity:1; 
stroke-linecap:round; stroke-linejoin:round;fill-rule:evenodd;"
d="M 5019.69,4132.87
5019.69,3542.32
6003.94,3542.32
6003.94,4132.87
Z" /> 
<path style="fill:#000000; fill-opacity:1.0; 
stroke:#000000; stroke-width:0; stroke-opacity:1; 
stroke-linecap:round; stroke-linejoin:round;fill-rule:evenodd;"
d="M 2263.78,4132.87
2263.78,3542.32
3248.03,3542.32
3248.03,4132.87
Z" /> 
</g>
<g >
</g>
<g style="fill:#000000; fill-opacity:1.0; 
stroke:#000000; stroke-width:0; stroke-opacity:1; 
stroke-linecap:round; stroke-linejoin:round;">
<path style="fill:#000000; fill-opacity:1.0; 
stroke:#000000; stroke-width:0; stroke-opacity:1; 
stroke-linecap:round; stroke-linejoin:round;fill-rule:evenodd;"
d="M 8169.29,4211.61
8169.29,3621.06
9153.54,3621.06
9153.54,4211.61
Z" /> 
<path style="fill:#000000; fill-opacity:1.0; 
stroke:#000000; stroke-width:0; stroke-opacity:1; 
stroke-linecap:round; stroke-linejoin:round;fill-rule:evenodd;"
d="M 10925.2,4211.61
10925.2,3621.06
11909.4,3621.06
11909.4,4211.61
Z" /> 
<path style="fill:#000000; fill-opacity:1.0; 
stroke:#000000; stroke-width:0; stroke-opacity:1; 
stroke-linecap:round; stroke-linejoin:round;fill-rule:evenodd;"
d="M 8169.29,5786.42
8169.29,5195.87
9153.54,5195.87
9153.54,5786.42
Z" /> 
<path style="fill:#000000; fill-opacity:1.0; 
stroke:#000000; stroke-width:0; stroke-opacity:1; 
stroke-linecap:round; stroke-linejoin:round;fill-rule:evenodd;"
d="M 10925.2,5786.42
10925.2,5195.87
11909.4,5195.87
11909.4,5786.42
Z" /> 
</g>
<g >
</g>
<g style="fill:#000000; fill-opacity:1.0; 
stroke:#000000; stroke-width:0; stroke-opacity:1; 
stroke-linecap:round; stroke-linejoin:round;">
<path style="fill:#000000; fill-opacity:1.0; 
stroke:#000000; stroke-width:0; stroke-opacity:1; 
stroke-linecap:round; stroke-linejoin:round;fill-rule:evenodd;"
d="M 16830.7,5707.68
16830.7,5117.13
17815,5117.13
17815,5707.68
Z" /> 
<path style="fill:#000000; fill-opacity:1.0; 
stroke:#000000; stroke-width:0; stroke-opacity:1; 
stroke-linecap:round; stroke-linejoin:round;fill-rule:evenodd;"
d="M 14074.8,5707.68
14074.8,5117.13
15059.1,5117.13
15059.1,5707.68
Z" /> 
<path style="fill:#000000; fill-opacity:1.0; 
stroke:#000000; stroke-width:0; stroke-opacity:1; 
stroke-linecap:round; stroke-linejoin:round;fill-rule:evenodd;"
d="M 16830.7,4132.87
16830.7,3542.32
17815,3542.32
17815,4132.87
Z" /> 
<path style="fill:#000000; fill-opacity:1.0; 
stroke:#000000; stroke-width:0; stroke-opacity:1; 
stroke-linecap:round; stroke-linejoin:round;fill-rule:evenodd;"
d="M 14074.8,4132.87
14074.8,3542.32
15059.1,3542.32
15059.1,4132.87
Z" /> 
</g>
<g >
</g>
<g style="fill:#000000; fill-opacity:1.0; 
stroke:#000000; stroke-width:0; stroke-opacity:1; 
stroke-linecap:round; stroke-linejoin:round;">
<circle cx="13850.4" cy="2105.31" r="397.638" /> 
</g>
<g style="fill:#000000; fill-opacity:1.0; 
stroke:#000000; stroke-width:39.3701; stroke-opacity:1; 
stroke-linecap:round; stroke-linejoin:round;">
</g>
<g style="fill:#000000; fill-opacity:1.0; 
stroke:#000000; stroke-width:0; stroke-opacity:1; 
stroke-linecap:round; stroke-linejoin:round;">
<circle cx="12850.4" cy="2105.31" r="397.638" /> 
</g>
<g style="fill:#000000; fill-opacity:1.0; 
stroke:#000000; stroke-width:39.3701; stroke-opacity:1; 
stroke-linecap:round; stroke-linejoin:round;">
</g>
<g style="fill:#000000; fill-opacity:1.0; 
stroke:#000000; stroke-width:0; stroke-opacity:1; 
stroke-linecap:round; stroke-linejoin:round;">
<circle cx="11850.4" cy="2105.31" r="397.638" /> 
</g>
<g style="fill:#000000; fill-opacity:1.0; 
stroke:#000000; stroke-width:39.3701; stroke-opacity:1; 
stroke-linecap:round; stroke-linejoin:round;">
</g>
<g >
</g>
<g >
</g>
<g >
</g>
</g>
<g style="fill:#000000; fill-opacity:1.0; 
stroke:#000000; stroke-width:39.3701; stroke-opacity:1; 
stroke-linecap:round; stroke-linejoin:round;">
</g>
<g style="fill:#000000; fill-opacity:1.0; 
stroke:#000000; stroke-width:47.2441; stroke-opacity:1; 
stroke-linecap:round; stroke-linejoin:round;">
</g>
<g style="fill:#000000; fill-opacity:0.0; 
stroke:#000000; stroke-width:47.2441; stroke-opacity:1; 
stroke-linecap:round; stroke-linejoin:round;">
<path d="M4724 2558
L2874 2558
" />
<path d="M4724 1810
L2874 1810
" />
<path d="M4724 2558
L4724 1810
" />
<path d="M10551 2636
L10551 1888
" />
<path d="M10551 1888
L8700 1888
" />
<path d="M10551 2636
L8700 2636
" />
<path d="M17401 2715
L15551 2715
" />
<path d="M17401 1967
L15551 1967
" />
<path d="M17401 2715
L17401 1967
" />
<path d="M3188 6723
L3976 6723
" />
<path d="M3976 7565
L3188 7565
" />
<path d="M1799 4231
L1799 5018
" />
<path d="M956 5018
L956 4231
" />
<path d="M10196 6487
L10984 6487
" />
<path d="M10984 7329
L10196 7329
" />
<path d="M6862 5018
L6862 4231
" />
<path d="M7704 4231
L7704 5018
" />
<path d="M15787 7565
L15000 7565
" />
<path d="M15000 6723
L15787 6723
" />
<path d="M13610 4310
L13610 5097
" />
<path d="M12767 5097
L12767 4310
" />
<path d="M18437 5097
L18437 4310
" />
<path d="M19279 4310
L19279 5097
" />
<path d="M5374 4231
L5374 5018
" />
<path d="M5374 5865
L2893 5865
" />
<path d="M2893 5018
L2893 4231
" />
<path d="M2893 3384
L5374 3384
" />
<path d="M8799 3463
L11279 3463
" />
<path d="M8799 5097
L8799 4310
" />
<path d="M11279 5943
L8799 5943
" />
<path d="M11279 4310
L11279 5097
" />
<path d="M17185 4231
L17185 5018
" />
<path d="M17185 5865
L14704 5865
" />
<path d="M14704 5018
L14704 4231
" />
<path d="M14704 3384
L17185 3384
" />
</g>
<g style="fill:#000000; fill-opacity:0.0; 
stroke:#000000; stroke-width:59.0551; stroke-opacity:1; 
stroke-linecap:round; stroke-linejoin:round;">
<text x="3503.94" y="3109.25"
textLength="845.426" font-size="524.934" lengthAdjust="spacingAndGlyphs"
text-anchor="middle" opacity="0">D1</text>
<path d="M3213 3090
L3213 2696
L3307 2696
L3363 2715
L3400 2753
L3419 2790
L3438 2865
L3438 2921
L3419 2996
L3400 3034
L3363 3071
L3307 3090
L3213 3090
" />
<path d="M3813 3090
L3588 3090
" />
<path d="M3700 3090
L3700 2696
L3663 2753
L3625 2790
L3588 2809
" />
<text x="9330.71" y="3187.99"
textLength="845.426" font-size="524.934" lengthAdjust="spacingAndGlyphs"
text-anchor="middle" opacity="0">D2</text>
<path d="M9040 3169
L9040 2775
L9133 2775
L9190 2794
L9227 2831
L9246 2869
L9265 2944
L9265 3000
L9246 3075
L9227 3113
L9190 3150
L9133 3169
L9040 3169
" />
<path d="M9415 2813
L9433 2794
L9471 2775
L9565 2775
L9602 2794
L9621 2813
L9640 2850
L9640 2888
L9621 2944
L9396 3169
L9640 3169
" />
<text x="16181.1" y="3266.73"
textLength="845.426" font-size="524.934" lengthAdjust="spacingAndGlyphs"
text-anchor="middle" opacity="0">D3</text>
<path d="M15890 3247
L15890 2854
L15984 2854
L16040 2873
L16077 2910
L16096 2948
L16115 3023
L16115 3079
L16096 3154
L16077 3191
L16040 3229
L15984 3247
L15890 3247
" />
<path d="M16246 2854
L16490 2854
L16359 3004
L16415 3004
L16452 3023
L16471 3041
L16490 3079
L16490 3172
L16471 3210
L16452 3229
L16415 3247
L16302 3247
L16265 3229
L16246 3210
" />
<text x="3582.68" y="8069.88"
textLength="845.426" font-size="524.934" lengthAdjust="spacingAndGlyphs"
text-anchor="middle" opacity="0">R2</text>
<path d="M3517 8051
L3385 7863
" />
<path d="M3292 8051
L3292 7657
L3442 7657
L3479 7676
L3498 7694
L3517 7732
L3517 7788
L3498 7826
L3479 7844
L3442 7863
L3292 7863
" />
<path d="M3667 7694
L3685 7676
L3723 7657
L3817 7657
L3854 7676
L3873 7694
L3892 7732
L3892 7769
L3873 7826
L3648 8051
L3892 8051
" />
<g transform="rotate(-90 984.253 4625)">
<text x="984.253" y="4821.85"
textLength="845.426" font-size="524.934" lengthAdjust="spacingAndGlyphs"
text-anchor="middle" opacity="0">R3</text>
</g>
<path d="M1162 4690
L974 4821
" />
<path d="M1162 4915
L768 4915
L768 4765
L787 4728
L806 4709
L843 4690
L899 4690
L937 4709
L956 4728
L974 4765
L974 4915
" />
<path d="M768 4559
L768 4315
L918 4446
L918 4390
L937 4353
L956 4334
L993 4315
L1087 4315
L1124 4334
L1143 4353
L1162 4390
L1162 4503
L1143 4540
L1124 4559
" />
<text x="10590.6" y="6376.97"
textLength="845.426" font-size="524.934" lengthAdjust="spacingAndGlyphs"
text-anchor="middle" opacity="0">R4</text>
<path d="M10524 6358
L10393 6170
" />
<path d="M10299 6358
L10299 5964
L10449 5964
L10487 5983
L10506 6002
L10524 6039
L10524 6095
L10506 6133
L10487 6151
L10449 6170
L10299 6170
" />
<path d="M10862 6095
L10862 6358
" />
<path d="M10768 5945
L10674 6226
L10918 6226
" />
<g transform="rotate(-90 6811.02 4625)">
<text x="6811.02" y="4821.85"
textLength="845.426" font-size="524.934" lengthAdjust="spacingAndGlyphs"
text-anchor="middle" opacity="0">R5</text>
</g>
<path d="M6989 4690
L6801 4821
" />
<path d="M6989 4915
L6595 4915
L6595 4765
L6614 4728
L6632 4709
L6670 4690
L6726 4690
L6764 4709
L6782 4728
L6801 4765
L6801 4915
" />
<path d="M6595 4334
L6595 4521
L6782 4540
L6764 4521
L6745 4484
L6745 4390
L6764 4353
L6782 4334
L6820 4315
L6914 4315
L6951 4334
L6970 4353
L6989 4390
L6989 4484
L6970 4521
L6951 4540
" />
<text x="15393.7" y="6613.19"
textLength="845.426" font-size="524.934" lengthAdjust="spacingAndGlyphs"
text-anchor="middle" opacity="0">R6</text>
<path d="M15328 6594
L15196 6406
" />
<path d="M15103 6594
L15103 6200
L15253 6200
L15290 6219
L15309 6238
L15328 6275
L15328 6331
L15309 6369
L15290 6388
L15253 6406
L15103 6406
" />
<path d="M15665 6200
L15590 6200
L15553 6219
L15534 6238
L15496 6294
L15478 6369
L15478 6519
L15496 6556
L15515 6575
L15553 6594
L15628 6594
L15665 6575
L15684 6556
L15703 6519
L15703 6425
L15684 6388
L15665 6369
L15628 6350
L15553 6350
L15515 6369
L15496 6388
L15478 6425
" />
<g transform="rotate(-90 12952.8 4703.74)">
<text x="12952.8" y="4900.59"
textLength="845.426" font-size="524.934" lengthAdjust="spacingAndGlyphs"
text-anchor="middle" opacity="0">R7</text>
</g>
<path d="M13130 4769
L12943 4900
" />
<path d="M13130 4994
L12737 4994
L12737 4844
L12755 4806
L12774 4788
L12812 4769
L12868 4769
L12905 4788
L12924 4806
L12943 4844
L12943 4994
" />
<path d="M12737 4638
L12737 4375
L13130 4544
" />
<g transform="rotate(-90 18385.8 4703.74)">
<text x="18385.8" y="4900.59"
textLength="845.426" font-size="524.934" lengthAdjust="spacingAndGlyphs"
text-anchor="middle" opacity="0">R8</text>
</g>
<path d="M18563 4769
L18376 4900
" />
<path d="M18563 4994
L18170 4994
L18170 4844
L18188 4806
L18207 4788
L18245 4769
L18301 4769
L18338 4788
L18357 4806
L18376 4844
L18376 4994
" />
<path d="M18338 4544
L18320 4581
L18301 4600
L18263 4619
L18245 4619
L18207 4600
L18188 4581
L18170 4544
L18170 4469
L18188 4431
L18207 4413
L18245 4394
L18263 4394
L18301 4413
L18320 4431
L18338 4469
L18338 4544
L18357 4581
L18376 4600
L18413 4619
L18488 4619
L18526 4600
L18545 4581
L18563 4544
L18563 4469
L18545 4431
L18526 4413
L18488 4394
L18413 4394
L18376 4413
L18357 4431
L18338 4469
" />
<text x="4212.6" y="4821.85"
textLength="1276.62" font-size="524.934" lengthAdjust="spacingAndGlyphs"
text-anchor="middle" opacity="0">SW1</text>
<path d="M3687 4784
L3743 4803
L3837 4803
L3875 4784
L3893 4765
L3912 4728
L3912 4690
L3893 4653
L3875 4634
L3837 4615
L3762 4596
L3725 4578
L3706 4559
L3687 4521
L3687 4484
L3706 4446
L3725 4428
L3762 4409
L3856 4409
L3912 4428
" />
<path d="M4043 4409
L4137 4803
L4212 4521
L4287 4803
L4381 4409
" />
<path d="M4737 4803
L4512 4803
" />
<path d="M4625 4803
L4625 4409
L4587 4465
L4550 4503
L4512 4521
" />
<text x="10039.4" y="5058.07"
textLength="1276.62" font-size="524.934" lengthAdjust="spacingAndGlyphs"
text-anchor="middle" opacity="0">SW2</text>
<path d="M9514 5020
L9570 5039
L9664 5039
L9701 5020
L9720 5001
L9739 4964
L9739 4926
L9720 4889
L9701 4870
L9664 4851
L9589 4833
L9551 4814
L9533 4795
L9514 4758
L9514 4720
L9533 4683
L9551 4664
L9589 4645
L9683 4645
L9739 4664
" />
<path d="M9870 4645
L9964 5039
L10039 4758
L10114 5039
L10208 4645
" />
<path d="M10339 4683
L10358 4664
L10395 4645
L10489 4645
L10526 4664
L10545 4683
L10564 4720
L10564 4758
L10545 4814
L10320 5039
L10564 5039
" />
<text x="15944.9" y="4821.85"
textLength="1276.62" font-size="524.934" lengthAdjust="spacingAndGlyphs"
text-anchor="middle" opacity="0">SW3</text>
<path d="M15419 4784
L15476 4803
L15569 4803
L15607 4784
L15626 4765
L15644 4728
L15644 4690
L15626 4653
L15607 4634
L15569 4615
L15494 4596
L15457 4578
L15438 4559
L15419 4521
L15419 4484
L15438 4446
L15457 4428
L15494 4409
L15588 4409
L15644 4428
" />
<path d="M15776 4409
L15869 4803
L15944 4521
L16019 4803
L16113 4409
" />
<path d="M16226 4409
L16469 4409
L16338 4559
L16394 4559
L16432 4578
L16451 4596
L16469 4634
L16469 4728
L16451 4765
L16432 4784
L16394 4803
L16282 4803
L16244 4784
L16226 4765
" />
<g >
</g>
</g>
<g style="fill:#000000; fill-opacity:0.0; 
stroke:#000000; stroke-width:59.0551; stroke-opacity:1; 
stroke-linecap:round; stroke-linejoin:round;">
</g>
<g style="fill:#000000; fill-opacity:0.0; 
stroke:#000000; stroke-width:393.701; stroke-opacity:1; 
stroke-linecap:round; stroke-linejoin:round;">
<path d="M19881.9 1475.39 A787.402 787.402 0.0 0 0 19094.5 687.992" />
</g>
<g style="fill:#000000; fill-opacity:0.0; 
stroke:#000000; stroke-width:157.48; stroke-opacity:1; 
stroke-linecap:round; stroke-linejoin:round;">
<circle cx="1377.95" cy="7380.91" r="590.551" /> 
<circle cx="18700.8" cy="1869.09" r="590.551" /> 
</g>
<g style="fill:#000000; fill-opacity:0.0; 
stroke:#000000; stroke-width:393.701; stroke-opacity:1; 
stroke-linecap:round; stroke-linejoin:round;">
<path d="M19094 687
L4133 687
" />
<path d="M15944.9 8562.01 A3937.01 3937.01 0.0 0 0 19881.9 4625" />
<path d="M196.851 7774.61 A787.402 787.402 0.0 0 0 984.253 8562.01" />
<path d="M984 8562
L15944 8562
" />
<path d="M19881 4625
L19881 1475
" />
<path d="M4133.86 687.992 A3937.01 3937.01 0.0 0 0 196.851 4625" />
<path d="M196 4625
L196 7774
" />
<g >
</g>
<g >
</g>
<g >
</g>
<g >
</g>
<g >
</g>
<g >
</g>
<g >
</g>
<g >
</g>
<g >
</g>
<g >
</g>
<g >
</g>
<g >
</g>
<g >
</g>
<g >
</g>
<g >
</g>
</g> 
</svg>
