999
"DXF R12 Output" (www.mydxf.blogspot.com)
 0 
SECTION
 2 
HEADER
 9 
$ACADVER
 1 
AC1009
 9 
$EXTMIN
 10 
 0 
 20 
 0 
 9 
$EXTMAX
 10 
 8.5 
 20 
 11 
 0 
ENDSEC
 0 
SECTION
 2 
ENTITIES
0
LINE
8
Layer 1
10
4.932100
20
70.988200
11
4.545836
21
70.117642
0
LINE
8
Layer 1
10
4.545836
20
70.117642
11
5.044002
21
69.305915
0
LINE
8
Layer 1
10
5.044002
20
69.305915
11
4.096690
21
69.404257
0
LINE
8
Layer 1
10
4.096690
20
69.404257
11
3.478633
21
68.679636
0
LINE
8
Layer 1
10
3.478633
20
68.679636
11
3.279426
21
69.610972
0
LINE
8
Layer 1
10
3.279426
20
69.610972
11
2.399280
21
69.974859
0
LINE
8
Layer 1
10
2.399280
20
69.974859
11
3.223475
21
70.452114
0
LINE
8
Layer 1
10
3.223475
20
70.452114
11
3.297572
21
71.401630
0
LINE
8
Layer 1
10
3.297572
20
71.401630
11
4.006159
21
70.765254
0
LINE
8
Layer 1
10
4.006159
20
70.765254
11
4.932100
21
70.988200
0
LINE
8
Layer 1
10
4.579670
20
66.244300
11
5.157521
21
64.560430
0
LINE
8
Layer 1
10
5.157521
20
64.560430
11
3.734631
21
63.490520
0
LINE
8
Layer 1
10
3.734631
20
63.490520
11
2.277381
21
64.513150
0
LINE
8
Layer 1
10
2.277381
20
64.513150
11
2.799645
21
66.215080
0
LINE
8
Layer 1
10
2.799645
20
66.215080
11
4.579670
21
66.244300
0
LINE
8
Layer 1
10
5.288180
20
61.053800
11
3.705380
21
58.340290
0
LINE
8
Layer 1
10
3.705380
20
58.340290
11
2.146810
21
61.067790
0
LINE
8
Layer 1
10
2.146810
20
61.067790
11
5.288180
21
61.053800
0
LINE
8
Layer 1
10
4.932100
20
70.988200
11
4.545836
21
70.117642
0
LINE
8
Layer 1
10
4.545836
20
70.117642
11
5.044002
21
69.305915
0
LINE
8
Layer 1
10
5.044002
20
69.305915
11
4.096690
21
69.404257
0
LINE
8
Layer 1
10
4.096690
20
69.404257
11
3.478633
21
68.679636
0
LINE
8
Layer 1
10
3.478633
20
68.679636
11
3.279426
21
69.610972
0
LINE
8
Layer 1
10
3.279426
20
69.610972
11
2.399280
21
69.974859
0
LINE
8
Layer 1
10
2.399280
20
69.974859
11
3.223475
21
70.452114
0
LINE
8
Layer 1
10
3.223475
20
70.452114
11
3.297572
21
71.401630
0
LINE
8
Layer 1
10
3.297572
20
71.401630
11
4.006159
21
70.765254
0
LINE
8
Layer 1
10
4.006159
20
70.765254
11
4.932100
21
70.988200
0
LINE
8
Layer 1
10
4.579670
20
66.244300
11
5.157521
21
64.560430
0
LINE
8
Layer 1
10
5.157521
20
64.560430
11
3.734631
21
63.490520
0
LINE
8
Layer 1
10
3.734631
20
63.490520
11
2.277381
21
64.513150
0
LINE
8
Layer 1
10
2.277381
20
64.513150
11
2.799645
21
66.215080
0
LINE
8
Layer 1
10
2.799645
20
66.215080
11
4.579670
21
66.244300
0
LINE
8
Layer 1
10
5.288180
20
61.053800
11
3.705380
21
58.340290
0
LINE
8
Layer 1
10
3.705380
20
58.340290
11
2.146810
21
61.067790
0
LINE
8
Layer 1
10
2.146810
20
61.067790
11
5.288180
21
61.053800
0
LINE
8
Layer 1
10
4.932100
20
70.988200
11
4.545836
21
70.117642
0
LINE
8
Layer 1
10
4.545836
20
70.117642
11
5.044002
21
69.305915
0
LINE
8
Layer 1
10
5.044002
20
69.305915
11
4.096690
21
69.404257
0
LINE
8
Layer 1
10
4.096690
20
69.404257
11
3.478633
21
68.679636
0
LINE
8
Layer 1
10
3.478633
20
68.679636
11
3.279426
21
69.610972
0
LINE
8
Layer 1
10
3.279426
20
69.610972
11
2.399280
21
69.974859
0
LINE
8
Layer 1
10
2.399280
20
69.974859
11
3.223475
21
70.452114
0
LINE
8
Layer 1
10
3.223475
20
70.452114
11
3.297572
21
71.401630
0
LINE
8
Layer 1
10
3.297572
20
71.401630
11
4.006159
21
70.765254
0
LINE
8
Layer 1
10
4.006159
20
70.765254
11
4.932100
21
70.988200
0
LINE
8
Layer 1
10
4.579670
20
66.244300
11
5.157521
21
64.560430
0
LINE
8
Layer 1
10
5.157521
20
64.560430
11
3.734631
21
63.490520
0
LINE
8
Layer 1
10
3.734631
20
63.490520
11
2.277381
21
64.513150
0
LINE
8
Layer 1
10
2.277381
20
64.513150
11
2.799645
21
66.215080
0
LINE
8
Layer 1
10
2.799645
20
66.215080
11
4.579670
21
66.244300
0
LINE
8
Layer 1
10
5.288180
20
61.053800
11
3.705380
21
58.340290
0
LINE
8
Layer 1
10
3.705380
20
58.340290
11
2.146810
21
61.067790
0
LINE
8
Layer 1
10
2.146810
20
61.067790
11
5.288180
21
61.053800
0
LINE
8
Layer 1
10
4.932100
20
70.988200
11
4.545836
21
70.117642
0
LINE
8
Layer 1
10
4.545836
20
70.117642
11
5.044002
21
69.305915
0
LINE
8
Layer 1
10
5.044002
20
69.305915
11
4.096690
21
69.404257
0
LINE
8
Layer 1
10
4.096690
20
69.404257
11
3.478633
21
68.679636
0
LINE
8
Layer 1
10
3.478633
20
68.679636
11
3.279426
21
69.610972
0
LINE
8
Layer 1
10
3.279426
20
69.610972
11
2.399280
21
69.974859
0
LINE
8
Layer 1
10
2.399280
20
69.974859
11
3.223475
21
70.452114
0
LINE
8
Layer 1
10
3.223475
20
70.452114
11
3.297572
21
71.401630
0
LINE
8
Layer 1
10
3.297572
20
71.401630
11
4.006159
21
70.765254
0
LINE
8
Layer 1
10
4.006159
20
70.765254
11
4.932100
21
70.988200
0
LINE
8
Layer 1
10
4.579670
20
66.244300
11
5.157521
21
64.560430
0
LINE
8
Layer 1
10
5.157521
20
64.560430
11
3.734631
21
63.490520
0
LINE
8
Layer 1
10
3.734631
20
63.490520
11
2.277381
21
64.513150
0
LINE
8
Layer 1
10
2.277381
20
64.513150
11
2.799645
21
66.215080
0
LINE
8
Layer 1
10
2.799645
20
66.215080
11
4.579670
21
66.244300
0
LINE
8
Layer 1
10
5.288180
20
61.053800
11
3.705380
21
58.340290
0
LINE
8
Layer 1
10
3.705380
20
58.340290
11
2.146810
21
61.067790
0
LINE
8
Layer 1
10
2.146810
20
61.067790
11
5.288180
21
61.053800
0
LINE
8
Layer 1
10
4.932100
20
70.988200
11
4.545836
21
70.117642
0
LINE
8
Layer 1
10
4.545836
20
70.117642
11
5.044002
21
69.305915
0
LINE
8
Layer 1
10
5.044002
20
69.305915
11
4.096690
21
69.404257
0
LINE
8
Layer 1
10
4.096690
20
69.404257
11
3.478633
21
68.679636
0
LINE
8
Layer 1
10
3.478633
20
68.679636
11
3.279426
21
69.610972
0
LINE
8
Layer 1
10
3.279426
20
69.610972
11
2.399280
21
69.974859
0
LINE
8
Layer 1
10
2.399280
20
69.974859
11
3.223475
21
70.452114
0
LINE
8
Layer 1
10
3.223475
20
70.452114
11
3.297572
21
71.401630
0
LINE
8
Layer 1
10
3.297572
20
71.401630
11
4.006159
21
70.765254
0
LINE
8
Layer 1
10
4.006159
20
70.765254
11
4.932100
21
70.988200
0
LINE
8
Layer 1
10
4.579670
20
66.244300
11
5.157521
21
64.560430
0
LINE
8
Layer 1
10
5.157521
20
64.560430
11
3.734631
21
63.490520
0
LINE
8
Layer 1
10
3.734631
20
63.490520
11
2.277381
21
64.513150
0
LINE
8
Layer 1
10
2.277381
20
64.513150
11
2.799645
21
66.215080
0
LINE
8
Layer 1
10
2.799645
20
66.215080
11
4.579670
21
66.244300
0
LINE
8
Layer 1
10
5.288180
20
61.053800
11
3.705380
21
58.340290
0
LINE
8
Layer 1
10
3.705380
20
58.340290
11
2.146810
21
61.067790
0
LINE
8
Layer 1
10
2.146810
20
61.067790
11
5.288180
21
61.053800
0
LINE
8
Layer 1
10
4.932100
20
70.988200
11
4.545836
21
70.117642
0
LINE
8
Layer 1
10
4.545836
20
70.117642
11
5.044002
21
69.305915
0
LINE
8
Layer 1
10
5.044002
20
69.305915
11
4.096690
21
69.404257
0
LINE
8
Layer 1
10
4.096690
20
69.404257
11
3.478633
21
68.679636
0
LINE
8
Layer 1
10
3.478633
20
68.679636
11
3.279426
21
69.610972
0
LINE
8
Layer 1
10
3.279426
20
69.610972
11
2.399280
21
69.974859
0
LINE
8
Layer 1
10
2.399280
20
69.974859
11
3.223475
21
70.452114
0
LINE
8
Layer 1
10
3.223475
20
70.452114
11
3.297572
21
71.401630
0
LINE
8
Layer 1
10
3.297572
20
71.401630
11
4.006159
21
70.765254
0
LINE
8
Layer 1
10
4.006159
20
70.765254
11
4.932100
21
70.988200
0
LINE
8
Layer 1
10
4.579670
20
66.244300
11
5.157521
21
64.560430
0
LINE
8
Layer 1
10
5.157521
20
64.560430
11
3.734631
21
63.490520
0
LINE
8
Layer 1
10
3.734631
20
63.490520
11
2.277381
21
64.513150
0
LINE
8
Layer 1
10
2.277381
20
64.513150
11
2.799645
21
66.215080
0
LINE
8
Layer 1
10
2.799645
20
66.215080
11
4.579670
21
66.244300
0
LINE
8
Layer 1
10
5.288180
20
61.053800
11
3.705380
21
58.340290
0
LINE
8
Layer 1
10
3.705380
20
58.340290
11
2.146810
21
61.067790
0
LINE
8
Layer 1
10
2.146810
20
61.067790
11
5.288180
21
61.053800
0
LINE
8
Layer 1
10
4.932100
20
70.988200
11
4.545836
21
70.117642
0
LINE
8
Layer 1
10
4.545836
20
70.117642
11
5.044002
21
69.305915
0
LINE
8
Layer 1
10
5.044002
20
69.305915
11
4.096690
21
69.404257
0
LINE
8
Layer 1
10
4.096690
20
69.404257
11
3.478633
21
68.679636
0
LINE
8
Layer 1
10
3.478633
20
68.679636
11
3.279426
21
69.610972
0
LINE
8
Layer 1
10
3.279426
20
69.610972
11
2.399280
21
69.974859
0
LINE
8
Layer 1
10
2.399280
20
69.974859
11
3.223475
21
70.452114
0
LINE
8
Layer 1
10
3.223475
20
70.452114
11
3.297572
21
71.401630
0
LINE
8
Layer 1
10
3.297572
20
71.401630
11
4.006159
21
70.765254
0
LINE
8
Layer 1
10
4.006159
20
70.765254
11
4.932100
21
70.988200
0
LINE
8
Layer 1
10
4.579670
20
66.244300
11
5.157521
21
64.560430
0
LINE
8
Layer 1
10
5.157521
20
64.560430
11
3.734631
21
63.490520
0
LINE
8
Layer 1
10
3.734631
20
63.490520
11
2.277381
21
64.513150
0
LINE
8
Layer 1
10
2.277381
20
64.513150
11
2.799645
21
66.215080
0
LINE
8
Layer 1
10
2.799645
20
66.215080
11
4.579670
21
66.244300
0
LINE
8
Layer 1
10
5.288180
20
61.053800
11
3.705380
21
58.340290
0
LINE
8
Layer 1
10
3.705380
20
58.340290
11
2.146810
21
61.067790
0
LINE
8
Layer 1
10
2.146810
20
61.067790
11
5.288180
21
61.053800
0
LINE
8
Layer 1
10
4.932100
20
70.988200
11
4.545836
21
70.117642
0
LINE
8
Layer 1
10
4.545836
20
70.117642
11
5.044002
21
69.305915
0
LINE
8
Layer 1
10
5.044002
20
69.305915
11
4.096690
21
69.404257
0
LINE
8
Layer 1
10
4.096690
20
69.404257
11
3.478633
21
68.679636
0
LINE
8
Layer 1
10
3.478633
20
68.679636
11
3.279426
21
69.610972
0
LINE
8
Layer 1
10
3.279426
20
69.610972
11
2.399280
21
69.974859
0
LINE
8
Layer 1
10
2.399280
20
69.974859
11
3.223475
21
70.452114
0
LINE
8
Layer 1
10
3.223475
20
70.452114
11
3.297572
21
71.401630
0
LINE
8
Layer 1
10
3.297572
20
71.401630
11
4.006159
21
70.765254
0
LINE
8
Layer 1
10
4.006159
20
70.765254
11
4.932100
21
70.988200
0
LINE
8
Layer 1
10
4.579670
20
66.244300
11
5.157521
21
64.560430
0
LINE
8
Layer 1
10
5.157521
20
64.560430
11
3.734631
21
63.490520
0
LINE
8
Layer 1
10
3.734631
20
63.490520
11
2.277381
21
64.513150
0
LINE
8
Layer 1
10
2.277381
20
64.513150
11
2.799645
21
66.215080
0
LINE
8
Layer 1
10
2.799645
20
66.215080
11
4.579670
21
66.244300
0
LINE
8
Layer 1
10
5.288180
20
61.053800
11
3.705380
21
58.340290
0
LINE
8
Layer 1
10
3.705380
20
58.340290
11
2.146810
21
61.067790
0
LINE
8
Layer 1
10
2.146810
20
61.067790
11
5.288180
21
61.053800
0
LINE
8
Layer 1
10
4.932100
20
70.988200
11
4.545836
21
70.117642
0
LINE
8
Layer 1
10
4.545836
20
70.117642
11
5.044002
21
69.305915
0
LINE
8
Layer 1
10
5.044002
20
69.305915
11
4.096690
21
69.404257
0
LINE
8
Layer 1
10
4.096690
20
69.404257
11
3.478633
21
68.679636
0
LINE
8
Layer 1
10
3.478633
20
68.679636
11
3.279426
21
69.610972
0
LINE
8
Layer 1
10
3.279426
20
69.610972
11
2.399280
21
69.974859
0
LINE
8
Layer 1
10
2.399280
20
69.974859
11
3.223475
21
70.452114
0
LINE
8
Layer 1
10
3.223475
20
70.452114
11
3.297572
21
71.401630
0
LINE
8
Layer 1
10
3.297572
20
71.401630
11
4.006159
21
70.765254
0
LINE
8
Layer 1
10
4.006159
20
70.765254
11
4.932100
21
70.988200
0
LINE
8
Layer 1
10
4.579670
20
66.244300
11
5.157521
21
64.560430
0
LINE
8
Layer 1
10
5.157521
20
64.560430
11
3.734631
21
63.490520
0
LINE
8
Layer 1
10
3.734631
20
63.490520
11
2.277381
21
64.513150
0
LINE
8
Layer 1
10
2.277381
20
64.513150
11
2.799645
21
66.215080
0
LINE
8
Layer 1
10
2.799645
20
66.215080
11
4.579670
21
66.244300
0
LINE
8
Layer 1
10
5.288180
20
61.053800
11
3.705380
21
58.340290
0
LINE
8
Layer 1
10
3.705380
20
58.340290
11
2.146810
21
61.067790
0
LINE
8
Layer 1
10
2.146810
20
61.067790
11
5.288180
21
61.053800
0
LINE
8
Layer 1
10
4.932100
20
70.988200
11
4.545836
21
70.117642
0
LINE
8
Layer 1
10
4.545836
20
70.117642
11
5.044002
21
69.305915
0
LINE
8
Layer 1
10
5.044002
20
69.305915
11
4.096690
21
69.404257
0
LINE
8
Layer 1
10
4.096690
20
69.404257
11
3.478633
21
68.679636
0
LINE
8
Layer 1
10
3.478633
20
68.679636
11
3.279426
21
69.610972
0
LINE
8
Layer 1
10
3.279426
20
69.610972
11
2.399280
21
69.974859
0
LINE
8
Layer 1
10
2.399280
20
69.974859
11
3.223475
21
70.452114
0
LINE
8
Layer 1
10
3.223475
20
70.452114
11
3.297572
21
71.401630
0
LINE
8
Layer 1
10
3.297572
20
71.401630
11
4.006159
21
70.765254
0
LINE
8
Layer 1
10
4.006159
20
70.765254
11
4.932100
21
70.988200
0
LINE
8
Layer 1
10
4.579670
20
66.244300
11
5.157521
21
64.560430
0
LINE
8
Layer 1
10
5.157521
20
64.560430
11
3.734631
21
63.490520
0
LINE
8
Layer 1
10
3.734631
20
63.490520
11
2.277381
21
64.513150
0
LINE
8
Layer 1
10
2.277381
20
64.513150
11
2.799645
21
66.215080
0
LINE
8
Layer 1
10
2.799645
20
66.215080
11
4.579670
21
66.244300
0
LINE
8
Layer 1
10
5.288180
20
61.053800
11
3.705380
21
58.340290
0
LINE
8
Layer 1
10
3.705380
20
58.340290
11
2.146810
21
61.067790
0
LINE
8
Layer 1
10
2.146810
20
61.067790
11
5.288180
21
61.053800
0
LINE
8
Layer 1
10
2.556550
20
54.473000
11
2.556550
21
55.449200
0
LINE
8
Layer 1
10
2.556550
20
55.449200
11
2.478716
21
55.390825
0
LINE
8
Layer 1
10
2.478716
20
55.390825
11
2.303590
21
55.314614
0
LINE
8
Layer 1
10
2.303590
20
55.314614
11
2.303590
21
55.449200
0
LINE
8
Layer 1
10
2.303590
20
55.449200
11
2.545199
21
55.643785
0
LINE
8
Layer 1
10
2.545199
20
55.643785
11
2.707360
21
55.643700
0
LINE
8
Layer 1
10
2.707360
20
55.643700
11
2.707360
21
54.473000
0
LINE
8
Layer 1
10
2.707360
20
54.473000
11
2.556550
21
54.473000
0
LINE
8
Layer 1
10
3.505150
20
54.450300
11
3.193815
21
54.662723
0
LINE
8
Layer 1
10
3.193815
20
54.662723
11
3.132197
21
55.081078
0
LINE
8
Layer 1
10
3.132197
20
55.081078
11
3.193815
21
55.478353
0
LINE
8
Layer 1
10
3.193815
20
55.478353
11
3.505150
21
55.666452
0
LINE
8
Layer 1
10
3.505150
20
55.666452
11
3.816485
21
55.478353
0
LINE
8
Layer 1
10
3.816485
20
55.478353
11
3.876482
21
55.081078
0
LINE
8
Layer 1
10
3.876482
20
55.081078
11
3.816485
21
54.662723
0
LINE
8
Layer 1
10
3.816485
20
54.662723
11
3.505150
21
54.450300
0
LINE
8
Layer 1
10
3.505150
20
54.450300
11
3.505150
21
54.450300
0
LINE
8
Layer 1
10
3.505150
20
54.586509
11
3.683519
21
54.738934
0
LINE
8
Layer 1
10
3.683519
20
54.738934
11
3.719193
21
55.081077
0
LINE
8
Layer 1
10
3.719193
20
55.081077
11
3.683519
21
55.400518
0
LINE
8
Layer 1
10
3.683519
20
55.400518
11
3.505150
21
55.530241
0
LINE
8
Layer 1
10
3.505150
20
55.530241
11
3.325160
21
55.400518
0
LINE
8
Layer 1
10
3.325160
20
55.400518
11
3.289486
21
55.081077
0
LINE
8
Layer 1
10
3.289486
20
55.081077
11
3.325160
21
54.738934
0
LINE
8
Layer 1
10
3.325160
20
54.738934
11
3.505150
21
54.586509
0
LINE
8
Layer 1
10
3.505150
20
54.586509
11
3.505150
21
54.586509
0
LINE
8
Layer 1
10
4.434290
20
54.450300
11
4.122955
21
54.662723
0
LINE
8
Layer 1
10
4.122955
20
54.662723
11
4.061337
21
55.081078
0
LINE
8
Layer 1
10
4.061337
20
55.081078
11
4.122955
21
55.478353
0
LINE
8
Layer 1
10
4.122955
20
55.478353
11
4.434290
21
55.666452
0
LINE
8
Layer 1
10
4.434290
20
55.666452
11
4.745625
21
55.478353
0
LINE
8
Layer 1
10
4.745625
20
55.478353
11
4.805622
21
55.081078
0
LINE
8
Layer 1
10
4.805622
20
55.081078
11
4.745625
21
54.662723
0
LINE
8
Layer 1
10
4.745625
20
54.662723
11
4.434290
21
54.450300
0
LINE
8
Layer 1
10
4.434290
20
54.450300
11
4.434290
21
54.450300
0
LINE
8
Layer 1
10
4.434290
20
54.586509
11
4.612659
21
54.738934
0
LINE
8
Layer 1
10
4.612659
20
54.738934
11
4.648333
21
55.081077
0
LINE
8
Layer 1
10
4.648333
20
55.081077
11
4.612659
21
55.400518
0
LINE
8
Layer 1
10
4.612659
20
55.400518
11
4.434290
21
55.530241
0
LINE
8
Layer 1
10
4.434290
20
55.530241
11
4.254300
21
55.400518
0
LINE
8
Layer 1
10
4.254300
20
55.400518
11
4.218626
21
55.081077
0
LINE
8
Layer 1
10
4.218626
20
55.081077
11
4.254300
21
54.738934
0
LINE
8
Layer 1
10
4.254300
20
54.738934
11
4.434290
21
54.586509
0
LINE
8
Layer 1
10
4.434290
20
54.586509
11
4.434290
21
54.586509
0
LINE
8
Layer 1
10
8.699620
20
54.450300
11
8.466119
21
54.526514
0
LINE
8
Layer 1
10
8.466119
20
54.526514
11
8.373692
21
54.751908
0
LINE
8
Layer 1
10
8.373692
20
54.751908
11
8.529360
21
54.751900
0
LINE
8
Layer 1
10
8.529360
20
54.751900
11
8.702864
21
54.575150
0
LINE
8
Layer 1
10
8.702864
20
54.575150
11
8.916907
21
54.823246
0
LINE
8
Layer 1
10
8.916907
20
54.823246
11
8.936366
21
55.069722
0
LINE
8
Layer 1
10
8.936366
20
55.069722
11
8.845560
21
54.965943
0
LINE
8
Layer 1
10
8.845560
20
54.965943
11
8.686649
21
54.920539
0
LINE
8
Layer 1
10
8.686649
20
54.920539
11
8.399637
21
55.056748
0
LINE
8
Layer 1
10
8.399637
20
55.056748
11
8.341262
21
55.293493
0
LINE
8
Layer 1
10
8.341262
20
55.293493
11
8.410988
21
55.533480
0
LINE
8
Layer 1
10
8.410988
20
55.533480
11
8.704486
21
55.666446
0
LINE
8
Layer 1
10
8.704486
20
55.666446
11
9.033658
21
55.518886
0
LINE
8
Layer 1
10
9.033658
20
55.518886
11
9.095276
21
55.087558
0
LINE
8
Layer 1
10
9.095276
20
55.087558
11
8.996363
21
54.609609
0
LINE
8
Layer 1
10
8.996363
20
54.609609
11
8.699621
21
54.450292
0
LINE
8
Layer 1
10
8.699621
20
54.450292
11
8.699620
21
54.450300
0
LINE
8
Layer 1
10
8.710971
20
55.045405
11
8.865422
21
55.107429
0
LINE
8
Layer 1
10
8.865422
20
55.107429
11
8.916906
21
55.293501
0
LINE
8
Layer 1
10
8.916906
20
55.293501
11
8.865422
21
55.479573
0
LINE
8
Layer 1
10
8.865422
20
55.479573
11
8.710971
21
55.541597
0
LINE
8
Layer 1
10
8.710971
20
55.541597
11
8.557736
21
55.479573
0
LINE
8
Layer 1
10
8.557736
20
55.479573
11
8.506658
21
55.293501
0
LINE
8
Layer 1
10
8.506658
20
55.293501
11
8.557736
21
55.107429
0
LINE
8
Layer 1
10
8.557736
20
55.107429
11
8.710971
21
55.045405
0
LINE
8
Layer 1
10
8.710971
20
55.045405
11
8.710971
21
55.045405
0
LINE
8
Layer 1
10
9.661190
20
54.451900
11
9.379042
21
54.532977
0
LINE
8
Layer 1
10
9.379042
20
54.532977
11
9.276885
21
54.758371
0
LINE
8
Layer 1
10
9.276885
20
54.758371
11
9.447150
21
54.758400
0
LINE
8
Layer 1
10
9.447150
20
54.758400
11
9.500661
21
54.625434
0
LINE
8
Layer 1
10
9.500661
20
54.625434
11
9.643356
21
54.581653
0
LINE
8
Layer 1
10
9.643356
20
54.581653
11
9.760107
21
54.627054
0
LINE
8
Layer 1
10
9.760107
20
54.627054
11
9.826590
21
54.730833
0
LINE
8
Layer 1
10
9.826590
20
54.730833
11
9.847669
21
54.854071
0
LINE
8
Layer 1
10
9.847669
20
54.854071
11
9.799834
21
55.062033
0
LINE
8
Layer 1
10
9.799834
20
55.062033
11
9.656328
21
55.131354
0
LINE
8
Layer 1
10
9.656328
20
55.131354
11
9.440664
21
54.962712
0
LINE
8
Layer 1
10
9.440664
20
54.962712
11
9.294720
21
54.962700
0
LINE
8
Layer 1
10
9.294720
20
54.962700
11
9.315799
21
55.643747
0
LINE
8
Layer 1
10
9.315799
20
55.643747
11
9.936850
21
55.643700
0
LINE
8
Layer 1
10
9.936850
20
55.643700
11
9.936850
21
55.509200
0
LINE
8
Layer 1
10
9.936850
20
55.509200
11
9.474710
21
55.509200
0
LINE
8
Layer 1
10
9.474710
20
55.509200
11
9.455251
21
55.141109
0
LINE
8
Layer 1
10
9.455251
20
55.141109
11
9.562272
21
55.227051
0
LINE
8
Layer 1
10
9.562272
20
55.227051
11
9.691995
21
55.251379
0
LINE
8
Layer 1
10
9.691995
20
55.251379
11
9.873607
21
55.188138
0
LINE
8
Layer 1
10
9.873607
20
55.188138
11
9.975764
21
55.042201
0
LINE
8
Layer 1
10
9.975764
20
55.042201
11
10.011437
21
54.857346
0
LINE
8
Layer 1
10
10.011437
20
54.857346
11
9.980628
21
54.711409
0
LINE
8
Layer 1
10
9.980628
20
54.711409
11
9.906038
21
54.580063
0
LINE
8
Layer 1
10
9.906038
20
54.580063
11
9.797395
21
54.486016
0
LINE
8
Layer 1
10
9.797395
20
54.486016
11
9.661186
21
54.451963
0
LINE
8
Layer 1
10
9.661186
20
54.451963
11
9.661190
21
54.451900
0
LINE
8
Layer 1
10
14.305100
20
54.450300
11
14.071599
21
54.526514
0
LINE
8
Layer 1
10
14.071599
20
54.526514
11
13.979171
21
54.751908
0
LINE
8
Layer 1
10
13.979171
20
54.751908
11
14.134800
21
54.751900
0
LINE
8
Layer 1
10
14.134800
20
54.751900
11
14.308304
21
54.575150
0
LINE
8
Layer 1
10
14.308304
20
54.575150
11
14.522347
21
54.823246
0
LINE
8
Layer 1
10
14.522347
20
54.823246
11
14.541806
21
55.069722
0
LINE
8
Layer 1
10
14.541806
20
55.069722
11
14.451000
21
54.965943
0
LINE
8
Layer 1
10
14.451000
20
54.965943
11
14.292089
21
54.920539
0
LINE
8
Layer 1
10
14.292089
20
54.920539
11
14.005077
21
55.056748
0
LINE
8
Layer 1
10
14.005077
20
55.056748
11
13.946702
21
55.293493
0
LINE
8
Layer 1
10
13.946702
20
55.293493
11
14.016428
21
55.533480
0
LINE
8
Layer 1
10
14.016428
20
55.533480
11
14.309926
21
55.666446
0
LINE
8
Layer 1
10
14.309926
20
55.666446
11
14.639098
21
55.518886
0
LINE
8
Layer 1
10
14.639098
20
55.518886
11
14.700716
21
55.087558
0
LINE
8
Layer 1
10
14.700716
20
55.087558
11
14.601803
21
54.609609
0
LINE
8
Layer 1
10
14.601803
20
54.609609
11
14.305061
21
54.450292
0
LINE
8
Layer 1
10
14.305061
20
54.450292
11
14.305100
21
54.450300
0
LINE
8
Layer 1
10
14.316451
20
55.045405
11
14.470902
21
55.107429
0
LINE
8
Layer 1
10
14.470902
20
55.107429
11
14.522386
21
55.293501
0
LINE
8
Layer 1
10
14.522386
20
55.293501
11
14.470902
21
55.479573
0
LINE
8
Layer 1
10
14.470902
20
55.479573
11
14.316451
21
55.541597
0
LINE
8
Layer 1
10
14.316451
20
55.541597
11
14.163215
21
55.479573
0
LINE
8
Layer 1
10
14.163215
20
55.479573
11
14.112137
21
55.293501
0
LINE
8
Layer 1
10
14.112137
20
55.293501
11
14.163215
21
55.107429
0
LINE
8
Layer 1
10
14.163215
20
55.107429
11
14.316451
21
55.045405
0
LINE
8
Layer 1
10
14.316451
20
55.045405
11
14.316451
21
55.045405
0
LINE
8
Layer 1
10
15.250400
20
54.450300
11
14.939065
21
54.662723
0
LINE
8
Layer 1
10
14.939065
20
54.662723
11
14.877447
21
55.081078
0
LINE
8
Layer 1
10
14.877447
20
55.081078
11
14.939065
21
55.478356
0
LINE
8
Layer 1
10
14.939065
20
55.478356
11
15.250400
21
55.666454
0
LINE
8
Layer 1
10
15.250400
20
55.666454
11
15.561735
21
55.478356
0
LINE
8
Layer 1
10
15.561735
20
55.478356
11
15.621732
21
55.081078
0
LINE
8
Layer 1
10
15.621732
20
55.081078
11
15.561735
21
54.662723
0
LINE
8
Layer 1
10
15.561735
20
54.662723
11
15.250400
21
54.450300
0
LINE
8
Layer 1
10
15.250400
20
54.450300
11
15.250400
21
54.450300
0
LINE
8
Layer 1
10
15.250400
20
54.586509
11
15.428769
21
54.738934
0
LINE
8
Layer 1
10
15.428769
20
54.738934
11
15.464443
21
55.081077
0
LINE
8
Layer 1
10
15.464443
20
55.081077
11
15.428769
21
55.400521
0
LINE
8
Layer 1
10
15.428769
20
55.400521
11
15.250400
21
55.530244
0
LINE
8
Layer 1
10
15.250400
20
55.530244
11
15.070409
21
55.400521
0
LINE
8
Layer 1
10
15.070409
20
55.400521
11
15.034735
21
55.081077
0
LINE
8
Layer 1
10
15.034735
20
55.081077
11
15.070409
21
54.738934
0
LINE
8
Layer 1
10
15.070409
20
54.738934
11
15.250400
21
54.586509
0
LINE
8
Layer 1
10
15.250400
20
54.586509
11
15.250400
21
54.586509
0
LINE
8
Layer 1
10
19.963300
20
54.451900
11
19.707097
21
54.523246
0
LINE
8
Layer 1
10
19.707097
20
54.523246
11
19.577374
21
54.772964
0
LINE
8
Layer 1
10
19.577374
20
54.772964
11
19.799525
21
55.094028
0
LINE
8
Layer 1
10
19.799525
20
55.094028
11
19.613048
21
55.379419
0
LINE
8
Layer 1
10
19.613048
20
55.379419
11
19.726555
21
55.596705
0
LINE
8
Layer 1
10
19.726555
20
55.596705
11
19.963299
21
55.666431
0
LINE
8
Layer 1
10
19.963299
20
55.666431
11
20.198422
21
55.596705
0
LINE
8
Layer 1
10
20.198422
20
55.596705
11
20.311930
21
55.379419
0
LINE
8
Layer 1
10
20.311930
20
55.379419
11
20.120589
21
55.094028
0
LINE
8
Layer 1
10
20.120589
20
55.094028
11
20.345982
21
54.772964
0
LINE
8
Layer 1
10
20.345982
20
54.772964
11
20.217881
21
54.523246
0
LINE
8
Layer 1
10
20.217881
20
54.523246
11
19.963300
21
54.451900
0
LINE
8
Layer 1
10
19.963300
20
54.451900
11
19.963300
21
54.451900
0
LINE
8
Layer 1
10
19.963300
20
54.576758
11
20.132345
21
54.633917
0
LINE
8
Layer 1
10
20.132345
20
54.633917
11
20.188694
21
54.805395
0
LINE
8
Layer 1
10
20.188694
20
54.805395
11
20.128697
21
54.967548
0
LINE
8
Layer 1
10
20.128697
20
54.967548
11
19.963300
21
55.029166
0
LINE
8
Layer 1
10
19.963300
20
55.029166
11
19.793039
21
54.967548
0
LINE
8
Layer 1
10
19.793039
20
54.967548
11
19.731421
21
54.805395
0
LINE
8
Layer 1
10
19.731421
20
54.805395
11
19.789391
21
54.633917
0
LINE
8
Layer 1
10
19.789391
20
54.633917
11
19.963301
21
54.576758
0
LINE
8
Layer 1
10
19.963301
20
54.576758
11
19.963300
21
54.576758
0
LINE
8
Layer 1
10
19.963300
20
55.154026
11
20.105995
21
55.207535
0
LINE
8
Layer 1
10
20.105995
20
55.207535
11
20.164370
21
55.346987
0
LINE
8
Layer 1
10
20.164370
20
55.346987
11
20.110860
21
55.489684
0
LINE
8
Layer 1
10
20.110860
20
55.489684
11
19.963300
21
55.541574
0
LINE
8
Layer 1
10
19.963300
20
55.541574
11
19.814119
21
55.489684
0
LINE
8
Layer 1
10
19.814119
20
55.489684
11
19.762230
21
55.346987
0
LINE
8
Layer 1
10
19.762230
20
55.346987
11
19.820605
21
55.207535
0
LINE
8
Layer 1
10
19.820605
20
55.207535
11
19.963300
21
55.154026
0
LINE
8
Layer 1
10
19.963300
20
55.154026
11
19.963300
21
55.154026
0
LINE
8
Layer 1
10
20.905400
20
54.451900
11
20.623253
21
54.532977
0
LINE
8
Layer 1
10
20.623253
20
54.532977
11
20.521096
21
54.758371
0
LINE
8
Layer 1
10
20.521096
20
54.758371
11
20.691400
21
54.758400
0
LINE
8
Layer 1
10
20.691400
20
54.758400
11
20.744911
21
54.625434
0
LINE
8
Layer 1
10
20.744911
20
54.625434
11
20.887606
21
54.581653
0
LINE
8
Layer 1
10
20.887606
20
54.581653
11
21.004357
21
54.627054
0
LINE
8
Layer 1
10
21.004357
20
54.627054
11
21.070840
21
54.730833
0
LINE
8
Layer 1
10
21.070840
20
54.730833
11
21.091919
21
54.854071
0
LINE
8
Layer 1
10
21.091919
20
54.854071
11
21.044084
21
55.062033
0
LINE
8
Layer 1
10
21.044084
20
55.062033
11
20.900578
21
55.131354
0
LINE
8
Layer 1
10
20.900578
20
55.131354
11
20.684914
21
54.962712
0
LINE
8
Layer 1
10
20.684914
20
54.962712
11
20.539000
21
54.962700
0
LINE
8
Layer 1
10
20.539000
20
54.962700
11
20.560079
21
55.643747
0
LINE
8
Layer 1
10
20.560079
20
55.643747
11
21.181100
21
55.643700
0
LINE
8
Layer 1
10
21.181100
20
55.643700
11
21.181100
21
55.509200
0
LINE
8
Layer 1
10
21.181100
20
55.509200
11
20.718900
21
55.509200
0
LINE
8
Layer 1
10
20.718900
20
55.509200
11
20.699441
21
55.141109
0
LINE
8
Layer 1
10
20.699441
20
55.141109
11
20.806462
21
55.227051
0
LINE
8
Layer 1
10
20.806462
20
55.227051
11
20.936185
21
55.251379
0
LINE
8
Layer 1
10
20.936185
20
55.251379
11
21.117797
21
55.188138
0
LINE
8
Layer 1
10
21.117797
20
55.188138
11
21.219954
21
55.042201
0
LINE
8
Layer 1
10
21.219954
20
55.042201
11
21.255628
21
54.857346
0
LINE
8
Layer 1
10
21.255628
20
54.857346
11
21.224818
21
54.711409
0
LINE
8
Layer 1
10
21.224818
20
54.711409
11
21.150228
21
54.580063
0
LINE
8
Layer 1
10
21.150228
20
54.580063
11
21.041585
21
54.486016
0
LINE
8
Layer 1
10
21.041585
20
54.486016
11
20.905376
21
54.451963
0
LINE
8
Layer 1
10
20.905376
20
54.451963
11
20.905400
21
54.451900
0
LINE
8
Layer 1
10
25.568800
20
54.451900
11
25.312597
21
54.523246
0
LINE
8
Layer 1
10
25.312597
20
54.523246
11
25.182874
21
54.772964
0
LINE
8
Layer 1
10
25.182874
20
54.772964
11
25.405025
21
55.094028
0
LINE
8
Layer 1
10
25.405025
20
55.094028
11
25.218548
21
55.379419
0
LINE
8
Layer 1
10
25.218548
20
55.379419
11
25.332056
21
55.596705
0
LINE
8
Layer 1
10
25.332056
20
55.596705
11
25.568800
21
55.666431
0
LINE
8
Layer 1
10
25.568800
20
55.666431
11
25.803923
21
55.596705
0
LINE
8
Layer 1
10
25.803923
20
55.596705
11
25.917431
21
55.379419
0
LINE
8
Layer 1
10
25.917431
20
55.379419
11
25.726089
21
55.094028
0
LINE
8
Layer 1
10
25.726089
20
55.094028
11
25.951483
21
54.772964
0
LINE
8
Layer 1
10
25.951483
20
54.772964
11
25.823382
21
54.523246
0
LINE
8
Layer 1
10
25.823382
20
54.523246
11
25.568801
21
54.451900
0
LINE
8
Layer 1
10
25.568801
20
54.451900
11
25.568800
21
54.451900
0
LINE
8
Layer 1
10
25.568800
20
54.576758
11
25.737845
21
54.633917
0
LINE
8
Layer 1
10
25.737845
20
54.633917
11
25.794194
21
54.805395
0
LINE
8
Layer 1
10
25.794194
20
54.805395
11
25.734197
21
54.967548
0
LINE
8
Layer 1
10
25.734197
20
54.967548
11
25.568800
21
55.029166
0
LINE
8
Layer 1
10
25.568800
20
55.029166
11
25.398539
21
54.967548
0
LINE
8
Layer 1
10
25.398539
20
54.967548
11
25.336921
21
54.805395
0
LINE
8
Layer 1
10
25.336921
20
54.805395
11
25.394891
21
54.633917
0
LINE
8
Layer 1
10
25.394891
20
54.633917
11
25.568801
21
54.576758
0
LINE
8
Layer 1
10
25.568801
20
54.576758
11
25.568800
21
54.576758
0
LINE
8
Layer 1
10
25.568800
20
55.154026
11
25.711495
21
55.207535
0
LINE
8
Layer 1
10
25.711495
20
55.207535
11
25.769870
21
55.346987
0
LINE
8
Layer 1
10
25.769870
20
55.346987
11
25.716360
21
55.489684
0
LINE
8
Layer 1
10
25.716360
20
55.489684
11
25.568800
21
55.541574
0
LINE
8
Layer 1
10
25.568800
20
55.541574
11
25.419619
21
55.489684
0
LINE
8
Layer 1
10
25.419619
20
55.489684
11
25.367730
21
55.346987
0
LINE
8
Layer 1
10
25.367730
20
55.346987
11
25.426105
21
55.207535
0
LINE
8
Layer 1
10
25.426105
20
55.207535
11
25.568800
21
55.154026
0
LINE
8
Layer 1
10
25.568800
20
55.154026
11
25.568800
21
55.154026
0
LINE
8
Layer 1
10
26.494700
20
54.450300
11
26.183365
21
54.662723
0
LINE
8
Layer 1
10
26.183365
20
54.662723
11
26.121747
21
55.081078
0
LINE
8
Layer 1
10
26.121747
20
55.081078
11
26.183365
21
55.478356
0
LINE
8
Layer 1
10
26.183365
20
55.478356
11
26.494700
21
55.666454
0
LINE
8
Layer 1
10
26.494700
20
55.666454
11
26.806035
21
55.478356
0
LINE
8
Layer 1
10
26.806035
20
55.478356
11
26.866032
21
55.081078
0
LINE
8
Layer 1
10
26.866032
20
55.081078
11
26.806035
21
54.662723
0
LINE
8
Layer 1
10
26.806035
20
54.662723
11
26.494700
21
54.450300
0
LINE
8
Layer 1
10
26.494700
20
54.450300
11
26.494700
21
54.450300
0
LINE
8
Layer 1
10
26.494700
20
54.586509
11
26.673069
21
54.738934
0
LINE
8
Layer 1
10
26.673069
20
54.738934
11
26.708743
21
55.081077
0
LINE
8
Layer 1
10
26.708743
20
55.081077
11
26.673069
21
55.400521
0
LINE
8
Layer 1
10
26.673069
20
55.400521
11
26.494700
21
55.530244
0
LINE
8
Layer 1
10
26.494700
20
55.530244
11
26.314709
21
55.400521
0
LINE
8
Layer 1
10
26.314709
20
55.400521
11
26.279035
21
55.081077
0
LINE
8
Layer 1
10
26.279035
20
55.081077
11
26.314709
21
54.738934
0
LINE
8
Layer 1
10
26.314709
20
54.738934
11
26.494700
21
54.586509
0
LINE
8
Layer 1
10
26.494700
20
54.586509
11
26.494700
21
54.586509
0
LINE
8
Layer 1
10
30.997300
20
54.473000
11
31.410792
21
55.514030
0
LINE
8
Layer 1
10
31.410792
20
55.514030
11
30.835200
21
55.514000
0
LINE
8
Layer 1
10
30.835200
20
55.514000
11
30.835200
21
55.643700
0
LINE
8
Layer 1
10
30.835200
20
55.643700
11
31.556800
21
55.643700
0
LINE
8
Layer 1
10
31.556800
20
55.643700
11
31.556800
21
55.481600
0
LINE
8
Layer 1
10
31.556800
20
55.481600
11
31.175738
21
54.473000
0
LINE
8
Layer 1
10
31.175738
20
54.473000
11
30.997300
21
54.473000
0
LINE
8
Layer 1
10
32.142100
20
54.451900
11
31.859951
21
54.532977
0
LINE
8
Layer 1
10
31.859951
20
54.532977
11
31.757795
21
54.758371
0
LINE
8
Layer 1
10
31.757795
20
54.758371
11
31.928100
21
54.758400
0
LINE
8
Layer 1
10
31.928100
20
54.758400
11
31.981609
21
54.625434
0
LINE
8
Layer 1
10
31.981609
20
54.625434
11
32.124306
21
54.581653
0
LINE
8
Layer 1
10
32.124306
20
54.581653
11
32.241056
21
54.627054
0
LINE
8
Layer 1
10
32.241056
20
54.627054
11
32.307539
21
54.730833
0
LINE
8
Layer 1
10
32.307539
20
54.730833
11
32.328621
21
54.854071
0
LINE
8
Layer 1
10
32.328621
20
54.854071
11
32.280786
21
55.062033
0
LINE
8
Layer 1
10
32.280786
20
55.062033
11
32.137280
21
55.131354
0
LINE
8
Layer 1
10
32.137280
20
55.131354
11
31.921614
21
54.962712
0
LINE
8
Layer 1
10
31.921614
20
54.962712
11
31.775700
21
54.962700
0
LINE
8
Layer 1
10
31.775700
20
54.962700
11
31.796782
21
55.643747
0
LINE
8
Layer 1
10
31.796782
20
55.643747
11
32.417800
21
55.643700
0
LINE
8
Layer 1
10
32.417800
20
55.643700
11
32.417800
21
55.509200
0
LINE
8
Layer 1
10
32.417800
20
55.509200
11
31.955700
21
55.509200
0
LINE
8
Layer 1
10
31.955700
20
55.509200
11
31.936227
21
55.141109
0
LINE
8
Layer 1
10
31.936227
20
55.141109
11
32.043251
21
55.227051
0
LINE
8
Layer 1
10
32.043251
20
55.227051
11
32.172972
21
55.251379
0
LINE
8
Layer 1
10
32.172972
20
55.251379
11
32.354585
21
55.188138
0
LINE
8
Layer 1
10
32.354585
20
55.188138
11
32.456744
21
55.042201
0
LINE
8
Layer 1
10
32.456744
20
55.042201
11
32.492417
21
54.857346
0
LINE
8
Layer 1
10
32.492417
20
54.857346
11
32.461606
21
54.711409
0
LINE
8
Layer 1
10
32.461606
20
54.711409
11
32.387015
21
54.580063
0
LINE
8
Layer 1
10
32.387015
20
54.580063
11
32.278374
21
54.486016
0
LINE
8
Layer 1
10
32.278374
20
54.486016
11
32.142165
21
54.451963
0
LINE
8
Layer 1
10
32.142165
20
54.451963
11
32.142100
21
54.451900
0
LINE
8
Layer 1
10
36.602800
20
54.473000
11
37.016292
21
55.514030
0
LINE
8
Layer 1
10
37.016292
20
55.514030
11
36.440600
21
55.514000
0
LINE
8
Layer 1
10
36.440600
20
55.514000
11
36.440600
21
55.643700
0
LINE
8
Layer 1
10
36.440600
20
55.643700
11
37.162200
21
55.643700
0
LINE
8
Layer 1
10
37.162200
20
55.643700
11
37.162200
21
55.481600
0
LINE
8
Layer 1
10
37.162200
20
55.481600
11
36.781138
21
54.473000
0
LINE
8
Layer 1
10
36.781138
20
54.473000
11
36.602800
21
54.473000
0
LINE
8
Layer 1
10
37.731400
20
54.450300
11
37.420064
21
54.662723
0
LINE
8
Layer 1
10
37.420064
20
54.662723
11
37.358447
21
55.081078
0
LINE
8
Layer 1
10
37.358447
20
55.081078
11
37.420064
21
55.478356
0
LINE
8
Layer 1
10
37.420064
20
55.478356
11
37.731400
21
55.666454
0
LINE
8
Layer 1
10
37.731400
20
55.666454
11
38.042733
21
55.478356
0
LINE
8
Layer 1
10
38.042733
20
55.478356
11
38.102731
21
55.081078
0
LINE
8
Layer 1
10
38.102731
20
55.081078
11
38.042733
21
54.662723
0
LINE
8
Layer 1
10
38.042733
20
54.662723
11
37.731400
21
54.450300
0
LINE
8
Layer 1
10
37.731400
20
54.450300
11
37.731400
21
54.450300
0
LINE
8
Layer 1
10
37.731400
20
54.586509
11
37.909767
21
54.738934
0
LINE
8
Layer 1
10
37.909767
20
54.738934
11
37.945443
21
55.081077
0
LINE
8
Layer 1
10
37.945443
20
55.081077
11
37.909767
21
55.400521
0
LINE
8
Layer 1
10
37.909767
20
55.400521
11
37.731400
21
55.530244
0
LINE
8
Layer 1
10
37.731400
20
55.530244
11
37.551407
21
55.400521
0
LINE
8
Layer 1
10
37.551407
20
55.400521
11
37.515734
21
55.081077
0
LINE
8
Layer 1
10
37.515734
20
55.081077
11
37.551407
21
54.738934
0
LINE
8
Layer 1
10
37.551407
20
54.738934
11
37.731400
21
54.586509
0
LINE
8
Layer 1
10
37.731400
20
54.586509
11
37.731400
21
54.586509
0
LINE
8
Layer 1
10
42.461400
20
54.450300
11
42.132228
21
54.599483
0
LINE
8
Layer 1
10
42.132228
20
54.599483
11
42.070611
21
55.029189
0
LINE
8
Layer 1
10
42.070611
20
55.029189
11
42.169524
21
55.507138
0
LINE
8
Layer 1
10
42.169524
20
55.507138
11
42.466265
21
55.666455
0
LINE
8
Layer 1
10
42.466265
20
55.666455
11
42.699768
21
55.590244
0
LINE
8
Layer 1
10
42.699768
20
55.590244
11
42.792195
21
55.364850
0
LINE
8
Layer 1
10
42.792195
20
55.364850
11
42.636500
21
55.364800
0
LINE
8
Layer 1
10
42.636500
20
55.364800
11
42.462996
21
55.541547
0
LINE
8
Layer 1
10
42.462996
20
55.541547
11
42.248953
21
55.295071
0
LINE
8
Layer 1
10
42.248953
20
55.295071
11
42.229480
21
55.046978
0
LINE
8
Layer 1
10
42.229480
20
55.046978
11
42.320285
21
55.150757
0
LINE
8
Layer 1
10
42.320285
20
55.150757
11
42.479196
21
55.196158
0
LINE
8
Layer 1
10
42.479196
20
55.196158
11
42.766210
21
55.059949
0
LINE
8
Layer 1
10
42.766210
20
55.059949
11
42.824584
21
54.823204
0
LINE
8
Layer 1
10
42.824584
20
54.823204
11
42.754859
21
54.583217
0
LINE
8
Layer 1
10
42.754859
20
54.583217
11
42.461359
21
54.450251
0
LINE
8
Layer 1
10
42.461359
20
54.450251
11
42.461400
21
54.450300
0
LINE
8
Layer 1
10
42.454909
20
54.575158
11
42.608145
21
54.637182
0
LINE
8
Layer 1
10
42.608145
20
54.637182
11
42.659224
21
54.823254
0
LINE
8
Layer 1
10
42.659224
20
54.823254
11
42.608145
21
55.009326
0
LINE
8
Layer 1
10
42.608145
20
55.009326
11
42.454909
21
55.071350
0
LINE
8
Layer 1
10
42.454909
20
55.071350
11
42.300458
21
55.009326
0
LINE
8
Layer 1
10
42.300458
20
55.009326
11
42.248974
21
54.823254
0
LINE
8
Layer 1
10
42.248974
20
54.823254
11
42.300458
21
54.637182
0
LINE
8
Layer 1
10
42.300458
20
54.637182
11
42.454909
21
54.575158
0
LINE
8
Layer 1
10
42.454909
20
54.575158
11
42.454909
21
54.575158
0
LINE
8
Layer 1
10
43.390500
20
54.451900
11
43.108351
21
54.532977
0
LINE
8
Layer 1
10
43.108351
20
54.532977
11
43.006195
21
54.758371
0
LINE
8
Layer 1
10
43.006195
20
54.758371
11
43.176500
21
54.758400
0
LINE
8
Layer 1
10
43.176500
20
54.758400
11
43.230009
21
54.625434
0
LINE
8
Layer 1
10
43.230009
20
54.625434
11
43.372706
21
54.581653
0
LINE
8
Layer 1
10
43.372706
20
54.581653
11
43.489456
21
54.627054
0
LINE
8
Layer 1
10
43.489456
20
54.627054
11
43.555939
21
54.730833
0
LINE
8
Layer 1
10
43.555939
20
54.730833
11
43.577021
21
54.854071
0
LINE
8
Layer 1
10
43.577021
20
54.854071
11
43.529186
21
55.062033
0
LINE
8
Layer 1
10
43.529186
20
55.062033
11
43.385680
21
55.131354
0
LINE
8
Layer 1
10
43.385680
20
55.131354
11
43.170014
21
54.962712
0
LINE
8
Layer 1
10
43.170014
20
54.962712
11
43.024000
21
54.962700
0
LINE
8
Layer 1
10
43.024000
20
54.962700
11
43.045082
21
55.643747
0
LINE
8
Layer 1
10
43.045082
20
55.643747
11
43.666200
21
55.643700
0
LINE
8
Layer 1
10
43.666200
20
55.643700
11
43.666200
21
55.509200
0
LINE
8
Layer 1
10
43.666200
20
55.509200
11
43.204000
21
55.509200
0
LINE
8
Layer 1
10
43.204000
20
55.509200
11
43.184555
21
55.141109
0
LINE
8
Layer 1
10
43.184555
20
55.141109
11
43.291576
21
55.227051
0
LINE
8
Layer 1
10
43.291576
20
55.227051
11
43.421297
21
55.251379
0
LINE
8
Layer 1
10
43.421297
20
55.251379
11
43.602910
21
55.188138
0
LINE
8
Layer 1
10
43.602910
20
55.188138
11
43.705069
21
55.042201
0
LINE
8
Layer 1
10
43.705069
20
55.042201
11
43.740742
21
54.857346
0
LINE
8
Layer 1
10
43.740742
20
54.857346
11
43.709932
21
54.711409
0
LINE
8
Layer 1
10
43.709932
20
54.711409
11
43.635343
21
54.580063
0
LINE
8
Layer 1
10
43.635343
20
54.580063
11
43.526699
21
54.486016
0
LINE
8
Layer 1
10
43.526699
20
54.486016
11
43.390490
21
54.451963
0
LINE
8
Layer 1
10
43.390490
20
54.451963
11
43.390500
21
54.451900
0
LINE
8
Layer 1
10
48.066800
20
54.450300
11
47.737628
21
54.599483
0
LINE
8
Layer 1
10
47.737628
20
54.599483
11
47.676011
21
55.029189
0
LINE
8
Layer 1
10
47.676011
20
55.029189
11
47.774924
21
55.507138
0
LINE
8
Layer 1
10
47.774924
20
55.507138
11
48.071666
21
55.666455
0
LINE
8
Layer 1
10
48.071666
20
55.666455
11
48.305165
21
55.590244
0
LINE
8
Layer 1
10
48.305165
20
55.590244
11
48.397592
21
55.364850
0
LINE
8
Layer 1
10
48.397592
20
55.364850
11
48.241900
21
55.364800
0
LINE
8
Layer 1
10
48.241900
20
55.364800
11
48.068396
21
55.541547
0
LINE
8
Layer 1
10
48.068396
20
55.541547
11
47.854350
21
55.295071
0
LINE
8
Layer 1
10
47.854350
20
55.295071
11
47.834905
21
55.046978
0
LINE
8
Layer 1
10
47.834905
20
55.046978
11
47.925710
21
55.150757
0
LINE
8
Layer 1
10
47.925710
20
55.150757
11
48.084621
21
55.196158
0
LINE
8
Layer 1
10
48.084621
20
55.196158
11
48.371632
21
55.059949
0
LINE
8
Layer 1
10
48.371632
20
55.059949
11
48.430009
21
54.823204
0
LINE
8
Layer 1
10
48.430009
20
54.823204
11
48.360284
21
54.583217
0
LINE
8
Layer 1
10
48.360284
20
54.583217
11
48.066784
21
54.450251
0
LINE
8
Layer 1
10
48.066784
20
54.450251
11
48.066800
21
54.450300
0
LINE
8
Layer 1
10
48.060309
20
54.575158
11
48.213543
21
54.637182
0
LINE
8
Layer 1
10
48.213543
20
54.637182
11
48.264621
21
54.823254
0
LINE
8
Layer 1
10
48.264621
20
54.823254
11
48.213543
21
55.009326
0
LINE
8
Layer 1
10
48.213543
20
55.009326
11
48.060309
21
55.071350
0
LINE
8
Layer 1
10
48.060309
20
55.071350
11
47.905856
21
55.009326
0
LINE
8
Layer 1
10
47.905856
20
55.009326
11
47.854372
21
54.823254
0
LINE
8
Layer 1
10
47.854372
20
54.823254
11
47.905856
21
54.637182
0
LINE
8
Layer 1
10
47.905856
20
54.637182
11
48.060309
21
54.575158
0
LINE
8
Layer 1
10
48.060309
20
54.575158
11
48.060309
21
54.575158
0
LINE
8
Layer 1
10
48.979700
20
54.450300
11
48.668364
21
54.662723
0
LINE
8
Layer 1
10
48.668364
20
54.662723
11
48.606747
21
55.081078
0
LINE
8
Layer 1
10
48.606747
20
55.081078
11
48.668364
21
55.478356
0
LINE
8
Layer 1
10
48.668364
20
55.478356
11
48.979700
21
55.666454
0
LINE
8
Layer 1
10
48.979700
20
55.666454
11
49.291036
21
55.478356
0
LINE
8
Layer 1
10
49.291036
20
55.478356
11
49.351031
21
55.081078
0
LINE
8
Layer 1
10
49.351031
20
55.081078
11
49.291036
21
54.662723
0
LINE
8
Layer 1
10
49.291036
20
54.662723
11
48.979700
21
54.450300
0
LINE
8
Layer 1
10
48.979700
20
54.450300
11
48.979700
21
54.450300
0
LINE
8
Layer 1
10
48.979700
20
54.586509
11
49.158070
21
54.738934
0
LINE
8
Layer 1
10
49.158070
20
54.738934
11
49.193743
21
55.081077
0
LINE
8
Layer 1
10
49.193743
20
55.081077
11
49.158070
21
55.400521
0
LINE
8
Layer 1
10
49.158070
20
55.400521
11
48.979700
21
55.530244
0
LINE
8
Layer 1
10
48.979700
20
55.530244
11
48.799710
21
55.400521
0
LINE
8
Layer 1
10
48.799710
20
55.400521
11
48.764034
21
55.081077
0
LINE
8
Layer 1
10
48.764034
20
55.081077
11
48.799710
21
54.738934
0
LINE
8
Layer 1
10
48.799710
20
54.738934
11
48.979700
21
54.586509
0
LINE
8
Layer 1
10
48.979700
20
54.586509
11
48.979700
21
54.586509
0
LINE
8
Layer 1
10
53.706800
20
54.451900
11
53.424654
21
54.532977
0
LINE
8
Layer 1
10
53.424654
20
54.532977
11
53.322495
21
54.758371
0
LINE
8
Layer 1
10
53.322495
20
54.758371
11
53.492800
21
54.758400
0
LINE
8
Layer 1
10
53.492800
20
54.758400
11
53.546312
21
54.625434
0
LINE
8
Layer 1
10
53.546312
20
54.625434
11
53.689006
21
54.581653
0
LINE
8
Layer 1
10
53.689006
20
54.581653
11
53.805758
21
54.627054
0
LINE
8
Layer 1
10
53.805758
20
54.627054
11
53.872241
21
54.730833
0
LINE
8
Layer 1
10
53.872241
20
54.730833
11
53.893323
21
54.854071
0
LINE
8
Layer 1
10
53.893323
20
54.854071
11
53.845488
21
55.062033
0
LINE
8
Layer 1
10
53.845488
20
55.062033
11
53.701982
21
55.131354
0
LINE
8
Layer 1
10
53.701982
20
55.131354
11
53.486316
21
54.962712
0
LINE
8
Layer 1
10
53.486316
20
54.962712
11
53.340400
21
54.962700
0
LINE
8
Layer 1
10
53.340400
20
54.962700
11
53.361482
21
55.643747
0
LINE
8
Layer 1
10
53.361482
20
55.643747
11
53.982500
21
55.643700
0
LINE
8
Layer 1
10
53.982500
20
55.643700
11
53.982500
21
55.509200
0
LINE
8
Layer 1
10
53.982500
20
55.509200
11
53.520400
21
55.509200
0
LINE
8
Layer 1
10
53.520400
20
55.509200
11
53.500927
21
55.141109
0
LINE
8
Layer 1
10
53.500927
20
55.141109
11
53.607948
21
55.227051
0
LINE
8
Layer 1
10
53.607948
20
55.227051
11
53.737671
21
55.251379
0
LINE
8
Layer 1
10
53.737671
20
55.251379
11
53.919284
21
55.188138
0
LINE
8
Layer 1
10
53.919284
20
55.188138
11
54.021440
21
55.042201
0
LINE
8
Layer 1
10
54.021440
20
55.042201
11
54.057113
21
54.857346
0
LINE
8
Layer 1
10
54.057113
20
54.857346
11
54.026305
21
54.711409
0
LINE
8
Layer 1
10
54.026305
20
54.711409
11
53.951714
21
54.580063
0
LINE
8
Layer 1
10
53.951714
20
54.580063
11
53.843070
21
54.486016
0
LINE
8
Layer 1
10
53.843070
20
54.486016
11
53.706861
21
54.451963
0
LINE
8
Layer 1
10
53.706861
20
54.451963
11
53.706800
21
54.451900
0
LINE
8
Layer 1
10
54.636000
20
54.451900
11
54.353851
21
54.532977
0
LINE
8
Layer 1
10
54.353851
20
54.532977
11
54.251695
21
54.758371
0
LINE
8
Layer 1
10
54.251695
20
54.758371
11
54.421900
21
54.758400
0
LINE
8
Layer 1
10
54.421900
20
54.758400
11
54.475409
21
54.625434
0
LINE
8
Layer 1
10
54.475409
20
54.625434
11
54.618106
21
54.581653
0
LINE
8
Layer 1
10
54.618106
20
54.581653
11
54.734856
21
54.627054
0
LINE
8
Layer 1
10
54.734856
20
54.627054
11
54.801339
21
54.730833
0
LINE
8
Layer 1
10
54.801339
20
54.730833
11
54.822421
21
54.854071
0
LINE
8
Layer 1
10
54.822421
20
54.854071
11
54.774586
21
55.062033
0
LINE
8
Layer 1
10
54.774586
20
55.062033
11
54.631080
21
55.131354
0
LINE
8
Layer 1
10
54.631080
20
55.131354
11
54.415414
21
54.962712
0
LINE
8
Layer 1
10
54.415414
20
54.962712
11
54.269500
21
54.962700
0
LINE
8
Layer 1
10
54.269500
20
54.962700
11
54.290582
21
55.643747
0
LINE
8
Layer 1
10
54.290582
20
55.643747
11
54.911700
21
55.643700
0
LINE
8
Layer 1
10
54.911700
20
55.643700
11
54.911700
21
55.509200
0
LINE
8
Layer 1
10
54.911700
20
55.509200
11
54.449500
21
55.509200
0
LINE
8
Layer 1
10
54.449500
20
55.509200
11
54.430055
21
55.141109
0
LINE
8
Layer 1
10
54.430055
20
55.141109
11
54.537076
21
55.227051
0
LINE
8
Layer 1
10
54.537076
20
55.227051
11
54.666797
21
55.251379
0
LINE
8
Layer 1
10
54.666797
20
55.251379
11
54.848410
21
55.188138
0
LINE
8
Layer 1
10
54.848410
20
55.188138
11
54.950569
21
55.042201
0
LINE
8
Layer 1
10
54.950569
20
55.042201
11
54.986242
21
54.857346
0
LINE
8
Layer 1
10
54.986242
20
54.857346
11
54.955432
21
54.711409
0
LINE
8
Layer 1
10
54.955432
20
54.711409
11
54.880840
21
54.580063
0
LINE
8
Layer 1
10
54.880840
20
54.580063
11
54.772199
21
54.486016
0
LINE
8
Layer 1
10
54.772199
20
54.486016
11
54.635990
21
54.451963
0
LINE
8
Layer 1
10
54.635990
20
54.451963
11
54.636000
21
54.451900
0
LINE
8
Layer 1
10
54.271400
20
61.030800
11
54.420207
21
60.970704
0
LINE
8
Layer 1
10
54.420207
20
60.970704
11
54.344945
21
60.791816
0
LINE
8
Layer 1
10
54.344945
20
60.791816
11
54.151207
21
60.733183
0
LINE
8
Layer 1
10
54.151207
20
60.733183
11
53.886677
21
60.898687
0
LINE
8
Layer 1
10
53.886677
20
60.898687
11
53.824972
21
61.211088
0
LINE
8
Layer 1
10
53.824972
20
61.211088
11
54.078283
21
61.561541
0
LINE
8
Layer 1
10
54.078283
20
61.561541
11
54.511782
21
61.626035
0
LINE
8
Layer 1
10
54.511782
20
61.626035
11
54.948536
21
61.285658
0
LINE
8
Layer 1
10
54.948536
20
61.285658
11
55.015441
21
60.730320
0
LINE
8
Layer 1
10
55.015441
20
60.730320
11
54.854674
21
60.419106
0
LINE
8
Layer 1
10
54.854674
20
60.419106
11
54.588301
21
60.207038
0
LINE
8
Layer 1
10
54.588301
20
60.207038
11
53.910821
21
60.137947
0
LINE
8
Layer 1
10
53.910821
20
60.137947
11
53.547154
21
60.334158
0
LINE
8
Layer 1
10
53.547154
20
60.334158
11
53.300873
21
60.651698
0
LINE
8
Layer 1
10
53.300873
20
60.651698
11
53.189295
21
61.040742
0
LINE
8
Layer 1
10
53.189295
20
61.040742
11
53.229737
21
61.451467
0
LINE
8
Layer 1
10
53.229737
20
61.451467
11
53.461278
21
61.867637
0
LINE
8
Layer 1
10
53.461278
20
61.867637
11
53.830014
21
62.148171
0
LINE
8
Layer 1
10
53.830014
20
62.148171
11
54.279220
21
62.272803
0
LINE
8
Layer 1
10
54.279220
20
62.272803
11
54.752167
21
62.221266
0
LINE
8
Layer 1
10
54.752167
20
62.221266
11
55.220876
21
61.954464
0
LINE
8
Layer 1
10
55.220876
20
61.954464
11
55.535687
21
61.534514
0
LINE
8
Layer 1
10
55.535687
20
61.534514
11
55.673367
21
61.025107
0
LINE
8
Layer 1
10
55.673367
20
61.025107
11
55.610681
21
60.489936
0
LINE
8
Layer 1
10
55.610681
20
60.489936
11
55.308665
21
59.968665
0
LINE
8
Layer 1
10
55.308665
20
59.968665
11
54.837485
21
59.619557
0
LINE
8
Layer 1
10
54.837485
20
59.619557
11
54.267843
21
59.468832
0
LINE
8
Layer 1
10
54.267843
20
59.468832
11
53.670441
21
59.542712
0
LINE
8
Layer 1
10
53.670441
20
59.542712
11
53.096590
21
59.879907
0
LINE
8
Layer 1
10
53.096590
20
59.879907
11
52.713172
21
60.402321
0
LINE
8
Layer 1
10
52.713172
20
60.402321
11
52.549403
21
61.032216
0
LINE
8
Layer 1
10
52.549403
20
61.032216
11
52.634501
21
61.691852
0
LINE
8
Layer 1
10
52.634501
20
61.691852
11
53.006854
21
62.318297
0
LINE
8
Layer 1
10
53.006854
20
62.318297
11
53.580514
21
62.736033
0
LINE
8
Layer 1
10
53.580514
20
62.736033
11
54.270681
21
62.912841
0
LINE
8
Layer 1
10
54.270681
20
62.912841
11
54.992551
21
62.816502
0
LINE
8
Layer 1
10
54.992551
20
62.816502
11
55.671602
21
62.409010
0
LINE
8
Layer 1
10
55.671602
20
62.409010
11
56.123665
21
61.784100
0
LINE
8
Layer 1
10
56.123665
20
61.784100
11
56.313511
21
61.033654
0
LINE
8
Layer 1
10
56.313511
20
61.033654
11
56.205911
21
60.249552
0
LINE
8
Layer 1
10
56.205911
20
60.249552
11
55.763294
21
59.517892
0
LINE
8
Layer 1
10
55.763294
20
59.517892
11
55.087129
21
59.031497
0
LINE
8
Layer 1
10
55.087129
20
59.031497
11
54.276391
21
58.828609
0
LINE
8
Layer 1
10
54.276391
20
58.828609
11
53.430051
21
58.947472
0
LINE
8
Layer 1
10
53.430051
20
58.947472
11
52.645770
21
59.425203
0
LINE
8
Layer 1
10
52.645770
20
59.425203
11
52.125037
21
60.152622
0
LINE
8
Layer 1
10
52.125037
20
60.152622
11
51.909114
21
61.023656
0
LINE
8
Layer 1
10
51.909114
20
61.023656
11
52.039261
21
61.932232
0
LINE
8
Layer 1
10
52.039261
20
61.932232
11
52.552100
21
62.769138
0
LINE
8
Layer 1
10
52.552100
20
62.769138
11
53.330780
21
63.324212
0
LINE
8
Layer 1
10
53.330780
20
63.324212
11
54.262118
21
63.553171
0
LINE
8
Layer 1
10
54.262118
20
63.553171
11
55.232931
21
63.411732
 0 
ENDSEC
 0 
EOF